/* XPM */
static char *acacia_log[] = {
/* columns rows colors chars-per-pixel */
"16 16 231 2 ",
"   c #3F2A45",
".  c #452848",
"X  c #48324A",
"o  c #49354D",
"O  c #4D3D4B",
"+  c #4C3B4F",
"@  c #4A3C4F",
"#  c #4C3C4F",
"$  c #4D3C4F",
"%  c #4F3E4E",
"&  c #503E4F",
"*  c #4A2E54",
"=  c #4B3053",
"-  c #4D3356",
";  c #4A3B50",
":  c #4D3C50",
">  c #4F3E53",
",  c #4E3C54",
"<  c #513D50",
"1  c #503E50",
"2  c #513F50",
"3  c #513E51",
"4  c #513F53",
"5  c #513E5C",
"6  c #523564",
"7  c #5C3660",
"8  c #593F62",
"9  c #5D3F6A",
"0  c #50404F",
"q  c #4E4157",
"w  c #524250",
"e  c #534052",
"r  c #524152",
"t  c #524053",
"y  c #544253",
"u  c #544452",
"i  c #534055",
"p  c #534256",
"a  c #544154",
"s  c #554154",
"d  c #564355",
"f  c #554356",
"g  c #564356",
"h  c #564557",
"j  c #574557",
"k  c #584556",
"l  c #584557",
"z  c #50425A",
"x  c #56405A",
"c  c #55425A",
"v  c #534558",
"b  c #524459",
"n  c #574659",
"m  c #50435C",
"M  c #56475F",
"N  c #584259",
"B  c #594659",
"V  c #594759",
"C  c #5A4659",
"Z  c #59455A",
"A  c #59465A",
"S  c #5A465C",
"D  c #5D475C",
"F  c #5D475D",
"G  c #5C475F",
"H  c #58485B",
"J  c #5A485A",
"K  c #5C485B",
"L  c #5B4A5C",
"P  c #5D4A5C",
"I  c #5E4A5D",
"U  c #5D4C5E",
"Y  c #604C5D",
"T  c #574460",
"R  c #5B4261",
"E  c #594561",
"W  c #594761",
"Q  c #5C4366",
"!  c #5F4465",
"~  c #5E4961",
"^  c #5F4C60",
"/  c #5C4E63",
"(  c #594865",
")  c #56426A",
"_  c #614862",
"`  c #604B63",
"'  c #604D60",
"]  c #614F62",
"[  c #634E63",
"{  c #624D65",
"}  c #66456C",
"|  c #644A68",
" . c #674D69",
".. c #664E6B",
"X. c #684F69",
"o. c #694D6A",
"O. c #6A4F6E",
"+. c #6C4E6F",
"@. c #635165",
"#. c #665167",
"$. c #675369",
"%. c #64536B",
"&. c #67526A",
"*. c #64556B",
"=. c #65576D",
"-. c #66566E",
";. c #68506A",
":. c #69526A",
">. c #6B516F",
",. c #6B566C",
"<. c #694E71",
"1. c #6A4B7D",
"2. c #714F74",
"3. c #734D76",
"4. c #754C79",
"5. c #7C4A7F",
"6. c #6E5270",
"7. c #6E5072",
"8. c #6B5471",
"9. c #6C5672",
"0. c #6C5477",
"q. c #6A5972",
"w. c #6D507A",
"e. c #6E517A",
"r. c #6D5C78",
"t. c #745577",
"y. c #705378",
"u. c #77527A",
"i. c #705578",
"p. c #79567D",
"a. c #705B7A",
"s. c #725E7B",
"d. c #72597F",
"f. c #765D7D",
"g. c #774E8B",
"h. c #775580",
"j. c #705385",
"k. c #775B84",
"l. c #7E5C83",
"z. c #7F5C83",
"x. c #785884",
"c. c #7A5C87",
"v. c #75558A",
"b. c #79578E",
"n. c #7E5C88",
"m. c #7E5E8C",
"M. c #7E5F8E",
"N. c #7F5A90",
"B. c #786182",
"V. c #7B6382",
"C. c #7C6182",
"Z. c #7A6585",
"A. c #7F6789",
"S. c #7D668A",
"D. c #7E608E",
"F. c #7F6B8B",
"G. c #825586",
"H. c #835686",
"J. c #815D84",
"K. c #80558A",
"L. c #80578B",
"P. c #86578A",
"I. c #805E8B",
"U. c #805A8C",
"Y. c #81588E",
"T. c #854B94",
"R. c #845492",
"E. c #845095",
"W. c #855196",
"Q. c #8A5793",
"!. c #865894",
"~. c #855E96",
"^. c #895992",
"/. c #885A96",
"(. c #855F99",
"). c #865F99",
"_. c #84589C",
"`. c #8F5F9E",
"'. c #94539D",
"]. c #935D9D",
"[. c #806486",
"{. c #81668A",
"}. c #81618C",
"|. c #84618C",
" X c #836294",
".X c #836694",
"XX c #886492",
"oX c #8B6595",
"OX c #836C92",
"+X c #856C92",
"@X c #8B629A",
"#X c #88609D",
"$X c #8B659C",
"%X c #926D9A",
"&X c #8E709A",
"*X c #844BA3",
"=X c #8C5AA5",
"-X c #8F54A9",
";X c #955DA5",
":X c #995BA2",
">X c #9356AD",
",X c #915DA9",
"<X c #955FA8",
"1X c #925FAD",
"2X c #965CAE",
"3X c #945FAE",
"4X c #9559B3",
"5X c #AF59B2",
"6X c #A05EBB",
"7X c #9060A1",
"8X c #9B61A3",
"9X c #9368A3",
"0X c #9264AC",
"qX c #9C62A9",
"wX c #936CAB",
"eX c #9E60B7",
"rX c #9A66B4",
"tX c #9D67B5",
"yX c #9F6DB9",
"uX c #A163B9",
"iX c #A761BB",
"pX c #A260BC",
"aX c #A660BD",
"sX c #A170BA",
"dX c #A370BE",
"fX c #AE7FC9",
"gX c #AC8EBF",
"hX c #AD80CA",
"jX c #AF83CB",
"kX c #B183CC",
"lX c #B285CD",
/* pixels */
"1.V rXR. .I ' 2X% &X+X=.M.Z qXn ",
"g.h aXY.k [.B h.0 +X*.F.I.y %XA ",
"7 5.kX6.& XXF C.P 8.w `.3.9XS OX",
", o.~.l L f.$X*.wXh.u 4.o jXr.S.",
"Q.+ @.7X,.d z.s.lXU.c X.9.iXa.-.",
"6Xg < ).] e >.v b.( x.P i.1XB.q.",
",XN 4 V.# oXa O (.M m.J { #XlXC ",
"d.  ! f m  X; 0 ~ q uXY % 8 8XD ",
"= gX<.@ A.hXn ` k.z j./ ..e H.C ",
"- tXy.1 c./.[ +.<XlXb Q E.| :.N.",
"3 |.t $ 3Xn.H T.pXyXR D.4X6 e >X",
"O.g 0.T @XK sX;.:X2.#.) *X9 s -X",
"> p.=X5 }.j lXA G.n t.p fXE i K.",
"X 5X_.G U ^.u.l J.$.l.2 0XW L.* ",
". P.^ &.n eX!.K r Z.lXj : w.'.} ",
"].B 7.W.x ;Xl {.%..XdXj e.v.kX_ "
};
