/* XPM */
static char *birch_log[] = {
/* columns rows colors chars-per-pixel */
"16 16 246 2 ",
"   c #3F4A07",
".  c #3E511E",
"X  c #3F511F",
"o  c #424907",
"O  c #40500D",
"+  c #46500D",
"@  c #4B5708",
"#  c #515608",
"$  c #545A09",
"%  c #53580E",
"&  c #535B0E",
"*  c #475011",
"=  c #475415",
"-  c #455517",
";  c #475517",
":  c #495211",
">  c #495311",
",  c #4E5713",
"<  c #4B5615",
"1  c #495617",
"2  c #495815",
"3  c #465218",
"4  c #435619",
"5  c #43571B",
"6  c #475519",
"7  c #455618",
"8  c #42511D",
"9  c #42521C",
"0  c #41521F",
"q  c #44521C",
"w  c #44531C",
"e  c #43551C",
"r  c #43551D",
"t  c #45551C",
"y  c #46541C",
"u  c #495518",
"i  c #485619",
"p  c #48571E",
"a  c #475819",
"s  c #455A1C",
"d  c #475A1E",
"f  c #465B1E",
"g  c #485819",
"h  c #49591B",
"j  c #4C581A",
"k  c #4B5C1A",
"l  c #4D5D18",
"z  c #4D5C19",
"x  c #4C5C1A",
"c  c #4F5C1A",
"v  c #495A1C",
"b  c #485B1D",
"n  c #4A5A1C",
"m  c #48581F",
"M  c #49581F",
"N  c #4B5E1C",
"B  c #4B5F1E",
"V  c #4B5E1F",
"C  c #4D5C1D",
"Z  c #4E5F1D",
"A  c #4D5E1F",
"S  c #505410",
"D  c #515A13",
"F  c #525B13",
"G  c #525E14",
"H  c #515D16",
"J  c #505F18",
"K  c #5E630A",
"L  c #4B601E",
"P  c #4E601C",
"I  c #4D601F",
"U  c #546316",
"Y  c #546417",
"T  c #596411",
"R  c #526812",
"E  c #596815",
"W  c #50601E",
"Q  c #56671D",
"!  c #586618",
"~  c #59651D",
"^  c #57691B",
"/  c #56691F",
"(  c #576E1E",
")  c #5C6F1B",
"_  c #5E6E1A",
"`  c #5A6D1E",
"'  c #5C6F1F",
"]  c #5D721D",
"[  c #5E721F",
"{  c #62690A",
"}  c #626B0A",
"|  c #666F0C",
" . c #6F780F",
".. c #627210",
"X. c #637315",
"o. c #657317",
"O. c #6B7A12",
"+. c #667419",
"@. c #66751A",
"#. c #62741C",
"$. c #63741E",
"%. c #63791D",
"&. c #697819",
"*. c #707E17",
"=. c #415120",
"-. c #415223",
";. c #425222",
":. c #445420",
">. c #455620",
",. c #475721",
"<. c #475821",
"1. c #495B21",
"2. c #4C5A20",
"3. c #4A5E20",
"4. c #4C5D20",
"5. c #4D5F20",
"6. c #4F5E20",
"7. c #4E5C22",
"8. c #4E5F22",
"9. c #4C5B24",
"0. c #525F22",
"q. c #4F6321",
"w. c #4F6026",
"e. c #546523",
"r. c #546425",
"t. c #566524",
"y. c #556624",
"u. c #566624",
"i. c #566725",
"p. c #566821",
"a. c #586922",
"s. c #586823",
"d. c #5B6C23",
"f. c #586A25",
"g. c #586628",
"h. c #5D7521",
"j. c #627123",
"k. c #617224",
"l. c #627324",
"z. c #607126",
"x. c #617126",
"c. c #607027",
"v. c #627326",
"b. c #637B20",
"n. c #657B20",
"m. c #667A21",
"M. c #677B25",
"N. c #677B26",
"B. c #687E22",
"V. c #6D7C23",
"C. c #6A7B27",
"Z. c #6C7D27",
"A. c #6E7E29",
"S. c #6B811C",
"D. c #6B811E",
"F. c #6D851F",
"G. c #6F871E",
"H. c #768214",
"J. c #768A16",
"K. c #788D17",
"L. c #708218",
"P. c #708318",
"I. c #74831A",
"U. c #77871B",
"Y. c #70861D",
"T. c #778A19",
"R. c #758E1D",
"E. c #748F1D",
"W. c #7A891A",
"Q. c #7C8B1A",
"!. c #788D19",
"~. c #7B8D1F",
"^. c #7C8F1E",
"/. c #77931B",
"(. c #7C931A",
"). c #7F911F",
"_. c #7C951D",
"`. c #7F991E",
"'. c #7F9A1E",
"]. c #7F9D1E",
"[. c #6A8220",
"{. c #6B8523",
"}. c #6E8720",
"|. c #6D8722",
" X c #6F8723",
".X c #6D8025",
"XX c #6D8324",
"oX c #6F8325",
"OX c #6E8724",
"+X c #6F8921",
"@X c #6D8824",
"#X c #6F8328",
"$X c #6F842A",
"%X c #718622",
"&X c #738425",
"*X c #738527",
"=X c #728626",
"-X c #708A23",
";X c #728E23",
":X c #778D22",
">X c #768E22",
",X c #728B26",
"<X c #768927",
"1X c #748A26",
"2X c #748F24",
"3X c #748628",
"4X c #778C28",
"5X c #768D28",
"6X c #769025",
"7X c #7B9622",
"8X c #7D9521",
"9X c #7F9721",
"0X c #789324",
"qX c #799227",
"wX c #7A9624",
"eX c #7F9426",
"rX c #7C9922",
"tX c #7E9B22",
"yX c #7E9C23",
"uX c #7B9924",
"iX c #7D9C25",
"pX c #7D9D26",
"aX c #7F9729",
"sX c #7FA025",
"dX c #80921E",
"fX c #809B1F",
"gX c #829C21",
"hX c #839E20",
"jX c #829E22",
"kX c #859F20",
"lX c #819E26",
"zX c #829F27",
"xX c #899E26",
"cX c #899F28",
"vX c #85A022",
"bX c #87A422",
"nX c #82A224",
"mX c #87A726",
"MX c #89AA23",
"NX c #88AB24",
"BX c #8AAA24",
"VX c #8BAF27",
"CX c #8CAE24",
"ZX c #8BB026",
"AX c #8CB124",
"SX c #8CB126",
/* pixels */
" .m cX-X/ W q.kXq jX8Xr.Q.P xXx ",
"H.p AX-Xf $XC F.X dXi.=XE.t MXk ",
"g k.iXh.r 4XZ oX4.@.;.].$.x.J ).",
"% y.,Xd 2.N.7Xu.+.S.-.b.+ &Xl.%X",
"(.> e.uXg.s +Xc.hXG.G ( j.VXv.a.",
"BXh e >Xw.a #.>.I.T P.3.z.aXM.d.",
"gXl 3 .X: eX6 . _.H R.1.~ 3X6XB ",
"*.o E u D ~.S 8 ^ < CX8.9 } zXL ",
"@ '.X.* A.SXj ! [.& &.9._ 7 Y.V ",
"$ ^.%.w V.:X0.) pXB.y R T.Q p.U.",
"- *X; = lXZ.M }.ZX{.,.K.vXK 4 fX",
"o.i ] z 5X5.0Xf.sX$.t.{ !.} 5 `.",
", D.rX1 #X<.nXA |.c m.0 BXN g J.",
"O NX XU 7.2Xn.n @Xs.XX=.| b W.# ",
"  OX6.` j mX;XI :.C.qX<.2 ' wX..",
"9XC [ /.F yXv 1Xy.<XtX<.O.L.bXY "
};
