/* XPM */
static char *birch_planks[] = {
/* columns rows colors chars-per-pixel */
"16 16 38 1 ",
"  c #5B5B58",
". c #5D5D5A",
"X c #5F5F5C",
"o c #61615E",
"O c #636360",
"+ c #686865",
"@ c #696966",
"# c #6B6B68",
"$ c #6D6D6A",
"% c #70706D",
"& c #72726F",
"* c #747471",
"= c #787875",
"- c #7F7F7C",
"; c #81817E",
": c #82827F",
"> c #858582",
", c #878784",
"< c #8A8A87",
"1 c #8D8D8A",
"2 c #91918E",
"3 c #939390",
"4 c #989895",
"5 c #9C9C99",
"6 c #9D9D9A",
"7 c #9F9F9D",
"8 c #A1A19F",
"9 c #A3A3A1",
"0 c #A7A7A5",
"q c #AAAAA8",
"w c #ABABA9",
"e c #AEAEAC",
"r c #AFAFAD",
"t c #B1B1AF",
"y c #B2B2B0",
"u c #B3B3B1",
"i c #B4B4B2",
"p c #C0C0BE",
/* pixels */
"piuittwqtqq6641$",
"i:---;-;::--;-;o",
"5::;:;:>;;;:>::.",
"<=**&*$$$OOOOOO.",
"puiyee89896753<$",
"i-->;;>:;;;;;;-o",
"7;:;;;-:::>;;;;.",
"3$%$$%$O+OOXXX.X",
"piyyr088985663,$",
"i:---;-;::--;-;o",
"5::;:;:>;;;:>::O",
"5$$$$$&*$&##@o. ",
"puiitqqwqw6752;$",
"t-->;;>:;;;;;;-o",
"7;:;;--:::>;;;;o",
",$$$#+O+%$@ooo. "
};
