/* XPM */
static char *black_glazed_terracotta[] = {
/* columns rows colors chars-per-pixel */
"16 16 19 1 ",
"  c #202225",
". c #222325",
"X c #232425",
"o c #232426",
"O c #242628",
"+ c #252628",
"@ c #26292A",
"# c #292A2C",
"$ c #3C3E40",
"% c #3C3F40",
"& c #3E3F41",
"* c #3F4042",
"= c #3F4142",
"- c #404143",
"; c #414344",
": c #4D4F50",
"> c #525258",
", c #595B5F",
"< c #5B5C5F",
/* pixels */
"*&:X>&%==&&>o:&&",
"=&>.,>::::>,o>&&",
":>,O+XoXo+OXX,>:",
"O O.,,,,,,,, Oo ",
":>,+:&=&*=&: ,>:",
"&*,+:*==***:O,=$",
"==, :&*&*=&:X,=$",
"==,X:=*=***:o,=$",
"&*,X>%&&&&->+,-=",
"*&,@,>::::>,@,-=",
"&&,   o X@O##,%$",
":>,o,,,,,,,<O,>:",
"@X O>=&;&==>X#@X",
":>,O:;=*&&*:.,>:",
"&&>.:*&&&==:X>**",
"=*:o:&&&&&$:X:&&"
};
