/* XPM */
static char *black_terracotta[] = {
/* columns rows colors chars-per-pixel */
"16 16 52 1 ",
"  c #1E1E20",
". c #1E1F21",
"X c #1F1F21",
"o c #1F1F22",
"O c #1F2022",
"+ c #202022",
"@ c #202023",
"# c #202123",
"$ c #212123",
"% c #212223",
"& c #222224",
"* c #222325",
"= c #232425",
"- c #2D2D2F",
"; c #2D2D30",
": c #303031",
"> c #313131",
", c #323333",
"< c #323234",
"1 c #333334",
"2 c #333434",
"3 c #333435",
"4 c #343435",
"5 c #353536",
"6 c #353637",
"7 c #363637",
"8 c #363738",
"9 c #373738",
"0 c #393939",
"q c #3A3A3A",
"w c gray23",
"e c #3C3C3C",
"r c gray25",
"t c #414141",
"y c gray26",
"u c #434343",
"i c #464646",
"p c gray28",
"a c #474848",
"s c #484848",
"d c #494949",
"f c gray29",
"g c #4A4B4B",
"h c #4B4B4B",
"j c #4A4B4C",
"k c #4B4C4C",
"l c #4C4C4C",
"z c gray30",
"x c #4E4E4E",
"c c gray31",
"v c #505050",
"b c #515151",
/* pixels */
"X$ +oo .XX$$#XX+",
"%klxlxh>+lxdlxl-",
"Oxr0yqs4&zr0yqx;",
"$fetwuf9&zetwuv:",
"+ftqtqd7Xztqtql4",
" iqyquv5 zqyquc1",
" lzdfbl1oafzvbl<",
"$-387579&,434749",
"X$ $+o oXX+$*&@$",
"=klxlxx>+pclxcl-",
"+zr0yqz4&hr0yqf;",
"*fetwul7&hetwuv:",
"$ftqtql7Xhtqtqp4",
" iqyquv5 hqyqux1",
" jclzbf1.gphcbf<",
".-362<49 ,434749"
};
