/* XPM */
static char *black_wool[] = {
/* columns rows colors chars-per-pixel */
"16 16 30 1 ",
"  c #1B1716",
". c #1D1817",
"X c #1E1918",
"o c #211A19",
"O c #231C1B",
"+ c #241D1C",
"@ c #25201D",
"# c #26201D",
"$ c #27201F",
"% c #2E2524",
"& c #2E2624",
"* c #302826",
"= c #302A26",
"- c #312B28",
"; c #332B29",
": c #342C2A",
"> c #352D2B",
", c #362E2C",
"< c #372F2D",
"1 c #3A332F",
"2 c #3C3231",
"3 c #3C3331",
"4 c #3D3432",
"5 c #3E3533",
"6 c #3F3634",
"7 c #403735",
"8 c #423835",
"9 c #473D3A",
"0 c #4F4441",
"q c #534946",
/* pixels */
"XXXoXXXXX .X X X",
"X083<32,4<3,37qX",
"X6+++##$$####@8X",
"X3@=;=&%=;=&;#<X",
"X,@&&--&:=&-;#,X",
"X5@=&--==*-&&#4X",
"X,$=:%=:*--%=#3X",
"X1@%*%=-&%:=-#,X",
"X3@-&=;=-&:;%#>X",
"o<#%-**=:=&==#5X",
"o1#:%&&;=-=-=#3X",
"X,+;-&%*:*=-&#,X",
"X<+-%=-=;---&$5X",
"X8@$#@@@OOO+@+6X",
"X983,,,35,4,<7qX",
"XXXXXXXXXXoXXXoX"
};
