/* XPM */
static char *blue_glazed_terracotta[] = {
/* columns rows colors chars-per-pixel */
"16 16 22 1 ",
"  c #A8A8A7",
". c #AAAAA9",
"X c #ABABAA",
"o c #ADACAB",
"O c #AEAEAD",
"+ c #AFAFAE",
"@ c #B1B1B0",
"# c #B5B4B3",
"$ c #DBDAD9",
"% c #DDDCDB",
"& c #DDDDDC",
"* c #DFDFDE",
"= c #E0E0DF",
"- c #E1E1E0",
"; c #E2E2E1",
": c #E3E3E2",
"> c #E4E4E3",
", c #E5E5E4",
"< c #F0EFEF",
"1 c #F3F3F3",
"2 c #F6F6F6",
"3 c gray97",
/* pixels */
":-<X1&*;;--1o<%-",
";-1.21<<<<12o1$%",
"<12O+XoXo+OXX21<",
"O O.22222222 Oo ",
"<12+<-;-:;&< 21<",
"-:2+<:;;:::<O2;=",
";;2 <-:-:;-<X2;=",
";;2X<;:;:::<o2;=",
"-:2X1*---&>1+2>;",
":-2@21<<<<12@2>;",
"--2   o X@O##2*=",
"<12o22222223O21<",
"@X O1;-,-;;1X#@X",
"<12O<,;:--:<.21<",
"--1.<:---;;<X1::",
";:<o<-----=<X<--"
};
