/* XPM */
static char *bone_block_side[] = {
/* columns rows colors chars-per-pixel */
"16 16 197 2 ",
"   c #5E594F",
".  c #655E51",
"X  c #665E51",
"o  c #675F51",
"O  c #6A604F",
"+  c #676052",
"@  c #686151",
"#  c #696152",
"$  c #686153",
"%  c #6A6354",
"&  c #6A6255",
"*  c #6A6355",
"=  c #6B6355",
"-  c #6B6456",
";  c #6B6457",
":  c #6C6558",
">  c #6E675A",
",  c #6E6859",
"<  c #6E685A",
"1  c #746A56",
"2  c #746B5E",
"3  c #746C5E",
"4  c #766E60",
"5  c #766F61",
"6  c #776F61",
"7  c #787061",
"8  c #797162",
"9  c #7A7162",
"0  c #7A7264",
"q  c #7B7364",
"w  c #7D7465",
"e  c #7E7565",
"r  c #817866",
"t  c #817867",
"y  c #827968",
"u  c #837B6A",
"i  c #827B6B",
"p  c #877E6D",
"a  c #877F6E",
"s  c #8C816E",
"d  c #898170",
"f  c #8B8271",
"g  c #8B8272",
"h  c #8B8372",
"j  c #8B8373",
"k  c #8D8474",
"l  c #8D8575",
"z  c #8E8574",
"x  c #8E8575",
"c  c #8F8776",
"v  c #918775",
"b  c #928876",
"n  c #928977",
"m  c #928978",
"M  c #928979",
"N  c #938A79",
"B  c #938A7A",
"V  c #948A79",
"C  c #948B7A",
"Z  c #958C7A",
"A  c #968C7B",
"S  c #958C7C",
"D  c #958D7D",
"F  c #968D7C",
"G  c #968D7D",
"H  c #988E7C",
"J  c #988F7D",
"K  c #988F7E",
"L  c #99907D",
"P  c #9B917F",
"I  c #9C927F",
"U  c #989080",
"Y  c #999080",
"T  c #999181",
"R  c #9A9181",
"E  c #9A9281",
"W  c #9C9280",
"Q  c #9D9381",
"!  c #9D9482",
"~  c #9D9483",
"^  c #9E9585",
"/  c #A09582",
"(  c #A09584",
")  c #A09684",
"_  c #A19785",
"`  c #A19786",
"'  c #A29884",
"]  c #A39985",
"[  c #A39987",
"{  c #A59A86",
"}  c #A69B87",
"|  c #A59A88",
" . c #A59B88",
".. c #A49B8A",
"X. c #A59B8A",
"o. c #A59D8D",
"O. c #A79E8E",
"+. c #A89D88",
"@. c #AA9F8A",
"#. c #A99F8D",
"$. c #A89F8E",
"%. c #A89F8F",
"&. c #ABA08C",
"*. c #AAA08D",
"=. c #A9A08E",
"-. c #AAA08E",
";. c #AAA18E",
":. c #AAA18F",
">. c #ABA18F",
",. c #ADA28D",
"<. c #AEA38D",
"1. c #ADA28E",
"2. c #AFA48F",
"3. c #A8A090",
"4. c #AAA191",
"5. c #AAA292",
"6. c #ADA391",
"7. c #ACA392",
"8. c #ADA392",
"9. c #ADA493",
"0. c #AFA593",
"q. c #ADA494",
"w. c #AEA595",
"e. c #AEA696",
"r. c #B1A693",
"t. c #B2A793",
"y. c #B1A794",
"u. c #B1A795",
"i. c #B2A794",
"p. c #B0A797",
"a. c #B3A893",
"s. c #B2A894",
"d. c #B3A995",
"f. c #B7AB94",
"g. c #B8AC96",
"h. c #B8AD97",
"j. c #B3AA98",
"k. c #B3AA99",
"l. c #B4AA99",
"z. c #B5AB99",
"x. c #B6AB98",
"c. c #B8AE9B",
"v. c #BAAF9B",
"b. c #B8AF9E",
"n. c #BBB19A",
"m. c #BBB29F",
"M. c #BCB29E",
"N. c #BDB39E",
"B. c #BAB1A0",
"V. c #BBB2A1",
"C. c #BCB3A0",
"Z. c #BCB3A2",
"A. c #BDB3A3",
"S. c #BEB5A4",
"D. c #C0B39A",
"F. c #C3B69D",
"G. c #C3B69E",
"H. c #C5B89F",
"J. c #C0B6A6",
"K. c #C5B9A1",
"L. c #C6B9A0",
"P. c #C6BAA2",
"I. c #C7BAA2",
"U. c #C7BBA4",
"Y. c #C6BBA5",
"T. c #C7BBA5",
"R. c #C6BBA6",
"E. c #C8BCA5",
"W. c #C2B9A9",
"Q. c #C2BAA9",
"!. c #C6BDAC",
"~. c #CBC0AB",
"^. c #CBC0AC",
"/. c #CBC1AF",
"(. c #CCC1AD",
"). c #CDC2AE",
"_. c #C9C0B0",
"`. c #CAC1B1",
"'. c #CCC3B3",
"]. c #CFC5B0",
"[. c #CDC4B3",
"{. c #CDC4B4",
"}. c #CEC5B4",
"|. c #CFC6B5",
" X c #CFC6B6",
".X c #D3C8B4",
"XX c #D5CAB6",
"oX c #D1C8B8",
"OX c #D4CBBB",
"+X c #D5CCBC",
"@X c #D5CDBC",
"#X c #D8CFBF",
"$X c #D9D0C0",
"%X c #DAD1C1",
"&X c #DDD5C5",
"*X c #E2DACA",
"=X c #E6DECF",
/* pixels */
"+ 3 o ;.[ #. .W.+X&X8.S.+X&X+Xu.",
"+.+.g.,.f.G.Q.Z.b.'.`.@XOX9.V.{.",
"o + = . y Z 2.I <.L.H..Xc.*X#X[.",
"- p r t w $ , d d { h.n.y.N.@.2.",
"b t.) _ ) 6.| C u 6 < n J ] a . ",
"W +X!.B.:./.m.v.c.M.d.#.z.z.0 : ",
"F.I.F.XXx.).T.K.F.P.U.-.$.(.>.k.",
"v S T e.[.5.Y x m m k g m O @ ; ",
"+ 6 l j h h q $X+XJ.#X%Xl.[.0.H ",
"A 7.}.+X[.|.}.+X~.x.x.(.^.+XoXB ",
"f s / ' / i R } E.^.C.].j...w.V ",
"1 =.+X=X+Xl.7 z G O.k.p.k.q.M 6 ",
"` {.!.B.i.i.s.R.Y.D.e 8 8 9 5 * ",
"E 5.!._.!. X}.4.U 4.oXA.P Q ` X.",
"L D S a.! ~ K C F c N N X # 4 % ",
"> o o.%.3.^ . & 2 1.&.1.*.( r.  "
};
