/* XPM */
static char *brown_glazed_terracotta[] = {
/* columns rows colors chars-per-pixel */
"16 16 14 1 ",
"  c #202122",
". c #202225",
"X c #242628",
"o c #282A2D",
"O c #2B2D2E",
"+ c #2C2D2F",
"@ c #303334",
"# c #333436",
"$ c #3E3F41",
"% c #404143",
"& c #4D4F50",
"* c #525258",
"= c #555658",
"- c #595B5F",
/* pixels */
"$$&X&&&&&&&&X&$$",
"$&OXXXXXXXXXXO&$",
"&oX&=------*&X@&",
"XX&#.#$$$$#.#&XX",
"&X&$$$$$$$$$$&X&",
"&X&$$$$$$$$$$&X&",
"&X&$$$$$$$$$$&X&",
"&X&$$$$$$$$$$&X&",
"&X&$$$$$$$$$$&X&",
"&X&$$$$$$$$$$&X&",
"&X&$$$$$$$$$%&X&",
"&X&$$$$$$$$$%&X&",
"XX&#.#$$$$# #&XX",
"&+X&*------*&X+&",
"$&+XXXXXXXXXX+&$",
"$$&X&&&&&&&&X&$$"
};
