/* XPM */
static char *brown_concrete_powder[] = {
/* columns rows colors chars-per-pixel */
"16 16 225 2 ",
"   c #4D3F2A",
".  c #564533",
"X  c #554535",
"o  c #574636",
"O  c #5B4A3A",
"+  c #5C4A38",
"@  c #5C4A39",
"#  c #5E4D3A",
"$  c #58483C",
"%  c #5E4C3C",
"&  c #61513B",
"*  c #69573B",
"=  c #6C593D",
"-  c #655440",
";  c #695742",
":  c #6D5B42",
">  c #695844",
",  c #6A5844",
"<  c #6B5844",
"1  c #6B5944",
"2  c #6A5B45",
"3  c #6F5B45",
"4  c #6D5B46",
"5  c #6D5B47",
"6  c #6F5B46",
"7  c #6F5D46",
"8  c #6F5D48",
"9  c #6E5C49",
"0  c #705E49",
"q  c #715E4A",
"w  c #73614B",
"e  c #766349",
"r  c #73614D",
"t  c #74624C",
"y  c #75634D",
"u  c #74624F",
"i  c #76644D",
"p  c #79674E",
"a  c #7D694F",
"s  c #796650",
"d  c #7A6651",
"f  c #7B6853",
"g  c #7D6A53",
"h  c #7D6B55",
"j  c #7F6D54",
"k  c #7F6C57",
"l  c #826F50",
"z  c #806C52",
"x  c #816E52",
"c  c #806F55",
"v  c #826F57",
"b  c #837056",
"n  c #837156",
"m  c #837157",
"M  c #847257",
"N  c #827058",
"B  c #827158",
"V  c #837059",
"C  c #81715A",
"Z  c #857158",
"A  c #847259",
"S  c #867358",
"D  c #87735B",
"F  c #87745A",
"G  c #86735C",
"H  c #87745C",
"J  c #87755C",
"K  c #87755E",
"L  c #88735A",
"P  c #897658",
"I  c #88745E",
"U  c #8B785A",
"Y  c #89785D",
"T  c #8B7A5E",
"R  c #8F7B5D",
"E  c #8C7A5F",
"W  c #8A7760",
"Q  c #8B7761",
"!  c #8C7961",
"~  c #8D7A63",
"^  c #8E7B62",
"/  c #8E7B63",
"(  c #8F7C63",
")  c #8D7E63",
"_  c #917F63",
"`  c #927E63",
"'  c #927F63",
"]  c #948060",
"[  c #968362",
"{  c #958461",
"}  c #938264",
"|  c #958466",
" . c #988466",
".. c #998567",
"X. c #998667",
"o. c #9A8666",
"O. c #9A8766",
"+. c #9B8667",
"@. c #9B8867",
"#. c #968368",
"$. c #978468",
"%. c #92806C",
"&. c #988369",
"*. c #9A8768",
"=. c #99856A",
"-. c #98866A",
";. c #99866A",
":. c #9A866A",
">. c #9B876B",
",. c #9B8869",
"<. c #9D8869",
"1. c #9D896B",
"2. c #9E896A",
"3. c #9D8A6B",
"4. c #9E8B6A",
"5. c #9F8D6B",
"6. c #9B886C",
"7. c #9A886E",
"8. c #9C886C",
"9. c #9D896C",
"0. c #9C886D",
"q. c #9C896D",
"w. c #9D896D",
"e. c #9D8A6D",
"r. c #9E8A6C",
"t. c #9E8B6C",
"y. c #9F8A6D",
"u. c #9E8B6D",
"i. c #9F8B6D",
"p. c #9F8A6E",
"a. c #9F8B6E",
"s. c #9F8C6C",
"d. c #9F8C6D",
"f. c #9F8D6D",
"g. c #9D8B72",
"h. c #9E8C70",
"j. c #9F8C70",
"k. c #A08C6D",
"l. c #A18C6D",
"z. c #A18F6D",
"x. c #A08D6E",
"c. c #A08C6F",
"v. c #A08D6F",
"b. c #A18D6F",
"n. c #A28D6E",
"m. c #A18E6F",
"M. c #A28E6E",
"N. c #A38E6F",
"B. c #A28F6F",
"V. c #A1906F",
"C. c #A3906F",
"Z. c #A08C70",
"A. c #A18D70",
"S. c #A08D71",
"D. c #A18D71",
"F. c #A28D70",
"G. c #A28E71",
"H. c #A28F71",
"J. c #A38F71",
"K. c #A18E72",
"L. c #A28E72",
"P. c #A38E72",
"I. c #A28F73",
"U. c #A48F70",
"Y. c #A28F76",
"T. c #A39070",
"R. c #A29073",
"E. c #A49070",
"W. c #A59071",
"Q. c #A49171",
"!. c #A59171",
"~. c #A69270",
"^. c #A59072",
"/. c #A49073",
"(. c #A59073",
"). c #A49173",
"_. c #A59173",
"`. c #A69172",
"'. c #A79273",
"]. c #A69373",
"[. c #A39074",
"{. c #A49074",
"}. c #A59174",
"|. c #A59175",
" X c #A69074",
".X c #A79074",
"XX c #A69274",
"oX c #A79274",
"OX c #A69275",
"+X c #A79375",
"@X c #A79377",
"#X c #A79476",
"$X c #A89374",
"%X c #A89375",
"&X c #A89474",
"*X c #A99475",
"=X c #A99575",
"-X c #A99674",
";X c #AA9775",
":X c #A89476",
">X c #A99576",
",X c #A89477",
"<X c #A99477",
"1X c #A89478",
"2X c #A99579",
"3X c #AB9579",
"4X c #A89679",
"5X c #AA9779",
"6X c #A9957A",
"7X c #A9967A",
"8X c #AA967A",
"9X c #AA977D",
"0X c #AD9879",
"qX c #AE9979",
"wX c #AD987B",
"eX c #AD997B",
"rX c #AE997A",
"tX c #AC987C",
"yX c #AC987D",
"uX c #AE997D",
"iX c #B09A7D",
"pX c #B19B7E",
"aX c #B19D7F",
"sX c #B29D80",
"dX c #B49F82",
/* pixels */
"yXh.% @ 6.q.g.%.0.T.l.W.^.O.4 z ",
"$X-XG h i c f / >.C.+.n.>Xu.t 8.",
"2X3X^ x.b.i.e.I $.8.F.N.<., t ' ",
"V.K ) <XOXG.i.}.=.e E.4.8 y ! a.",
"R.0 V S./.1.#X}.c.M m p ; A _.n.",
"9X4X( F 6.[ } D.b.G o q S ] `.W.",
"Q Z.+XH B s d p.).+ . n U.k.*X;X",
"m.=XQ.&.- ` w.3.A.Z 7 ,.l.a ^.qX",
"].'.{.6 ;.J 0.9.v.K.*.~.C.l _.&X",
"|.x.N | 6.v E 1 x  .1.2.= O 9 d.",
"#.2 U o.L y.(.:.* :.f.U.@.1Xh   ",
"& { ..P : J.%X:Xj r X.5.B.rXuXX ",
"$ u k < t.}.R r.,X.XM.Y T 5Xj. X",
"7.@X[.s.H.W L.pXiX'.tXq.!.0X> P.",
"7XXX,Xc.w g 8XdXsX6XaXwXoXz.# G.",
"C -.L.~ 3 b `.rXXX5 I.eX_ k Y.D "
};
