/* XPM */
static char *chiseled_stone_bricks[] = {
/* columns rows colors chars-per-pixel */
"16 16 70 1 ",
"  c #272727",
". c #282828",
"X c gray16",
"o c #313131",
"O c #343434",
"+ c gray23",
"@ c #3F3F3F",
"# c #474340",
"$ c #464441",
"% c gray28",
"& c #484643",
"* c #494744",
"= c #4B4744",
"- c #4A4845",
"; c #4B4845",
": c #4D4946",
"> c #4C4A47",
", c #4D4A47",
"< c #4E4A47",
"1 c #4F4B49",
"2 c #4E4C49",
"3 c #504C49",
"4 c #504D4B",
"5 c #514D4B",
"6 c #514E4B",
"7 c #524E4B",
"8 c #514E4C",
"9 c #534F4C",
"0 c #544F4E",
"q c #55514E",
"w c #56524F",
"e c #575350",
"r c #595552",
"t c #5E5A56",
"y c #5F5B58",
"u c #606060",
"i c #656565",
"p c #6A6A6A",
"a c #726E6B",
"s c #736F6C",
"d c #77726F",
"f c #747474",
"g c #787370",
"h c #787471",
"j c #7A7572",
"k c #7B7773",
"l c #7C7874",
"z c #7E7A77",
"x c #7F7B78",
"c c #807C79",
"v c #817D7A",
"b c #837E7B",
"n c #84807D",
"m c #86827E",
"M c #878380",
"N c #898683",
"B c #8A8784",
"V c #8D8A87",
"C c #8E8A88",
"Z c #8F8B88",
"A c #8F8C8A",
"S c #8F8D8A",
"D c #908D8A",
"F c #908D8B",
"G c #918E8B",
"H c #928F8C",
"J c #938F8C",
"K c #94918E",
"L c #969390",
"P c #979491",
/* pixels */
"&2;;48,22>*&*-2$",
"NVVFCABSNVVFCABS",
"lsjhslzdlsjhslzd",
"LJJDHDZGLJJDHDZG",
"q393<w37q393<w37",
".X XXX.XXX.X XXX",
"O%o%O%O%O%O%o%O%",
"+f+p+p+p+p+f+p+p",
"@i@u@u@u@u@i@u@u",
"O%O%O%O%O%O%O%O%",
"XX.XXXXXXXXX.XXX",
"3et9ryrr3et9ryrr",
"PKVZLHLKPKVZLHLK",
"jdgsazdkjdgsazdk",
"vbncmMmxvbncmMmx",
"<:::#:==##660051"
};
