/* XPM */
static char *chorus_plant[] = {
/* columns rows colors chars-per-pixel */
"16 16 148 2 ",
"   c #294B47",
".  c #274F4B",
"X  c #294C48",
"o  c #284D49",
"O  c #294D49",
"+  c #284E4A",
"@  c #294E4A",
"#  c #284F4B",
"$  c #294F4B",
"%  c #2C4F4B",
"&  c #27534F",
"*  c #2C504B",
"=  c #28504C",
"-  c #28514D",
";  c #29514D",
":  c #2A504C",
">  c #29524D",
",  c #28534E",
"<  c #29534E",
"1  c #2B534F",
"2  c #2C514D",
"3  c #2D514D",
"4  c #2D524E",
"5  c #2C534F",
"6  c #29554F",
"7  c #2C544F",
"8  c #275551",
"9  c #295550",
"0  c #295650",
"q  c #2A5651",
"w  c #2D5550",
"e  c #2D5551",
"r  c #2E5450",
"t  c #2F5450",
"y  c #2E5550",
"u  c #2F5651",
"i  c #2F5652",
"p  c #2F5752",
"a  c #275953",
"s  c #295953",
"d  c #2D5853",
"f  c #285A55",
"g  c #2D5A55",
"h  c #2E5A55",
"j  c #2F5C57",
"k  c #2F5E58",
"l  c #305551",
"z  c #315651",
"x  c #305652",
"c  c #315854",
"v  c #315954",
"b  c #305B56",
"n  c #315B57",
"m  c #335B57",
"M  c #345A55",
"N  c #345B57",
"B  c #315D57",
"V  c #315D58",
"C  c #335D58",
"Z  c #315E58",
"A  c #355C58",
"S  c #355D59",
"D  c #28625B",
"F  c #2F605B",
"G  c #2F645D",
"H  c #33615B",
"J  c #35605A",
"K  c #36605A",
"L  c #36615B",
"P  c #31635D",
"I  c #35625D",
"U  c #37625D",
"Y  c #36645F",
"T  c #38635D",
"R  c #3A625D",
"E  c #3A635E",
"W  c #3A645E",
"Q  c #2C6E65",
"!  c #356560",
"~  c #386560",
"^  c #386660",
"/  c #3B6662",
"(  c #306961",
")  c #306B63",
"_  c #356962",
"`  c #356B64",
"'  c #3A6862",
"]  c #3A6A64",
"[  c #3E6B65",
"{  c #386C65",
"}  c #396C65",
"|  c #3A6C66",
" . c #3A6E67",
".. c #3D6C65",
"X. c #3D6D66",
"o. c #3E6D67",
"O. c #3C6E67",
"+. c #3E6E69",
"@. c #287067",
"#. c #317269",
"$. c #33766D",
"%. c #35746C",
"&. c #36746C",
"*. c #37776E",
"=. c #3B706A",
"-. c #3E706A",
";. c #3E736C",
":. c #38766E",
">. c #3F766E",
",. c #3B7870",
"<. c #3A7971",
"1. c #3D7870",
"2. c #3E7A72",
"3. c #446D68",
"4. c #41736D",
"5. c #40756D",
"6. c #43756F",
"7. c #417670",
"8. c #407770",
"9. c #417770",
"0. c #437670",
"q. c #437771",
"w. c #437972",
"e. c #407B73",
"r. c #457872",
"t. c #457972",
"y. c #457A73",
"u. c #477B75",
"i. c #417C75",
"p. c #417D75",
"a. c #427F76",
"s. c #427E77",
"d. c #447C74",
"f. c #477C75",
"g. c #457D76",
"h. c #487B74",
"j. c #487F76",
"k. c #467F78",
"l. c #448077",
"z. c #478078",
"x. c #4B837A",
"c. c #4B837C",
"v. c #4D847D",
"b. c #4E847D",
"n. c #4F847D",
"m. c #4E857E",
"M. c #518780",
"N. c #538880",
/* pixels */
"- d | x.z.e.#.1.$.#.#.n.t.i 0 . ",
"X b 7.9.O.k.M.m.M.N.N.5.a - - - ",
"; P ] h.r.g.) ( D D a &     g q ",
"# 3.d.<.:.u p w 1 o o Q Q l.L 2 ",
"# 0 m t.b.,.,.$.1.#.p.v.x.=.Y = ",
"- & & a >.N.W l T M.c.a.` 8.K 5 ",
"x N     F G D f ; > j ' ^ b n n ",
"3 R j.@.Q k F ] 4.q.q.2.&.{ B y ",
"+ Z m t.n.#.#.*.1.%.e.z.x.C $ , ",
"# - ! w.y.N.N.M.T E U H 6 9 O @ ",
"4 /   o.f.w.D f 6 > 8 e v X c S ",
"* [ l.Q :.0.u.0.0.+.K :.@.X.c t ",
"# $ ~ x.v.p.#.1.s.i.,.n.t.m 7 # ",
"  X 9 s } U E T M.N.N.5._ -.V = ",
"4 A     o 8 < @ : h ;.q.6.K S r ",
"% M ..@.Q J I o.o.o.o.:.Q  .L z "
};
