/* XPM */
static char *clay[] = {
/* columns rows colors chars-per-pixel */
"16 16 250 2 ",
"   c #4A2D22",
".  c #433123",
"X  c #443224",
"o  c #463326",
"O  c #4D3023",
"+  c #4F3226",
"@  c #493628",
"#  c #4C382B",
"$  c #593325",
"%  c #5B3426",
"&  c #563528",
"*  c #543F2F",
"=  c #543F30",
"-  c #673722",
";  c #603326",
":  c #6B3B25",
">  c #673A29",
",  c #623B2C",
"<  c #6B3B2B",
"1  c #6D3A28",
"2  c #783C27",
"3  c #5C402F",
"4  c #534030",
"5  c #574031",
"6  c #5E4331",
"7  c #5F4333",
"8  c #5C4636",
"9  c #5D4836",
"0  c #6E4122",
"q  c #6F4024",
"w  c #6F4125",
"e  c #75462C",
"r  c #644031",
"t  c #644534",
"y  c #654636",
"u  c #6D4333",
"i  c #6A4634",
"p  c #634A37",
"a  c #614939",
"s  c #644B38",
"d  c #624D39",
"f  c #644C39",
"g  c #664D3A",
"h  c #674E3A",
"j  c #684C38",
"k  c #684D39",
"l  c #694C3A",
"z  c #694D3A",
"x  c #714231",
"c  c #714633",
"v  c #714435",
"b  c #724434",
"n  c #764535",
"m  c #7F4B31",
"M  c #7F4837",
"N  c #7D4B37",
"B  c #704A39",
"V  c #744A39",
"C  c #754D39",
"Z  c #7F4F3C",
"A  c #6B513B",
"S  c #6A523D",
"D  c #68503E",
"F  c #69503E",
"G  c #6B523E",
"H  c #6E513C",
"J  c #6D533F",
"K  c #6E523E",
"L  c #6F543E",
"P  c #6E543F",
"I  c #70533E",
"U  c #70543F",
"Y  c #7E503A",
"T  c #7A533E",
"R  c #7E523D",
"E  c #6D5440",
"W  c #725341",
"Q  c #715540",
"!  c #705541",
"~  c #705641",
"^  c #715641",
"/  c #735641",
"(  c #755640",
")  c #765741",
"_  c #735744",
"`  c #7D5740",
"'  c #725943",
"]  c #765943",
"[  c #745A43",
"{  c #785B41",
"}  c #795A43",
"|  c #7F5A43",
" . c #785A44",
".. c #7A5946",
"X. c #7F5B44",
"o. c #785C45",
"O. c #795C45",
"+. c #7B5C44",
"@. c #795E45",
"#. c #7C5D46",
"$. c #7D5C47",
"%. c #7C5E47",
"&. c #7B5E48",
"*. c #7E5D48",
"=. c #7E5F48",
"-. c #7F5F48",
";. c #7D6148",
":. c #7D6049",
">. c #7C6149",
",. c #7F624A",
"<. c #804726",
"1. c #804C20",
"2. c #8D4D2E",
"3. c #844532",
"4. c #854D36",
"5. c #834F3A",
"6. c #8F5434",
"7. c #83533B",
"8. c #84533E",
"9. c #87553F",
"0. c #8F553B",
"q. c #89533F",
"w. c #8F543E",
"e. c #8F5A3A",
"r. c #935035",
"t. c #9B6132",
"y. c #815640",
"u. c #815643",
"i. c #885641",
"p. c #8E5740",
"a. c #805E47",
"s. c #825E47",
"d. c #806049",
"f. c #816248",
"g. c #826249",
"h. c #82614B",
"j. c #80624A",
"k. c #81624A",
"l. c #82634B",
"z. c #866149",
"x. c #846248",
"c. c #83644A",
"v. c #86664A",
"b. c #87654C",
"n. c #86674C",
"m. c #87674E",
"M. c #8A634B",
"N. c #8F6149",
"B. c #89654B",
"V. c #88664E",
"C. c #85684E",
"Z. c #8F6B4F",
"A. c #9A6240",
"S. c #9F6742",
"D. c #986144",
"F. c #9B6147",
"G. c #916149",
"H. c #916349",
"J. c #95634A",
"K. c #94674B",
"L. c #8A6A51",
"P. c #8D6B50",
"I. c #8B6C51",
"U. c #8D6C50",
"Y. c #8C6D50",
"T. c #8F6D51",
"R. c #8C6C53",
"E. c #8D6D53",
"W. c #906E52",
"Q. c #936E53",
"!. c #966D51",
"~. c #8F7053",
"^. c #917053",
"/. c #937153",
"(. c #947053",
"). c #977052",
"_. c #967353",
"`. c #917055",
"'. c #907254",
"]. c #937254",
"[. c #927256",
"{. c #947255",
"}. c #957554",
"|. c #957656",
" X c #9F7053",
".X c #997355",
"XX c #987256",
"oX c #9A7357",
"OX c #9C7254",
"+X c #9B7455",
"@X c #967851",
"#X c #9D7956",
"$X c #967558",
"%X c #967758",
"&X c #9A7959",
"*X c #9A785A",
"=X c #9C7E5B",
"-X c #9C7E5C",
";X c #9F7F5F",
":X c #A06843",
">X c #A16948",
",X c #A3684E",
"<X c #AA7049",
"1X c #A16E53",
"2X c #A56F52",
"3X c #A17155",
"4X c #AD7153",
"5X c #AB7657",
"6X c #AF7755",
"7X c #A67C59",
"8X c #A37D5D",
"9X c #A67F5F",
"0X c #B27B59",
"qX c #9C825C",
"wX c #9E805E",
"eX c #9F815F",
"rX c #A08159",
"tX c #A2815B",
"yX c #A4835C",
"uX c #A5835E",
"iX c #A6865F",
"pX c #AC875F",
"aX c #A08060",
"sX c #A28060",
"dX c #A28361",
"fX c #A68160",
"gX c #A48362",
"hX c #A58460",
"jX c #A48461",
"kX c #A68561",
"lX c #A68661",
"zX c #A68462",
"xX c #A98160",
"cX c #A88763",
"vX c #A68965",
"bX c #A88B63",
"nX c #AC8C60",
"mX c #AD8D63",
"MX c #A98864",
"NX c #AB8965",
"BX c #AD8D64",
"VX c #AF8C67",
"CX c #AC8C68",
"ZX c #B48762",
"AX c #BB926C",
"SX c #B7986F",
"DX c #B79A71",
"FX c #B99C73",
"GX c #C0A277",
"HX c #C3A67A",
/* pixels */
"[.C.~.y._.*.c u E.S eXMX.Xg.>.F ",
"* <.4.C R m.:.}.e. X^.6 x.].o.OX",
"bXq p.0 w M.B.s t A.6XS.H./ L l ",
"D.aXo   nXT.+.a wXDXAX| O.FX8XrX",
"n.! 8 g #.Z.f i.7X3X2X0Xs.z b. .",
"G Y.h ;.3.0.NXCXz.G.1.t.6.x SXL.",
"hXA &.9 kXK.9Xa.=Xw.Q.m ,.: gXoX",
"d h.BXZ.&X= O j.7 & tXZX) 1 r.=.",
"E V.p 7.H iXY < + r > ..XXb.[ v ",
"y T.N - 5 mXJ.$ pXfX4XB jX1XR.u.",
"dX:Xq.+X).K % -.@.U d.} k.`.Z X.",
">X*XzXI T j f.` HXJ '.-XV _ b GX",
"v.U.W.Q 9.,X5.N.F.c.4 # %.sX8.|.",
"(. .. qX<X5X2.cXlXn $.#X;X2 ] i ",
"@ /.( e M P.{.; D W @Xl.I.yXcXuX",
"~ X 3 , P { '.!.k ^ %XvX' $XVXxX"
};
