/* XPM */
static char *cracked_stone_bricks[] = {
/* columns rows colors chars-per-pixel */
"16 16 48 1 ",
"  c #353432",
". c #363532",
"X c #373633",
"o c #393835",
"O c #3A3936",
"+ c #3B3A37",
"@ c #3C3B38",
"# c #43423F",
"$ c #444340",
"% c #454441",
"& c #464542",
"* c #474643",
"= c #484744",
"- c #494845",
"; c #4B4A47",
": c #4C4B48",
"> c #4D4C49",
", c #4E4D4A",
"< c #51504D",
"1 c #555451",
"2 c #565552",
"3 c #575653",
"4 c #585754",
"5 c #595855",
"6 c #5A5956",
"7 c #5C5B58",
"8 c #5D5C59",
"9 c #5E5D5A",
"0 c #5F5E5B",
"q c #6E6D6A",
"w c #6F6E6B",
"e c #706F6C",
"r c #71706D",
"t c #72716E",
"y c #73726F",
"u c #757471",
"i c #767572",
"p c #777673",
"a c #787774",
"s c #7A7976",
"d c #7B7A77",
"f c #7C7B78",
"g c #7D7C79",
"h c #7E7D7A",
"j c #7F7E7B",
"k c #807F7C",
"l c #81807D",
"z c #82817E",
/* pixels */
"+<fe#o7hu&.<jy*.",
"+2sy=o3ft;o2jw%o",
"o5gy*o2sp;o3fy*X",
"o5ku*X5dt; 2fy#X",
"+2hw%O2da&X7ht&X",
"+4kt-o3hy=X5fy=X",
"o6ky*X8ki:X3hr%X",
"+4hq*o3ji:X7ky%o",
"o8sy=o8lr;+3jr$o",
"o5gy>o6jy%X5jr-.",
"o2jw-o9ju-+7hu*X",
"+1dy;o5jt*o0kt%X",
"@2jy=o1kp:X4kp*.",
"o4jq%X7ji*X6le-X",
"+3jq*.2lu>o4ze;.",
"+7sr%X2gs,O8hy&X"
};
