/* XPM */
static char *cyan_wool[] = {
/* columns rows colors chars-per-pixel */
"16 16 58 1 ",
"  c #3C826B",
". c #3C836B",
"X c #3D856B",
"o c #3E876C",
"O c #3F876F",
"+ c #3F886E",
"@ c #3F886F",
"# c #428A6F",
"$ c #418870",
"% c #428970",
"& c #428A70",
"* c #438C72",
"= c #448C72",
"- c #458D73",
"; c #438A74",
": c #4B947D",
"> c #4C947C",
", c #4D977D",
"< c #4E977E",
"1 c #4F967F",
"2 c #519A81",
"3 c #529B83",
"4 c #529B85",
"5 c #539D86",
"6 c #569D84",
"7 c #5BA88F",
"8 c #5CA991",
"9 c #5EAA93",
"0 c #5FAB94",
"q c #60AC95",
"w c #61AD96",
"e c #62AE97",
"r c #63AF98",
"t c #65B099",
"y c #66B19A",
"u c #67B29B",
"i c #67B39C",
"p c #72B7A2",
"a c #72B9A5",
"s c #75B9A6",
"d c #75B9A7",
"f c #78BCA8",
"g c #7BBEAA",
"h c #7BBFAA",
"j c #7ABFAC",
"k c #7BBFAC",
"l c #7AC0AC",
"z c #7EC0AF",
"x c #7DC2AE",
"c c #7FC2B0",
"v c #7FC2B2",
"b c #81C4B3",
"n c #83C5B3",
"m c #81C5B6",
"M c #80C7B6",
"N c #8CCCBE",
"B c #9DD4C6",
"V c #ABD9CD",
/* pixels */
"&+$*$$+$o Xo.o.O",
"%BMjflhdvfksjmV$",
"%b:1133564343<M+",
"$j<qye08eyq9y3g@",
"#s,00tt0uq0ry3s#",
"$x<e9rtqqwr003c$",
"%s5qi8eiwtt8q2j$",
"$z<7w7qr08uer3s$",
"&l<r9eyqt9uy83p&",
"-f27rwweiq0qq4x+",
"=z2u700yqtete3j$",
"$s1yt98wiwet03d%",
"&g1t7ereyttr06x$",
"#M,52<,,>>>1<1b$",
"$NMjssalxdcsgnV&",
"$$#$$#%%$$*$&$*;"
};
