/* XPM */
static char *cyan_terracotta[] = {
/* columns rows colors chars-per-pixel */
"16 16 43 1 ",
"  c #B5CFC6",
". c #B6CFC7",
"X c #B7D0C7",
"o c #B8D1C8",
"O c #B9D2C9",
"+ c #BAD3CA",
"@ c #BBD4CB",
"# c #BCD4CC",
"$ c #BDD5CD",
"% c #BED6CE",
"& c #BFD7CF",
"* c #C0D8CF",
"= c #C1D8D0",
"- c #C2D9D1",
"; c #C3DAD2",
": c #C4DBD3",
"> c #C5DBD4",
", c #C6DCD4",
"< c #C7DDD5",
"1 c #C8DED7",
"2 c #C9DFD8",
"3 c #CAE0D8",
"4 c #D0E4DE",
"5 c #D1E5DE",
"6 c #D2E5DF",
"7 c #D4E7E1",
"8 c #D5E8E2",
"9 c #D6E8E2",
"0 c #D7E9E3",
"q c #D8EAE4",
"w c #D9EBE5",
"e c #DAEBE5",
"r c #E1EFEB",
"t c #E2F0EB",
"y c #E2F0EC",
"u c #E4F1ED",
"i c #E5F1ED",
"p c #E6F1ED",
"a c #E6F1EE",
"s c #E6F2EE",
"d c #E7F2EE",
"f c #E8F2EF",
"g c #E9F2EF",
/* pixels */
"fiq>fiq1fi0=giq2",
"at5#sr5@sr6*pr5-",
"qw7Oqw8-qq8=0w9-",
"#oO%2=%O:,*o2&+o",
"fi0@dsq;gd81giq>",
"at6@du7*syq$ir5@",
"qq7+894*e95oqq8o",
"=+% ,@#@3>+O52%$",
"fiq@fi01giq2fiq-",
"dr5+st5%pt6%pt6$",
"0q9+qq8Oqq7=qq9+",
"<,&#>=:@:#&O3>>+",
"giq1fiq<fiq=fiq#",
"dr6$ir51pr6+st6O",
"qw8Xqq7#qw7+qw8%",
": Oo*OOo##.$:.#%"
};
