/* XPM */
static char *cyan_glazed_terracotta[] = {
/* columns rows colors chars-per-pixel */
"16 16 36 1 ",
"  c #8A8987",
". c #9B9A98",
"X c #9E9D9B",
"o c #A8A8A7",
"O c #ABAAA8",
"+ c #AAAAA9",
"@ c #ABABAA",
"# c #ADACAB",
"$ c #AEADAC",
"% c #AEAEAD",
"& c #AFAFAE",
"* c #B0B0AF",
"= c #B1B1B0",
"- c #B3B2B0",
"; c #B2B2B2",
": c #B4B3B2",
"> c #D4D3D2",
", c #DBDAD9",
"< c #DDDCDB",
"1 c #DDDDDC",
"2 c #DFDFDE",
"3 c #E0E0DF",
"4 c #E1E1E0",
"5 c #E2E2E1",
"6 c #E3E3E2",
"7 c #E4E4E3",
"8 c #E5E5E4",
"9 c #E6E6E5",
"0 c #E8E8E7",
"q c #F0EFEF",
"w c #F0F0EF",
"e c #F2F2F1",
"r c #F3F3F3",
"t c #F4F4F4",
"y c gray96",
"u c #F6F6F6",
/* pixels */
"<4q@q222222q#q85",
"44r+r4,2215r#r73",
"qru%ureeerruourq",
"=@oo&+;+@:&o*+=@",
"qqqqqruXutwwqqqq",
"3411 -u$u- 64443",
"344456u$u9555544",
"4445 -u$u- 44133",
"532460u$u97533<3",
"4414 -u.u- 5<<<3",
"544532uOu><<<312",
"qqqqqruOurqqqqqq",
"=@o%oo#o@=%oo+=@",
"qru%uyreeeru*urq",
"34r+r5122,4r@r44",
"55q#q222222q@q4<"
};
