/* XPM */
static char *dark_prismarine[] = {
/* columns rows colors chars-per-pixel */
"16 16 65 1 ",
"  c gray11",
". c #1D1D1D",
"X c #1F2326",
"o c #232323",
"O c #212325",
"+ c #222426",
"@ c #222427",
"# c #232527",
"$ c #252525",
"% c #222528",
"& c #232629",
"* c #23272A",
"= c #242628",
"- c #252729",
"; c #24282A",
": c #24282B",
"> c #25282B",
", c #25292B",
"< c #26282A",
"1 c #26292B",
"2 c #25292C",
"3 c #26292C",
"4 c #272B2C",
"5 c #272A2D",
"6 c #272B2E",
"7 c #2A2A2A",
"8 c #282B2E",
"9 c #292C2F",
"0 c #2D2D2D",
"q c #2B2E32",
"w c #2C2F33",
"e c gray20",
"r c #36393C",
"t c #363A3D",
"y c #383C3F",
"u c #393C3F",
"i c #383D3F",
"p c #3A3D41",
"a c #393E41",
"s c #3A3E42",
"d c #3C3F43",
"f c #3C4043",
"g c #3D4144",
"h c #3E4345",
"j c #3F4346",
"k c #3F4347",
"l c #414447",
"z c #444444",
"x c #424548",
"c c #434548",
"v c #44474A",
"b c #45484A",
"n c #46484B",
"m c #46494B",
"M c #45484C",
"N c #46484C",
"B c #46494C",
"V c #47494C",
"C c #47494D",
"Z c #474A4E",
"A c #484848",
"S c #4B4B4B",
"D c #484A4E",
"F c #494C4F",
"G c gray32",
/* pixels */
"+-%%<1&--=@+@#-O",
"xvvVbmcnxvvVbmcn",
"stautsdystautsdy",
"FZZNCNMBFZZNCNMB",
"5:3:*6:25:3:*6:2",
".. ......... ...",
"$eoe$e$e$e$eoe$e",
"7G7S7S7S7S7G7S7S",
"0A0z0z0z0z0A0z0z",
"$e$e$e$e$e$e$e$e",
"................",
":8q39w99:8q39w99",
"FDvMFCFDFDvMFCFD",
"ayitrdypayitrdyp",
"ghjgklkfghjgklkf",
"*&&&X&%%XX>>44,;"
};
