/* XPM */
static char *dark_oak_planks[] = {
/* columns rows colors chars-per-pixel */
"16 16 58 1 ",
"  c #272829",
". c #29292B",
"X c #292A2B",
"o c #2A2A2C",
"O c #2A2B2C",
"+ c #2B2C2D",
"@ c #2C2C2E",
"# c #2C2D2E",
"$ c #2D2D2F",
"% c #2D2E2F",
"& c #2E2E30",
"* c #2E2F30",
"= c #2F3031",
"- c #303032",
"; c #303132",
": c #313233",
"> c #323334",
", c #323235",
"< c #343536",
"1 c #353537",
"2 c #363738",
"3 c #37373A",
"4 c #373839",
"5 c #37383A",
"6 c #38383A",
"7 c #38393B",
"8 c #393A3B",
"9 c #393A3C",
"0 c #3A3A3C",
"q c #3A3B3C",
"w c #414243",
"e c #424243",
"r c #464648",
"t c #4F5052",
"y c #515153",
"u c #525254",
"i c #535355",
"p c #535356",
"a c #535456",
"s c #545457",
"d c #555557",
"f c #58585B",
"g c #59595C",
"h c #595A5C",
"j c #5A5A5D",
"k c #5B5B5D",
"l c #616264",
"z c #626264",
"x c #636366",
"c c #636466",
"v c #676769",
"b c #69696C",
"n c #6C6C6F",
"m c #6F6F72",
"M c #747477",
"N c #79797C",
"B c #7C7C80",
"V c #89898C",
/* pixels */
"+VncgayysjgayuM5",
"@N--*&%@--*%@Xb1",
"+x;9q57159q57 z<",
"*h;5557255557.f8",
";s;7556557558$d%",
"B;855785855784 m",
"v&505835505834%k",
"l=454554452442#t",
"t#:442541442544l",
"k%:38505438505&v",
"m >87558467551#B",
"&w$8557546557;s*",
">e.7555546555#h8",
"%r 75q95275q9#x4",
"@iX@%*--+:,*-ON5",
"oxuyagpsuyagcnV4"
};
