/* XPM */
static char *dark_oak_log[] = {
/* columns rows colors chars-per-pixel */
"16 16 241 2 ",
"   c #082D3C",
".  c #0B2E3F",
"X  c #182E3C",
"o  c #0D363D",
"O  c #073C38",
"+  c #083E3D",
"@  c #17333C",
"#  c #17303F",
"$  c #18303D",
"%  c #18363D",
"&  c #1C373E",
"*  c #17383F",
"=  c #17393F",
"-  c #13403B",
";  c #14433E",
":  c #13453E",
">  c #0C5B3F",
",  c #15513E",
"<  c #15533F",
"1  c #142D43",
"2  c #192B40",
"3  c #192F43",
"4  c #073F40",
"5  c #0E3D40",
"6  c #133340",
"7  c #103640",
"8  c #163441",
"9  c #153743",
"0  c #153045",
"q  c #183141",
"w  c #193342",
"e  c #1A3342",
"r  c #1B3740",
"t  c #193344",
"y  c #1B3146",
"u  c #1B3246",
"i  c #1F3346",
"p  c #1A3547",
"a  c #1D3544",
"s  c #1C3447",
"d  c #1E3746",
"f  c #113B42",
"g  c #133B42",
"h  c #163B41",
"j  c #133F40",
"k  c #173F40",
"l  c #173C42",
"z  c #173F42",
"x  c #143B45",
"c  c #173D44",
"v  c #183941",
"b  c #193A40",
"n  c #1B3B40",
"m  c #183A42",
"M  c #193B43",
"N  c #1D3942",
"B  c #183C42",
"V  c #193D43",
"C  c #193F43",
"Z  c #1A3A44",
"A  c #1C3845",
"S  c #193F44",
"D  c #16364A",
"F  c #1B3148",
"G  c #18334A",
"H  c #19354B",
"J  c #1C3549",
"K  c #1E3449",
"L  c #1A374E",
"P  c #1C3B4C",
"I  c #1D3B4D",
"U  c #143A56",
"Y  c #1D3852",
"T  c #1C3F59",
"R  c #20364A",
"E  c #20364D",
"W  c #213E49",
"Q  c #213751",
"!  c #084643",
"~  c #0A4942",
"^  c #0D4F40",
"/  c #0B4B47",
"(  c #094C49",
")  c #104241",
"_  c #144340",
"`  c #134740",
"'  c #174146",
"]  c #144346",
"[  c #164246",
"{  c #184043",
"}  c #184243",
"|  c #184343",
" . c #184642",
".. c #1C4541",
"X. c #194146",
"o. c #194047",
"O. c #194246",
"+. c #194247",
"@. c #1C4145",
"#. c #1D4047",
"$. c #1C4644",
"%. c #134A44",
"&. c #144845",
"*. c #144A47",
"=. c #1A4843",
"-. c #134248",
";. c #174349",
":. c #17474C",
">. c #194149",
",. c #1D4148",
"<. c #1B4449",
"1. c #1B444A",
"2. c #1B464B",
"3. c #1D454B",
"4. c #1F454A",
"5. c #19434D",
"6. c #1A434C",
"7. c #18454C",
"8. c #1B444C",
"9. c #18474C",
"0. c #19464F",
"q. c #1B464F",
"w. c #1C454C",
"e. c #1C464D",
"r. c #114A4D",
"t. c #1B4A4F",
"y. c #1E494F",
"u. c #194E4F",
"i. c #1A4E4F",
"p. c #1D4E4D",
"a. c #1C4D4E",
"s. c #0D5749",
"d. c #0D544B",
"f. c #1A5149",
"g. c #1C5049",
"h. c #0C4C53",
"j. c #164C54",
"k. c #184F51",
"l. c #1A4D52",
"z. c #1F4D51",
"x. c #1C4E52",
"c. c #1F465D",
"v. c #1F4A5E",
"b. c #0D5A50",
"n. c #135152",
"m. c #135053",
"M. c #165451",
"N. c #1A5051",
"B. c #1C5151",
"V. c #1D5353",
"C. c #1A5257",
"Z. c #1D5156",
"A. c #1F5454",
"S. c #175C57",
"D. c #1D5855",
"F. c #1B5758",
"G. c #1B575B",
"H. c #175E59",
"J. c #1F5F59",
"K. c #1D5B5C",
"L. c #22424F",
"P. c #21494F",
"I. c #204B4F",
"U. c #205449",
"Y. c #234155",
"T. c #234D51",
"R. c #214F5F",
"E. c #205259",
"W. c #21525A",
"Q. c #24565A",
"!. c #146351",
"~. c #1A6C57",
"^. c #19605B",
"/. c #1E6159",
"(. c #1E6259",
"). c #1E605B",
"_. c #1D625A",
"`. c #1E655A",
"'. c #1E615C",
"]. c #1D625C",
"[. c #1F635F",
"{. c #1C655F",
"}. c #176A59",
"|. c #196859",
" X c #1E685D",
".X c #1E6A5F",
"XX c #22655A",
"oX c #276558",
"OX c #25675A",
"+X c #20635F",
"@X c #236A5B",
"#X c #1D5B60",
"$X c #1C5F60",
"%X c #1A586A",
"&X c #224964",
"*X c #224E6D",
"=X c #295E61",
"-X c #196560",
";X c #1A6960",
":X c #1F6B61",
">X c #1A6C61",
",X c #1C6C61",
"<X c #1E6F62",
"1X c #1E686B",
"2X c #1E6E68",
"3X c #1E7064",
"4X c #1F7065",
"5X c #1F7265",
"6X c #1F7967",
"7X c #1F706E",
"8X c #1E776F",
"9X c #1E7773",
"0X c #216361",
"qX c #206263",
"wX c #236561",
"eX c #216265",
"rX c #256765",
"tX c #296562",
"yX c #256965",
"uX c #286B61",
"iX c #2A6D63",
"pX c #297065",
"aX c #207A62",
"sX c #22726A",
"dX c #277369",
"fX c #217768",
"gX c #26766A",
"hX c #20746D",
"jX c #227A68",
"kX c #257C74",
"lX c #23886D",
"zX c #258774",
"xX c #2B8C75",
"cX c #258479",
"vX c #238978",
"bX c #248C7B",
"nX c #24897E",
"mX c #328275",
"MX c #24848D",
"NX c #269C89",
"BX c #269C8A",
/* pixels */
"!.4 5 &.k.h / ( uXbXzXy.f w }.[ ",
"X.iXMX1XM rX2.7X+ :.tX6 Q e 4.1.",
"w +XjXc.* z t.-X7.k # E v.mXN.lX",
",XE.G @ | j = - C $XJ.T 7 4X@XfX",
"C.1 i wXT.c `.oX, 8 0 5XA._.Z p.",
"nXp m #.w.l F.=.aXM.q 3 Y.sXXX1.",
"<.9.} dX_ @.B % ` S {.A I P 2.8.",
"|.O ;.+.< hX: $ $ i.V.:Xa.b.7Xq.",
"! b S.; gXBXpXL H -.3XW K.].(.B.",
"~ OXx.B qXkXP.%.2X0.9 r.#X[.W.<X",
"h yXz j I...r  XNX8XN *.& . .X6X",
"V o.n  .> e.m.L.R ,.,.^ G.s.v U.",
"g x cX' ;Xd 9XJ X O.D.$.) f.{ >X",
"o R.3.5.j.h.Y t d.z.eXn xXg.2 ^.",
"  &XK /.).=X0XF b OXXX#.] u.*XU ",
"Z.l.n.%XD vXs u >.6.Q.a H.~.y '."
};
