/* XPM */
static char *dead_bubble_coral_block[] = {
/* columns rows colors chars-per-pixel */
"16 16 111 2 ",
"   c #172546",
".  c #192347",
"X  c #172049",
"o  c #19254D",
"O  c #1A274C",
"+  c #1A274D",
"@  c #1B264F",
"#  c #1A284E",
"$  c #1D2A4F",
"%  c #1B2B51",
"&  c #1B2C52",
"*  c #1C2F53",
"=  c #1D2B56",
"-  c #1D2C54",
";  c #1C2D54",
":  c #1D2F56",
">  c #1E2E59",
",  c #1D3156",
"<  c #1E3156",
"1  c #1E3158",
"2  c #1F335A",
"3  c #1E3659",
"4  c #1F345A",
"5  c #1F335C",
"6  c #1F375C",
"7  c #1F385E",
"8  c #222F52",
"9  c #232C57",
"0  c #253059",
"q  c #27325B",
"w  c #253459",
"e  c #22335C",
"r  c #21365E",
"t  c #25355F",
"y  c #24375F",
"u  c #21395E",
"i  c #25395F",
"p  c #223462",
"a  c #243762",
"s  c #253762",
"d  c #2B3463",
"f  c #223A62",
"g  c #243962",
"h  c #273A63",
"j  c #223D62",
"k  c #263D62",
"l  c #263D63",
"z  c #253A65",
"x  c #243D66",
"c  c #293963",
"v  c #2F3A63",
"b  c #2B3E67",
"n  c #2F3C67",
"m  c #2C3E69",
"M  c #2D3E6B",
"N  c #363F6D",
"B  c #492E59",
"V  c #49305E",
"C  c #4E3966",
"Z  c #503C66",
"A  c #513F6A",
"S  c #25406B",
"D  c #2C4169",
"F  c #28436E",
"G  c #244371",
"H  c #294176",
"J  c #2D4874",
"K  c #2E4E77",
"L  c #2E4A7A",
"P  c #2A4E7A",
"I  c #2F557B",
"U  c #2E547C",
"Y  c #2F557D",
"T  c #534573",
"R  c #574B79",
"E  c #934474",
"W  c #345C88",
"Q  c #375D89",
"!  c #385D8A",
"~  c #3A5F8C",
"^  c #38618D",
"/  c #3B6590",
"(  c #3E729C",
")  c #41709C",
"_  c #41729C",
"`  c #40719F",
"'  c #4C739B",
"]  c #4774A0",
"[  c #4577A3",
"{  c #457BA6",
"}  c #457BA7",
"|  c #447CA7",
" . c #467BA9",
".. c #457DAF",
"X. c #AF549D",
"o. c #C97DBE",
"O. c #4D83AB",
"+. c #4882AF",
"@. c #4E8EBB",
"#. c #4F90BC",
"$. c #5191BC",
"%. c #5191BE",
"&. c #5192BE",
"*. c #7680B1",
"=. c #629EC5",
"-. c #95A0D4",
";. c #97A1D6",
":. c #99A2D6",
">. c #98A2D8",
",. c #96AADD",
"<. c #E5BBE1",
/* pixels */
"z <.z u ~ J *.C L ..u &.F 3 u &.",
"z X.J >.z u &.J <.z r [ f >.z ~ ",
"r E u &.F r [ u X.F 6 / 4 &.F l ",
";.Z r [ f 6 { r E f > Y 7 ~ f - ",
"#.z u ~ >.z k 6 Z >.z : , l 2 X ",
" .J <.z &.F >.% M &.F . -.o <.z ",
"u u X.F ~ f &.D 9 ~ f ; +.m o.F ",
",.u E f l 2 O.y p l ;.c ` h X.f ",
"..j A >.P 3 _ # <.z @.x ^ & E 2 ",
"} j U =.I w 8 = o.F ! 1 W n B = ",
"u u P | b :.O   X.f 0 l 2 <.@   ",
"J <.z ( S $.i + E 2 >.z 5 X.s >.",
"u o.F P K ] < * T v &.F g E q &.",
"r X.>.z u P J <.z e ~ f r V $ ) ",
"d E &.J >.z u X.F >.l 2 G :.t Q ",
"H R ~ u &.F r E f %.J >.z ' a N "
};
