/* XPM */
static char *dead_horn_coral_block[] = {
/* columns rows colors chars-per-pixel */
"16 16 124 2 ",
"   c #2A0608",
".  c #2F070E",
"X  c #3A080E",
"o  c #3D090E",
"O  c #3F090F",
"+  c #3E0913",
"@  c #490A0E",
"#  c #4C0B0F",
"$  c #570C0F",
"%  c #5D0F0D",
"&  c #460A10",
"*  c #460A17",
"=  c #490A12",
"-  c #4C0B14",
";  c #4C0B15",
":  c #500C12",
">  c #550C13",
",  c #570C16",
"<  c #590C11",
"1  c #590C15",
"2  c #590C17",
"3  c #570C18",
"4  c #521417",
"5  c #640E10",
"6  c #620E15",
"7  c #6D0F10",
"8  c #6E0F12",
"9  c #620E1A",
"0  c #660F19",
"q  c #660F1D",
"w  c #690F1A",
"e  c #6E0F18",
"r  c #6D0F1D",
"t  c #741011",
"y  c #751012",
"u  c #7E1212",
"i  c #751019",
"p  c #76111F",
"a  c #7C121A",
"s  c #7A352A",
"d  c #7D342B",
"f  c #831212",
"g  c #811512",
"h  c #801612",
"j  c #851612",
"k  c #831214",
"l  c #871214",
"z  c #851216",
"x  c #8D1313",
"c  c #8B1314",
"v  c #8E1314",
"b  c #871A12",
"n  c #8A1B13",
"m  c #8E1F13",
"M  c #801219",
"N  c #85121C",
"B  c #8D131C",
"V  c #901614",
"C  c #901814",
"Z  c #931A14",
"A  c #991C14",
"S  c #991E14",
"D  c #991F14",
"F  c #921418",
"G  c #90141B",
"H  c #902114",
"J  c #932314",
"K  c #9E2515",
"L  c #992914",
"P  c #9A2B14",
"I  c #9B2D14",
"U  c #9D2E15",
"Y  c #9E3015",
"T  c #A12815",
"R  c #A22915",
"E  c #A42B15",
"W  c #A32C15",
"Q  c #A52D16",
"!  c #A03015",
"~  c #A43015",
"^  c #A23515",
"/  c #A83016",
"(  c #A83116",
")  c #A93316",
"_  c #AE3217",
"`  c #AA3416",
"'  c #AB3616",
"]  c #A63A16",
"[  c #A93C16",
"{  c #AA3F16",
"}  c #96372E",
"|  c #983D2B",
" . c #983C2E",
".. c #9B3F2E",
"X. c #A03E2F",
"o. c #9E422F",
"O. c #8B4A38",
"+. c #8D4A39",
"@. c #8F4C39",
"#. c #914A39",
"$. c #924B39",
"%. c #964C3A",
"&. c #9A4A3A",
"*. c #9B4A3A",
"=. c #9C4C3A",
"-. c #A3402F",
";. c #A5412F",
":. c #A2452F",
">. c #A5472F",
",. c #A6482F",
"<. c #AA482F",
"1. c #A84B2F",
"2. c #A94D2F",
"3. c #A14B3A",
"4. c #A54E3B",
"5. c #A5523B",
"6. c #A6523B",
"7. c #A8503B",
"8. c #A9503B",
"9. c #A8523B",
"0. c #A8533B",
"q. c #AA503C",
"w. c #A65641",
"e. c #AB5841",
/* pixels */
"R ; w i / ~ g 1 z V 2 S i , T { ",
"z 4.-.= X g 9 i p / X.7.+ 0 I j ",
"T , : ^ , V e.4.a - x 8 o.$   6 ",
"6 u a e w.) 9 } O.U 8 # # 0.L 8 ",
":.2.s a e ,   5 f 7 6 & b - 9 + ",
"9 < 6.n   u ,.u <.#.&.l . 8 ( | ",
"C 0 < 1.: : l ] i 3 F q q.=.8 3 ",
"O % e z X ! $ X L W 9 _ 9 * U H ",
"C k M t  .5.< Z = < + 0 x y : + ",
"C 4 P X 8 C 8.G D J   h @.P - l ",
": ..i 3 * ; B 9 A a 9.:.x v : j ",
";.m   + E *.` Q   j K M r Z . K ",
"+ 9 Y %.H X # J 8 M a * 9 ' N 0 ",
"b @ < : :   R , 3 E +.;.( + z a ",
": >.$.3.d -   O o Z w i 8 ^ J T ",
"J i 9 , a ` c > 6 b X [ , 0 . j "
};
