/* XPM */
static char *diorite[] = {
/* columns rows colors chars-per-pixel */
"16 16 251 2 ",
"   c #745B37",
".  c #7F603C",
"X  c #7C643F",
"o  c #7F6744",
"O  c #82613C",
"+  c #806642",
"@  c #856840",
"#  c #82674A",
"$  c #876D48",
"%  c #886949",
"&  c #896D4D",
"*  c #886E4E",
"=  c #8D704A",
"-  c #89704D",
";  c #8A714F",
":  c #8C7351",
">  c #8E7353",
",  c #8E7551",
"<  c #8E7452",
"1  c #8C7455",
"2  c #907450",
"3  c #907552",
"4  c #937553",
"5  c #997756",
"6  c #907854",
"7  c #967855",
"8  c #9A7955",
"9  c #9D7C57",
"0  c #967B58",
"q  c #957C5E",
"w  c #967D5F",
"e  c #9E7F59",
"r  c #9B7D5D",
"t  c #997E5D",
"y  c #9A7F5C",
"u  c #9B7F5C",
"i  c #9E8057",
"p  c #9B805F",
"a  c #9C835D",
"s  c #9F825E",
"d  c #A1835C",
"f  c #A3825E",
"g  c #A0855E",
"h  c #9C8061",
"j  c #9D8261",
"k  c #9E8263",
"l  c #A18360",
"z  c #A48262",
"x  c #A38660",
"c  c #A38562",
"v  c #A28463",
"b  c #A48460",
"n  c #A48464",
"m  c #A68764",
"M  c #A68765",
"N  c #A38862",
"B  c #A68967",
"V  c #A78A66",
"C  c #AC8B65",
"Z  c #A88D64",
"A  c #AC8C67",
"S  c #AE8E67",
"D  c #A48669",
"F  c #A4866A",
"G  c #A68B69",
"H  c #A88869",
"J  c #AA8A6A",
"K  c #AA8B6A",
"L  c #AD8B6A",
"P  c #A88C69",
"I  c #AA8C68",
"U  c #AB8E68",
"Y  c #AE8C69",
"T  c #AF8F69",
"R  c #AD8E6B",
"E  c #AF8E6A",
"W  c #A88A6D",
"Q  c #AB8D6C",
"!  c #AD8C6C",
"~  c #AE8E6C",
"^  c #AC8D6E",
"/  c #AE8E6E",
"(  c #AE8F6E",
")  c #B68F68",
"_  c #AE916D",
"`  c #AE926D",
"'  c #AE936D",
"]  c #B09168",
"[  c #B1906F",
"{  c #B7916E",
"}  c #B7956F",
"|  c #B9986E",
" . c #B9996F",
".. c #AC8E71",
"X. c #AE8F70",
"o. c #AF8F70",
"O. c #AC9270",
"+. c #AD9472",
"@. c #B29370",
"#. c #B29570",
"$. c #B39471",
"%. c #B29671",
"&. c #B39472",
"*. c #B29473",
"=. c #B39573",
"-. c #B79571",
";. c #B69773",
":. c #B49575",
">. c #B59774",
",. c #B49870",
"<. c #B59872",
"1. c #B69A72",
"2. c #B79A74",
"3. c #B79877",
"4. c #BA9A71",
"5. c #B89972",
"6. c #B99972",
"7. c #BA9972",
"8. c #B89B72",
"9. c #BB9A72",
"0. c #BB9E73",
"q. c #BD9C73",
"w. c #BA9974",
"e. c #BA9975",
"r. c #BA9877",
"t. c #B99A77",
"y. c #BE9B75",
"u. c #BC9B76",
"i. c #B99C76",
"p. c #BA9D76",
"a. c #BD9C75",
"s. c #BF9C75",
"d. c #BF9D76",
"f. c #BE9F77",
"g. c #B99B79",
"h. c #BB9D7A",
"j. c #BC9D78",
"k. c #BD9C7A",
"l. c #BF9E7B",
"z. c #BD9D7C",
"x. c #BCA075",
"c. c #BEA077",
"v. c #BCA078",
"b. c #BFA17A",
"n. c #BFA07D",
"m. c #BFA27E",
"M. c #C09F7B",
"N. c #C3A377",
"B. c #C7A577",
"V. c #C0A378",
"C. c #C1A27A",
"Z. c #C4A27A",
"A. c #C6A37B",
"S. c #C0A17C",
"D. c #C1A17D",
"F. c #C1A37C",
"G. c #C3A37D",
"H. c #C1A07F",
"J. c #C0A27E",
"K. c #C0A47C",
"L. c #C1A47E",
"P. c #C2A57E",
"I. c #C6A67C",
"U. c #C4A57E",
"Y. c #C4A67E",
"T. c #C5A67E",
"R. c #C4A67F",
"E. c #C9A77D",
"W. c #C8A67E",
"Q. c #C8A77F",
"!. c #CAA77F",
"~. c #CEA77E",
"^. c #C6A97E",
"/. c #C9AC7F",
"(. c #C2A280",
"). c #C5A381",
"_. c #C5A680",
"`. c #C5A782",
"'. c #C4A683",
"]. c #C6AA81",
"[. c #C7AB81",
"{. c #C7AE85",
"}. c #C8A980",
"|. c #C9A881",
" X c #CBA980",
".X c #C9A882",
"XX c #CAAB83",
"oX c #CBAB83",
"OX c #CFAB80",
"+X c #CAAC82",
"@X c #CAAE83",
"#X c #CCAF81",
"$X c #CCAC82",
"%X c #CDAD82",
"&X c #CEAD82",
"*X c #CBAD84",
"=X c #CDAF85",
"-X c #CCAD86",
";X c #CDAF86",
":X c #CBAE88",
">X c #CEAF89",
",X c #D0AF85",
"<X c #D2AD88",
"1X c #CDB185",
"2X c #CDB087",
"3X c #CDB089",
"4X c #CFB088",
"5X c #CEB188",
"6X c #CFB089",
"7X c #CFB289",
"8X c #D2B386",
"9X c #D5B386",
"0X c #D1B289",
"qX c #D1B08A",
"wX c #D3B38A",
"eX c #D3B489",
"rX c #D5B48B",
"tX c #D2B38D",
"yX c #D2B58D",
"uX c #D4B48D",
"iX c #D5B58D",
"pX c #D4B78C",
"aX c #D6B68D",
"sX c #D6B78F",
"dX c #D8B48A",
"fX c #DDB78E",
"gX c #D5B88A",
"hX c #D6BA8B",
"jX c #D5BA8E",
"kX c #D2B890",
"lX c #D5B990",
"zX c #D6B990",
"xX c #D7B891",
"cX c #D7BA90",
"vX c #DABA90",
"bX c #DCBD91",
"nX c #DCBE91",
"mX c #DCBE92",
"MX c #D6C097",
"NX c #DAC096",
"BX c #DEC095",
"VX c #DEC096",
"CX c #DDC296",
"ZX c #DDC198",
"AX c #DFC298",
"SX c #E0C093",
"DX c #E1C398",
"FX c #E2C499",
"GX c #E3C699",
"HX c #E7C89C",
"JX c #EED6A9",
/* pixels */
"u j.) 7 L.qXjXh.yXJ.n.1X~ ZX'.w.",
"T.s O %XDX-Xz Y.BX&XQ.I.8X3XH.^ ",
"O.9 | E.4.u.E 2XiXA.w.t.0X$.l.lX",
"* !.,XU.F. X*Xm.M.y.J ..H.I V G.",
"v G |.wXmXrXsXNXXXoXaX3.W ( r L ",
"_.%.6 [.CXD.zXGX4X6XtXg.H Q X.-.",
".XHXcX:X, ` AX>X=.*.o.D &.T.:.l ",
"vXFX`.x g W.z.F h k M k.e.P . {.",
"(./ q 5Xw + @ R < c $XdX= X MXJX",
"t 0 Z.a +.1.,.R.>.s.a.r.V.hXVX).",
"8 9.e Z gXuX_ N S.~.A #XnXd.{ C ",
"f   o @XP.<.#.@.;.5.xXx.7.Y 5 m ",
": $ q.kXK.i.' - j 0.bXb.pX+X} ! ",
"% ^.N.].7Xd B.Z 1 n p.eXfX9X .4 ",
"SXU 8.;X=Xb OXf.2.> K y B C.0 & ",
"v.c.] 6.<Xi T /.}.S [ ; p # 3 2 "
};
