/* XPM */
static char *fire_coral_block[] = {
/* columns rows colors chars-per-pixel */
"16 16 14 1 ",
"  c #4F1B3F",
". c #5C1F49",
"X c #6E2555",
"o c #425D41",
"O c #4A5F47",
"+ c #53614E",
"@ c #5F6457",
"# c #646E5D",
"$ c #8A2E69",
"% c #994078",
"& c #817868",
"* c #38A53B",
"= c #5FCC5C",
"- c #8AED83",
/* pixels */
"*XX*$%.=$X= =$X*",
"*+ =X$.*.o* *$*#",
"X* =X$& %*$*o*+$",
" *.&O.*X*X$* .-X",
"X *#*.=$*X*.%*@=",
"# = *X--O*@$X=%*",
"*$-X@*%=.*X.= $@",
"*$= .*$*XX* =.$o",
"X* $%+*@$$o=.$$ ",
"*O* $.*X%$X=$X-*",
"X.=$.*=.$ **$*X$",
"$X-$*O%=.* .*O*$",
"$%=X*$$-%*.X=X*$",
"$-+=o*X=*@*$-$*X",
"$*.=.*+*X$+*=$.*",
"*X.*X.*-$XX@-$X*"
};
