/* XPM */
static char *glass[] = {
/* columns rows colors chars-per-pixel */
"16 16 50 1 ",
"  c #323232",
". c gray20",
"X c #353535",
"o c gray21",
"O c gray22",
"+ c #393939",
"@ c gray23",
"# c #3C3C3C",
"$ c #3E3E3E",
"% c #3F3F3F",
"& c #414141",
"* c gray26",
"= c #444444",
"- c #515151",
"; c #535353",
": c gray33",
"> c #555555",
", c #565656",
"< c gray34",
"1 c #585858",
"2 c gray35",
"3 c #5B5B5B",
"4 c gray36",
"5 c #5F5F5F",
"6 c gray38",
"7 c #626262",
"8 c #646464",
"9 c gray40",
"0 c #686868",
"q c #6A6A6A",
"w c gray43",
"e c #6F6F6F",
"r c gray44",
"t c #717171",
"y c gray45",
"u c #747474",
"i c gray46",
"p c #767676",
"a c #777777",
"s c gray47",
"d c #797979",
"f c gray48",
"g c #7B7B7B",
"h c #7C7C7C",
"j c gray49",
"k c gray50",
"l c #808080",
"z c #818181",
"x c #838383",
"c c None",
/* pixels */
"oX#*$#oO%.#&o%+.",
"%yxhjlalszgiysp#",
"*y:2323,--;3,>j+",
"+a3cccccccccc,t.",
".d7cccccccccc,a$",
"@u7cccccccccc2go",
"*t5cccccccccc5jo",
"Or7cccccccccc2i@",
"ok6cccccccccc2i%",
".i8cccccccccc3gX",
"#y7cccccccccc3a+",
"&d4cccccccccc1i%",
"oq,cccccccccc3p+",
" e:<37690878<:g+",
"+wspihziszfgudto",
"$#.$+ &=++&$oO=+"
};
