/* XPM */
static char *glass_light_blue_e[] = {
/* columns rows colors chars-per-pixel */
"16 16 51 1 ",
"  c #6DC5F8",
". c #6DC6F8",
"X c #6EC8F8",
"o c #75CDF8",
"O c #76CDF8",
"+ c #76CFF8",
"@ c #77CFF8",
"# c #78CFF8",
"$ c #87DCF8",
"% c #88DEF8",
"& c #89DEF8",
"* c #8ADEF8",
"= c #89DEFB",
"- c #8ADEFB",
"; c #8BE0FB",
": c #8CE0FB",
"> c #8EE0FB",
", c #90E2FB",
"< c #91E2FB",
"1 c #92E4FB",
"2 c #94E4FB",
"3 c #95E4FB",
"4 c #96E6FB",
"5 c #9FEDFB",
"6 c #A2EDFB",
"7 c #A2EFFB",
"8 c #A4EDFB",
"9 c #A5EFFB",
"0 c #A6EFFB",
"q c #A9EFFB",
"w c #A8F2FB",
"e c #A9F2FB",
"r c #ABF2FB",
"t c #ACF2FB",
"y c #AEF2FB",
"u c #AFF2FB",
"i c #AEF5FB",
"p c #AFF5FB",
"a c #AFF5FF",
"s c #B0F2FB",
"d c #B1F2FB",
"f c #B0F5FB",
"g c #B1F5FB",
"h c #B2F2FF",
"j c #B3F2FF",
"k c #B2F5FF",
"l c #B4F5FF",
"z c #B3F8FF",
"x c #B4F8FF",
"c c #B6F8FF",
"v c None",
/* pixels */
";;<><>:>:12<;=:>",
"sczklfgcq0w7r055",
"O@++@#@o++#O++#O",
"vvvvvvvvvvvvvvvv",
"::%=:%::,2,$-433",
"jigpgcggfzdyufzx",
"..X... .XX X.XXX",
"vvvvvvvvvvvvvvvv",
">=%;>*:;2,,&-<>,",
"ljx9ul0z0zhhifgz",
".....X.....X.X..",
"vvvvvvvvvvvvvvvv",
"->=<>$<*<1><12:<",
"ee666attttteee8t",
"...XX  . X. XXXX",
"vvvvvvvvvvvvvvvv"
};
