/* XPM */
static char *gold_block[] = {
/* columns rows colors chars-per-pixel */
"16 16 18 1 ",
"  c #212020",
". c #222120",
"X c #252323",
"o c #252424",
"O c #262625",
"+ c #282626",
"@ c #2C2C2C",
"# c #2D2D2D",
"$ c #2F2C2D",
"% c #2E2D2D",
"& c #312E2D",
"* c #D19526",
"= c #E29F25",
"- c #E3A026",
"; c #E7A226",
": c #EBA325",
"> c #E9A428",
", c #E2A031",
/* pixels */
"*-:,$+.$*-:,$+o#",
"#*-:,$+.$*-:,$+.",
".#*-:,$+.$*-:,$+",
"+.#*-:,$+.$*-:,$",
"$+.%*-:,$+.$*-:,",
",$+.#*-:,$+.$*-:",
":,$+.#*-:,$+.$*-",
"-:,$+.&*-:,$+.$*",
"*=>,$O.$*-:,$+.$",
"$*=>,$+.%*-:,$+ ",
" $*=>,$+.$*-:,$+",
"+ $*=>,$+.$*-:,$",
"$+ $*=>,$+.%*-:,",
"-$+ $*=>,$+.$*-:",
":-$+ $*=>,$+.#*-",
"-:-$+.$*;>,$+X@*"
};
