/* XPM */
static char *granite[] = {
/* columns rows colors chars-per-pixel */
"16 16 238 2 ",
"   c #442B1B",
".  c #452F21",
"X  c #443023",
"o  c #453223",
"O  c #443025",
"+  c #443227",
"@  c #4C3425",
"#  c #4A352A",
"$  c #4D3528",
"%  c #4A382C",
"&  c #4A3A2D",
"*  c #513420",
"=  c #513523",
"-  c #533423",
";  c #573825",
":  c #51392B",
">  c #553829",
",  c #563928",
"<  c #563A29",
"1  c #533A2C",
"2  c #533A2F",
"3  c #543B2F",
"4  c #533D2D",
"5  c #563D2F",
"6  c #583B2A",
"7  c #5B3B2B",
"8  c #5A3D2A",
"9  c #5A3C2B",
"0  c #5E3E2A",
"q  c #583D2D",
"w  c #5A3E2C",
"e  c #583E2F",
"r  c #553B30",
"t  c #623D28",
"y  c #603D2B",
"u  c #5C402D",
"i  c #5E412D",
"p  c #5C412F",
"a  c #5E412F",
"s  c #574030",
"d  c #554135",
"f  c #584131",
"g  c #584132",
"h  c #5B4332",
"j  c #5C4030",
"k  c #5C4131",
"l  c #5F4130",
"z  c #5F4330",
"x  c #5F4233",
"c  c #5E4431",
"v  c #5F4633",
"b  c #5B4334",
"n  c #584336",
"m  c #584736",
"M  c #5F4434",
"N  c #5D4436",
"B  c #5F4636",
"V  c #55443B",
"C  c #5C4438",
"Z  c #5F4638",
"A  c #5F4738",
"S  c #5C463A",
"D  c #5E463A",
"F  c #5F473B",
"G  c #5E493A",
"H  c #5E4A3B",
"J  c #5B493C",
"K  c #5D4A3D",
"L  c #5E4C3E",
"P  c #60432D",
"I  c #62432C",
"U  c #62432F",
"Y  c #644230",
"T  c #654632",
"R  c #654635",
"E  c #654735",
"W  c #674734",
"Q  c #6C4735",
"!  c #654A36",
"~  c #674A36",
"^  c #624C36",
"/  c #694B36",
"(  c #694C36",
")  c #6D4C36",
"_  c #624738",
"`  c #64473A",
"'  c #654A38",
"]  c #654A3A",
"[  c #654C3D",
"{  c #694938",
"}  c #684D3B",
"|  c #6D4C39",
" . c #6C4F3B",
".. c #684C3C",
"X. c #6B4D3C",
"o. c #6B4D3D",
"O. c #6B4F3D",
"+. c #6D4E3D",
"@. c #6D4F3D",
"#. c #714F3B",
"$. c #744F3C",
"%. c #75523C",
"&. c #584A41",
"*. c #5E4A42",
"=. c #5F4C40",
"-. c #5F4D41",
";. c #654D40",
":. c #624D44",
">. c #694F41",
",. c #675345",
"<. c #655146",
"1. c #655444",
"2. c #675547",
"3. c #685240",
"4. c #695142",
"5. c #6E5140",
"6. c #6E5242",
"7. c #6E5440",
"8. c #6E5442",
"9. c #695145",
"0. c #6B5346",
"q. c #6C5344",
"w. c #6C5545",
"e. c #655349",
"r. c #6D5649",
"t. c #67584F",
"y. c #6E584A",
"u. c #6C584C",
"i. c #715340",
"p. c #715742",
"a. c #715544",
"s. c #745645",
"d. c #755645",
"f. c #755745",
"g. c #765744",
"h. c #765645",
"j. c #7C5741",
"k. c #7E5740",
"l. c #765845",
"z. c #7E5A41",
"x. c #795844",
"c. c #785845",
"v. c #7E5D44",
"b. c #7D5C47",
"n. c #715849",
"m. c #775849",
"M. c #755B49",
"N. c #775B49",
"B. c #765A4A",
"V. c #765A4B",
"C. c #745B4C",
"Z. c #745B4D",
"A. c #765D4C",
"S. c #765C4D",
"D. c #765D4D",
"F. c #785B49",
"G. c #7D5B4A",
"H. c #7C5B4B",
"J. c #795C4B",
"K. c #7D5D49",
"L. c #7E5C49",
"P. c #785D4D",
"I. c #785D4E",
"U. c #795E4E",
"Y. c #7C5D4C",
"T. c #695851",
"R. c #6D5D53",
"E. c #765E51",
"W. c #705E57",
"Q. c #765E54",
"!. c #79604E",
"~. c #7F644F",
"^. c #796052",
"/. c #796355",
"(. c #796455",
"). c #786456",
"_. c #7D6455",
"`. c #7C6657",
"'. c #7F6D63",
"]. c #855E46",
"[. c #895D44",
"{. c #845C4A",
"}. c #825D4D",
"|. c #826446",
" X c #826249",
".X c #86604C",
"XX c #84624C",
"oX c #84634C",
"OX c #82644F",
"+X c #91684D",
"@X c #826757",
"#X c #856655",
"$X c #866756",
"%X c #896451",
"&X c #896755",
"*X c #896852",
"=X c #8D6B57",
"-X c #896D57",
";X c #8F6C55",
":X c #876958",
">X c #806B5D",
",X c #856D5F",
"<X c #886958",
"1X c #8D6C58",
"2X c #886D5C",
"3X c #8D6C5C",
"4X c #8F6F5D",
"5X c #906955",
"6X c #906C55",
"7X c #936F5D",
"8X c #8F705D",
"9X c #977053",
"0X c #93705E",
"qX c #93735E",
"wX c #96735C",
"eX c #93755E",
"rX c #98705E",
"tX c #9A755E",
"yX c #A57C5C",
"uX c #826962",
"iX c #846D63",
"pX c #857065",
"aX c #937362",
"sX c #907564",
"dX c #937564",
"fX c #967565",
"gX c #9B7762",
"hX c #987863",
"jX c #987C64",
"kX c #937868",
"lX c #9B7E6D",
"zX c #A07C62",
"xX c #A07D6B",
"cX c #A58267",
"vX c #A0806D",
"bX c #A3816D",
"nX c #AB866E",
"mX c #A98976",
/* pixels */
" .f * g 1.4.e J S.;.S E.5.q.pX_.",
"_ 1 I v.@X%XE j U.C 3 C.D.).Q.3.",
"< ) |.^ $XoXX.7.2Xn V &.8.wXmXqX",
"a b.F.V.} B 9.>X(.K `..X%.fX&XL.",
"; -X@.i Z ,.;.e.!.r | [.x.U.5.}.",
"k O.j v M.sXiXL X O h.7.s $.l Z.",
": + G l.6XS.t.T.r.;.x XXp.Y 6.-.",
"H.= @ ~ ;XdXW.'.j.| o.nX*Xy.J.w ",
"zX+X$ n.N.,XR.A ) R /.#.P & d T ",
"Y.aX:XI.>.:.B.].eX4XA.z M h N , ",
").uXkX;.u.w.f.tXcX9Xz._ 7 0 6 {.",
"*.g. X=.2.p <.bXyXk.{ i.y t / rX",
"vX) 8 ..s.' m =X5Xc.] gXQ U K.d.",
"hXjX_.a.p 0.b 4 #X+.G.1XJ.` H m.",
"  D 2 % OX^.F u ( W 3X:XP.> [ <X",
"c o q lXxX~.g.- 9 ! 0X7X8X. # 5 "
};
