/* XPM */
static char *gray_concrete[] = {
/* columns rows colors chars-per-pixel */
"16 16 3 1 ",
"  c #3C3737",
". c #3D3838",
"X c #3E3939",
/* pixels */
".. ....   .... .",
". . ..  .  ...  ",
"  .  .   .    ..",
"....   .. . .  .",
". . .  .    X  X",
". . . .  ...    ",
" .....        . ",
".......  .. ... ",
"...  .  .. . . .",
" .. ... .....   ",
" ......  . . ...",
". .. .....   ...",
"...  . . ...... ",
".X...  ..... . X",
".. .. ... ..  ..",
". .X .... .X...."
};
