/* XPM */
static char *gray_wool[] = {
/* columns rows colors chars-per-pixel */
"16 16 66 1 ",
"  c #242629",
". c #25262A",
"X c #26282A",
"o c #26292B",
"O c #282A2D",
"+ c #292A2E",
"@ c #2A2B2F",
"# c #2B2E30",
"$ c #2D2F31",
"% c #2F3034",
"& c #2F3134",
"* c #313436",
"= c #323437",
"- c #333538",
"; c #343538",
": c #343638",
"> c #343639",
", c #34353A",
"< c #35373A",
"1 c #37393C",
"2 c #383A3D",
"3 c #383B3E",
"4 c #3A3C3F",
"5 c #3B3C40",
"6 c #3B3E42",
"7 c #3C3D40",
"8 c #3C3E42",
"9 c #3D3E42",
"0 c #3D3F42",
"q c #3C3F43",
"w c #3D3F43",
"e c #3E4043",
"r c #3E4044",
"t c #3F4144",
"y c #3F4145",
"u c #404145",
"i c #404244",
"p c #414345",
"a c #424447",
"s c #434448",
"d c #444549",
"f c #44474B",
"g c #45494B",
"h c #45484C",
"j c #47494D",
"k c #474A4C",
"l c #484B4D",
"z c #494B4E",
"x c #4B4D4F",
"c c #4A4D51",
"v c #4B4D51",
"b c #4C4E51",
"n c #4D4F54",
"m c #4D5055",
"M c #4F5256",
"N c #4F5257",
"B c #515559",
"V c #525559",
"C c #525659",
"Z c #5B5E63",
"A c #5D6164",
"S c #626669",
"D c #62676A",
"F c #64696C",
"G c #686D70",
"H c #6F7377",
/* pixels */
"OX+#@+XO#o+#O#O ",
"#GABjvfhMNhdBAGO",
"#Z%**;;<<:;:;*AX",
"OB*839w35w895;V.",
"of&4DhffppsF9;ho",
"+M*82kphfdk14;n+",
"#h-8dssslpas5=sO",
"Oh*5ss0dhsdk7;f+",
"Ov*5phshssid3;bO",
"&v=8hkdstfsf5:NX",
"$c=rhfipskkfe;sO",
"Oh*rSfdgsshSy;h#",
"OC*r>ueyquy>6<BO",
"oA&<=*&&%,%***ZO",
"OHABfhzmxhmhVAHO",
"@+o@Oo##+O#@OO#O"
};
