/* XPM */
static char *gray_stained_glass[] = {
/* columns rows colors chars-per-pixel */
"16 16 68 1 ",
"  c #2A2A2A",
". c #2D2D2D",
"X c gray18",
"o c gray19",
"O c gray20",
"+ c #343434",
"@ c #353535",
"# c gray21",
"$ c gray22",
"% c #393939",
"& c #3A3A3A",
"* c #3C3C3C",
"= c gray24",
"- c #3E3E3E",
"; c #414141",
": c gray26",
"> c #434343",
", c #444444",
"< c gray27",
"1 c #464646",
"2 c #484848",
"3 c gray29",
"4 c #4B4B4B",
"5 c #4C4C4C",
"6 c #4E4E4E",
"7 c gray31",
"8 c #515151",
"9 c gray32",
"0 c #535353",
"q c #555555",
"w c #565656",
"e c gray34",
"r c #585858",
"t c gray35",
"y c gray36",
"u c #5D5D5D",
"i c #606060",
"p c #626262",
"a c #646464",
"s c gray40",
"d c #686868",
"f c DimGray",
"g c #6A6A6A",
"h c gray42",
"j c gray43",
"k c gray44",
"l c gray45",
"z c #747474",
"x c gray46",
"c c gray47",
"v c #7B7B7B",
"b c #838383",
"n c gray52",
"m c #868686",
"M c #8E8E8E",
"N c #939393",
"B c #959595",
"V c gray60",
"C c #A0A0A0",
"Z c gray64",
"A c #A7A7A7",
"S c #AAAAAA",
"D c gray68",
"F c gray71",
"G c #B7B7B7",
"H c gray",
"J c gray75",
"K c None",
/* pixels */
"SDA30rrrruur8ADS",
"M m,3489082<,b M",
"vvvuKKKKKKKK7vvv",
"83@2uKKKKKKe12,6",
"t:K#2lKKKKe2#K<t",
"h;KK#1+KK&2#KK2a",
"a2KKK#+MN%oKKK6a",
"a2KKKKn,9NKKKK6u",
"u3KKKKd=>xKKKK6a",
"f6KKKO#14o-KKK2u",
"f2KKu2 KKX2pKK3a",
"y2Kt2$KKKK%2pK<q",
"53w2%KKKKKK*72,5",
"GJG7KKKKKKKK%FHF",
"V.CwskkkkkkswZ.B",
"lzc7rifiiga02vlj"
};
