/* XPM */
static char *green_glazed_terracotta[] = {
/* columns rows colors chars-per-pixel */
"16 16 30 1 ",
"  c #1E2021",
". c #202225",
"X c #222325",
"o c #232425",
"O c #232426",
"+ c #242628",
"@ c #252628",
"# c #262829",
"$ c #26292A",
"% c #26292C",
"& c #292A2C",
"* c #282A2D",
"= c #353638",
"- c #3C3E40",
"; c #3C3F40",
": c #3E3F41",
"> c #3F4042",
", c #3F4142",
"< c #404143",
"1 c #414344",
"2 c #414346",
"3 c #434446",
"4 c #4D4F50",
"5 c #4D4D52",
"6 c #4F4F55",
"7 c #525556",
"8 c #525258",
"9 c #555758",
"0 c #57595A",
"q c #595B5F",
/* pixels */
"::4o4;;;;;;4O41,",
"::8X8::;;:,8O8<-",
"48q+q866678q.q84",
"$o..@X%Xo*@..X$o",
"444448qoq9554444",
"-::: &q%q& >:::-",
"-:::,>q%q2,,,,::",
":::, &q%q& ::::-",
",-;:>3q%q2<:::::",
":::: &qXq& :::::",
",::,-;q$q=::::::",
"444448q$q8444444",
"$o.+..O.o$+..X$o",
"48q+q076668q#q84",
"-:8X8,:;;::8o8::",
",,4O4;;;;;;4o4::"
};
