/* XPM */
static char *green_wool[] = {
/* columns rows colors chars-per-pixel */
"16 16 54 1 ",
"  c #2D4D13",
". c #2E4D13",
"X c #2F4E13",
"o c #2F4F14",
"O c #304F14",
"+ c #305014",
"@ c #305015",
"# c #315015",
"$ c #325315",
"% c #305116",
"& c #305216",
"* c #315317",
"= c #35561A",
"- c #36571A",
"; c #36571C",
": c #375A1B",
"> c #385A1A",
", c #3A5B1D",
"< c #385C1D",
"1 c #395C1D",
"2 c #3A5D1D",
"3 c #3D5C1E",
"4 c #3D6521",
"5 c #3E6622",
"6 c #3F6722",
"7 c #3F6823",
"8 c #406824",
"9 c #416925",
"0 c #416A25",
"q c #426A26",
"w c #426B26",
"e c #436C27",
"r c #436D28",
"t c #486F2E",
"y c #49712F",
"u c #477130",
"i c #497130",
"p c #4B7230",
"a c #4C7431",
"s c #4D7631",
"d c #4F7731",
"f c #4E7732",
"g c #4F7732",
"h c #4D7634",
"j c #4F7A33",
"k c #4D7935",
"l c #4F7935",
"z c #4F7B37",
"x c #4E7D34",
"c c #4D7C36",
"v c #517C37",
"b c #54823D",
"n c #5F8745",
"m c #658D4E",
/* pixels */
"@+#$##+#O XO.O.o",
"@nxspdgukpfiscm#",
"@z-;;1123<1<1:x+",
"#s:8w0750w86w1a+",
"#i>77qq7e87qw1i#",
"#j:06qq889q771l#",
"@i28r50r9qq58,s#",
"#h:4948q75e0q1i#",
"@d:q60w8q6ew51t@",
"*p,4q990r8788<j+",
"&h,e477w8q0q01s#",
"#i;wq659r90q71u@",
"@a;q40q0wqqq73j#",
"#x>2,:>>===;:;z#",
"#bxsiiydjuliavm@",
"######@@##$#@#$%"
};
