/* XPM */
static char *green_concrete_powder[] = {
/* columns rows colors chars-per-pixel */
"16 16 245 2 ",
"   c #323C1A",
".  c #33332D",
"X  c #323130",
"o  c #373635",
"O  c #383432",
"+  c #3C3731",
"@  c #403D36",
"#  c #403F37",
"$  c #453E34",
"%  c #413D3B",
"&  c #443F3B",
"*  c #433F3E",
"=  c #365F09",
"-  c #304513",
";  c #334A13",
":  c #374F14",
">  c #394F15",
",  c #364618",
"<  c #374A19",
"1  c #3C4A1B",
"2  c #385112",
"3  c #3E5317",
"4  c #395812",
"5  c #3B5E10",
"6  c #3D5C12",
"7  c #3F5A16",
"8  c #3F5F14",
"9  c #3D501A",
"0  c #376108",
"q  c #3A600C",
"w  c #3F6E0A",
"e  c #3E6012",
"r  c #3F6112",
"t  c #3E4422",
"y  c #405B17",
"u  c #41531C",
"i  c #43541F",
"p  c #405818",
"a  c #435A19",
"s  c #435B19",
"d  c #435B1B",
"f  c #426E0C",
"g  c #416710",
"h  c #406014",
"j  c #406214",
"k  c #416315",
"l  c #416414",
"z  c #456516",
"x  c #456517",
"c  c #416811",
"v  c #446913",
"b  c #426C10",
"n  c #4A6F16",
"m  c #49681A",
"M  c #457011",
"N  c #6E6415",
"B  c #7A6A19",
"V  c #424824",
"C  c #4E422E",
"Z  c #52482D",
"A  c #574B2C",
"S  c #455325",
"D  c #495425",
"F  c #485C22",
"G  c #495C23",
"H  c #4A5E22",
"J  c #495D24",
"K  c #495928",
"L  c #4A592A",
"P  c #4B5A2A",
"I  c #4D5929",
"U  c #4C5A2A",
"Y  c #4F5E2E",
"T  c #4B4131",
"R  c #4F4631",
"E  c #4B4435",
"W  c #4A4536",
"Q  c #4B4536",
"!  c #4B4537",
"~  c #4D4837",
"^  c #494539",
"/  c #48433C",
"(  c #4B463C",
")  c #4C483B",
"_  c #4E483A",
"`  c #4B4A3D",
"'  c #504831",
"]  c #514932",
"[  c #524A33",
"{  c #574932",
"}  c #554A33",
"|  c #564A34",
" . c #51483A",
".. c #544A39",
"X. c #594B39",
"o. c #5A4D3C",
"O. c #5A513B",
"+. c #5E503A",
"@. c #59503F",
"#. c #5E533D",
"$. c #675F3C",
"%. c #4B6620",
"&. c #4C6624",
"*. c #4E6923",
"=. c #50632A",
"-. c #54652B",
";. c #54662D",
":. c #566C28",
">. c #537221",
",. c #547222",
"<. c #547322",
"1. c #557323",
"2. c #557423",
"3. c #5A7827",
"4. c #5B752B",
"5. c #5C762B",
"6. c #5A7828",
"7. c #5F7A29",
"8. c #576730",
"9. c #5E6E37",
"0. c #5E6B39",
"q. c #607037",
"w. c #64753B",
"e. c #68763B",
"r. c #494842",
"t. c #4D4942",
"y. c #4B4944",
"u. c #4E4945",
"i. c #4C4A45",
"p. c #494848",
"a. c #4F4D48",
"s. c #4E4D4C",
"d. c #504B41",
"f. c #534C43",
"g. c #514B46",
"h. c #504C45",
"j. c #534D45",
"k. c #544D44",
"l. c #584F41",
"z. c #584E43",
"x. c #504E49",
"c. c #5D5241",
"v. c #5E5743",
"b. c #585247",
"n. c #5D5246",
"m. c #5B5446",
"M. c #5B5547",
"N. c #5C5545",
"B. c #5F5644",
"V. c #5C5647",
"C. c #57534C",
"Z. c #55514E",
"A. c #5F564B",
"S. c #59534E",
"D. c #5B564C",
"F. c #58554E",
"G. c #5D544D",
"H. c #5D574D",
"J. c #5E574C",
"K. c #5C544E",
"L. c #5D5849",
"P. c #555551",
"I. c #5F5950",
"U. c #5E5955",
"Y. c #625640",
"T. c #645A45",
"R. c #655C47",
"E. c #645948",
"W. c #675C49",
"Q. c #675F49",
"!. c #615B4C",
"~. c #655C4E",
"^. c #685F4C",
"/. c #645E50",
"(. c #615C58",
"). c #6C604D",
"_. c #657540",
"`. c #727E44",
"'. c #757F48",
"]. c #656050",
"[. c #686252",
"{. c #6D6156",
"}. c #66605B",
"|. c #64605E",
" X c #6B6359",
".X c #6C655B",
"XX c #6F655B",
"oX c #706550",
"OX c #766650",
"+X c #766755",
"@X c #706659",
"#X c #746B59",
"$X c #766D5A",
"%X c #776C5B",
"&X c #7B6D5B",
"*X c #7B735B",
"=X c #676260",
"-X c #726963",
";X c #726B66",
":X c #777065",
">X c #7D7161",
",X c #7D7363",
"<X c #7F7164",
"1X c #79736B",
"2X c #7F776B",
"3X c #7D746E",
"4X c #86780D",
"5X c #82731C",
"6X c #847423",
"7X c #847869",
"8X c #84786A",
"9X c #8E7E6A",
"0X c #887C6C",
"qX c #847B73",
"wX c #4C800F",
"eX c #548514",
"rX c #62A212",
"tX c #728041",
"yX c #738147",
"uX c #768646",
"iX c #738A41",
"pX c #7E8A4F",
"aX c #9F8B3D",
"sX c #95856E",
"dX c #9C8B6E",
"fX c #919A65",
"gX c #8D8171",
"hX c #8F8375",
"jX c #8C8377",
"kX c #8C847A",
"lX c #8D837C",
"zX c #918677",
"xX c #9F8E75",
"cX c #908579",
"vX c #90867A",
"bX c #958979",
"nX c #94897A",
"mX c #948882",
"MX c #968B82",
"NX c #988B81",
"BX c #9D8E82",
"VX c #9A8D86",
"CX c #A08F81",
"ZX c #A49588",
"AX c #AD9C8D",
/* pixels */
"1XnX% a.F.C.X MX>.` ;XtXyX) u.N.",
"lX3X#XqXI U.XXz n * D.w e y.A.C ",
"-X/ %XmXeXwXd.wXZ.E : rXuXb ~ | ",
"P.r.S.& i.F @ o.0 X.r M I.R.[ O.",
"(.w.c 8.=XK.o O T A h 7 ] R z.2.",
"s.=.U VXNXG.( p.x.! k.g.|.  .X8 ",
"h.V.S 3.pXf.$XE.bX Xl.zXY x a b.",
").-.4 >  .8 P 8X>XQ.Z 7Xp ;.ZX..",
"I.^ `.. E W K ^.m.B.@.T.k < &.' ",
"jXkXcX_ @Xi u Y.1 F gX9 > J } s ",
"{.sX[.*X}.MX{ 5X2 y G H.c.6.q.3 ",
"!.0XL.:XvX:.+.$.4XH B L '.<.g b ",
"M.].j.2Xv.7.9.AXaXN 6X$ d V ; - ",
"0.J.t.# oXj iXfXCX,X+ W.D , t 6 ",
"4.4./.,.f m hX9XxX&XQ 1.l 5 = q ",
"5.*.n.e.%.BX<X~.dX_.#.OX+X>.= v "
};
