/* XPM */
static char *green_stained_glass[] = {
/* columns rows colors chars-per-pixel */
"16 16 52 1 ",
"  c #585755",
". c #5B5A58",
"X c #5B5B58",
"o c #5C5B59",
"O c #5D5C5A",
"+ c #5E5D5B",
"@ c #5F5E5C",
"# c #5F5F5D",
"$ c #605F5E",
"% c #60605E",
"& c #61605F",
"* c #62615F",
"= c #636260",
"- c #646361",
"; c #656461",
": c #656462",
"> c #666563",
", c #676664",
"< c #696865",
"1 c #696967",
"2 c #6B6A69",
"3 c #6D6C6A",
"4 c #6E6D6B",
"5 c #6F6E6D",
"6 c #787776",
"7 c #787876",
"8 c #7D7D7B",
"9 c #858483",
"0 c #878784",
"q c #878785",
"w c #888886",
"e c #898887",
"r c #898987",
"t c #8A8A87",
"y c #8A8A88",
"u c #8E8E8B",
"i c #8E8E8C",
"p c #8F8F8D",
"a c #8F8F8E",
"s c #969593",
"d c #969694",
"f c #989795",
"g c #989895",
"h c #9B9B99",
"j c #9E9E9B",
"k c #A1A19E",
"l c #A3A3A1",
"z c #A8A8A5",
"x c #ADADAA",
"c c #B0B0AD",
"v c #BABAB8",
"b c None",
/* pixels */
"+vkfi333333e0qz4",
"#x:;&e00tpi$#.j2",
"+g-bb*$#:;&bb d1",
"&i-bbbbbbbbbbXu5",
"-t-bbbbbbbbbb%y$",
"c-bbbbbbbbbbbb l",
"h*bbbbbbbbbbbb$a",
"s=bbbbbbbbbbbb@9",
"9@bbbbbbbbbbbb3s",
"a$bbbbbbbbbbbb*h",
"l bbbbbbbbbbbb@c",
"*6%bbbbbbbbbb-t&",
",7Xbbbbbbbbbb@i5",
"$8 bb&;:+><bb@g3",
"#w.#$irtq0e&;ox4",
"Ogq0e333333ifkv3"
};
