/* XPM */
static char *jungle_planks[] = {
/* columns rows colors chars-per-pixel */
"16 16 85 1 ",
"  c gray16",
". c #2D2D2D",
"X c #2F2F2F",
"o c #313131",
"O c #363535",
"+ c #4B4947",
"@ c #4E4D4B",
"# c #504E4B",
"$ c #504E4C",
"% c #514E4D",
"& c #514F4D",
"* c #53514F",
"= c #545350",
"- c #555351",
"; c #565351",
": c #565451",
"> c #565452",
", c #575552",
"< c #575553",
"1 c #585653",
"2 c #585654",
"3 c #585655",
"4 c #5A5755",
"5 c #595856",
"6 c #5A5856",
"7 c #5B5856",
"8 c #5B5956",
"9 c #5D5A58",
"0 c #5D5B58",
"q c #5F5D59",
"w c #5E5C5A",
"e c #605D5B",
"r c #615F5C",
"t c #625E5C",
"y c #625F5D",
"u c #62605D",
"i c #65625E",
"p c #666260",
"a c #676360",
"s c #666460",
"d c #676461",
"f c #676561",
"g c #676562",
"h c #686562",
"j c #696563",
"k c #696662",
"l c #6B6663",
"z c #6A6664",
"x c #6B6764",
"c c #6B6965",
"v c #6D6964",
"b c #6C6965",
"n c #6D6965",
"m c #6D6A66",
"M c #6F6A66",
"N c #6F6C67",
"B c #706C69",
"V c #706D69",
"C c #716D69",
"Z c #726C69",
"A c #726D69",
"S c #726E69",
"D c #726D6A",
"F c #716E6B",
"G c #726E6B",
"H c #736F6B",
"J c #746E6A",
"K c #74706B",
"L c #75706B",
"P c #76706B",
"I c #75706C",
"U c #76716C",
"Y c #77726D",
"T c #77726E",
"R c #78726E",
"E c #797370",
"W c #797570",
"Q c #7A7570",
"! c #7B7570",
"~ c #7B7571",
"^ c #7B7572",
"/ c #7C7772",
"( c #7D7773",
") c #817B76",
"_ c #827B78",
/* pixels */
"c6*%$3jhaptzxxxv",
"D os XI XW Xa XI",
"!XOVXOAXOGXOJXOS",
"/9u)9u~9fSvlx4uS",
"b Xk .E XI Xn XM",
"HXOGXODXOYXOQXOA",
"m9ug9u~9>Z=1R9uK",
"G XK XB XW XP XL",
"8XOQXO(XOGXONXOZ",
":9,#+@g=1g=<l4eU",
"2 XK XB XW XA XK",
"yXOxXOBXOhXOTXO^",
"m9u_9u79u^91i;u^",
"0 XW Xs XC XH XB",
"wXOGXO^XOhXOhXOG",
"m8dFBq7*&5&-88rg"
};
