/* XPM */
static char *jungle_trapdoor[] = {
/* columns rows colors chars-per-pixel */
"16 16 12 1 ",
"  c #393835",
". c #474543",
"X c #575452",
"o c #686867",
"O c #71706E",
"+ c #767572",
"@ c #777673",
"# c #7A7976",
"$ c #807E7A",
"% c #86847F",
"& c #8A8782",
"* c None",
/* pixels */
"$ooOoo$$$$@$$$$$",
"$ .. .XXXX. .. $",
"$.XX........XX.$",
"&.X.X******X.X.$",
"$ . .X****X. . +",
"$..* .X**X. *..+",
"$X.** .XX. **.X$",
"#X.*** .. ***.X$",
"OX.***X..X***.X%",
"#X.**X.  .X**.X$",
"O..*X. ** .X*..$",
"# .X. **** .X. %",
"$.X. ****** .X.%",
"$.XX........XX.$",
"O .. .XXXX. .. $",
"$o@@@$Oo@@ooOo@@"
};
