/* XPM */
static char *light_gray_concrete_powder[] = {
/* columns rows colors chars-per-pixel */
"16 16 246 2 ",
"   c #453E3A",
".  c #55472D",
"X  c #594B2A",
"o  c #594C2E",
"O  c #5B4E2F",
"+  c #5D4F2E",
"@  c #484239",
"#  c #4B433F",
"$  c #4B443F",
"%  c #564B32",
"&  c #564C34",
"*  c #594C31",
"=  c #5B4E33",
"-  c #5C4F31",
";  c #514D39",
":  c #534D3B",
">  c #574F3E",
",  c #564F3F",
"<  c #5C4F39",
"1  c #594E3F",
"2  c #5B5133",
"3  c #5D5032",
"4  c #5C5033",
"5  c #5B5037",
"6  c #5F5235",
"7  c #58503A",
"8  c #5F513B",
"9  c #5F573A",
"0  c #58513D",
"q  c #5D533D",
"w  c #5F533D",
"e  c #605231",
"r  c #615032",
"t  c #615134",
"y  c #605037",
"u  c #665537",
"i  c #6C5D35",
"p  c #615238",
"a  c #635338",
"s  c #645539",
"d  c #64563E",
"f  c #64583E",
"g  c #6C5F39",
"h  c #6B593F",
"j  c #797320",
"k  c #7D7731",
"l  c #494845",
"z  c #504C44",
"x  c #534F45",
"c  c #574F47",
"v  c #524F4B",
"b  c #565246",
"n  c #595141",
"m  c #5A5241",
"M  c #5D5241",
"N  c #5F5542",
"B  c #5F5742",
"V  c #5A5044",
"C  c #5F5846",
"Z  c #5A5248",
"A  c #5D5348",
"S  c #5D534B",
"D  c #5C534D",
"F  c #5F574D",
"G  c #5D564F",
"H  c #5B5A4C",
"J  c #5B584F",
"K  c #5C584D",
"L  c #5C5B4E",
"P  c #5F5750",
"I  c #5F5850",
"U  c #645643",
"Y  c #615644",
"T  c #605547",
"R  c #635943",
"E  c #665843",
"W  c #625845",
"Q  c #625847",
"!  c #645A47",
"~  c #685943",
"^  c #695A44",
"/  c #6A5D44",
"(  c #6B5C45",
")  c #6B5C47",
"_  c #605649",
"`  c #655748",
"'  c #60584B",
"]  c #665B48",
"[  c #63594D",
"{  c #61594F",
"}  c #62584F",
"|  c #64594E",
" . c #645D4C",
".. c #655D4F",
"X. c #685B49",
"o. c #685D4B",
"O. c #695D4C",
"+. c #695F4C",
"@. c #665951",
"#. c #655D52",
"$. c #665F53",
"%. c #6B6046",
"&. c #666548",
"*. c #68614E",
"=. c #69614F",
"-. c #6E634D",
";. c #6F614E",
":. c #6D634F",
">. c #72624C",
",. c #72634E",
"<. c #72664C",
"1. c #73664D",
"2. c #666053",
"3. c #666257",
"4. c #696150",
"5. c #6A6250",
"6. c #6C6251",
"7. c #6C6452",
"8. c #6D6552",
"9. c #6B6155",
"0. c #686056",
"q. c #6B6356",
"w. c #6A6257",
"e. c #6E6655",
"r. c #6C6457",
"t. c #6F6852",
"y. c #6F6856",
"u. c #68615C",
"i. c #68635C",
"p. c #6A635F",
"a. c #6F6859",
"s. c #726651",
"d. c #746550",
"f. c #776951",
"g. c #766C52",
"h. c #746956",
"j. c #786952",
"k. c #796C51",
"l. c #726658",
"z. c #726859",
"x. c #746C5A",
"c. c #756E5A",
"v. c #73685C",
"b. c #786B58",
"n. c #7A6F59",
"m. c #796D5B",
"M. c #7D6E5B",
"N. c #796E5C",
"B. c #796F5F",
"V. c #7D705B",
"C. c #7E735C",
"Z. c #6C6460",
"A. c #6C6864",
"S. c #756D60",
"D. c #766E61",
"F. c #746D62",
"G. c #766F63",
"H. c #7A6D61",
"J. c #7A6F61",
"K. c #766F6C",
"L. c #777065",
"P. c #7A7061",
"I. c #7A7362",
"U. c #7C7261",
"Y. c #7E7360",
"T. c #7D7263",
"R. c #7D7363",
"E. c #7A7064",
"W. c #7D7264",
"Q. c #7F7464",
"!. c #7E7368",
"~. c #89775A",
"^. c #8D7D5B",
"/. c #807360",
"(. c #837560",
"). c #837663",
"_. c #817666",
"`. c #837866",
"'. c #867A64",
"]. c #867C65",
"[. c #827768",
"{. c #80766B",
"}. c #817969",
"|. c #827869",
" X c #877869",
".X c #867C69",
"XX c #877D6D",
"oX c #887C6A",
"OX c #8A7C6D",
"+X c #897D6E",
"@X c #807770",
"#X c #867E70",
"$X c #897F70",
"%X c #887E73",
"&X c #8A7D75",
"*X c #8B9603",
"=X c #878913",
"-X c #8B806D",
";X c #8F846D",
":X c #948A60",
">X c #92836E",
",X c #95826D",
"<X c #94876F",
"1X c #9D9363",
"2X c #8A8070",
"3X c #8D8274",
"4X c #8A8078",
"5X c #8B8178",
"6X c #8C847D",
"7X c #8D867F",
"8X c #908173",
"9X c #918473",
"0X c #908277",
"qX c #918377",
"wX c #918674",
"eX c #968873",
"rX c #9C8C77",
"tX c #918378",
"yX c #918678",
"uX c #928779",
"iX c #958778",
"pX c #90867D",
"aX c #968979",
"sX c #978B79",
"dX c #94897E",
"fX c #9B8F80",
"gX c #9D938A",
"hX c #A19181",
"jX c #A39182",
"kX c #A09283",
"lX c #A19383",
"zX c #A89687",
"xX c #A39789",
"cX c #A7968A",
"vX c #A8978B",
"bX c #AA9989",
"nX c #AA9A8A",
"mX c #AC9B8B",
"MX c #AB9C8D",
"NX c #BBAC9E",
"BX c #CEB28C",
"VX c #D7B98D",
"CX c #C0AB95",
"ZX c #C1AC96",
"AX c #C1ACA0",
"SX c #C9B5A7",
/* pixels */
"jX*X% @XO 7 w E b #X| D q 1X(.w.",
"~.G.mX^ 4XaX].tXP.' $XiX`.8 Q.T ",
"=XX { >.h.*.I.3.d.rX7. .fXi q > ",
"Y.9.! kX..6.CX7X/ H.wXx k.N SX] ",
"&.T.t.9 0 < #.D.R ) hX` BXh u ,.",
"NX$.A.qXl.6XL.# N..XJ.t /.r uXn ",
"W.H S.ZX+.i.. nX  n.q.- [ 4 _.sX",
"OXu.4.~ &Xt lXI I  XU.L 2X<Xg.VX",
"y.K e.m AXg ).M.A F @ S ;X8.} ; ",
"W }.=.C 0.V.-.V XXO.gXa.l K.Q vX",
"w 5.%X).e [.a zXB '.* & Z -X{ M ",
"x.r.1.o.j.( d bXp.v.f +X, Y P _ ",
"pXF.m.:X8X,XC.:._ eX+ A |.^.o !.",
"{.v <.2 ;.p 2.3X%.6 X.3 s.5X@.: ",
"xX>XR.5 s j 0XB.yXz.E.Z.U b.G z ",
"oXc.%X= cXU.y k c 9XdXf.1 J $ MX"
};
