/* XPM */
static char *light_blue_concrete_powder[] = {
/* columns rows colors chars-per-pixel */
"16 16 255 2 ",
"   c #2A6489",
".  c #2B658A",
"X  c #2B668A",
"o  c #2C668B",
"O  c #316387",
"+  c #31698B",
"@  c #346A8F",
"#  c #396988",
"$  c #336B90",
"%  c #376C93",
"&  c #376D95",
"*  c #376F98",
"=  c #396F9B",
"-  c #3E6F9C",
";  c #347292",
":  c #327296",
">  c #377196",
",  c #387093",
"<  c #3A7094",
"1  c #35739D",
"2  c #3B719A",
"3  c #3E749F",
"4  c #3F799E",
"5  c #2E76A5",
"6  c #3F77A7",
"7  c #397AA0",
"8  c #3F7CA7",
"9  c #3676AC",
"0  c #3777AD",
"q  c #3975A9",
"w  c #3974AA",
"e  c #3F77AE",
"r  c #3979AE",
"t  c #3F7DAE",
"y  c #3676B2",
"u  c #3F7BB4",
"i  c #446FA9",
"p  c #417AA2",
"a  c #4078A5",
"s  c #437DA7",
"d  c #4277A8",
"f  c #4276AA",
"g  c #4476A9",
"h  c #4475AA",
"j  c #4176AD",
"k  c #4578A9",
"l  c #477FAA",
"z  c #4579AE",
"x  c #457BAE",
"c  c #427DAD",
"v  c #447CAC",
"b  c #457CAD",
"n  c #467CAC",
"m  c #477CAC",
"M  c #467EAC",
"N  c #467EAE",
"B  c #427CB1",
"V  c #457DB2",
"C  c #4579B4",
"Z  c #447AB6",
"A  c #437EB4",
"S  c #497EB0",
"D  c #487FB1",
"F  c #487FB6",
"G  c #4C7DB7",
"H  c #4D7CBA",
"J  c #537ABA",
"K  c #507CB8",
"L  c #3A82B7",
"P  c #4282A1",
"I  c #4B82A5",
"U  c #4480A9",
"Y  c #4680AA",
"T  c #4780AB",
"R  c #4281AC",
"E  c #4581AE",
"W  c #4783AE",
"Q  c #4B81AD",
"!  c #4C81AE",
"~  c #4984AE",
"^  c #4B85AE",
"/  c #488CA9",
"(  c #5C89A5",
")  c #5380A9",
"_  c #518CAC",
"`  c #518FAF",
"'  c #578EAC",
"]  c #4394A6",
"[  c #5694AB",
"{  c #5592AF",
"}  c #4181B0",
"|  c #4283B0",
" . c #4080B3",
".. c #4481B3",
"X. c #4781B2",
"o. c #4783B2",
"O. c #4585B0",
"+. c #4781B4",
"@. c #4983B3",
"#. c #4B83B2",
"$. c #4881B4",
"%. c #4B81B7",
"&. c #4589B2",
"*. c #4588B3",
"=. c #4D8BB1",
"-. c #4888B5",
";. c #4383B9",
":. c #4A80BA",
">. c #4A86B9",
",. c #4A85BA",
"<. c #4C85B9",
"1. c #4C86BA",
"2. c #458DBB",
"3. c #4A8AB9",
"4. c #488ABA",
"5. c #4E8BB9",
"6. c #4B8DB9",
"7. c #4D8EBC",
"8. c #5487B6",
"9. c #508FB4",
"0. c #5381BA",
"q. c #508AB9",
"w. c #5088BA",
"e. c #4796B3",
"r. c #4F9CB6",
"t. c #4E91B9",
"y. c #5292B2",
"u. c #5496B6",
"i. c #5597B6",
"p. c #5897B6",
"a. c #5498B6",
"s. c #5B98B1",
"d. c #509CBA",
"f. c #5A9DBA",
"g. c #679EBE",
"h. c #4AA4BE",
"j. c #58A3B1",
"k. c #59A4B4",
"l. c #52A3BF",
"z. c #5FA9B9",
"x. c #60A8BA",
"c. c #4E8CC4",
"v. c #5083C3",
"b. c #5594C0",
"n. c #5193C4",
"m. c #5595C4",
"M. c #5795C7",
"N. c #519FC7",
"B. c #5797CD",
"V. c #5698C8",
"C. c #549FCA",
"Z. c #5A9BCB",
"A. c #5E9DCD",
"S. c #5E9DCF",
"D. c #50A2CB",
"F. c #5AA3CF",
"G. c #56A8D2",
"H. c #5EA8D3",
"J. c #5FAAD5",
"K. c #5DACD6",
"L. c #5CA5DF",
"P. c #65A0C1",
"I. c #63A3C5",
"U. c #63AAC7",
"Y. c #6CACC2",
"T. c #66A0CA",
"R. c #63A3CD",
"E. c #62A6CD",
"W. c #66A7CF",
"Q. c #6AAACB",
"!. c #70A9C0",
"~. c #73ACCD",
"^. c #69B0C9",
"/. c #69B4C8",
"(. c #6AB5C9",
"). c #6BB6C9",
"_. c #72B9CD",
"`. c #71BBCF",
"'. c #62A5D3",
"]. c #63A2D6",
"[. c #63A6D5",
"{. c #6BA4D5",
"}. c #60ABD1",
"|. c #6CAAD1",
" X c #62A7DA",
".X c #63A8DB",
"XX c #63AFDB",
"oX c #63A9DD",
"OX c #64ABDF",
"+X c #68ACDF",
"@X c #76AED5",
"#X c #79A9D1",
"$X c #66B1DD",
"%X c #6BB6DA",
"&X c #73BDD2",
"*X c #74B1D9",
"=X c #79B7DA",
"-X c #78B4DE",
";X c #76BADB",
":X c #5CA6E0",
">X c #5DA6E0",
",X c #60AAE2",
"<X c #61AFE1",
"1X c #65A9E4",
"2X c #64AEE6",
"3X c #62B3E2",
"4X c #67B7E5",
"5X c #69B4E3",
"6X c #68B3E4",
"7X c #6CB1E6",
"8X c #6DB6E4",
"9X c #67B0E8",
"0X c #70BCE2",
"qX c #73B6EB",
"wX c #78B6EB",
"eX c #62B1F1",
"rX c #62B3F1",
"tX c #62B0F2",
"yX c #6DB6F4",
"uX c #66B9FC",
"iX c #70BCF2",
"pX c #71B8FA",
"aX c #70BAFD",
"sX c #7AC3D8",
"dX c #7EC1D9",
"fX c #7EC9DC",
"gX c #7DC0EB",
"hX c #71C0FA",
"jX c #78C0FF",
"kX c #7AC0FF",
"lX c #7DC0FF",
"zX c #83B2DF",
"xX c #8FBCE2",
"cX c #89BAE8",
"vX c #8ED9DE",
"bX c #85C1EF",
"nX c #8FC1E8",
"mX c #97C1E9",
"MX c #92C6EC",
"NX c #9AC6EC",
"BX c #99C6EE",
"VX c #8FC4F0",
"CX c #85C3FF",
"ZX c #8BCBFF",
"AX c #9BC7F0",
"SX c #96C9F5",
"DX c #9DC9F2",
"FX c #9CC8F5",
"GX c #9ECBF6",
"HX c #A6CAEB",
"JX c #A4CBEF",
"KX c #ADCFEE",
"LX c #A5CDF3",
"PX c #B2D5FA",
"IX c #B7D7F9",
/* pixels */
"- p.2XoXf X.H.J.S F % V.K.MXm.m ",
"H F.KXqXOXM.a k $ X g %...XX3.; ",
"^ 6.,XNX X2 Q &Xy.7 W.zXC c | ` ",
"<X*XY Z.s p _.sX^.1 '.4XmXw ).fX",
"-XPX+Xl B.1X=.f.U.o.#.b.e L 7.i.",
"8.I.[.1.d LXaX5.,..X5X<.].DXh   ",
"0.O 3 /.vXb >.~ E $XS.v 7X7Xz Y.",
"j.! < k.(.@.8XkXO.A.+.{.:.j x.`.",
"&.l.T , $.d.lXA = @ tXJXbX>XD dX",
"FXjX9.# ) . y e.B & eXSXuXR J z.",
"IXGX_ !.;X( 4.hX6XG } rX8 T.g.M ",
"q.I r.ZX0X~. .#XQ.t.' t W P.E.2.",
"=X|.N 4 > }.0 @X;.x s.%Xr a.-.u ",
"[ n + :Xn.P C./ *.] h.3X{ i q o ",
": L.R.HXnXCX* w.5 9 G.v.K cXyXV ",
"xXU wXVXiXu.6 pXgXD.Z N.AXBX9Xc."
};
