/* XPM */
static char *light_blue_terracotta[] = {
/* columns rows colors chars-per-pixel */
"16 16 129 2 ",
"   c #3E7898",
".  c #40708F",
"X  c #407191",
"o  c #417495",
"O  c #437796",
"+  c #407A99",
"@  c #427B9A",
"#  c #427B9B",
"$  c #447998",
"%  c #427C9A",
"&  c #427C9B",
"*  c #427C9C",
"=  c #437E9E",
"-  c #4889A8",
";  c #498EAD",
":  c #4991AF",
">  c #4893B0",
",  c #4F93B2",
"<  c #4995B2",
"1  c #4996B3",
"2  c #4C95B3",
"3  c #4B96B4",
"4  c #4B97B4",
"5  c #4C98B5",
"6  c #4D99B6",
"7  c #4C9BB6",
"8  c #4E99B8",
"9  c #4E9BB8",
"0  c #4D9CB8",
"q  c #509AB9",
"w  c #509CB9",
"e  c #509DBA",
"r  c #519DBB",
"t  c #519EBB",
"y  c #549FBC",
"u  c #55A2BD",
"i  c #55A3BD",
"p  c #55A3BF",
"a  c #57A3C0",
"s  c #56A4C0",
"d  c #57A4C0",
"f  c #59A3C0",
"g  c #59A4C1",
"h  c #5BA5C1",
"j  c #58A5C2",
"k  c #59A5C2",
"l  c #58A6C2",
"z  c #59A6C2",
"x  c #59A7C3",
"c  c #5AA6C3",
"v  c #59A8C3",
"b  c #5AA9C4",
"n  c #5AAAC4",
"m  c #909298",
"M  c #94989E",
"N  c #979AA1",
"B  c #999DA5",
"V  c #999EA5",
"C  c #9A9EA5",
"Z  c #9B9FA6",
"A  c #9B9FA7",
"S  c #9BA1A7",
"D  c #9CA1A8",
"F  c #9FA3AB",
"G  c #9FA4AB",
"H  c #A2A5AD",
"J  c #A3A8AE",
"K  c #A6AAAF",
"L  c #A5AAB0",
"P  c #A7ABB0",
"I  c #A6ABB1",
"U  c #BBBEC3",
"Y  c #BFC1C7",
"T  c #C0C2C9",
"R  c #C2C5CA",
"E  c #C7C9CF",
"W  c #C4CAD5",
"Q  c #C6CCD7",
"!  c #C9CBD1",
"~  c #C7CDD8",
"^  c #C8CED9",
"/  c #CED1D7",
"(  c #CAD0DB",
")  c #CAD1DB",
"_  c #CBD1DB",
"`  c #CCD2DB",
"'  c #CED4DD",
"]  c #CED5DE",
"[  c #CFD5DF",
"{  c #CFD6DF",
"}  c #D1D3D9",
"|  c #D2D5DB",
" . c #D4D6DB",
".. c #D0D6DF",
"X. c #D5D7DE",
"o. c #D6D8DD",
"O. c #D0D8E2",
"+. c #D1D9E2",
"@. c #D4DAE2",
"#. c #D5DBE3",
"$. c #D6DAE3",
"%. c #D4DBE5",
"&. c #D6DBE4",
"*. c #D7DBE4",
"=. c #D7DBE5",
"-. c #DBDCE2",
";. c #D8DBE5",
":. c #D9DCE6",
">. c #DBDEE7",
",. c #DBDFE7",
"<. c #DDDFE8",
"1. c #DCE0E8",
"2. c #DEE0E8",
"3. c #DEE1E8",
"4. c #E0E2EA",
"5. c #E2E5EB",
"6. c #E3E7ED",
"7. c #E5E8EE",
"8. c #E6E8EF",
"9. c #E6E9EF",
"0. c #E7E9EF",
"q. c #E7EAEF",
"w. c #E8EAEF",
"e. c #E8E9F1",
"r. c #E8EBF0",
"t. c #E8EBF1",
"y. c #E8EBF2",
"u. c #E9ECF2",
"i. c #E9ECF3",
/* pixels */
"E o. .-.X.X.-.-.-.-.-.-.-.| / T ",
"} w.q.q.0.u.r.9.8.u.t.u.i.y.w.R ",
"! :.;.#.$.=.3.>.#.&.#.1.,.&.q.U ",
"Y ^ W Q ^ _ +._ ( _ _ _ ` ) ) K ",
"P J H F C V V C N B L D G I J K ",
"$ z l h x b b b k x g a f c j , ",
"O l v a b n v n d p v s x s j - ",
"O r r y u r r r r r u r q u i - ",
"o 8 9 w 8 8 8 8 8 t 6 t e 5 w - ",
"O 9 2 5 2 < ; : > 1 0 4 3 7 5 = ",
"X . % # * * #   * + % & # @ # % ",
"T / | -.-.-.-.-.-.-.X.X.-. .o.E ",
"R 5.e.i.u.w.u.8.6.q.u.0.q.q.w.} ",
"U =.&.,.4.2.:.;.<.3.:.*.@.;.7.! ",
"K ) ) O..._ { ' [ %.] ( ~ W _ Y ",
"K A S M m M m m m M M M Z Z A P "
};
