/* XPM */
static char *lime_glazed_terracotta[] = {
/* columns rows colors chars-per-pixel */
"16 16 33 1 ",
"  c #504948",
". c #57504E",
"X c #5A5352",
"o c #5C5553",
"O c #5D5755",
"+ c #5F5857",
"@ c #615A58",
"# c #625C5A",
"$ c #645D5C",
"% c #665F5D",
"& c #67615F",
"* c #696261",
"= c #857F7B",
"- c #8D8784",
"; c #8F8885",
": c #908A87",
"> c #928C88",
", c #938D8A",
"< c #958F8C",
"1 c #96908D",
"2 c #98928F",
"3 c #999390",
"4 c #9A9592",
"5 c #9C9693",
"6 c #9F9996",
"7 c #AEA9A7",
"8 c #B0ABA8",
"9 c #B3AEAC",
"0 c #B5B1B0",
"q c #B8B3B1",
"w c #B9B4B3",
"e c #BCB8B5",
"r c #C0BCBA",
/* pixels */
";<7o7>>>>>>7O741",
"<<qXq<->>:1qOq3,",
"7qr+rq9990qr.rq7",
"$o..@X%Xo&@..X$o",
"77777qrorw887777",
",<:: *r%r* 2<<<,",
",<<<12r%r51111<<",
"<<<1 *r%r* <<:,,",
"1,><26r%r531,,;,",
"<<:< *rXr* 1;;;,",
"1<<1,>r$r=;;;,:>",
"77777qr$rq777777",
"$o.+..O.o$+..X$o",
"7qr+re0999qr#rq7",
",<qXq1:>>-<qoq<<",
"117O7>>>>>>7o7<;"
};
