/* XPM */
static char *magenta_glazed_terracotta[] = {
/* columns rows colors chars-per-pixel */
"16 16 32 1 ",
"  c #363530",
". c #373632",
"X c #383733",
"o c #393834",
"O c #3B3935",
"+ c #3C3A36",
"@ c #3D3C37",
"# c #3F3E39",
"$ c #403F3B",
"% c #41403C",
"& c #43413D",
"* c #44423E",
"= c #45443F",
"- c #46453F",
"; c #464540",
": c #605F59",
"> c #61605A",
", c #62615B",
"< c #63625C",
"1 c #64635E",
"2 c #65645F",
"3 c #676560",
"4 c #686661",
"5 c #6A6963",
"6 c #7B7A74",
"7 c #7F7E7A",
"8 c #807F7B",
"9 c #84837D",
"0 c #86857F",
"q c #868580",
"w c #878680",
"e c #8D8C86",
/* pixels */
"146&9,3333,9$631",
"319&ew8888qe$914",
"69e$%O@O@%#OOe96",
"#$*%@oooooo#%%##",
"6666666666666666",
"2<<<><<<23444222",
":<<2,,2,,1<21222",
"<<<11>,3,,<>>,2<",
"<<<1,1211>,<1<,<",
",<<,1,,1,>,,112<",
"3<<1,,12321,,2>>",
"6666666666666666",
"%&&%+X.. XX+%&%@",
"69e%;-;--;;=%e96",
"149=eq77770e=95<",
"326&924333,9$632"
};
