/* XPM */
static char *magenta_concrete_powder[] = {
/* columns rows colors chars-per-pixel */
"16 16 39 1 ",
"  c #4D363E",
". c #533B43",
"X c #543E44",
"o c #593E47",
"O c #594146",
"+ c #63454E",
"@ c #6A4A53",
"# c #6A5554",
"$ c #7A565F",
"% c #785E5E",
"& c #78645F",
"* c #7B6661",
"= c #7E6763",
"- c #7A6965",
"; c #806464",
": c #836B67",
"> c #83636A",
", c #856B69",
"< c #856E69",
"1 c #857068",
"2 c #867069",
"3 c #81736D",
"4 c #89756D",
"5 c #89746E",
"6 c #88756E",
"7 c #867670",
"8 c #8A7571",
"9 c #897973",
"0 c #917F78",
"q c #947A7E",
"w c #95857E",
"e c #968B7E",
"r c #948D7F",
"t c #977E81",
"y c #988E80",
"u c #9A9083",
"i c #9C9385",
"p c #9F9289",
"a c #A7A591",
/* pixels */
"o+ >o+>+ q>+@>o>",
"+> >+o:o$+-e8 o>",
"> .@w %1+o +@$o%",
"@ot+=$ @>+w +o$&",
"oq+ o+> oq@i$ ,#",
">+ > o@q o++o;#o",
"@*O23 +>+@i@+>o>",
">o Xp+6$@$ot> @t",
"o>r7o>49to> o>q@",
">o  ++o+0o < @u ",
"ot>o +$+ +@yt >o",
"@@@>@tw0+@,@+to>",
"> o@ $o+tt$+o>@o",
" >@>o  @>@+  +>@",
"t@oa5o+@$+ t>o@>",
">o>q+$q$+ + +to+"
};
