/* XPM */
static char *magenta_wool[] = {
/* columns rows colors chars-per-pixel */
"16 16 51 1 ",
"  c #772870",
". c #782970",
"X c #7C2C71",
"o c #7B2B74",
"O c #7F2B75",
"+ c #7A2C75",
"@ c #7C2D74",
"# c #7C2C75",
"$ c #7D2E76",
"% c #803075",
"& c #89347F",
"* c #873780",
"= c #8A3683",
"- c #8A3684",
"; c #8B3B83",
": c #8E3986",
"> c #903A88",
", c #913E89",
"< c #943C89",
"1 c #9A4394",
"2 c #9B4394",
"3 c #9C4495",
"4 c #9F4597",
"5 c #9F459A",
"6 c #A1479B",
"7 c #A3489C",
"8 c #A4499D",
"9 c #A54A9E",
"0 c #A84DA1",
"q c #A94DA1",
"w c #AC57A4",
"e c #AE58A7",
"r c #B15CA7",
"t c #B15BA8",
"y c #B15DA9",
"u c #B25EAC",
"i c #B65EAF",
"p c #B65EB0",
"a c #B360AC",
"s c #B660AD",
"d c #B963B1",
"f c #B962B3",
"g c #B966B1",
"h c #BD66B3",
"j c #BE66B2",
"k c #BD67B5",
"l c #C367B5",
"z c #C668B9",
"x c #C972BB",
"c c #CF82C8",
"v c #D491CC",
/* pixels */
"$#@$@@#@o. o.o.X",
"$cziyputjysrilv@",
"$h&;;::<,>:>:=z#",
"@i=5q7427q53q:aO",
"+r-449940548q:r+",
"@f=7389556844:d@",
"$r<5027069925:i@",
"@g=1615842078:r@",
"$p=837q5930q2:w$",
"$y:1866705455>f#",
"$g:0144q59797:i@",
"@r;q932606794:t$",
"$a;91787q9984,f@",
"+z-<:=--***;=;h@",
"@xzirrepftdrakv$",
"@@+@@+$$@@$@$@$%"
};
