/* XPM */
static char *mycelium_side[] = {
/* columns rows colors chars-per-pixel */
"16 16 247 2 ",
"   c #211512",
".  c #2C1212",
"X  c #281214",
"o  c #291917",
"O  c #2C1719",
"+  c #2C1B1B",
"@  c #2D1C1D",
"#  c #351A1B",
"$  c #371F1B",
"%  c #32191D",
"&  c #311F1F",
"*  c #381A1B",
"=  c #391D1F",
"-  c #3A1E1F",
";  c #3D1C1E",
":  c #37211F",
">  c #3B211C",
",  c #38241D",
"<  c #391F20",
"1  c #352020",
"2  c #3C2223",
"3  c #3D2223",
"4  c #3F2524",
"5  c #3C2725",
"6  c #3F3025",
"7  c #401E1E",
"8  c #43211D",
"9  c #431F24",
"0  c #481922",
"q  c #4B1F23",
"w  c #6A1E26",
"e  c #402121",
"r  c #402423",
"t  c #472424",
"y  c #452724",
"u  c #4D2820",
"i  c #482028",
"p  c #4C2628",
"a  c #512A25",
"s  c #58262A",
"d  c #592B2E",
"f  c #582C2D",
"g  c #423328",
"h  c #433328",
"j  c #443428",
"k  c #443528",
"l  c #463529",
"z  c #47372A",
"x  c #48362A",
"c  c #49382B",
"v  c #49382C",
"b  c #49392C",
"n  c #4A392C",
"m  c #4B3A2D",
"M  c #4D3C2E",
"N  c #4E3C2F",
"B  c #4F3D2F",
"V  c #573327",
"C  c #57302C",
"Z  c #5B302E",
"A  c #4D2D30",
"S  c #5D2F36",
"D  c #4D3030",
"F  c #4D3131",
"G  c #4F3D30",
"H  c #5B3530",
"J  c #503E31",
"K  c #513F31",
"L  c #523F32",
"P  c #6D2725",
"I  c #672629",
"U  c #61262C",
"Y  c #63292D",
"T  c #602D2F",
"R  c #782F2D",
"E  c #66312A",
"W  c #77362E",
"Q  c #662930",
"!  c #652E31",
"~  c #652D35",
"^  c #603632",
"/  c #653137",
"(  c #6D3232",
")  c #6C3631",
"_  c #683436",
"`  c #653835",
"'  c #663835",
"]  c #60343A",
"[  c #6B353B",
"{  c #643A3A",
"}  c #6C383A",
"|  c #6D3F3B",
" . c #6E3A3C",
".. c #703633",
"X. c #773E37",
"o. c #7D3B36",
"O. c #7C3E36",
"+. c #763538",
"@. c #75373A",
"#. c #7A3538",
"$. c #78373D",
"%. c #7E353C",
"&. c #7C363F",
"*. c #723C38",
"=. c #793A3A",
"-. c #7B3D3A",
";. c #793A3D",
":. c #514032",
">. c #534132",
",. c #544133",
"<. c #544233",
"1. c #544134",
"2. c #564435",
"3. c #584537",
"4. c #5B4839",
"5. c #5B493A",
"6. c #5D4A3A",
"7. c #5E4A3A",
"8. c #5E4A3B",
"9. c #5F4B3B",
"0. c #624D3E",
"q. c #634F3E",
"w. c #644F3F",
"e. c #7C4036",
"r. c #74433D",
"t. c #7D4239",
"y. c #7E483E",
"u. c #6E3C41",
"i. c #743946",
"p. c #773C45",
"a. c #654440",
"s. c #6C4441",
"d. c #6E4543",
"f. c #764643",
"g. c #754445",
"h. c #784441",
"j. c #7F4743",
"k. c #7F4147",
"l. c #7C4944",
"z. c #645040",
"x. c #655141",
"c. c #685141",
"v. c #695343",
"b. c #6A5442",
"n. c #6B5443",
"m. c #6B5544",
"M. c #6B5645",
"N. c #6C5645",
"B. c #6D5645",
"V. c #6D5745",
"C. c #6F5946",
"Z. c #6E5847",
"A. c #6F5947",
"S. c #705947",
"D. c #715A49",
"F. c #745B4A",
"G. c #765F4C",
"H. c #7A604E",
"J. c #79624E",
"K. c #7A6150",
"L. c #7F6552",
"P. c #7F6553",
"I. c #80463B",
"U. c #8D433A",
"Y. c #89473F",
"T. c #834E3E",
"R. c #923F51",
"E. c #834043",
"W. c #824143",
"Q. c #854341",
"!. c #8B4642",
"~. c #8E4747",
"^. c #824A45",
"/. c #804846",
"(. c #83464A",
"). c #864749",
"_. c #85474C",
"`. c #954A4E",
"'. c #924D4E",
"]. c #984A4A",
"[. c #9D4B4B",
"{. c #845042",
"}. c #83504C",
"|. c #8C5049",
" X c #885C4F",
".X c #9B5347",
"XX c #974154",
"oX c #924F54",
"OX c #934F57",
"+X c #9A4C57",
"@X c #825750",
"#X c #8C5156",
"$X c #8D5A50",
"%X c #915553",
"&X c #9A5953",
"*X c #9F5C53",
"=X c #985A55",
"-X c #935558",
";X c #995A5B",
":X c #9D5A5B",
">X c #9E5D5F",
",X c #A14D4F",
"<X c #A84356",
"1X c #A04B53",
"2X c #A15052",
"3X c #AC545E",
"4X c #AB5D5A",
"5X c #806652",
"6X c #816754",
"7X c #826854",
"8X c #836A56",
"9X c #866C58",
"0X c #886D59",
"qX c #896E59",
"wX c #8B6F5A",
"eX c #8B705B",
"rX c #8C725C",
"tX c #8D725C",
"yX c #8E725D",
"uX c #AE6354",
"iX c #A36159",
"pX c #A7665B",
"aX c #A2655E",
"sX c #A9705D",
"dX c #9D5665",
"fX c #9F5C6D",
"gX c #AA5F6C",
"hX c #9E6366",
"jX c #977963",
"kX c #987B65",
"lX c #AD6065",
"zX c #A56569",
"xX c #A6656B",
"cX c #B0686E",
"vX c #B46D6E",
"bX c #AE726F",
"nX c #B07561",
"mX c #B17068",
"MX c #B5766C",
"NX c #B76670",
"BX c #B57E78",
"VX c #B67C7D",
"CX c #BA7E7D",
"ZX c #A2846D",
"AX c #B77E82",
"SX c #BE7883",
"DX c #C38188",
/* pixels */
"aX%X=X .oXxXOXw 4X&XT.uX/.hXDX~.",
"+X*Xe.T j.} &.<XdXVXl.! +.CXbXE.",
").nXU.^.fXp.(.BX' @XMXY s. X}.cX",
"Q X.;.[ vXXXi.{.I.iX#.$.r.=.-XAX",
"gXU ~ d.sXpX3X1XO.;X#Xg.) NX:Xf.",
"lX`._ ^ S *.mXzXy.W W.h.|.Q.a C ",
"R.k.| Z 9 { @.u.f t..X'.>Xd u $X",
"% r ` / D a.H 5 A _.Y.2X%.( R ].",
"o 7 s i @ F ] 1 3 8 [.SXE o.X 4 ",
"7XP 0 O < 2 = q * $ ,X!.V -.v.+ ",
"yX9Xt # 8X- ; e K.v > , ..I 0.7X",
"J.ZXL.. k J m N.L ,.:   y 8.1.c ",
"M jXV.b P.m.x 0XtX,.& z.p rXN >.",
"K 2.h 7.G.H.6Xv B.5.Z.kXeXC.b.w.",
"6.q.m.:.6 w.A.z j w.wXn.1.n M.9.",
"b qX5Xl F.x.B D.K S.3.g G 4.<.c."
};
