/* XPM */
static char *nether_quartz_ore[] = {
/* columns rows colors chars-per-pixel */
"16 16 148 2 ",
"   c #060F0F",
".  c #090908",
"X  c #0B0A09",
"o  c #0B0B09",
"O  c #0C0B09",
"+  c #0C0B0A",
"@  c #0D0C0A",
"#  c #0D0D0A",
"$  c #0E0E0A",
"%  c #0E0D0C",
"&  c #0E0E0C",
"*  c #0F0F0C",
"=  c #0F0F0E",
"-  c #100F0D",
";  c #100F0E",
":  c #100F0F",
">  c #0C180C",
",  c #11100E",
"<  c #11110F",
"1  c #12100F",
"2  c #14130F",
"3  c #021015",
"4  c #051114",
"5  c #051315",
"6  c #0F1510",
"7  c #021419",
"8  c #061A19",
"9  c #061B1E",
"0  c #141310",
"q  c #141311",
"w  c #151411",
"e  c #141412",
"r  c #151412",
"t  c #161513",
"y  c #161613",
"u  c #181613",
"i  c #181714",
"p  c #181615",
"a  c #181715",
"s  c #191715",
"d  c #101A13",
"f  c #191815",
"g  c #1A1915",
"h  c #1A1A15",
"j  c #1B1B15",
"k  c #1A1917",
"l  c #1A1A16",
"z  c #1B1A16",
"x  c #1C1A18",
"c  c #1D1B18",
"v  c #181F1B",
"b  c #1D1C18",
"n  c #1E1D18",
"m  c #1E1D1A",
"M  c #1E1D1B",
"N  c #201E1B",
"B  c #201F1C",
"V  c #211F1C",
"C  c #0E251B",
"Z  c #19211A",
"A  c #22211C",
"S  c #22221D",
"D  c #23221D",
"F  c #23221F",
"G  c #24221F",
"H  c #0A1B23",
"J  c #0C1C20",
"K  c #0D2225",
"L  c #082A2F",
"P  c #17372B",
"I  c #062E3A",
"U  c #112435",
"Y  c #053937",
"T  c #0D3A3C",
"R  c #242220",
"E  c #252220",
"W  c #262320",
"Q  c #252420",
"!  c #262520",
"~  c #262622",
"^  c #282622",
"/  c #282722",
"(  c #282824",
")  c #292824",
"_  c #2A2825",
"`  c #2B2A25",
"'  c #2B2926",
"]  c #2C2A26",
"[  c #2D2A26",
"{  c #2D2B27",
"}  c #2D2C27",
"|  c #2D2D28",
" . c #2E2D28",
".. c #2F2E29",
"X. c #312F29",
"o. c #302E2A",
"O. c #312F2A",
"+. c #322F2B",
"@. c #32302B",
"#. c #32302C",
"$. c #33322E",
"%. c #34322C",
"&. c #34322D",
"*. c #34332E",
"=. c #37352F",
"-. c #373531",
";. c #383632",
":. c #3C3934",
">. c #3C3A34",
",. c #403D37",
"<. c #403E37",
"1. c #403E38",
"2. c #403F39",
"3. c #0E4017",
"4. c #0D4426",
"5. c #1C4727",
"6. c #1A5338",
"7. c #43403A",
"8. c #092747",
"9. c #0C345C",
"0. c #1A4349",
"q. c #0A504B",
"w. c #154453",
"e. c #1B4656",
"r. c #155057",
"t. c #175158",
"y. c #175B5E",
"u. c #285340",
"i. c #395044",
"p. c #275653",
"a. c #196240",
"s. c #10664F",
"d. c #197153",
"f. c #306649",
"g. c #207455",
"h. c #287653",
"j. c #22725F",
"k. c #1F5B62",
"l. c #1B7A79",
"z. c #286667",
"x. c #2B7F67",
"c. c #484640",
"v. c #4B4840",
"b. c #4C4A43",
"n. c #2E8778",
"m. c #209173",
"M. c #1F8587",
"N. c #1E8F85",
/* pixels */
"> y m M / } ) t $ t * %.i.%.B v ",
"m t O.1.v.9 m / m w t ! [ ^ ..e.",
"E { Z =.+.c V N D j.b h 0 ; r e ",
"S { M F ! ' z.! m i M y.I : k | ",
"t ) 2 S ^ ^ ) ) &.=._ 4 9.0.2.<.",
"A m - =.Y { ^ A 7 = . 5 L 8.o.-.",
"p &._ l.m.! E 8 Q $._ t n 2 s -.",
"J / t.4.d.] ! 3 _ b.c.x ^ d *. .",
"2 g T 3.y l H G @.#.( 6 ! W M.t ",
"w t ! g ; 0 z { B q t f 2 1 o + ",
"  U / G l 0 p % X t m a.j u t R ",
"t , D :.K t & . @ 2 N.5.x.E ^ ( ",
"z - f ^ ..` 6.q.O 1 P g.n.7.( < ",
"=.t x l B D h.r.p i D X.#.;.B q ",
"M g D a ~ -.^ m ..p...F t w.k.X.",
"# w <.>.,.! n c g C s.M G u.f.' "
};
