/* XPM */
static char *oak_trapdoor[] = {
/* columns rows colors chars-per-pixel */
"16 16 11 1 ",
"  c #444546",
". c #5C5C5B",
"X c #5D5D5D",
"o c #636361",
"O c #646362",
"+ c #656464",
"@ c #6B6A67",
"# c #7D7C79",
"$ c #8E8B86",
"% c #93908B",
"& c None",
/* pixels */
"%%%%%%%%%%%%%%$#",
"%.o@@@@@@@@@@o. ",
"%o@          @o ",
"%@ &&&&&&&&&& @ ",
"%@ &&&&&&&&&& @ ",
"%@@@@@@@@@@@@@@ ",
"%@            @ ",
"%@ &&&&&&&&&& @ ",
"%@ &&&&&&&&&& @ ",
"%@@@@@@@@@@@@@@ ",
"%@            @ ",
"%@ &&&&&&&&&& @ ",
"%@ &&&&&&&&&& @ ",
"%O@          @O ",
"%XO@@@@@@@@@@OX ",
"+               "
};
