/* XPM */
static char *obsidian[] = {
/* columns rows colors chars-per-pixel */
"16 16 169 2 ",
"   c #000202",
".  c #07070C",
"X  c #0C0C0E",
"o  c #0E0C0F",
"O  c #0C0E0F",
"+  c #0C0C10",
"@  c #0C0C11",
"#  c #0E0C11",
"$  c #0C0E11",
"%  c #0C0F11",
"&  c #0F0F10",
"*  c #0E0E11",
"=  c #0F0E11",
"-  c #0E0F11",
";  c #0F0F11",
":  c #0C0C12",
">  c #0C0C13",
",  c #0F0F12",
"<  c #0F0E15",
"1  c #0E0E17",
"2  c #110E11",
"3  c #100F15",
"4  c #0F1012",
"5  c #101012",
"6  c #101113",
"7  c #111113",
"8  c #111313",
"9  c #111015",
"0  c #111214",
"q  c #111315",
"w  c #121214",
"e  c #121215",
"r  c #131215",
"t  c #131315",
"y  c #121217",
"u  c #131217",
"i  c #131515",
"p  c #151515",
"a  c #141417",
"s  c #101118",
"d  c #111118",
"f  c #121118",
"g  c #131318",
"h  c #121219",
"j  c #131219",
"k  c #121319",
"l  c #12121A",
"z  c #141318",
"x  c #151318",
"c  c #14121B",
"v  c #14131B",
"b  c #131518",
"n  c #13151A",
"m  c #141418",
"M  c #151418",
"N  c #141518",
"B  c #151518",
"V  c #141419",
"C  c #151519",
"Z  c #171419",
"A  c #171519",
"S  c #171719",
"D  c #15141A",
"F  c #15151A",
"G  c #15141B",
"H  c #15171A",
"J  c #17171A",
"K  c #15151D",
"L  c #17141C",
"P  c #17141D",
"I  c #15151E",
"U  c #17151E",
"Y  c #181518",
"T  c #181718",
"R  c #181719",
"E  c #18171A",
"W  c #19171A",
"Q  c #131818",
"!  c #15181A",
"~  c #15181D",
"^  c #18181A",
"/  c #19181B",
"(  c #19191B",
")  c #18181D",
"_  c #1A181D",
"`  c #1A191D",
"'  c #1B191D",
"]  c #181A1D",
"[  c #1A1A1D",
"{  c #1C1B1C",
"}  c #1D1B1D",
"|  c #1D1D1D",
" . c #191720",
".. c #151A21",
"X. c #181821",
"o. c #1A1920",
"O. c #1A1821",
"+. c #181A21",
"@. c #1A1A21",
"#. c #1B1A21",
"$. c #1A1922",
"%. c #1B1922",
"&. c #1D1A21",
"*. c #1A1D21",
"=. c #1D1C20",
"-. c #1D1D21",
";. c #1E1C20",
":. c #191824",
">. c #1A1A24",
",. c #1C1A24",
"<. c #1D1A24",
"1. c #1C1B24",
"2. c #1C1A25",
"3. c #1D1B26",
"4. c #1E1B27",
"5. c #1A1D24",
"6. c #1D1D24",
"7. c #1E1D27",
"8. c #1D1B2A",
"9. c #1E1C29",
"0. c #1E1D29",
"q. c #1E1A2D",
"w. c #1E1D2D",
"e. c #201D22",
"r. c #201D27",
"t. c #201D29",
"y. c #201D2B",
"u. c #211D2B",
"i. c #211D2C",
"p. c #221E2D",
"a. c #211E2E",
"s. c #221E2E",
"d. c #251E30",
"f. c #222024",
"g. c #232024",
"h. c #222226",
"j. c #262329",
"k. c #27242A",
"l. c #23202E",
"z. c #24212F",
"x. c #25222E",
"c. c #24232E",
"v. c #25222F",
"b. c #27242D",
"n. c #29252B",
"m. c #2A262C",
"M. c #252233",
"N. c #272333",
"B. c #272432",
"V. c #272336",
"C. c #2A2730",
"Z. c #292632",
"A. c #2A2633",
"S. c #292434",
"D. c #292537",
"F. c #2B2934",
"G. c #2C273E",
"H. c #2E293E",
"J. c #302B40",
"K. c #332C40",
"L. c #342C44",
"P. c #372E4A",
"I. c #3B3645",
"U. c #3C3645",
"Y. c #3B3348",
"T. c #3F364E",
"R. c #3B3455",
"E. c #413B5E",
"W. c #484056",
/* pixels */
"O.&.b ) N.R.4.2.:.H Z 2 9.) R ` ",
"t.x.M ~ +.c ]  .%.6.s = t r N ..",
"D.} W E q ~ l E.T.=.y.K _ s 6.<.",
"k.n.g.' M 6.: 8.s.H.P b d 0.=.# ",
";.f.e 6.6.+ @.| K < u ; *.v H.3 ",
"t i ^ o U i.- + ] ; , O & e > F ",
"m $ 6.E t.J.i.j ) 6.6.5 / o., ) ",
"7 q 3 6 { 3.V.r.b I , w f K.u.^ ",
"p O.# e ) 7 Z.W.6.Q 6.n $.G.q.) ",
"; _ g >.y z ) U.a 0 1.l.p.p.9 j ",
"h.J 7 K Y.I.] t -.= % w.M.9 + K ",
"V 4 g 7.v.F.( 6.B ) ! ) * F 8   ",
"! X ' 7.c.C.J = g u P.L.B.t T [ ",
"Z Y A G k A.m @ ) ,.S.a.1 &.f.B ",
"m ( & K h - * . % z.D L h * 0 h ",
"C 5.X.B e.m.j.A ~ #.b.e x S K d."
};
