/* XPM */
static char *orange_stained_glass[] = {
/* columns rows colors chars-per-pixel */
"16 16 48 1 ",
"  c #2D2E2F",
". c #353537",
"X c #353637",
"o c #373739",
"O c #37383A",
"+ c #38393A",
"@ c #39393B",
"# c #393A3B",
"$ c #3A3A3C",
"% c #3A3B3C",
"& c #3B3B3D",
"* c #3B3C3E",
"= c #3C3C3E",
"- c #3C3D3E",
"; c #3D3E3F",
": c #3E3E41",
"> c #414243",
", c #424243",
"< c #464648",
"1 c #4F5052",
"2 c #515153",
"3 c #515154",
"4 c #525254",
"5 c #535355",
"6 c #535456",
"7 c #545457",
"8 c #555557",
"9 c #58585B",
"0 c #59595C",
"q c #595A5C",
"w c #5B5B5D",
"e c #5F5F62",
"r c #616264",
"t c #626264",
"y c #636366",
"u c #636466",
"i c #676769",
"p c #68686C",
"a c #69696C",
"s c #6C6C6F",
"d c #6C6C70",
"f c #6F6F73",
"g c #747477",
"h c #79797C",
"j c #A4774B",
"k c #B9824D",
"l c #7C7C80",
"z c #89898C",
/* pixels */
"zsu.e0edp030.24g",
"h==0........6@oa",
"y-k&6slllls0%jXt",
"q-kj&%@=@==&kjo9",
"7-kjkjkjkjkjkj$8",
"w&kjkjkjkjkjkj&w",
"i&kjkjkjkjkjkj&w",
"r*kjkjkjkjkjkj&1",
"1#kjkjkjkjkjkj&r",
"w%kjkjkjkjkjkj&i",
"w&kjkjkjkjkjkj&w",
">&kjkjkjkjkjkj-7",
",okj&==+=+;:kj#q",
"<Xk%0slllls6&j#y",
"5o@6........0=Oh",
"y42 00fpdfe3.usz"
};
