/* XPM */
static char *orange_wool[] = {
/* columns rows colors chars-per-pixel */
"16 16 59 1 ",
"  c #91340E",
". c #92340F",
"X c #96350F",
"o c #97370F",
"O c #99350F",
"+ c #99370F",
"@ c #9B3510",
"# c #993711",
"$ c #983811",
"% c #9B3810",
"& c #993B12",
"* c #9D3A12",
"= c #9E3B12",
"- c #9E3B13",
"; c #A74316",
": c #A94215",
"> c #AD4117",
", c #AE4217",
"< c #A94618",
"1 c #AD4618",
"2 c #B04619",
"3 c #B2461D",
"4 c #B24A19",
"5 c #B24B19",
"6 c #B44A19",
"7 c #C4551F",
"8 c #C5561F",
"9 c #C65720",
"0 c #C85921",
"q c #C95A22",
"w c #CA5B23",
"e c #CB5C23",
"r c #CD5D24",
"t c #CE5E24",
"y c #CF5F25",
"u c #D16026",
"i c #D1652E",
"p c #D6682F",
"a c #D46B31",
"s c #D46B32",
"d c #D66C32",
"f c #D46F32",
"g c #D76C35",
"h c #DD6A36",
"j c #DD6F35",
"k c #DF6F35",
"l c #DD6F36",
"z c #DA7639",
"x c #E27036",
"c c #E07338",
"v c #E07439",
"b c #E07939",
"n c #E37B3B",
"m c #E47E3A",
"M c #E4793C",
"N c #E87C39",
"B c #ED8944",
"V c #F08E56",
"C c #F19D68",
/* pixels */
"%+$=$$+$O XO.O.o",
"#VNjdkhfbdlajmC$",
"#n:<<556345451N+",
"$j1qye08eyq9y5g%",
"@a,00tt0uq0ry5s@",
"$x1e9rtqqwr005c$",
"#s6qu8euwtt8q2j$",
"$z17w7qr08uer5a$",
"%k1r9eyqt9uy85i%",
"-d27rwweuq0qq4x+",
"*z2u700yqtete5j$",
"$s<yt98wuwet05f#",
"%g<t7ereyttr03x$",
"@N,621,>;;;<1<n$",
"$BNjaspkxfvsgMC%",
"$$@$$@##$$=$%$=&"
};
