/* XPM */
static char *pink_stained_glass[] = {
/* columns rows colors chars-per-pixel */
"16 16 35 1 ",
"  c #515151",
". c #525151",
"X c #545353",
"o c #555454",
"O c gray35",
"+ c #5F5F5F",
"@ c #676767",
"# c #6D6D6D",
"$ c gray43",
"% c #7E7E7E",
"& c gray50",
"* c #808080",
"= c #939393",
"- c gray58",
"; c gray67",
": c #ACACAC",
"> c gray68",
", c #AFAFAF",
"< c gray69",
"1 c #B1B1B1",
"2 c #B2B2B2",
"3 c #B4B4B4",
"4 c gray71",
"5 c #B6B6B6",
"6 c #B7B7B7",
"7 c gray72",
"8 c #B9B9B9",
"9 c #BBBBBB",
"0 c #BCBCBC",
"q c gray74",
"w c #C0C0C0",
"e c #C1C1C1",
"r c gray76",
"t c gray77",
"y c None",
/* pixels */
"+=**&*-@=**&&*-#",
"& rqt69<ww7e31.-",
"$qqyyyyyyyyyyq4&",
"$qyyyyyyyyyyyy;*",
"$qyyyyyyyyyyyy2&",
"$qyyyyyyyyyyyy<*",
"%qyyyyyyyyyyyy1=",
"O<yyyyyyyyyyyy<@",
"&qyyyyyyyyyyyy2-",
"$qyyyyyyyyyyyy8&",
"$qyyyyyyyyyyyy6*",
"$qyyyyyyyyyyyy8*",
"$6yyyyyyyyyyyy3&",
"$0qyyyyyyyyyyq,&",
"%X04>12<5:,066o=",
"+%$$$$&O%$$$$$%+"
};
