/* XPM */
static char *pink_terracotta[] = {
/* columns rows colors chars-per-pixel */
"16 16 40 1 ",
"  c gray29",
". c gray30",
"X c gray31",
"o c gray32",
"O c gray33",
"+ c gray34",
"@ c #5B5B5B",
"# c gray40",
"$ c #767676",
"% c #797979",
"& c gray48",
"* c #7B7B7B",
"= c #7C7C7C",
"- c gray49",
"; c #7E7E7E",
": c gray50",
"> c #808080",
", c #818181",
"< c gray51",
"1 c #838383",
"2 c #848484",
"3 c gray52",
"4 c #868686",
"5 c gray53",
"6 c gray54",
"7 c #8B8B8B",
"8 c #8D8D8D",
"9 c #909090",
"0 c #929292",
"q c #939393",
"w c #959595",
"e c #989898",
"r c gray61",
"t c #A0A0A0",
"y c #A4A4A4",
"u c #A9A9A9",
"i c #ACACAC",
"p c #AFAFAF",
"a c #B1B1B1",
"s c gray70",
/* pixels */
"uuiue90%uuiue90%",
"a;;;*$$Xa;;,-$$X",
"s5+1-+; s5+2;+; ",
"u65,:,, u631>,, ",
"u996,,5ou843<,5o",
"u;,><>>Xu>11<>;X",
"a,,>,11.a,,;><,.",
"p;%;>>:@p;%=;&$@",
"y22>->:+y22;&&$+",
"t55<1<1ot55<1,<o",
"r951,12or732<12o",
"t7321<5Xt533115X",
"q<12<%%Xq>12<=%X",
"w,+;;+;+w,+;;+;+",
"5;;$$%;+q;;$$%;+",
"#X O++XX#X O++XX"
};
