/* XPM */
static char *pink_wool[] = {
/* columns rows colors chars-per-pixel */
"16 16 52 1 ",
"  c #A33A5C",
". c #A1395E",
"X c #A43A5D",
"o c #A63C62",
"O c #A83E60",
"+ c #A83E65",
"@ c #AA3E64",
"# c #A84063",
"$ c #AB4365",
"% c #A94267",
"& c #A64068",
"* c #B3496F",
"= c #B34C73",
"- c #B44C73",
"; c #B34C75",
": c #B74F78",
"> c #B65276",
", c #BA507A",
"< c #BD537B",
"1 c #BB577E",
"2 c #C25B88",
"3 c #C35C89",
"4 c #C55E8B",
"5 c #C55E8D",
"6 c #C75F8E",
"7 c #C65F8F",
"8 c #C96290",
"9 c #CA6592",
"0 c #CB6794",
"q c #CB6796",
"w c #CC6794",
"e c #D1769E",
"r c #D176A0",
"t c #D37BA3",
"y c #D47AA2",
"u c #D37DA5",
"i c #D47EA9",
"p c #D67EA8",
"a c #D67FA8",
"s c #D67EAA",
"d c #D581A9",
"f c #DB85AA",
"g c #DC86AB",
"h c #D882AD",
"j c #D984AD",
"k c #D886AD",
"l c #DB86AE",
"z c #DD86AE",
"x c #DB89AF",
"c c #E195B7",
"v c #E6A9C8",
"b c #EBBDD4",
/* pixels */
"%+#%##+#oX.o o O",
"%vzpusiyfuatpgb#",
"%l*>>::<1,:,:-z+",
"#p-5w6426w53w:d@",
"&t;449940548w:t&",
"#h-6389557844:j#",
"%t<5q26q79925:p#",
"#k-2725842068:t#",
"%s-836w5930w2:e%",
"%u:28776q5455,h+",
"%k:0244w59696:p#",
"#t>w9327q7694:y%",
"%d>92686w99841h#",
"&z;<:-;;===>->l#",
"#czpttrshyjtdxb%",
"##&##&%%##%#%#%$"
};
