/* XPM */
static char *polished_andesite[] = {
/* columns rows colors chars-per-pixel */
"16 16 253 2 ",
"   c #312B27",
".  c #38322B",
"X  c #3B3529",
"o  c #3F372F",
"O  c #3E3830",
"+  c #3E3831",
"@  c #403D2A",
"#  c #423F2C",
"$  c #403A30",
"%  c #423A31",
"&  c #423A32",
"*  c #423B32",
"=  c #413C32",
"-  c #473E36",
";  c #483D33",
":  c #3F5B0F",
">  c #3D5712",
",  c #3C5316",
"<  c #3D5416",
"1  c #3D5716",
"2  c #3C5813",
"3  c #3C5D10",
"4  c #435E08",
"5  c #455B0D",
"6  c #45590F",
"7  c #455C0C",
"8  c #455715",
"9  c #485717",
"0  c #475D11",
"q  c #405D14",
"w  c #4A5E11",
"e  c #495817",
"r  c #495C17",
"t  c #445119",
"y  c #44531F",
"u  c #475F1A",
"i  c #455C1E",
"p  c #495C19",
"a  c #495B1D",
"s  c #4B581F",
"d  c #4E5D1D",
"f  c #4C6B07",
"g  c #456408",
"h  c #4C660E",
"j  c #4E6D0B",
"k  c #516F0E",
"l  c #4C790F",
"z  c #52750A",
"x  c #55760B",
"c  c #53720D",
"v  c #54730D",
"b  c #57780D",
"n  c #58790F",
"m  c #5B7F0F",
"M  c #4C6310",
"N  c #4B6411",
"B  c #4C6411",
"V  c #4D6412",
"C  c #4D6712",
"Z  c #4F6613",
"A  c #4E6416",
"S  c #486B14",
"D  c #4D6A15",
"F  c #4D6F17",
"G  c #49641A",
"H  c #49611D",
"J  c #4A641C",
"K  c #4D641F",
"L  c #4B681B",
"P  c #506813",
"I  c #526D12",
"U  c #536D13",
"Y  c #546F11",
"T  c #516418",
"R  c #526618",
"E  c #526619",
"W  c #53641B",
"Q  c #51631D",
"!  c #53641E",
"~  c #546A18",
"^  c #576C1A",
"/  c #55691D",
"(  c #566B1D",
")  c #57681E",
"_  c #5A6F1B",
"`  c #586F1D",
"'  c #4C7015",
"]  c #4E7118",
"[  c #577411",
"{  c #597214",
"}  c #5B7614",
"|  c #597516",
" . c #5C7517",
".. c #5C7B15",
"X. c #5B761C",
"o. c #5E741C",
"O. c #59781E",
"+. c #5F791C",
"@. c #607B18",
"#. c #607C19",
"$. c #637E18",
"%. c #60781D",
"&. c #41422C",
"*. c #46412F",
"=. c #45432F",
"-. c #46462C",
";. c #47472F",
":. c #4A4D2B",
">. c #4E4F2E",
",. c #475120",
"<. c #495123",
"1. c #4A5821",
"2. c #4B5D22",
"3. c #4C5B27",
"4. c #4B512A",
"5. c #4F552B",
"6. c #4E502C",
"7. c #525C2B",
"8. c #515B2D",
"9. c #535E2D",
"0. c #535D2F",
"q. c #4A4732",
"w. c #484037",
"e. c #4D4535",
"r. c #4A4932",
"t. c #4E4933",
"y. c #4E4A35",
"u. c #4E4D37",
"i. c #474038",
"p. c #4C4438",
"a. c #4E463B",
"s. c #4F473D",
"d. c #504E33",
"f. c #504C36",
"g. c #51473B",
"h. c #514B3B",
"j. c #554B38",
"k. c #514E3A",
"l. c #544D3B",
"z. c #52493C",
"x. c #574F3D",
"c. c #574D3E",
"v. c #4E5230",
"b. c #545434",
"n. c #545537",
"m. c #555537",
"M. c #555A30",
"N. c #585C32",
"B. c #54503B",
"V. c #585738",
"C. c #5A5639",
"Z. c #59533E",
"A. c #59533F",
"S. c #58573E",
"D. c #5A5B38",
"F. c #5E5E38",
"G. c #5C5F3A",
"H. c #5C5E3B",
"J. c #5C5B3C",
"K. c #5E593F",
"L. c #5F5E3D",
"P. c #605A3E",
"I. c #4E6521",
"U. c #516620",
"Y. c #546225",
"T. c #566920",
"R. c #5B6D23",
"E. c #5B6A27",
"W. c #5C6C24",
"Q. c #5F6F27",
"!. c #516128",
"~. c #54642A",
"^. c #56612E",
"/. c #57652E",
"(. c #5B632A",
"). c #5D672A",
"_. c #5D6929",
"`. c #596E29",
"'. c #5E6F2A",
"]. c #5F6A2F",
"[. c #5D6C2C",
"{. c #5C6D2C",
"}. c #547520",
"|. c #5B7A24",
" X c #5B603A",
".X c #607222",
"XX c #657C21",
"oX c #647827",
"OX c #657B26",
"+X c #63722A",
"@X c #64712B",
"#X c #66722E",
"$X c #63762C",
"%X c #65742C",
"&X c #616637",
"*X c #616A33",
"=X c #666F35",
"-X c #606339",
";X c #606838",
":X c #656F39",
">X c #696F3B",
",X c #667034",
"<X c #687336",
"1X c #6A7534",
"2X c #637830",
"3X c #6F7B32",
"4X c #637038",
"5X c #6A733A",
"6X c #69703C",
"7X c #6D743C",
"8X c #6E7A39",
"9X c #707539",
"0X c #71783C",
"qX c #564D40",
"wX c #554C42",
"eX c #595143",
"rX c #5B5741",
"tX c #5F5448",
"yX c #625544",
"uX c #605A44",
"iX c #625448",
"pX c #64584B",
"aX c #66584A",
"sX c #685C4D",
"dX c #6B5F4E",
"fX c #606040",
"gX c #676543",
"hX c #6A6643",
"jX c #6C6C44",
"kX c #6C6E45",
"lX c #6A634B",
"zX c #6F7940",
"xX c #717242",
"cX c #787A47",
"vX c #5C810D",
"bX c #5F840D",
"nX c #62870F",
"mX c #6C940F",
"MX c #648612",
"NX c #638314",
"BX c #648316",
"VX c #638910",
"CX c #648911",
"ZX c #678618",
"AX c #67851A",
"SX c #6B8D19",
"DX c #708F1D",
"FX c #6F9515",
"GX c #688025",
"HX c #6D8524",
"JX c #6D8425",
"KX c #6F8528",
"LX c #7D8544",
/* pixels */
"+.SXj b P o..XU JXDXFXc x mXvXz ",
"A C N BX9 w 6 V m k ^ I v M g 4 ",
"#.[ nXn R { Z h bXNXD 8 t 7 f CX",
"Y VX0 5 W ZXKX%.~ MX$.W.u : /  .",
"B ` Y.).>.e } E ,.p ! N.K ^.:Xd ",
"XX#XF.C.*.<.M.7._.].s # R.oX<Xd.",
"+X3Xe.o /.< i , y a :.1.@...5.;.",
"aXhXq.3.2 > ' }.S 3 X.( Q | r U.",
"sXwXc.4.GX%XJ.H.G ] O.{.*XD.y.h.",
"O 5XAXT _ @X;X>X8.n.fXu.9.V.p.s.",
"4Xm.,X(.6.! T.) G.6X:X0.`.jXl 8X",
"&.1 ~.2.!.'.[.b.B.S.rXI.kX|.-X-.",
"k.q L F H 2XJ a.dXpXtXl.z.zXlX. ",
"K. Xv.uXHXOX$Xx.; 9X0XZ.g.A.1XeX",
"+ w.% 7XE.Q.LXgX=.=Xj.* xXP.cXyX",
"- w.& = &Xr.f.L.@ t.i.  X $ qXiX"
};
