/* XPM */
static char *prismarine_bricks[] = {
/* columns rows colors chars-per-pixel */
"16 16 74 1 ",
"  c #1E1E1E",
". c gray12",
"X c #191C20",
"o c #191D20",
"O c #1A1D21",
"+ c #1B1E21",
"@ c #1C1F21",
"# c #1C1F22",
"$ c #1D2023",
"% c #1E2123",
"& c #1E2225",
"* c #202020",
"= c gray13",
"- c #222222",
"; c #232323",
": c #252525",
"> c gray15",
", c #272727",
"< c #2A2A2A",
"1 c gray17",
"2 c #2C2C2C",
"3 c #2D2D2D",
"4 c gray18",
"5 c gray19",
"6 c #313131",
"7 c #353535",
"8 c gray21",
"9 c #373737",
"0 c #303438",
"q c #313439",
"w c #32363A",
"e c #33373A",
"r c #33373B",
"t c #34383B",
"y c #34383C",
"u c #35393D",
"i c #36393D",
"p c #373B3F",
"a c #393939",
"s c #3A3A3A",
"d c gray23",
"f c #383C3F",
"g c #383C40",
"h c #3F4346",
"j c #3F4347",
"k c #404346",
"l c #404448",
"z c #414548",
"x c #414549",
"c c #424548",
"v c #42464A",
"b c #43474A",
"n c #43474B",
"m c #44474A",
"M c #45494C",
"N c #464A4C",
"B c #494949",
"V c #4B4B4B",
"C c #4E4E4E",
"Z c gray31",
"A c #494D51",
"S c #484E50",
"D c #494E50",
"F c #4A4E50",
"G c #4B4F53",
"H c #4C4F52",
"J c #4A5052",
"K c #4B5052",
"L c #4B5053",
"P c #4D5153",
"I c #4E5254",
"U c #535353",
"Y c #555555",
"T c #565656",
/* pixels */
"OrbK*-:33, =jAu%",
"OfMA=4aVU9,=xPi%",
"XwvK=->45, .nHp#",
"+qMP-4dVY7<*hKy$",
"+0cG=;,65,**bSg#",
"orvK=3dZY9>=bJp+",
"OwMK;;>43,*=lKr#",
"O0vP-<8CTs<=mFq%",
"oqMP-.,42,==bLe&",
"XrzP-,dBT91=kLt@",
"otxI=-,44,-=kLr%",
"OqNK=<dVTd4=xDy$",
"oqMP-.,42,==bLe&",
"XrzP-,dBT91=kLt@",
"otxI=-,44,-=kLr%",
"OqNK=<dVTd4=xDy$"
};
