/* XPM */
static char *purple_wool[] = {
/* columns rows colors chars-per-pixel */
"16 16 58 1 ",
"  c #431D6B",
". c #441C6B",
"X c #431C6C",
"o c #441D6F",
"O c #461E6E",
"+ c #461E70",
"@ c #471E70",
"# c #47206F",
"$ c #452070",
"% c #482070",
"& c #482170",
"* c #4A2270",
"= c #482172",
"- c #482272",
"; c #4F2778",
": c #512679",
"> c #51287B",
", c #52297B",
"< c #532B7A",
"1 c #542B7D",
"2 c #562B7E",
"3 c #572B7E",
"4 c #572F7F",
"5 c #592C80",
"6 c #5D3189",
"7 c #5F328A",
"8 c #61348A",
"9 c #62348B",
"0 c #62348C",
"q c #63358D",
"w c #65368E",
"e c #66378F",
"r c #663990",
"t c #693991",
"y c #683992",
"u c #683993",
"i c #6F4395",
"p c #714397",
"a c #724597",
"s c #734597",
"d c #754597",
"f c #734899",
"g c #754A9B",
"h c #75499D",
"j c #77489D",
"k c #77489E",
"l c #78499D",
"z c #7B4D9D",
"x c #7A4BA1",
"c c #7C4DA0",
"v c #7F4DA0",
"b c #7F4DA2",
"n c #7F4FA3",
"m c #824DA3",
"M c #834DA6",
"N c #8A57AA",
"B c #9164B1",
"V c #9870B6",
/* pixels */
"%+#=##+#o.Xo o O",
"&BMjfkhdvflsjmV#",
"&b:<<22543232,M+",
"#j,0tw97wt08t2g@",
"$s>99rr9y09et2a$",
"#x,w8er00qe992c#",
"&a50u7wuqrr701j#",
"#z,6q60e97ywe2s#",
"%k,e8wt0r8yt72i%",
"-f16eqqwu09003x+",
"=z1y699t0rwrw2j#",
"#a<tr87quqwr92d&",
"%g<r6wewtrre94x#",
"$M>51,>>;;;<,<b#",
"#NMjsapkxdcagnV%",
"##$##$&&##=#%#=*"
};
