/* XPM */
static char *purple_terracotta[] = {
/* columns rows colors chars-per-pixel */
"16 16 145 2 ",
"   c #2D2A2B",
".  c #2E2A2D",
"X  c #2E2B2D",
"o  c #2F2B2E",
"O  c #2F2C2E",
"+  c #302C2F",
"@  c #302D2F",
"#  c #312F30",
"$  c #322F30",
"%  c #322E31",
"&  c #322F31",
"*  c #332F31",
"=  c #332F32",
"-  c #333032",
";  c #333132",
":  c #343032",
">  c #343033",
",  c #343133",
"<  c #353133",
"1  c #343233",
"2  c #353134",
"3  c #363235",
"4  c #373335",
"5  c #373435",
"6  c #373536",
"7  c #383435",
"8  c #383436",
"9  c #383537",
"0  c #393537",
"q  c #393637",
"w  c #393638",
"e  c #3A3638",
"r  c #3A3639",
"t  c #3B3839",
"y  c #3B383A",
"u  c #3D3A3C",
"i  c #3E3A3C",
"p  c #3E3B3D",
"a  c #3F3B3D",
"s  c #3F3C3D",
"d  c #403C3D",
"f  c #403D3E",
"g  c #413E40",
"h  c #423F40",
"j  c #423F41",
"k  c #444041",
"l  c #454243",
"z  c #454343",
"x  c #464445",
"c  c #474546",
"v  c #484545",
"b  c #484546",
"n  c #484646",
"m  c #484647",
"M  c #494647",
"N  c #4B4949",
"B  c #4B494A",
"V  c #4C4949",
"C  c #4C494B",
"Z  c #4C4A4B",
"A  c #4D4A4B",
"S  c #4D4B4B",
"D  c #4E4B4C",
"F  c #4E4B4D",
"G  c #4F4E4D",
"H  c #514F4F",
"J  c #525050",
"K  c #535150",
"L  c #535252",
"P  c #545151",
"I  c #555151",
"U  c #545251",
"Y  c #555152",
"T  c #545252",
"R  c #555252",
"E  c #545352",
"W  c #555352",
"Q  c #565352",
"!  c #565353",
"~  c #565453",
"^  c #575453",
"/  c #565354",
"(  c #565454",
")  c #575454",
"_  c #565554",
"`  c #575554",
"'  c #565555",
"]  c #575555",
"[  c #575655",
"{  c #575656",
"}  c #585454",
"|  c #585554",
" . c #585555",
".. c #585654",
"X. c #595654",
"o. c #585655",
"O. c #595655",
"+. c #595656",
"@. c #595756",
"#. c #585657",
"$. c #585757",
"%. c #5A5656",
"&. c #5A5756",
"*. c #5A5757",
"=. c #595857",
"-. c #5A5856",
";. c #5B5856",
":. c #5A5857",
">. c #5B5857",
",. c #5B5957",
"<. c #5C5957",
"1. c #5A5958",
"2. c #5B5958",
"3. c #5B5A58",
"4. c #5C5958",
"5. c #5C5A59",
"6. c #5D5B59",
"7. c #5E5B59",
"8. c #5F5C5B",
"9. c #605E5B",
"0. c #615F5C",
"q. c #62605D",
"w. c #63605E",
"e. c #65625F",
"r. c #666360",
"t. c #676462",
"y. c #676562",
"u. c #686562",
"i. c #686663",
"p. c #6D6A66",
"a. c #6D6B67",
"s. c #6F6C68",
"d. c #706D69",
"f. c #706D6A",
"g. c #706D6B",
"h. c #706E6A",
"j. c #716E6A",
"k. c #716E6B",
"l. c #726F6B",
"z. c #73706C",
"x. c #75726E",
"c. c #76736F",
"v. c #777470",
"b. c #787571",
"n. c #797672",
/* pixels */
"@ S 8.r.e.t.h.f.z.s.f.j.z.c.v.b.",
": G ) &.~ R R ) ~ T o.` ` ~ ^ x.",
"+ n ^ 0 i P P ! O.~ @.>.f 5 ) g.",
"o x %.+.+.| I } ! ) o. .} W Y u.",
"< h >.>.*.| ! ! ) R ` o.o.W ! 0.",
"* y | 4.&.+.| Q ( R ^ U ) R / q.",
"= t q p g z m B A F C N V M S J ",
"% > = 2 w 9 : , % e 3 * - * 3 % ",
"$ H 7.w.i.y.u.u.a.l.z.d.j.v.v.b.",
"+ K { $.5.o.6.,.(  .o.] -.X.] n.",
"& D @.7 d ] #.=.:.<.&.2.f 8 ( k.",
"6 b ` >.@.o.o.| 5.6.5.;.,.O.~ p.",
"- j ' :.[ @.o.@...1.3.3.1.6.:.r.",
"X u E _ ` ) U @...o.[ :._ o.L 9.",
"# 4 y r a s k v c Z Z m m l b S ",
"O ; 1 # . - = : - = O # #   O : "
};
