/* XPM */
static char *quartz_pillar[] = {
/* columns rows colors chars-per-pixel */
"16 16 17 1 ",
"  c #4E4E4E",
". c #535353",
"X c gray37",
"o c #646464",
"O c #717171",
"+ c #979797",
"@ c gray62",
"# c #A5A5A5",
"$ c #B1B1B1",
"% c #D5D5D5",
"& c #D8D8D8",
"* c gray85",
"= c #E2E2E2",
"- c #E4E4E4",
"; c gray90",
": c #E7E7E7",
"> c gray92",
/* pixels */
".O#+O*=:>=%O+#O.",
"..Xo.&-;>-&.oX..",
".O#+O&-:>;&O+#O.",
". Xo.&;>:;&.oX .",
".O$@O&-:>;&O@$O.",
"..Xo.&;>:;&.oX..",
".O#+O&;:>;&O+#O.",
"..Xo.&:::;&.oX..",
".O#+O&;:>;&O+#O.",
"..Xo.&;;>;&.oX..",
".O#+O&;>:;&O+#O.",
"..Xo.&-:>-&.oX..",
".O#+O&;>>;&O+#O.",
". Xo.&->>-&.oX .",
".O$@O&-:>;&O@$O.",
"..Xo.&;>:;&.oX.."
};
