/* XPM */
static char *quartz_block_side[] = {
/* columns rows colors chars-per-pixel */
"16 16 15 1 ",
"  c #AFAFAF",
". c gray69",
"X c gray70",
"o c #B4B4B4",
"O c #B6B6B6",
"+ c gray86",
"@ c gainsboro",
"# c #DDDDDD",
"$ c gray87",
"% c gray88",
"& c #E1E1E1",
"* c #E4E4E4",
"= c gray90",
"- c #E7E7E7",
"; c gray91",
/* pixels */
"==;-=;--;==;-=;$",
";+@$$&@#$$#@$$%o",
";#.X XX.Xoo..-$X",
"=@X+%%#$$%&@%-&O",
"=@ $%&@#$@&+@-$o",
";& $###@+%%&@;@X",
"-@o@$+++$%$&#=#.",
"-#X@#%#&@@$$#;@X",
";$X$$+$$%@@$$*@.",
"*$o%@%%&%##%@=+.",
"=#o&&%$&@#@&&=%o",
";@.@+&&$+%$@+*$X",
";&.$%$&#$@&+@;%.",
"=$.--;==*==*;*%o",
";#@%#@#@@+%@%#+X",
"@.oO . X.o.oO . "
};
