/* XPM */
static char *red_concrete_powder[] = {
/* columns rows colors chars-per-pixel */
"16 16 249 2 ",
"   c #2F130F",
".  c #3E1507",
"X  c #35150F",
"o  c #36160E",
"O  c #38130C",
"+  c #3C150F",
"@  c #2B1312",
"#  c #221A18",
"$  c #261E18",
"%  c #2E1E19",
"&  c #2C1D1A",
"*  c #371510",
"=  c #361717",
"-  c #321817",
";  c #361A15",
":  c #371A15",
">  c #301D17",
",  c #371C17",
"<  c #3C1B14",
"1  c #3D1A15",
"2  c #3E1A15",
"3  c #3F1B16",
"4  c #3F1D16",
"5  c #3F1E17",
"6  c #321A18",
"7  c #301D1B",
"8  c #361D18",
"9  c #351D1A",
"0  c #331E1C",
"q  c #321F1D",
"w  c #391B1B",
"e  c #3C1D18",
"r  c #3D1E18",
"t  c #381F1C",
"y  c #3B1E1C",
"u  c #3E1E1D",
"i  c #31221E",
"p  c #34201D",
"a  c #36201C",
"s  c #39201B",
"d  c #39211B",
"f  c #3E201B",
"g  c #3E241B",
"h  c #3C201E",
"j  c #3B261F",
"k  c #322121",
"l  c #322320",
"z  c #352420",
"x  c #332724",
"c  c #342526",
"v  c #3A2020",
"b  c #3A2422",
"n  c #3B2623",
"m  c #372925",
"M  c #3F2B23",
"N  c #382824",
"B  c #3F312D",
"V  c #4D1512",
"C  c #401A10",
"Z  c #421815",
"A  c #461B17",
"S  c #421C15",
"D  c #441E17",
"F  c #4D1B16",
"G  c #4E1C17",
"H  c #461B1B",
"J  c #421E19",
"K  c #401E1B",
"L  c #461F1C",
"P  c #4D1918",
"I  c #4A1C18",
"U  c #4A1E18",
"Y  c #4A1E1A",
"T  c #4D1E18",
"R  c #541A12",
"E  c #521A16",
"W  c #5C1E19",
"Q  c #5A1F1C",
"!  c #631E1C",
"~  c #50260C",
"^  c #5A280F",
"/  c #402019",
"(  c #472019",
")  c #46201A",
"_  c #46221E",
"`  c #41241E",
"'  c #48211A",
"]  c #48231E",
"[  c #4C221D",
"{  c #4F221E",
"}  c #4B251F",
"|  c #5E2E12",
" . c #52201C",
".. c #50211F",
"X. c #54211C",
"o. c #54201F",
"O. c #5E201F",
"+. c #5F221E",
"@. c #642204",
"#. c #7E2001",
"$. c #68201E",
"%. c #69211E",
"&. c #792219",
"*. c #603214",
"=. c #432220",
"-. c #462520",
";. c #462620",
":. c #402524",
">. c #412624",
",. c #412626",
"<. c #422626",
"1. c #492422",
"2. c #4C2723",
"3. c #432824",
"4. c #422826",
"5. c #422B27",
"6. c #452A25",
"7. c #4F2822",
"8. c #4C2927",
"9. c #462A28",
"0. c #412E28",
"q. c #542220",
"w. c #522522",
"e. c #502723",
"r. c #572422",
"t. c #5F2320",
"y. c #5D2322",
"u. c #592623",
"i. c #532925",
"p. c #542824",
"a. c #572B26",
"s. c #552C24",
"d. c #5B2821",
"f. c #5A2927",
"g. c #5C2C24",
"h. c #53262A",
"j. c #502B2B",
"k. c #522E2C",
"l. c #572C2C",
"z. c #582D2D",
"x. c #5B2C2C",
"c. c #5E322E",
"v. c #4C3430",
"b. c #563232",
"n. c #583331",
"m. c #5E3031",
"M. c #5C3230",
"N. c #5F3230",
"B. c #622624",
"V. c #672624",
"C. c #6D2220",
"Z. c #622824",
"A. c #632827",
"S. c #632A27",
"D. c #60282B",
"F. c #602B2B",
"G. c #6A2B28",
"H. c #6C2A29",
"J. c #6C2D29",
"K. c #6C2D2B",
"L. c #6C2B2C",
"P. c #752725",
"I. c #7B2220",
"U. c #7A2424",
"Y. c #712B26",
"T. c #752925",
"R. c #772826",
"E. c #70272B",
"W. c #62312A",
"Q. c #663129",
"!. c #6B322D",
"~. c #6B302F",
"^. c #6E392F",
"/. c #733029",
"(. c #70302E",
"). c #74302F",
"_. c #7C322D",
"`. c #643530",
"'. c #6E3131",
"]. c #673C32",
"[. c #663936",
"{. c #723532",
"}. c #723436",
"|. c #7E3333",
" X c #793034",
".X c #7F3135",
"XX c #7F3B36",
"oX c #763C39",
"OX c #7F3839",
"+X c #7E3C38",
"@X c #91221F",
"#X c #8A2424",
"$X c #862A25",
"%X c #872D26",
"&X c #832B29",
"*X c #862928",
"=X c #822F2D",
"-X c #8F282A",
";X c #8E2D2B",
":X c #922929",
">X c #942D2F",
",X c #992D2D",
"<X c #83322F",
"1X c #8A322D",
"2X c #8F322E",
"3X c #952E30",
"4X c #992C30",
"5X c #853533",
"6X c #823237",
"7X c #883133",
"8X c #883537",
"9X c #8E3735",
"0X c #873935",
"qX c #8C3835",
"wX c #8F3738",
"eX c #923235",
"rX c #9F3535",
"tX c #943834",
"yX c #A5352F",
"uX c #A52C33",
"iX c #AF2D34",
"pX c #A13232",
"aX c #A83033",
"sX c #A83630",
"dX c #AB3434",
"fX c #AA3637",
"gX c #A83832",
"hX c #A53338",
"jX c #AE3E3A",
"kX c #B63133",
"lX c #B43538",
"zX c #B03A3F",
"xX c #B73B3D",
"cX c #B23C3F",
"vX c #BD3A3F",
"bX c #C2383A",
"nX c #CA3E3A",
"mX c #EF3538",
"MX c #913F42",
"NX c #A93E41",
"BX c #934646",
"VX c #B44247",
"CX c #BB4645",
"ZX c #BD4A4C",
"AX c #CD4242",
"SX c #D3494A",
"DX c #DB484E",
"FX c #E0424C",
"GX c #E5454C",
/* pixels */
"B.V.2 5XD.N.r 0 4.BXZXpXG.$.Y ~.",
"8 A.! - x ).s.W.>.n.fXC.Q H z 0.",
"c.SXkX%X@ + tX:XdXN ` y.*X=X( ; ",
"o U.bX&X1Xx.d.R.AXq.6 NXVXS.G =.",
"Z.3.f.w I X.. #.t.O.P wXP.i g.L.",
"a.7.!.b p   @.sX8XD +.1.h ].^.M ",
";Xu `.& 0Xl z.cX#XY.e.m.X -.b.q ",
"nXgX% l.u.i., $X2X2.= R T jX<X>X",
"/.] W xXXX..Y O 1 b eXFX*.} N.w.",
"K 5 4X-XV / rX4 8.'.aXGX&.C  .J ",
"f yXE Z ,X3 @Xr.$ k .XI.7X: p.' ",
"}.r T._ :.e J.A r.OXg L 7 # > J ",
"{ _.[ < iXuX* 9 CX{.s hXlXi (.F ",
"E.vX<.~ o.MX,.^ d t %.zXDXF.qX9.",
"6.|. XU j M.y | S 6Xk.m j.v.c 3X",
"oXn v h.H.) 5.;.a [.mXQ.+XB K.9X"
};
