/* XPM */
static char *red_sandstone[] = {
/* columns rows colors chars-per-pixel */
"16 16 31 1 ",
"  c gray10",
". c #2D2F31",
"X c #35373A",
"o c #3B3E42",
"O c #3D3F43",
"+ c #3E3F43",
"@ c #3E4145",
"# c #3F4145",
"$ c #404245",
"% c #414245",
"& c #414246",
"* c #424346",
"= c #424447",
"- c #434548",
"; c #45474A",
": c #494A4F",
"> c #525559",
", c #55585C",
"< c #56595D",
"1 c #56595E",
"2 c #585A5F",
"3 c #5C5E64",
"4 c #5D5F64",
"5 c #5D5F65",
"6 c #5D6067",
"7 c #5E6066",
"8 c #5F6166",
"9 c #5F6368",
"0 c #606369",
"q c #63656A",
"w c #CF6925",
/* pixels */
"XXXXXXXXXXXXXXXX",
":>>66>:>>6>>:>66",
"................",
"w w w w w w w w ",
" w w w w w w w w",
"XXXXXXXXXXXXXXXX",
"5941q28q<0,307<5",
"&#@O##+++Oo+@&##",
";=-==;;-$=;;=;%;",
";=;=%----;;%-=;*",
"%=;----===-=--=;",
"--;;==-*;=--;;-;",
";----;--*=-*-;%-",
"&#@O##+++Oo+@&##",
"5941q28q<0,307<5",
"XXXXXXXXXXXXXXXX"
};
