/* XPM */
static char *redstone_block[] = {
/* columns rows colors chars-per-pixel */
"16 16 15 1 ",
"  c #212020",
". c #222120",
"X c #252323",
"o c #252424",
"O c #262625",
"+ c #282626",
"@ c #2C2C2C",
"# c #2D2D2D",
"$ c #2E2C2D",
"% c #2E2D2D",
"& c #302E2D",
"* c #C95D20",
"= c #C95F22",
"- c #CA6225",
"; c #CF6925",
/* pixels */
"#o+$-;*-$.+$-;*-",
".+$-;*-$.+$-;*-#",
"+$-;*-$.+$-;*-#.",
"$-;*-$.+$-;*-#.+",
"-;*-$.+$-;*-%.+$",
";*-$.+$-;*-#.+$-",
"*-$.+$-;*-#.+$-;",
"-$.+$-;*-&.+$-;*",
"$.+$-;*-$.O$-;*-",
" +$-;*-%.+$-;*-$",
"+$-;*-$.+$-;*-$ ",
"$-;*-$.+$-;*-$ +",
"-;*-%.+$-;*-$ +$",
";*-$.+$-;*-$ +$-",
"*-#.+$-;*-$ +$-;",
"-@X+$-;*-$.+$=;*"
};
