/* XPM */
static char *stone[] = {
/* columns rows colors chars-per-pixel */
"16 16 187 2 ",
"   c #40372F",
".  c #443832",
"X  c #453D37",
"o  c #494137",
"O  c #48403A",
"+  c #4C4238",
"@  c #4C433C",
"#  c #4A443C",
"$  c #4F463D",
"%  c #4F473D",
"&  c #4F463E",
"*  c #50463E",
"=  c #51483D",
"-  c #51483E",
";  c #4F4842",
":  c #534A43",
">  c #544940",
",  c #564A41",
"<  c #554B43",
"1  c #574C40",
"2  c #564D41",
"3  c #504944",
"4  c #544B44",
"5  c #554C45",
"6  c #574D45",
"7  c #594C41",
"8  c #584E44",
"9  c #594E44",
"0  c #5A4E44",
"q  c #584E47",
"w  c #5A4F48",
"e  c #5B5145",
"r  c #5B5046",
"t  c #5A5047",
"y  c #5E5447",
"u  c #5B5148",
"i  c #5E5149",
"p  c #5C534A",
"a  c #5F5448",
"s  c #5C544A",
"d  c #5D554B",
"f  c #5F554B",
"g  c #5D544D",
"h  c #5F574D",
"j  c #5E564E",
"k  c #5F564E",
"l  c #605548",
"z  c #605449",
"x  c #635548",
"c  c #60544A",
"v  c #60564B",
"b  c #61564D",
"n  c #61574E",
"m  c #675A4B",
"M  c #60584D",
"N  c #62584D",
"B  c #62594F",
"V  c #655A4C",
"C  c #675A4D",
"Z  c #65594E",
"A  c #675A4E",
"S  c #665B4F",
"D  c #695C4D",
"F  c #6E5D4F",
"G  c #625B51",
"H  c #635B51",
"J  c #675B53",
"K  c #655C50",
"L  c #655C51",
"P  c #675C53",
"I  c #675E56",
"U  c #685D50",
"Y  c #695D50",
"T  c #695F51",
"R  c #685C54",
"E  c #695E54",
"W  c #685F54",
"Q  c #685F55",
"!  c #6B5F55",
"~  c #6A6156",
"^  c #6D6054",
"/  c #6D6256",
"(  c #6C6257",
")  c #6D6257",
"_  c #6F6256",
"`  c #6D6258",
"'  c #6C6358",
"]  c #6F6359",
"[  c #6E6558",
"{  c #6E665B",
"}  c #6F665B",
"|  c #6F675B",
" . c #706256",
".. c #726356",
"X. c #716555",
"o. c #736557",
"O. c #716558",
"+. c #726558",
"@. c #706658",
"#. c #706659",
"$. c #736658",
"%. c #70655B",
"&. c #71675A",
"*. c #70665B",
"=. c #71655C",
"-. c #71675D",
";. c #73685A",
":. c #776859",
">. c #756A59",
",. c #74685A",
"<. c #75685B",
"1. c #75695B",
"2. c #736A5E",
"3. c #77685C",
"4. c #756A5D",
"5. c #74695F",
"6. c #77695E",
"7. c #776C5F",
"8. c #78695B",
"9. c #786B5C",
"0. c #796A5D",
"q. c #7E6D5C",
"w. c #7C6E5D",
"e. c #7C6F5E",
"r. c #7D6F5E",
"t. c #756C60",
"y. c #796D60",
"u. c #7A6E62",
"i. c #7A6F62",
"p. c #7D6F61",
"a. c #7E6F61",
"s. c #7D6F62",
"d. c #7F7060",
"f. c #7F7160",
"g. c #7E7166",
"h. c #7F7366",
"j. c #807161",
"k. c #817362",
"l. c #807263",
"z. c #827563",
"x. c #817367",
"c. c #827465",
"v. c #817767",
"b. c #847566",
"n. c #897766",
"m. c #817468",
"M. c #867569",
"N. c #83786A",
"B. c #857969",
"V. c #867A68",
"C. c #84796A",
"Z. c #86796B",
"A. c #867A6B",
"S. c #84796C",
"D. c #86796D",
"F. c #867B6D",
"G. c #89796B",
"H. c #897A6A",
"J. c #8A7B6A",
"K. c #8A7B6B",
"L. c #8F7C69",
"P. c #8A7D6D",
"I. c #8B7E6D",
"U. c #897D6E",
"Y. c #8A7D70",
"T. c #8B7E70",
"R. c #8E8070",
"E. c #8F8270",
"W. c #8E8072",
"Q. c #8F8272",
"!. c #8F8273",
"~. c #908170",
"^. c #938373",
"/. c #938677",
"(. c #948875",
"). c #968877",
"_. c #9B8A75",
"`. c #978B7C",
"'. c #998A79",
"]. c #998B7A",
"[. c #9A8C7A",
"{. c #998B7C",
"}. c #998C7C",
"|. c #9D907C",
" X c #A19684",
".X c #A79885",
"XX c #A99B88",
/* pixels */
"V ' |.XXC.# C..XR.u.j.T ~.E.-.Y.",
"8 V !.!.z.3 >.>.G.z 4.y.L.8.E I.",
"U C 9 C ] ; >.>.>.4.4.).N.S.7.f ",
"B.C C 6 h ] k.F 1 A %.%.T.}.M.c.",
"I.g.C C /.^ [.F : r A N 4 N.$.^.",
"I '.g.P.p.q.z.F r A F.A + D r.l.",
"V.v. XP.a...q.m %.` ` f._ <.a s.",
"L } s K.n.n.h.K %.H./ _ o a +.(.",
"L X j Y Y S w._.w.c  .t . > i.p ",
"b   j % #.,.,.w.@.*.0.| 0 w C i.",
"R U.`.#.9.,.~ A.{ e.Q.{.l u C ].",
"D.m.W.9.o.Z.~ [ O.3.6.l 9 e J.X.",
"D.}.g x H v d G < O.;.5.&.&.k.y ",
") -.b.q H 5 d O < & 2 7 2.&.d.Q ",
", i P H $ * 5 p ! =.J ( M x.B :.",
"t.P k n 1.1.' @ p W Z J = - :.:."
};
