/* XPM */
static char *white_concrete_powder[] = {
/* columns rows colors chars-per-pixel */
"16 16 189 2 ",
"   c #0E0909",
".  c #100C0C",
"X  c #100E0E",
"o  c #120E0E",
"O  c #12100E",
"+  c #121010",
"@  c #151010",
"#  c #171010",
"$  c #151210",
"%  c #171210",
"&  c #171212",
"*  c #191515",
"=  c #191715",
"-  c #1B1717",
";  c #1B1917",
":  c #1D1917",
">  c #1B1719",
",  c #1B1919",
"<  c #1D1919",
"1  c #1F1B1B",
"2  c #1F1D1B",
"3  c #221910",
"4  c #241912",
"5  c #281912",
"6  c #281B12",
"7  c #2A1915",
"8  c #221D1B",
"9  c #221D1D",
"0  c #221F1D",
"q  c #241F1D",
"w  c #241F1F",
"e  c #301F19",
"r  c #24221F",
"t  c #26221F",
"y  c #32221D",
"u  c #32261D",
"i  c #242222",
"p  c #262222",
"a  c #262422",
"s  c #282222",
"d  c #282424",
"f  c #282624",
"g  c #2A2626",
"h  c #2C2826",
"j  c #2C2828",
"k  c #2C2A28",
"l  c #2E2A2A",
"z  c #302422",
"x  c #322624",
"c  c #382622",
"v  c #362826",
"b  c #3C2C26",
"n  c #302C2C",
"m  c #302E2C",
"M  c #322E2C",
"N  c #322E2E",
"B  c #3A2E2A",
"V  c #3C2C28",
"C  c #3D2E28",
"Z  c #32302E",
"A  c #3D302A",
"S  c #3F322A",
"D  c #343030",
"F  c #363030",
"G  c #363230",
"H  c #363232",
"J  c #363432",
"K  c #3D3430",
"L  c #383434",
"P  c #3A3434",
"I  c #383634",
"U  c #3A3634",
"Y  c #383436",
"T  c #3A3636",
"R  c #3C3830",
"E  c #3C3836",
"W  c #3C3838",
"Q  c #3C3A38",
"!  c #3D3A38",
"~  c #3D3A3A",
"^  c #3D3C3A",
"/  c #3F3C3A",
"(  c #43322C",
")  c #43342C",
"_  c #433630",
"`  c #453632",
"'  c #413C36",
"]  c #483832",
"[  c #483A34",
"{  c #483836",
"}  c #463D38",
"|  c #413D3D",
" . c #433F3F",
".. c #4F3F3D",
"X. c #45413F",
"o. c #4D453F",
"O. c #564641",
"+. c #524843",
"@. c #564843",
"#. c #514845",
"$. c #594A46",
"%. c #5E4F4A",
"&. c #59514D",
"*. c #5A524C",
"=. c #5A564F",
"-. c #5E5251",
";. c #615451",
":. c #615751",
">. c #625652",
",. c #665752",
"<. c #625952",
"1. c #615954",
"2. c #615A56",
"3. c #665954",
"4. c #665956",
"5. c #665A59",
"6. c #685E59",
"7. c #6B615C",
"8. c #68625C",
"9. c #6B625E",
"0. c #6D645E",
"q. c #706562",
"w. c #736662",
"e. c #736665",
"r. c #706862",
"t. c #706864",
"y. c #736866",
"u. c #766B66",
"i. c #756C66",
"p. c #766C66",
"a. c #796F6C",
"s. c #7A6F6D",
"d. c #77716C",
"f. c #79706C",
"g. c #7B716D",
"h. c #7A736F",
"j. c #7D716F",
"k. c #7A746F",
"l. c #7A7370",
"z. c #7D7571",
"x. c #7D7473",
"c. c #7E7573",
"v. c #7E7673",
"b. c #7D7674",
"n. c #7E7775",
"m. c #807675",
"M. c #807A77",
"N. c #837C79",
"B. c #847C79",
"V. c #847D79",
"C. c #867C7A",
"Z. c #867C7B",
"A. c #877E7C",
"S. c #897F7E",
"D. c #8D8381",
"F. c #8E8381",
"G. c #8F8784",
"H. c #8F8987",
"J. c #958A87",
"K. c #938B89",
"L. c #958B88",
"P. c #968D89",
"I. c #978D8A",
"U. c #978E8A",
"Y. c #998F8B",
"T. c #9A8E8D",
"R. c #99908B",
"E. c #99908D",
"W. c #9A908D",
"Q. c #9A938F",
"!. c #9B9390",
"~. c #9D9290",
"^. c #9D9391",
"/. c #9E9391",
"(. c #A09392",
"). c #A19895",
"_. c #A39995",
"`. c #A49B98",
"'. c #A39E9A",
"]. c #A79F9A",
"[. c #A79F9B",
"{. c #A9A09B",
"}. c #A8A19D",
"|. c #A9A19D",
" X c #ABA29F",
".X c #ADA29E",
"XX c #B0A7A3",
"oX c #B2A8A4",
"OX c #B3ABA8",
/* pixels */
" .T.[.,.p * @.9 p.F .X1 3 L u ; ",
"(.s P 1 k.S n ,.j {.H % 7 : c 9 ",
"H 4.p M g T Y.! X.~ q =   } C p ",
"..p P.w.C.0.9 >.| u.3.t 4 @ $ & ",
"$.g h.D A l g. X/ ` . ) . 5 6 : ",
"V 1 A.n.&.a N T N.1.$ b @ o - q.",
"< #.;.W !.a [ OXm B.j e g O.6.U ",
"~.g e.M.~ R d L ).W.1 ] j i.a E.",
"S.j n N l 7.}.|.I '.8 _ J.h :.J ",
"1 -.p j.n L.d <.2.1 8 I.E oXQ U.",
"x.w m.N ^.c.y.0 d D 2 < k 6.k G.",
"s.X K 1 Y d d *.g ].XX' o.r d.H.",
"a.@ X ( l 5.l.N _.H T 8.T r.G D ",
"v > + y d K.j v.w f.V.+.`.f R.J ",
"x @ , B d Z.j b.D.^ H Z z.m t.k ",
"# X z O { j F.i D /.Q.=.- 9.N %."
};
