/* XPM */
static char *yellow_wool[] = {
/* columns rows colors chars-per-pixel */
"16 16 61 1 ",
"  c #B37700",
". c #B47500",
"X c #B77700",
"o c #BC7703",
"O c #BB7800",
"+ c #BB7B01",
"@ c #B97C01",
"# c #BC7C00",
"$ c #BC7C03",
"% c #BA7B04",
"& c #BB7A05",
"* c #BF7E04",
"= c #BE7F05",
"- c #BF7F06",
"; c #BB8006",
": c #CB870C",
"> c #C6880D",
", c #C88A0A",
"< c #CC880C",
"1 c #CB8E0E",
"2 c #C88C10",
"3 c #CE8E10",
"4 c #CF8C15",
"5 c #CF9311",
"6 c #D09310",
"7 c #D29411",
"8 c #DFA017",
"9 c #E0A118",
"0 c #E1A219",
"q c #E2A31A",
"w c #E3A41B",
"e c #E4A51C",
"r c #E5A61D",
"t c #E6A71E",
"y c #E7A81F",
"u c #E8A920",
"i c #E9AA21",
"p c #EAAB22",
"a c #EEB02F",
"s c #E9AD30",
"d c #ECB135",
"f c #ECB334",
"g c #EEB236",
"h c #ECB635",
"j c #EFB13A",
"k c #F3B039",
"l c #F3B638",
"z c #F3B639",
"x c #F5B638",
"c c #F7B839",
"v c #F5BA3C",
"b c #F5BA3E",
"n c #F1BC3F",
"m c #F5BF3E",
"M c #FCC33D",
"N c #F8C53F",
"B c #F8BE42",
"V c #F7C041",
"C c #FECB4C",
"Z c #FFC862",
"A c #FFD076",
/* pixels */
"$+%*%%+%O XO.O.@",
"&ZMlgxkhmgzflNA%",
"&V,22557465651M+",
"%l1wurq9ruw0u5j#",
"of<qqyyqiwqtu5do",
"%c1r0tywwetqq5v%",
"&d7wp9rpeyy9w3l%",
"%n18e8wtq9irt5f%",
"$x1t0ruwy0iu95s$",
"-g38teerpwqww6c+",
"=n3i8qquwyryr5l%",
"%d2uy09eperyq5h&",
"$j2y8rtruyytq4c%",
"oM<731<:>>>212V%",
"%CMlfdaxchbdjBA$",
"%%o%%o&&%%*%$%*;"
};
