/* XPM */
static char *birch_sapling[] = {
/* columns rows colors chars-per-pixel */
"16 16 10 1 ",
"  c #485B1E",
". c #5F751E",
"X c #6E8825",
"o c #7A9822",
"O c #8AAE26",
"+ c #29AA8A",
"@ c #3EDAB4",
"# c #58FFD6",
"$ c #CAFFF2",
"% c None",
/* pixels */
"%%%%%%%%%%%%%%%%",
"%%$#%%#$%%%@+%%%",
"%%#+O%%#$#%#$%%%",
"%%%+o%#+#%#X%%%%",
"%%%@XX+X#@+O#%%%",
"%#%#%#+OXO@@$#%%",
"%@+$%o@X+o$@%%%%",
"%%##X.@#@##%O$#%",
"%%++%X#X@.oO+#+%",
"%%+@%#OX@OX$+%@%",
"%%@%#$oO#X%##%@%",
"%%@%%+ .X.%%+%@%",
"%%#%%@%.O%%%@%#%",
"%%%%%@%.o%%%@%%%",
"%%%%%#% X%%%#%%%",
"%%%%%%% .%%%%%%%"
};
