/* XPM */
static char *blue_orchid[] = {
/* columns rows colors chars-per-pixel */
"16 16 41 1 ",
"  c #3A391E",
". c #3F3F21",
"X c #404123",
"o c #414123",
"O c #424223",
"+ c #434425",
"@ c #484928",
"# c #484A28",
"$ c #494D2A",
"% c #50542D",
"& c #575B2C",
"* c #555B30",
"= c #585F32",
"- c #5B5E35",
"; c #5D622F",
": c #5A6233",
"> c #5F6736",
", c #606530",
"< c #6D793A",
"1 c #787A37",
"2 c #71703C",
"3 c #707940",
"4 c #747E43",
"5 c #5F6476",
"6 c #626678",
"7 c #636879",
"8 c #798542",
"9 c #7C8B43",
"0 c #8A9D50",
"q c #5C8DA2",
"w c #5DA9FB",
"e c #5CAFFA",
"r c #56BEF6",
"t c #59B8F8",
"y c #50CCEC",
"u c #56C1F6",
"i c #55C5F5",
"p c #4FD3F2",
"a c #4FD5F2",
"s c #50D4F2",
"d c None",
/* pixels */
"dddddddddddddddd",
"dddddddrdddddddd",
"dddddderdddddddd",
"ddddddpprddddddd",
"dtydddeupddddddd",
"daisdddwrddddddd",
"dduwddwudddddwdd",
"dddadddqdddwaudd",
"dddd6dd7ddduuddd",
"dd0d=dd2ddawdddd",
"dd40d:d>d5ddd0dd",
"ddd40%d%d*d094dd",
"d8d;3X3#d#09<ddd",
"dd800#;+109&dd0d",
"dd-,80Oo191&9<dd",
"ddd$$, @.,&9&ddd"
};
