/* XPM */
static char *carrots_stage3[] = {
/* columns rows colors chars-per-pixel */
"16 16 46 1 ",
"  c #2D7839",
". c #2D783D",
"X c #3F4E54",
"o c #2A5653",
"O c #395D50",
"+ c #22634F",
"@ c #226D4B",
"# c #227442",
"$ c #227A45",
"% c #2D7A40",
"& c #236550",
"* c #466A4B",
"= c #2E8042",
"- c #2E8544",
"; c #22844A",
": c #29834E",
"> c #259343",
", c #259445",
"< c #279249",
"1 c #279548",
"2 c #24914F",
"3 c #2A954E",
"4 c #2B964F",
"5 c #2E974D",
"6 c #279A4D",
"7 c #258051",
"8 c #268C53",
"9 c #1EA155",
"0 c #27A244",
"q c #26A146",
"w c #2DA741",
"e c #26AC46",
"r c #27AD47",
"t c #28AE48",
"y c #2BB14B",
"u c #30B75C",
"i c #1EA060",
"p c #478962",
"a c #D94C90",
"s c #DA4D92",
"d c #DB4E93",
"f c #DC5095",
"g c #E683B3",
"h c #E885B6",
"j c #FFCBDA",
"k c None",
/* pixels */
"kgkkkkkkkkkkkkgk",
"gjfkkkgkkkkkkgjf",
"kf00kfjgkktkkqfk",
"kkkatqfkk1kkqkkk",
"kkfjgk,tk1kt>gkk",
"ikkftti<tttwgjfk",
"ikuik<kk9d,,rfkk",
"kuikkkkkfjhk,rki",
"ku8kkgk:thkkkrik",
"kk;ifjf:t<kkk6gk",
"kg7 ef:t,kk1kfjg",
"gjfk.r@<$#tkr2fk",
"kfkkk-3ykk2r2skk",
"kkkkk%4:kkk2fjgk",
"kkkkk=5&pkk1kfkk",
"kkkkok+*OXkkkkkk"
};
