/* XPM */
static char *dandelion[] = {
/* columns rows colors chars-per-pixel */
"16 16 117 2 ",
"   c #34341A",
".  c #37361B",
"X  c #3A391E",
"o  c #3C3B1D",
"O  c #3D3D1F",
"+  c #3F3C20",
"@  c #3F3D20",
"#  c #3A3925",
"$  c #393A24",
"%  c #424223",
"&  c #404522",
"*  c #414423",
"=  c #424723",
"-  c #474521",
";  c #474525",
":  c #444724",
">  c #444725",
",  c #484625",
"<  c #454B25",
"1  c #494A24",
"2  c #484B26",
"3  c #494F26",
"4  c #4B4F27",
"5  c #4D4D27",
"6  c #43442B",
"7  c #4B4B29",
"8  c #494D2A",
"9  c #495027",
"0  c #4A5227",
"q  c #4B512A",
"w  c #4F5529",
"e  c #535028",
"r  c #52502A",
"t  c #50552B",
"y  c #51542C",
"u  c #51562D",
"i  c #575B2C",
"p  c #555C2C",
"a  c #595D2F",
"s  c #525730",
"d  c #555833",
"f  c #545835",
"g  c #595D30",
"h  c #5B5E35",
"j  c #5B5D36",
"k  c #605F35",
"l  c #5D622F",
"z  c #596230",
"x  c #5D6435",
"c  c #5D603D",
"v  c #676629",
"b  c #606530",
"n  c #606632",
"m  c #606436",
"M  c #626E35",
"N  c #616C36",
"B  c #676F35",
"V  c #6B6D33",
"C  c #6B6E34",
"Z  c #616439",
"A  c #60653A",
"S  c #626838",
"D  c #60683A",
"F  c #616B3A",
"G  c #686F3D",
"H  c #69733F",
"J  c #6E763F",
"K  c #6C793A",
"L  c #6D793A",
"P  c #797934",
"I  c #747639",
"U  c #75783B",
"Y  c #767B3D",
"T  c #74793F",
"R  c #727F3D",
"E  c #737F3D",
"W  c #727F3F",
"Q  c #626643",
"!  c #676C40",
"~  c #686E44",
"^  c #697040",
"/  c #6D7540",
"(  c #687044",
")  c #707940",
"_  c #747940",
"`  c #747E43",
"'  c #787B40",
"]  c #A2620E",
"[  c #CA7719",
"{  c #798542",
"}  c #788145",
"|  c #7C8146",
" . c #788744",
".. c #7B8646",
"X. c #7A8941",
"o. c #7C8B43",
"O. c #7F8B46",
"+. c #78854C",
"@. c #7C894C",
"#. c #7C8658",
"$. c #79835F",
"%. c #C08A22",
"&. c #DBC23A",
"*. c #80894B",
"=. c #85974A",
"-. c #8C9D4B",
";. c #879354",
":. c #8B9756",
">. c #8A9D50",
",. c #8C9B56",
"<. c #87935D",
"1. c #84905E",
"2. c #919E59",
"3. c #F5C253",
"4. c #EAD45A",
"5. c #FFD57B",
"6. c None",
/* pixels */
"6.6.6.6.6.6.6.6.6.6.6.6.6.6.6.6.",
"6.6.6.6.6.6.6.6.6.6.6.6.6.6.6.6.",
"6.6.6.6.6.6.6.6.P 6.6.6.6.6.6.6.",
"6.6.6.-.6.6.&.6.W 6.6.6.6.-.6.6.",
"6.6.6.6.K &.4.%.B 6.v 6.-.6.6.6.",
"6.6.6.6.0 X.] < N 9 o.E L 6.6.6.",
"6.6.,.6.6.M =. .& w R p 5.6.6.6.",
"6.6.6.2.D t >.4.&.= z [ 3.5.6.O.",
"6.6.5.+.:.F q %.y * 3 ..[ ` } 6.",
"| [ 3.[ C ;.#.x > y { ) G l 6.6.",
"6.j [ I s / 1.<.^ @.J H 1 6.6.6.",
"6.6.c ' 7 V 5.3.u 8 ( : f m 6.6.",
"6.k 5.3.Y 4 %.O % $.2 %.4.a i 6.",
"T e b [ ! U U h X Q ~ ] %.; S 6.",
"i 6.*._ r Z 6 d . o g A ; ; 6.n ",
"6.6.6.- X # $   @ . 5 + , 6.6.6."
};
