/* XPM */
static char *deadbush[] = {
/* columns rows colors chars-per-pixel */
"16 16 51 1 ",
"  c #443820",
". c #483B20",
"X c #493C20",
"o c #4A3D22",
"O c #4D3F21",
"+ c #504123",
"@ c #514123",
"# c #504223",
"$ c #514223",
"% c #514224",
"& c #534525",
"* c #564524",
"= c #574825",
"- c #5A4925",
"; c #5A4A25",
": c #5C4B25",
"> c #5D4B25",
", c #5D4B26",
"< c #5F4D27",
"1 c #635028",
"2 c #645028",
"3 c #67532A",
"4 c #6D582A",
"5 c #6D582B",
"6 c #70592B",
"7 c #715B2B",
"8 c #745C3E",
"9 c #755C3E",
"0 c #765D3F",
"q c #7C5A38",
"w c #79602E",
"e c #7C6142",
"r c #7D6242",
"t c #7E6343",
"y c #7F6444",
"u c #987B3F",
"i c #846847",
"p c #8B6E4A",
"a c #94754F",
"s c #997953",
"d c #9D7C54",
"f c #9E7D55",
"g c #9F7D55",
"h c #A38157",
"j c #A68359",
"k c #A9855B",
"l c #A9865B",
"z c #AA865B",
"x c #AE895E",
"c c #BA9464",
"v c None",
/* pixels */
"vdvvvvvvvvvvvvvv",
"kgvvvvvvvvvavvvv",
"a8zvvvvvvvkayvvv",
"vaavvvvvvvyjavvv",
"vuvvvvvvkvfavvvv",
"v<vvxvvvslv>vvvk",
"v-vvh9vvl9v2vvva",
"vwvviivvrcv2vvk9",
"v*vvezvvvqv2vvpk",
"v#vv1vvvv,v2vv9a",
"v$vv1vvvv6v.vvv0",
"vvOv1vvvv:v.vvv@",
"vv+v1vvkv:v.vvv7",
"vvXv4v9kv;vv%vv5",
"vv3v4vk9v;vv=vv&",
"vv3v1vvtvv:v vvo"
};
