/* XPM */
static char *fire_coral[] = {
/* columns rows colors chars-per-pixel */
"16 16 12 1 ",
"  c #8C1D2A",
". c #A4222F",
"X c #C62A37",
"o c #D2434E",
"O c #5C886F",
"+ c #4EA683",
"@ c #44BB91",
"# c #3DCA9A",
"$ c #34DFA8",
"% c #65F5C7",
"& c #9BFFDF",
"* c None",
/* pixels */
"******&*********",
"*****&%**&******",
"**&***%*$%*&*&**",
"**%&*$$*%**%$%**",
"*%$***$$#***%***",
"**%****%**&*#***",
"**$$*&*$%*%$@***",
"***#*%*@***#****",
"**%@$$*+*O*@*&**",
"****@**OOXO+*%*&",
"&***@%OoX.O**$%%",
"%*&**@oXO@X%$*#*",
"$%%*$O.X Oo$X+@*",
"*@+*@oO@O.X.O+**",
"**OOOX.@o@.o o@*",
"*O.Oo.OX. O OXO*"
};
