/* XPM */
static char *grass[] = {
/* columns rows colors chars-per-pixel */
"16 16 46 1 ",
"  c #5A5A5A",
". c gray36",
"X c #5D5D5D",
"o c gray37",
"O c #5F5F5F",
"+ c #646464",
"@ c #656565",
"# c #676767",
"$ c #686868",
"% c DimGray",
"& c #6A6A6A",
"* c #6C6C6C",
"= c #6D6D6D",
"- c #6F6F6F",
"; c gray44",
": c gray45",
"> c #747474",
", c #767676",
"< c #777777",
"1 c #797979",
"2 c gray48",
"3 c #7B7B7B",
"4 c #7C7C7C",
"5 c gray49",
"6 c gray50",
"7 c #808080",
"8 c gray51",
"9 c #838383",
"0 c #868686",
"q c gray54",
"w c #8B8B8B",
"e c #8D8D8D",
"r c #8E8E8E",
"t c #909090",
"y c #939393",
"u c gray58",
"i c gray59",
"p c gray60",
"a c #9B9B9B",
"s c gray62",
"d c #9F9F9F",
"f c gray63",
"g c #A2A2A2",
"h c #A4A4A4",
"j c #AAAAAA",
"k c None",
/* pixels */
"kkkkkkkkkkkkkkkk",
"kkkkkkkkkkkkkkkk",
"kkkkkkkkkkkkkkkk",
"kkkkkfkkkkkkkkkk",
"kkkkkkpkkkkkkdkk",
"kkkkkkqekkkkakkk",
"7kkakkki0kkdekkk",
"a7kkiakfakg7kkak",
"keik7j6jfei,kikk",
"k>uikyw5a:w1gekk",
"k,9gk$45a@9 j;kk",
"kk3gi+=a*9Xhrkk5",
"dk&ij3+i+= a;kik",
"kd&3i;ys+X6r#t7k",
"keg 38f2.9j;q;kk",
"k;<a;o-O9d0%-;kk"
};
