/* XPM */
static char *horn_coral[] = {
/* columns rows colors chars-per-pixel */
"16 16 94 2 ",
"   c #491C00",
".  c #4B1D00",
"X  c #422100",
"o  c #532000",
"O  c #582000",
"+  c #5E2500",
"@  c #5B2800",
"#  c #5A2E04",
"$  c #5F2E05",
"%  c #622500",
"&  c #6E2500",
"*  c #602B00",
"=  c #652A00",
"-  c #632C00",
";  c #6A2A00",
":  c #6C2D00",
">  c #712C00",
",  c #712E00",
"<  c #772F00",
"1  c #683100",
"2  c #6B3000",
"3  c #6E3100",
"4  c #6F3800",
"5  c #773100",
"6  c #713500",
"7  c #773B00",
"8  c #7D3900",
"9  c #7E3B00",
"0  c #7F3F00",
"q  c #724810",
"w  c #813700",
"e  c #883400",
"r  c #883800",
"t  c #9A3F00",
"y  c #A03D00",
"u  c #884300",
"i  c #8C4400",
"p  c #9A4900",
"a  c #985400",
"s  c #AC5900",
"d  c #B55300",
"f  c #BE5B00",
"g  c #C46000",
"h  c #D46800",
"j  c #CB7900",
"k  c #D17200",
"l  c #D47600",
"z  c #DA7300",
"x  c #D77D00",
"c  c #D07907",
"v  c #B59000",
"b  c #B78424",
"n  c #BB8929",
"m  c #CD8000",
"M  c #D78000",
"N  c #DB8700",
"B  c #DB9900",
"V  c #C28016",
"C  c #D48D16",
"Z  c #E18E00",
"A  c #E19300",
"S  c #E7A000",
"D  c #E3AB00",
"F  c #EBA900",
"G  c #E7B400",
"H  c #F0BB00",
"J  c #F6BE00",
"K  c #C59C2C",
"L  c #CC9F2C",
"P  c #CEA12C",
"I  c #DCA124",
"U  c #DBA829",
"Y  c #DAA92C",
"T  c #D9AA2C",
"R  c #DEAB30",
"E  c #DAB032",
"W  c #D1B23C",
"Q  c #D5B43C",
"!  c #DBB33C",
"~  c #DAB43C",
"^  c #DCB83C",
"/  c #E1A524",
"(  c #E4AC24",
")  c #E0AB2C",
"_  c #E5BD29",
"`  c #E8B829",
"'  c #E1BA3C",
"]  c #EBC000",
"[  c #F2C000",
"{  c #F3C400",
"}  c #EAC53C",
"|  c #E8CA3C",
" . c #EAC940",
".. c None",
/* pixels */
"............ .x ................",
"............0  .......z / ......",
"..........x C 0 ..../ V 7 ......",
"....[ [ ..[ ; R ....Y 7 ........",
"....0 x ....0 0 C T 8 3 ........",
"..x [ # [ ....1 c [ ~ ....Y H ..",
"..[ 0 # P [ ....= e z y } ^ 6 ..",
"......2 . z E ....z t J t O ....",
"..I ) ..U q z ( ..i % : ....H z ",
"..$ z K V M q 3 A B X a ..D L H ",
"....= z b < h t Z f | _ l z 9 ..",
"......o @ ! { ....j S g > 4   ..",
"..G G Q z @ 7 B s g f & + ......",
"..z i 9 9 X F r e e ` H H % ....",
"....W ' n 5 X - * N z d u ] B ..",
"........f { k ..p m @ v , w   .."
};
