/* XPM */
static char *houstonia[] = {
/* columns rows colors chars-per-pixel */
"16 16 51 1 ",
"  c #6F2711",
". c #6F2E1A",
"X c #752F13",
"o c #762D14",
"O c #7D2E16",
"+ c #712E1A",
"@ c #782C1A",
"# c #78311C",
"$ c #7C311D",
"% c #802E17",
"& c #82331B",
"* c #86331F",
"= c #85341F",
"- c #8A2F20",
"; c #8C3621",
": c #933923",
"> c #933B23",
", c #923925",
"< c #973D27",
"1 c #983926",
"2 c #9D3B25",
"3 c #9E3E27",
"4 c #923E28",
"5 c #9C3A28",
"6 c #9A402A",
"7 c #A2422C",
"8 c #A3412F",
"9 c #A4422C",
"0 c #A4402F",
"q c #A7422E",
"w c #A14332",
"e c #A54331",
"r c #A84437",
"t c #B6513E",
"y c #B74D41",
"u c #B45241",
"i c #B85640",
"p c #BE5744",
"a c #BA5941",
"s c #BF5845",
"d c #BD5F4A",
"f c #C05B48",
"g c #C4604E",
"h c #C8614E",
"j c #CF685A",
"k c #D57058",
"l c #708717",
"z c #788E1A",
"x c #7F961E",
"c c #8DA425",
"v c None",
/* pixels */
"vvvvvvvvvvvvvvvv",
"vvvvvvvvvvvvvvvv",
"vvvvvvfvvvvvvvvv",
"vvf8vfvvvpvvvvvv",
"vvv-f+vvv+8vpvvv",
"vvlp-xvvvvr+vvvv",
"vxcqxcxvvvv73lvv",
"vlk+llvvvvj<lcxv",
"vv2+vvvvxv0*hxxv",
"v-$safvlczvv#>vv",
"vvv+2d8lxxvvif-v",
"vlx2-+tgley08Xv-",
"lcu4pl:69@1=oxvv",
"lxu6+c.wOl,olcxv",
"v;8+l.5 Ocl6olvv",
"v;-lcl. .&,6%vvv"
};
