/* XPM */
static char *orange_tulip[] = {
/* columns rows colors chars-per-pixel */
"16 16 102 2 ",
"   c #380E26",
".  c #3B0F2A",
"X  c #5F3119",
"o  c #6C3C1D",
"O  c #430B21",
"+  c #410529",
"@  c #441925",
"#  c #74441D",
"$  c #78491B",
"%  c #7E501A",
"&  c #794921",
"*  c #421941",
"=  c #4F0F51",
"-  c #511254",
";  c #541557",
":  c #551658",
">  c #55195A",
",  c #5C1D5F",
"<  c #532556",
"1  c #5E2A5B",
"2  c #5B2C5D",
"3  c #5C325A",
"4  c #5C2F60",
"5  c #6E2969",
"6  c #623264",
"7  c #623568",
"8  c #60396F",
"9  c #643A6C",
"0  c #672675",
"q  c #613574",
"w  c #683375",
"e  c #6A3577",
"r  c #6A3C71",
"t  c #6B3779",
"y  c #753274",
"u  c #89551C",
"i  c #845C1F",
"p  c #92620E",
"a  c #946419",
"s  c #9B671B",
"d  c #99681A",
"f  c #AD7A1F",
"g  c #865323",
"h  c #825429",
"j  c #926421",
"k  c #9D6429",
"l  c #9F6829",
"z  c #A2692A",
"x  c #A27423",
"c  c #A07B22",
"v  c #AF7A20",
"b  c #AD7A26",
"n  c #AE7C25",
"m  c #AC7E24",
"M  c #904F44",
"N  c #835A44",
"B  c #895944",
"V  c #925142",
"C  c #965543",
"Z  c #847B44",
"A  c #BC811D",
"S  c #BB8D18",
"D  c #B8881C",
"F  c #B68322",
"G  c #B78326",
"H  c #BC8723",
"J  c #BB8824",
"K  c #B88B26",
"L  c #C19117",
"P  c #C99417",
"I  c #C79618",
"U  c #C6961E",
"Y  c #C8941A",
"T  c #D9951B",
"R  c #CFA21A",
"E  c #EAAF17",
"W  c #C49520",
"Q  c #CA9E28",
"!  c #D19728",
"~  c #CAA223",
"^  c #C3A229",
"/  c #C9A72F",
"(  c #CBAB2C",
")  c #DBA227",
"_  c #D7AC29",
"`  c #CAA735",
"'  c #9C8969",
"]  c #7D3982",
"[  c #5F4A82",
"{  c #6E4083",
"}  c #684481",
"|  c #664E86",
" . c #79458A",
".. c #6C538C",
"X. c #714B94",
"o. c #6D5891",
"O. c #705692",
"+. c #725695",
"@. c #735998",
"#. c #735E99",
"$. c #705E9A",
"%. c None",
/* pixels */
"%.%.%.%.%.%.%.%.%.%.%.%.%.%.%.%.",
"%.%.%.%.%.%.%.%.%.%.%.%.%.%.%.%.",
"%.%.%.%.%.%.%.%.%.%.%.%.%.%.%.%.",
"%.%.%.%.%.%.%.%.Z %.%.%.%.%.%.%.",
"%.%.%.%.%.%.9 %.N %.9 %.%.%.%.%.",
"%.%.%.%.%.%.9 t V 9 9 %.%.%.%.%.",
"%.Z %.%.%.%.%.X.-  .%.%.%.%.%.Z ",
"%.%.B %.w %.%...o.{ %.%.] %.B %.",
"%.%.%.C = %.%.r O.5 %.%.: M %.%.",
"%.%.e > +.#.%.6 2 3 ^ [ ; , y %.",
"%.%.%.@.$.0 Y %.< %.c 8 | } %.%.",
"U %.%.%.7 1 d D   ` i 4 q / Q _ ",
"%.U W R I ' + a @ s * h ~ b l %.",
"%.%.%.G H ( . % T A O _ J j %.%.",
"%.K j # z L S X u ! ) F n $ m %.",
"%.%.%.x o g k p E P f v & %.%.%."
};
