/* XPM */
static char *oxeye_daisy[] = {
/* columns rows colors chars-per-pixel */
"16 16 51 1 ",
"  c #3D3D1F",
". c #4B4F27",
"X c #494D2A",
"o c #575B2C",
"O c #555C2C",
"+ c #5B5E35",
"@ c #5B5D36",
"# c #5D622F",
"$ c #606530",
"% c #626E35",
"& c #69763A",
"* c #6C793A",
"= c #6D793A",
"- c #75783B",
"; c #727F3D",
": c #737F3D",
"> c #687044",
", c #707940",
"< c #747940",
"1 c #738040",
"2 c #758443",
"3 c #798542",
"4 c #788744",
"5 c #7A8941",
"6 c #7C8B43",
"7 c #85974A",
"8 c #8C9D4B",
"9 c #8A9D50",
"0 c #829E8F",
"q c #88A094",
"w c #8AA196",
"e c #8DA599",
"r c #96A9A0",
"t c #9BACA5",
"y c #9BAEA5",
"u c #A0B0A9",
"i c #A1B0A9",
"p c #ABB6B2",
"a c #ABB7B2",
"s c #B0BAB6",
"d c #B2BBB7",
"f c #BCC1C0",
"g c #BEC3C1",
"h c #C4D3D3",
"j c #CBDCD9",
"k c #DAE6E6",
"l c #EAEFF0",
"z c #EAF0F0",
"x c #EDF2F3",
"c c #FBFCFD",
"v c None",
/* pixels */
"vvvvvvvvvvvvvvvv",
"vvvvvvvvvvvvvvvv",
"vvvvvvvvvvvvvvvv",
"vvvvvvdiwvvvvvvv",
"vvvvvdcclivvvvvv",
"vvvvdcllkhdvvvvv",
"vvvviljkjjqtdvvv",
"vvvterhjhrllcdvv",
"vvdcxxffshjkltvv",
"vd98kdkxcahjjpv8",
"vuz6*8jkxc0ru88v",
"vdk=65&hjxy:8,vv",
"vvdu=%74gu;O,#v3",
"2=20o=92O>>>#93v",
"v@=6<o.o1XX93$+v",
"vv@$@o- +X6$XXvv"
};
