/* XPM */
static char *pink_tulip[] = {
/* columns rows colors chars-per-pixel */
"16 16 35 1 ",
"  c #088271",
". c #118877",
"X c #188D7E",
"o c #198E7F",
"O c #219676",
"+ c #259876",
"@ c #28977D",
"# c #259879",
"$ c #3DA97E",
"% c #3CA97F",
"& c #FBAF5D",
"* c #874982",
"= c #A3559A",
"- c #C97DBF",
"; c #1A8E80",
": c #269383",
"> c #299787",
", c #2E968E",
"< c #2D998B",
"1 c #319B8E",
"2 c #349D90",
"3 c #3AA18F",
"4 c #3FA692",
"5 c #46AF82",
"6 c #47B181",
"7 c #46B082",
"8 c #49AB97",
"9 c #41A19E",
"0 c #4EAF9B",
"q c #56B49E",
"w c #4EACA0",
"e c #FDCF9E",
"r c #E795DC",
"t c #FFC2F7",
"y c None",
/* pixels */
"yyyyyyyyyyyyyyyy",
"yyyyyyyyyyyyyyey",
"yeyyyyyyyyy=y&yy",
"yy&y=yyyyy=rtyyy",
"yyytr=yyyy*-r=yy",
"yy=r-*yyyyy*=yyy",
"yyy=*yyyyyyXyyyy",
"yyyy;yyyyyy<yyyy",
"yyyy1yyyyyy0yyyy",
"yyyyqy6yyyy8yyyy",
"yyyy4$@yy7y9yyyy",
"yyyyw+yyy:$,yyyy",
"yy7y2yyyyyOoy5yy",
"yy:$,yyyyyy3%:yy",
"yyy#.yyyyyy>#yyy",
"yyyy yyyyyy yyyy"
};
