/* XPM */
static char *red_tulip[] = {
/* columns rows colors chars-per-pixel */
"16 16 107 2 ",
"   c #414423",
".  c #474723",
"X  c #414525",
"o  c #434527",
"O  c #444524",
"+  c #474827",
"@  c #484824",
"#  c #45472A",
"$  c #464928",
"%  c #494B28",
"&  c #4A4C28",
"*  c #485227",
"=  c #485028",
"-  c #4C532A",
";  c #4F532B",
":  c #4E552B",
">  c #51532C",
",  c #51562C",
"<  c #51582D",
"1  c #545B2F",
"2  c #585F32",
"3  c #5E5A35",
"4  c #556032",
"5  c #5A6531",
"6  c #5A6631",
"7  c #5B6433",
"8  c #5D6234",
"9  c #5F6334",
"0  c #5A6535",
"q  c #5E6634",
"w  c #5F6737",
"e  c #5E6D33",
"r  c #5F6A35",
"t  c #646D38",
"y  c #7C6735",
"u  c #627430",
"i  c #637238",
"p  c #66703B",
"a  c #6A763A",
"s  c #6B763D",
"d  c #6D753C",
"f  c #656E43",
"g  c #6C7241",
"h  c #6E7A45",
"j  c #737C41",
"k  c #727D41",
"l  c #747C42",
"z  c #707C45",
"x  c #737E46",
"c  c #737B4D",
"v  c #8D3E25",
"b  c #95382F",
"n  c #8D3535",
"m  c #A03E3E",
"M  c #89532F",
"N  c #A54C32",
"B  c #A3443A",
"V  c #AA423D",
"C  c #A94B38",
"Z  c #AE6B3F",
"A  c #A64040",
"S  c #AA4E47",
"D  c #BC6748",
"F  c #BF714C",
"G  c #BD6E56",
"H  c #748141",
"J  c #758440",
"K  c #768442",
"L  c #768244",
"P  c #758246",
"I  c #778544",
"U  c #798744",
"Y  c #798645",
"T  c #798844",
"R  c #798748",
"E  c #7D884E",
"W  c #7F8C51",
"Q  c #C3A030",
"!  c #F5D118",
"~  c #ECCF2E",
"^  c #E6D725",
"/  c #808F48",
"(  c #808E4A",
")  c #839348",
"_  c #86954D",
"`  c #828E59",
"'  c #899753",
"]  c #899755",
"[  c #889850",
"{  c #8B9A51",
"}  c #8A9852",
"|  c #8E9E55",
" . c #8D9C57",
".. c #8E9D57",
"X. c #87945A",
"o. c #86905D",
"O. c #8D9C59",
"+. c #8FA053",
"@. c #91A257",
"#. c #93A257",
"$. c #93A25D",
"%. c #91A05F",
"&. c #C68359",
"*. c #CF825B",
"=. c #D1875D",
"-. c #DE946B",
";. c None",
/* pixels */
";.;.;.;.;.;.;.~ ;.;.;.;.;.;.;.;.",
";.;.;.;.;.V &.^ ! ;.;.;.;.;.;.;.",
";.;.;.;.;.;.A Q -.C ;.;.;.;.;.;.",
";.;.;.;.;.N ;.=.S ;.;.;.;.;.;.;.",
";.;.;.;.;.;.D *.;.;.;.;.;.;.;.;.",
";.;.;.;.;.;.m F ;.G ;.+...;.;.;.",
";.;.$.] ;.;.;.B Z ;.@.R ;.P ;.;.",
";.X.;.x %.;.N b n ;.[ ;.;.z ;.;.",
";.c ;.e ) @.;.v ;.#.E ;.;.;.;.;.",
";.;.;.;.u ( @.M ;. .U ` ;.;.;.;.",
";.;.;.;.7 J a y } / I 0 ;.%.h ;.",
";.;.;.;.= d w 3 k T i - W _ ;.h ",
";.;.O.' ;.r ; . t 1 : s L 4 ;.f ",
";.| l Y o.* 2 O & < H p > ;.;.;.",
";.{ ;.$ j 5 X @ 1 K 8 9 o ;.;.;.",
";.;.;.;.# g 6   q , % + ;.;.;.;."
};
