/* XPM */
static char *spruce_sapling[] = {
/* columns rows colors chars-per-pixel */
"16 16 9 1 ",
"  c #2D241A",
". c #3D2F20",
"X c #4D0C15",
"o c #640D19",
"O c #433221",
"+ c #674D2F",
"@ c #831121",
"# c #9F2133",
"$ c None",
/* pixels */
"$$$$$$$#$$$$$$$$",
"$$$$$$$@$$$$$$$$",
"$$$$$$#o#$$$$$$$",
"$$$$$$$@##$$$$$$",
"$$$$$#@oo$$$$$$$",
"$$$$$$@@X@#$$$$$",
"$$$$#@oo@$$$$$$$",
"$$$$$@X@##$$$$$$",
"$$$$##@X@@#$$$$$",
"$$#@@oX@@X@@#$$$",
"$$$$##@X@o#$$$$$",
"$$$$$@o@X@@@$$$$",
"$$$$@## XX@@##$$",
"$$##@$@O@@$$$$$$",
"$$$$$$$+.$$$$$$$",
"$$$$$$$O $$$$$$$"
};
