/* XPM */
static char *tube_coral_fan[] = {
/* columns rows colors chars-per-pixel */
"16 16 7 1 ",
"  c #3436A0",
". c #4042B5",
"X c #4C4ECB",
"o c #5E7DE3",
"O c #98B1F1",
"+ c #DCE5FA",
"@ c None",
/* pixels */
"@@@@@@@@@@@@@@@@",
"@@@@@@@@@@@@@@@@",
"@@@@@@@@@@@@@@@@",
"@@@@@@@@@@@@@@@@",
"@@@@@@@@@@@@@@@@",
"@@@@@@@@@@@@@@@@",
"@@@@@@@@@@@@@@@@",
"@@@@@@@@@@@@@@@@",
"@@@@@@@@@@@@@@@@",
"@@@@@@@@ .@@@@@@",
"@@@@@ XXO+.  @@@",
"@@@@XO+XoOXO+X@@",
"@@.X oO. ..oO @@",
"@X O+X.  O+X  .@",
".O+ O.XO+XO .O+X",
" oOX.  oO XOXoO."
};
