/* XPM */
static char *wheat_stage7[] = {
/* columns rows colors chars-per-pixel */
"16 16 39 1 ",
"  c #76581E",
". c #79591E",
"X c #7C5B1E",
"o c #805E1E",
"O c #86621E",
"+ c #8E681E",
"@ c #99701F",
"# c #815F23",
"$ c #8D672B",
"% c #916929",
"& c #AB785A",
"* c #BE9038",
"= c #C8953E",
"- c #B88342",
"; c #BD8463",
": c #CE9D42",
"> c #CEA042",
", c #D6A348",
"< c #D6A448",
"1 c #D6A748",
"2 c #E0AB4F",
"3 c #E0AD4F",
"4 c #E0B04F",
"5 c #ECB55B",
"6 c #ECB95B",
"7 c #D69570",
"8 c #E09C75",
"9 c #E7A475",
"0 c #E7A178",
"q c #F0B671",
"w c #FABA77",
"e c #FABE74",
"r c #FAB57B",
"t c #FBC26D",
"y c #FBC86D",
"u c #FBCD6D",
"i c #FBD26D",
"p c #F9AD81",
"a c None",
/* pixels */
"aayaaaaaaaaaataa",
"ay,5aaaataaat2ya",
"a:4uaaat1,aa:62a",
"a2u2aaa<6iaa4y2a",
"aa3aaaa=y2aaa*aa",
"aaeaaaaaqaaaaqaa",
"aaraa<aawaaoaqaa",
"Oara,u@araua+waa",
"@arat3aOra>yo+aa",
"aXpaara@paX:aoaa",
"a@$aaraa0aoaapa.",
"aa-aa9aa7oraa8a@",
"aa0aa7XaX@7aa7oa",
"aa7ao;+a@a;aao+a",
"a ;a@Oaa@a&Oa%aa",
"a@.aa+.a@a#aaXXa"
};
