/* XPM */
static char *allium[] = {
/* columns rows colors chars-per-pixel */
"32 32 15 1 ",
"  c #0D5D3D",
". c #0D772C",
"X c #093E43",
"o c #502E7A",
"O c #189925",
"+ c #2AB23A",
"@ c #6A3CC6",
"# c #D23A92",
"$ c #FF569A",
"% c #9745CD",
"& c #7DE099",
"* c #C2E099",
"= c #FF87D5",
"- c #FF87FF",
"; c None",
/* pixels */
";;;;;;;;;;;;%%%;;;;;;;;;;;;;;;;;",
";;;;;;;;;;%###%%@##;;;;;;;;;;;;;",
";;;;;;;;;;%%##--%###%;;;;;;;;;;;",
";;;;;;;;;@%##%--##%@@;;;;;;;;;;;",
";;;;;;;;;@@@$$$$--$##@@;;;;;;;;;",
";;;;;;;;;;##$--$--%###@;;;;;;;;;",
";;;;;;;;;###%----$$%oo;;;;;;;;;;",
";;;;;;;;;##@@$$--=$@%%;;;;;;;;;;",
";;;;;;;;;@@#$$$##%@@%@;;;;;;;;;;",
";;;;;;;;;;%%$$@##@@%;;;;;;;;;;;;",
";;;;;;;;;%%%%##@@##%%;;;;;;;;;;;",
";;;;;;;;;%%;%##@@##%%%;;;;;;;;;;",
";;;;;;;;;;;;@%% oo;;%%;;;;;;;;;;",
";;;;;;;;;;;;;%%Xo;;;;;;;;;;;;;;;",
";;;;;;;;;;;;;;; ;;;;;;;;;;;;;;;;",
";;;;;;;;;;;;  ; ;  ;;;;;;;;;;;;;",
";;;;;;;;;;;;;  .  ;;;;;;;;;;;;;;",
";;;;;;;;;;;;;;   ;;;;;;;;;;;;;;;",
";;;;;;;;;;;;;;;  ;;;;;;;;;;;;;;;",
";;;;;;;;;;;;;;;O.;;;;;;;;;;;;;;;",
";;;;;;;;;;;;;;;O ;;;;;;;;;;;;;;;",
";;;;;;;;;;;;;;;. ;;;;;;;;;;;;;;;",
";;;;;;;;;;....;..;.OOO;;;;;;;;;;",
";;;;;;;;;;;.. .++...O;;;;;;;;;;;",
";;;;;;;;;;;;.  ++  .;;;;;;;;;;;;",
";;;;;;;;;;OOO +&&&+ ;;;;;;;;;;;;",
";;;;;;;;;;;OO+&&**&..;;;;;;;;;;;",
";;;;;;;;;;;.O&&***O+++O;;;;;;;;;",
";;;;;;;;;;...&&**O+++.;;;;;;;;;;",
";;;;;;;;;   ..+&.O++.   ;;;;;;;;",
";;;;;;;; ; +++O+.OO.   ;;;;;;;;;",
";;;;;;;;;;++.OOO....  ;;;;;;;;;;"
};
