/* XPM */
static char *azure_bluet[] = {
/* columns rows colors chars-per-pixel */
"32 32 7 1 ",
"  c #007D49",
". c #148E20",
"X c #14AF20",
"o c #63ABCA",
"O c #CFD9C3",
"+ c #ECF7DF",
"@ c None",
/* pixels */
"@@@@@@@@@@@@@@@@@@@@@@@@@@@@@@@@",
"@@@@@@@@@@@@@@@@@@@@@@@@@@@@@@@@",
"@@@@@@@@@@@@@@@@@@@@@@@@@@@@@@@@",
"@@@@@@@@@@@@@@@@@@@@@@@@@@@@@@@@",
"@@@@@@@@@@@@@@@@@@@@@@@@@@@@@@@@",
"@@@@@@@@@@@@@@@@@@@@@@@@@@@@@@@@",
"@@@@@@@@@@@@@@@@@@@@@@@@@@@@@@@@",
"@@@@@@@@@@@@@@@@@@@@@@@@@@@@@@@@",
"@@@@@@@@@@@@@@@@@@@@@@@@@@@@@@@@",
"@@@@@@@@@@@@@@@@@@@@@@@@@@@@@@@@",
"@@@@@@@@@@@@@@@@@@@@@@@@@@@@@@@@",
"@@@@@@@@@@@@@@@@@@@@@@@@@@@@@@@@",
"@@@@@@@@@@@@@@@@@@@@@@@@@@@@@@@@",
"@@@@@@@@@@@@@@@@@@@@@@@@@@@@@@@@",
"@@@@@@@@@@@@@@@@@@@@@@@@@@@@@@@@",
"@@@@@@@@@@@@@@@@@@@@@@@@@@@@@@@@",
"@@@@@@@@OO@@@@@@@@@@@@@@@OO@@@@@",
"@@@@@@@@O+++@@@@@+++@@@@++O@@@@@",
"@@@@@@@@++++@@@@++++@@@@++OO@@@@",
"@@@@@@@@+oo@@@@@+++O@++@ooOO@@@@",
"@OO@@@OO@ooX@@@@@o++OO+@oo@@@++@",
"@O++@@O++@XX@@@@Xoo@OO++X@@@+++@",
"++++O++++ .@@@@@XX@@oO++.@@@++OO",
"+++o@++oo  .@@@@@.@@oo..@@@@ooOO",
"@@ooX@@oo@@.XX@@.@@@.@.XX@@@oo@@",
"@@@XX  @.XX.XX@@.XX@.@.XX.@..X@@",
"@@@@.  @@.X@.@  XXX..@.@@...XX@@",
"@@@@.@@XX.@@.@ .XX@.@@.@@  @@@@@",
"@@XX..@XX.@@ @@..@@ @@ @  @@@@@@",
"@@@XX @@@. @  @ @@@  @ @  @@@@@@",
"@@@@@  @@@ @  @ @@@  @   @@@@@@@",
"@@@@@  @@@ @  @ @@@@     @@@@@@@"
};
