/* XPM */
static char *bamboo_stage0[] = {
/* columns rows colors chars-per-pixel */
"32 32 10 1 ",
"  c #0F5E3D",
". c #3E772C",
"X c #416436",
"o c #339114",
"O c #3BA817",
"+ c #1C9A21",
"@ c #22853C",
"# c #79854F",
"$ c #096E8F",
"% c None",
/* pixels */
"%%%%%%%%%%%%%%%%%%%%%%%%%%%%%%%%",
"%%%%%%%%%%%%%%%%%%%%%%%%%%%%%%%%",
"%%%%%%%%%%%%%%%%%%%%%%%%%%%%%%%%",
"%%%%%%%%%%%%%%%%%%%%%%%%%%%%%%%%",
"%%%%%%%%%%%%%%%%%%%%%%%%%%%%%%%%",
"%%%%%%%%%%%%%%%  %%%%%%%%%%%%%%%",
"%%%%%%%%%%%%%%%$ ++@%%%%%%%%%%%%",
"%%%%%%%%%%%   %$+++%%%%%%%%%%%%%",
"%%%%%%%%%%   $$$++%%%%%%%%%%%%%%",
"%%%%%%%%%%%% $$@@%%%%%%%%%%%%%%%",
"%%%%%%%%%%%%%%@##%%%%%%%%%%%%%%%",
"%%%%%%%%%%%%%%%O.%%%%%%%%%%%%%%%",
"%%%%%%%%%%%%%%%Oo%%%%%%%%%%%%%%%",
"%%%%%%%%%%%%%%%Oo%%%%%%%%%%%%%%%",
"%%%%%%%%%%%%%%%oo%%%%%%%%%%%%%%%",
"%%%%%%%%%%%%%%%O#%%%%%%%%%%%%%%%",
"%%%%%%%%%%%%%%%O.%%%%%%%%%%%%%%%",
"%%%%%%%%%%%%%%%Oo%%%%%%%%%%%%%%%",
"%%%%%%%%%%%%%%XOo%%%%%%%%%%%%%%%",
"%%%%%%%%%%%%%%XOo%%%%%%%%%%%%%%%",
"%%%%%%%%%%%%%%XOo%%%%%%%%%%%%%%%",
"%%%%%%%%%%%%%%X.o%%%%%%%%%%%%%%%",
"%%%%%%%%%%%%%%##o%%%%%%%%%%%%%%%",
"%%%%%%%%%%%%%%XXo%%%%%%%%%%%%%%%",
"%%%%%%%%%%%%%%X.o%%%%%%%%%%%%%%%",
"%%%%%%%%%%%%%%XOo%%%%%%%%%%%%%%%",
"%%%%%%%%%%%%%.XOo%%%%%%%%%%%%%%%",
"%%%%%%%%%%%%%.XOo%%%%%%%%%%%%%%%",
"%%%%%%%%%%%%%.XOo%%%%%%%%%%%%%%%",
"%%%%%%%%%%%%%.XOo.%%%%%%%%%%%%%%",
"%%%%%%%%%%%%%XXOo.%%%%%%%%%%%%%%",
"%%%%%%%%%%%%%XX...%%%%%%%%%%%%%%"
};
