/* XPM */
static char *beetroots_stage3[] = {
/* columns rows colors chars-per-pixel */
"32 32 11 1 ",
"  c #56183E",
". c #721F31",
"X c #0D5D3D",
"o c #7F4836",
"O c #0D775E",
"+ c #AE404E",
"@ c #50BA29",
"# c #08914E",
"$ c #9BBA29",
"% c #DD4088",
"& c None",
/* pixels */
"&&&&&&&&&&&&&&&&&&&&&&&&&&&&&&&&",
"&&&&&&&&&&&&&&&&&&&&&&&&&&&&&&&&",
"&&&&&&&&&&&&&&&&&&&&&&&&&&&&&&&&",
"&&&&&&&&&&&&&&&&&&&&&$$&&&&&&&&&",
"&&&&&&&&&&&&&&&&##&@$$$&&&&&&&&&",
"&&&&&$$&&&&&&&OO##&@$$@&&&&&&##&",
"&&&&&$$$&&&&XXOO##X#@@##&&&@@##&",
"&&@@&#$$&&&&XX##OOXX@@$$@&X@@OO&",
"&&@$$@#$$&&&O$$#OOXX@@$$@X##OO##",
"&&&$$@@$$&&X#$$XXXX###@@OX##OO##",
"&&&O@@@@&&&$@#@#XX@@####@$XO###&",
"&$$@@@@OX&&$$#@@XX@@@#O@$$OX##@&",
"&$$$@#@@@XO@$@@XXXX@@#O@$OOOO@@&",
"&&$$@#@@@#@@#@@XXXX#@OOO@$$@OO##",
"&#@@@#@@X#@@##@@XX##OOOoO$$@X###",
"@@@@##@@@@##O#@@XX#@@#Oo@@@.O##&",
"@@@##X@@@@OOO##XX.X@@@#+@@X.OOX&",
"&@@##o#@@OOOoO##X.OO@@#+##..OO##",
"&O@@#+@@OOOoOO## .OOOX#+oXoOO###",
"&X#@#+@#XOooOOOO .XOOX&oo.oXX##&",
"OOOO@o+&X++X@@@XX.oXXX&o+.oXX&&&",
"OOXOOX+.++X@@&&o..oXXo&X+o.X&&&&",
"&&XOOOoo+X&&&&&oo.+.o&&&+o.&&&&&",
"&&&&&Xo++&&&&&&&+.++o&&&+o &&&&&",
"&&&&&&&+o&&&&&&&+oo+&&&&++&&&&&&",
"&&&&&&&o.&&&&&&&&o.o&&&&o+&&&&&&",
"&&&&&&&. &&&&&&&&o .&&&&.+.&&&&&",
"&&&&&X&.. &OO&&&&.  &&&&ooo&&&&&",
"&&&OOXX+%%XOO&& +++o&O& ++o &&OO",
"&&&OOX+%%%+X&XX+%%%+ O.%%%+. XOO",
"&OO&X.+%%++ && %%%+.XX+%%+.  XX&",
"&&XX&..     &X...   X&X..   .X&&"
};
