/* XPM */
static char *birch_sapling[] = {
/* columns rows colors chars-per-pixel */
"32 32 11 1 ",
"  c #261D1F",
". c #003237",
"X c #065636",
"o c #066632",
"O c #66463B",
"+ c #785B5F",
"@ c #504E67",
"# c #917E6D",
"$ c #09924F",
"% c #ADB3C1",
"& c None",
/* pixels */
"&&&&&&&&&&&&&&&&..XXX&&&&&&&&&&&",
"&&&&&&&&&&&&&&&...$$Xoo&&&&&&&&&",
"&&&&&&&&&&&&&&&$$Xo$Xoo&&&&&&&&&",
"&&&&&&&&&&&&&XX$$$$o$X&&&&&&&&&&",
"&&&&&&&&&&&&&X$oo$$$$.&&&&&&&&&&",
"&&&&&&&&&&&&XX$$X+oX...&&&&&&&&&",
"&&&&&&&&&&&&XXo$$++$$..&&&&&&&&&",
"&&&&&&&&&&&$ooo$$$$$oX&&&&&&&&&&",
"&&&&&&&&&&&$$..Xo$$..X&&&&&&&&&&",
"&&&&&&&&&&&&&.XXoo.....&&&&&&&&&",
"&&&&&&o$$o$&&&.#+..&&..&&&&&&&&&",
"&&&&X$o$$$$ooo.#..&&..$$&&&&&&&&",
"&&&&X$$o$$X..$$+..o$o.o$$X&&&&&&",
"&&&&&&X.$$o.o$$.&&o$$o$$XX$&&&&&",
"&&&&&&XX.o$..%%.+XXooo$$$$$&&&&&",
"&&&&&&&oX$$#.%##+XXoooo$$XX.&&&&",
"&&&&&&&oo.&&@%&&&..oo.$$.XX.&&&&",
"&&&&&&XX..&&%#&&&.oX..&XX.&&&&&&",
"&&&&&&XX&&&&%&&&&&oo&&&&&&&&&&&&",
"&&&&&&&&&&&&+&&&&&&&&&&&&&&&&&&&",
"&&&&&&&&&&&++&&&&&&&&&&&&&&&&&&&",
"&&&&&&&&&&&#%&&&&&&&&&&&&&&&&&&&",
"&&&&&&&&&&&%%&&&&&&&&&&&&&&&&&&&",
"&&&&&&&&&&&%@&&&&&&&&&&&&&&&&&&&",
"&&&&&&&&&&& @&&&&&&&&&&&&&&&&&&&",
"&&&&&&&&&&&##&&&&&&&&&&&&&&&&&&&",
"&&&&&&&&&&&##&&&&&&&&&&&&&&&&&&&",
"&&&&&&&&&&&@#&&&&&&&&&&&&&&&&&&&",
"&&&&&&&&&&&++&&&&&&&&&&&&&&&&&&&",
"&&&&&&&&&&&++#&&&&&&&&&&&&&&&&&&",
"&&&&&&&&&&&O+O&&&&&&&&&&&&&&&&&&",
"&&&&&&&&&&&OOOO&&&&&&&&&&&&&&&&&"
};
