/* XPM */
static char *blue_orchid[] = {
/* columns rows colors chars-per-pixel */
"32 32 18 1 ",
"  c #0C4F32",
". c #0E5D3D",
"X c #0F5E3D",
"o c #127C2D",
"O c #00703D",
"+ c #093F44",
"@ c #128A6E",
"# c #14A276",
"$ c #14BA76",
"% c #14CD76",
"& c #3264E6",
"* c #317DF3",
"= c #3298FF",
"- c #33B7E7",
"; c #35D5CD",
": c #79F5DC",
"> c #BEF5DC",
", c None",
/* pixels */
",,,,,,,,,,,,,,&::=,,,,,,,,,,,,,,",
",,,,,,,,,,,,;;;:>>:;,,,,,,,,,,,,",
",,,,,,,,,,,=;::;;-:;-,,,,,,,,,,,",
",,,,,,,,,,,==::;>>*--,,,,,,,,,,,",
",,,,,,,,,,,;;--->:;,,,,,,,,,,,,,",
",,,,,,,,,,-;;=---;;--,,,,,,,,,,,",
",,,,,,,,,,--,==&***---,,,,,,,,,,",
",,,,,,,,,,,,,--&&;;=--,,,,,,,,,,",
",,,,,,,,,,,,---==;;==,,,,,,,,,,,",
",,,,,,,,,,,,--===&--=,,,,,,,,,,,",
",,,,,,,,,,,,,*==&&--,,,,,,,,,,,,",
",,,,,,,,,,,,,,**&*,,,,,,,,,,,,,,",
",,,,,,,,,,,,,,,,*&,,,,,,,,,,,,,,",
",,,,,,,,,,,,,,,,&*,,,,,,,,,,,,,,",
",,,,,,,,,,,,,oO***,,,,,,,,,,,,,,",
",,,,,,,,,,,,,oo**,,,,,,,,,,,,,,,",
",,,,,,,,,,$$$#o@*O,,,,,,,,,,,,,,",
",,,,,,,,,,,$$@#@#%%#,,,,,,,,,,,,",
",,,,,,,,,,,,##@#$$@#,,,,,,,,,,,,",
",,,,,,,,,,##@##$$@@,,,,,,,,,,,,,",
",,,,,,,,,,@o@##$o@OO,,,,,,,,,,,,",
",,,,,,,,OO,oOO@O@OO@@o,,,,,,,,,,",
",,,,,,,@@OO@@OOoOO###o@,,,,,,,,,",
",,,,,,,@@@O####@oo##O@@o,,,,,,,,",
",,,,,,,O@@Oo###  ooXOOoo,,,,,,,,",
",,,,,,,  XOOX    .ooXOOX,,,,,,,,",
",,,,,,XX @@OXXOO o@@o ,,,,,,,,,,",
",,,,,,XXX@@oOOooOo@@@ ,,,,,,,,,,",
",,,,,,,XX oo Oooo.o@o  ,,,,,,,,,",
",,,,,,,,     XOoo      ,,,,,,,,,",
",,,,,,,,  , ++ +++  ,  ,,,,,,,,,",
",,,,,,,,,,,, +++ + ,,,,,,,,,,,,,"
};
