/* XPM */
static char *brain_coral[] = {
/* columns rows colors chars-per-pixel */
"32 32 6 1 ",
"  c #7F1E2B",
". c #B12214",
"X c #FF6A26",
"o c #CA4858",
"O c #F9496B",
"+ c None",
/* pixels */
"++++++++oo+++++++++oo+++++++++++",
"++++++++oo.++++++++oo+++++++++++",
"++++++++ OOOO++++++ ..++++++++++",
"++oo+++++.oOO+++++XX..+++OO+++++",
"++oO+++OOoo  +++++XX  ++OOoo++++",
"++ OXXoOOOOO++++oOO  +++OOoOO+++",
"+++.XXooOOOOo++OOOoo+++ ..OOO+++",
"+++  OOo.OOoo.+.OOOO++ OOOOO +++",
"++++OOO  OOoOO   oOO+ .OOOO. +++",
"++++OO ++ ooOO +OOOOoooooOO oo++",
"oo.+  +..+ .o.. OOOoOOoooo +oo++",
"oOO+++ ..+ OOoOOoOOOOOoo. ++ XXo",
" OO + oo  oOOOOOoooOO.  +++.OXXo",
" .OOoOO.  ooOOOo oooo +OO .oOO  ",
"+ OOOO. + oOOOO. XXoo +OOOoo.  +",
"+ OOOOOO ..OOo   XXoo++ OOoo.Oo+",
"++ OOoOO .oooo ++ ooo.  .OOOOOo+",
"+++ oOOo..oooo XX .oXX. oOOOO  +",
"++++ OOoo.ooo. XXOOoXXooooOO +++",
"++++  ooooo..   .OOooooooo. oo++",
"+++++ ooooXX +++    .oooo  +.o++",
"++++XX oooXX ++..++  oooOO++ .OO",
"+OO+XX  ooo. .OOo.++ oooOO++ OOO",
"+OOOo + .ooooOOOooOO.oooo +.oOO.",
"+OOOOO   ooooOOoOOooooooo .OOo  ",
"+ ooOOo .ooooo  OOOoooooo oOOo +",
"++ .ooooooooo.   OO.ooooooooo.++",
"++++ .oooooo. +++   ooooooOOo ++",
"+++++  ooo.  ++++++ ooooOOOO +++",
"++++++ oooo ++++++++ooooOO. ++++",
"+++++++oooo ++++++++.oooo   ++++",
"+++++++ oo. ++++++++ .oo. ++++++"
};
