/* XPM */
static char *bubble_coral_fan[] = {
/* columns rows colors chars-per-pixel */
"32 32 8 1 ",
"  c #0AB579",
". c #C38944",
"X c #40418E",
"o c #4949B2",
"O c #5A58D8",
"+ c #4E78D9",
"@ c #139DAD",
"# c None",
/* pixels */
"################################",
"################################",
"################################",
"################################",
"################################",
"################################",
"################################",
"################################",
"################################",
"################################",
"################################",
"################################",
"################################",
"################################",
"################################",
"#################.##############",
"###############X  ##############",
"##############X@  @#######.#####",
"##########.###X@@@@######+.#####",
"#########O.O##XO@@O#####+++O####",
"########++OOo##OOOX#####++OO####",
"####.O##+++Oo#XOOX####.#oOOo####",
"###OO.@#O++oX#XX++O###O.oXX#####",
"###O@@@##ooX###o++OX#@@OOX###.##",
"#.##@@X##O++X#OOOOXX#@@@OX#+.###",
"#OO#OOX#o@@+OXOOOoX##O@@X#@@@O##",
"oOOo@@X#o@@OOXX@@+o###ooX#@@@OX#",
"oooo@@@X#oOOX##  @O###OOo#X@@oX#",
"#XoXX@@+X##o@@o  @X##OOOoX#X++O#",
"####XO++o#X+@@OoOXX##OOoXX##++o#",
"#####OOOo#X+++OoOOo##XoXXX#XooX#",
"#####oooX##o++oOOOo##XXXX##Xoo##"
};
