/* XPM */
static char *cornflower[] = {
/* columns rows colors chars-per-pixel */
"32 32 15 1 ",
"  c #0E3E34",
". c #005E28",
"X c #0C5E39",
"o c #067074",
"O c #18A21C",
"+ c #198429",
"@ c #50C21E",
"# c #3E48B2",
"$ c #2C65E9",
"% c #2DAD85",
"& c #0089FF",
"* c #00B2FF",
"= c #6BDACC",
"- c #6BC2FF",
"; c None",
/* pixels */
";;;;;;;;;;;;;;;;;;;;;;;;;;;;;;;;",
";;;;;;;;;;;;;;;;;;;;;;;;;;;;;;;;",
";;;;;;;;;;;;;;;;;;;;;;;;;;;;;;;;",
";;;;;;;;;;;;;;;;;;;;;;;;;;;;;;;;",
";;;;;;;;;;;;;;;;;;;;;;;;;;;;;;;;",
";;;;;;;;;;;;;;;;;;;;;;;;;;;;;;;;",
";;;;;;;;;;;;;;;**$;;;;;;;;;;;;;;",
";;;;;;;;;;;;;;&**$&&;;;;;;;;;;;;",
";;;;;;;;;;;;;;&&&--&;;;;;;;;;;;;",
";;;;;;;;;;$--$#$&--$$;;;;;;;;;;;",
";;;;;;;;;$$-**##$$--$;;;;;;;;;;;",
";;;;;;;;;$$#**&$==--&&;;;;;;;;;;",
";;;;;;;;;;&&$&&&==#&&&#;;;;;;;;;",
";;;;;;;;;;&&$$$**&##$$#;;;;;;;;;",
";;;;;;;;;;##&**&*==#$$;;;;;;;;;;",
";;;;;;;;$$##&*&$#==&$;;;;;;;;;;;",
";;;;;;;;$$&&&&&&##&&$$;;;;;;;;;;",
";;;;;;;;;&&&$$&&##$$$$;;;;;;;;;;",
";;;;;;;;;&&$&&##O.$$#&&;;;;;;;;;",
";;;;;;;;;;##&##+@.;##&&&;;;;;;;;",
";;;;;;;;;;##;;;+@.@@;#&&;;;;;;;;",
";;;;;;;;;;;;@@Oo@%@@;;;;;;;;;;;;",
";;;;;;;;;;;+@OOO@%%X++OO;;;;;;;;",
";;;;;;;;;;@@@@OO@oo+++oOo;;;;;;;",
";;;;;;;;OO@@+@@O%oo+@@@++;;;;;;;",
";;;;;;;;OO++oooO%o+++@@+;;;;;;;;",
";;;;;;;;;OO++o%%O+%@@@+Xo;;;;;;;",
";;;;;;;;;Xo..+%%++o@@Oo++;;;;;;;",
";;;;;;;;;+oo.++@++%oXo+;;;;;;;;;",
";;;;;;;;XO++o+o@@%%.oo++;;;;;;;;",
";;;;;;;;XO++++.%%%..++++;;;;;;;;",
";;;;;;;;Xo+++...  .oo++;;;;;;;;;"
};
