/* XPM */
static char *nether_wart_stage2[] = {
/* columns rows colors chars-per-pixel */
"32 32 14 1 ",
"  c #4E4163",
". c #D33C37",
"X c #F7642E",
"o c #8E2D49",
"O c #B92D4E",
"+ c #FFB20F",
"@ c #F78C2E",
"# c #80AE74",
"$ c #6B4D86",
"% c #5988D9",
"& c #97BEBA",
"* c #AFDBD6",
"= c #CCFFF9",
"- c None",
/* pixels */
"--------------------------------",
"---------------------&&---------",
"---------&&---------&=*#o-------",
"--------&=*#--------&*%#+++-----",
"-------o&*%#o-------o##@++------",
"-------oo##++-----@@+..@@-------",
"------@++.@++------+++.X-++++---",
"-------++@@@--------++@.@+++----",
"------oo@@..@@@--XXX-@@X@@@-----",
"-----oo..X.@@@----@@@.XXXX------",
"----XX@@..XXX ----X@@@.X@@@-----",
"-----X@@@.X@+++%%--@@@.@@@@@----",
"------@@@O@+++%%%%-O@@X@@.O--##-",
"------OXXO@@@OO%$$XXoXX@.oX-####",
"---##..$.o$$O$OO$.OXX$.$$XX..###",
"--##..XX o$@@X$$....XX  XX...Ooo",
"-..###oXX XX...OO.-O.XO X.O-OOOO",
"-..O#-oOXOXOo...Oo--OOOOOXXXoOOO",
"--OOoXXXOOOXXX.Ooo XXOOOXXXOOoo-",
"---oOOXXXOXXX-oooOXXXXOO..-OOOo-",
"-ooOOO-OOOXO--OoOOO-...oo---OOo-",
"-ooOOooOOOO--oOOOO$--Oooo---ooo-",
"--ooooooOOO--ooOOo$--$ooo---ooo-",
"--oooo-OOo----oooo---$$$$---ooo-",
"--oo$--ooo----$ooo---$$$$--$oo--",
"--$oo--$o$-----oo$----$$$--ooo--",
"--$$$--$$$-----$$-----$$$--oo$--",
"-- $$-  $$-----  -----$$$$-$$$--",
"-- $ -     ----   ---    $  $---",
"-oo      oo oo    -oo        $$-",
"-o$  $oo $$ o$     oo  $$  $ $$-",
" $  $$$  $      $   $  $   $  $-"
};
