/* XPM */
static char *oak_sapling[] = {
/* columns rows colors chars-per-pixel */
"32 32 10 1 ",
"  c #003237",
". c #48291A",
"X c #683A2A",
"o c #0A5420",
"O c #10733D",
"+ c #8A5446",
"@ c #A67255",
"# c #0F8E2A",
"$ c #88C23B",
"% c None",
/* pixels */
"%%%%%%%%%%%%%%%%%%%%%%%%%%%%%%%%",
"%%%%%%%%%%%ooOO%oo%%%%%%%%%%%%%%",
"%%%%%%%%%%##ooo##$O%%oo%%%%%%%%%",
"%%%%%%%%%OOoooO##$$%ooo%%%%%%%%%",
"%%%%%%%%%ooo#$$oooo#$$# oo%%%%%%",
"%%%%%%%O$$$###$$ooO$$O##O %%%%%%",
"%%%%%%O$$$#$$$##oo##Oo###$OO%%%%",
"%%%%%%OOo#$$$#$OOoOO$$$o$$oO%%%%",
"%%%%oo$##O$$O$$$#OOO$$$$OO#oo%%%",
"%%%%o$$##OOoo#$$##Ooo$$$o##oo%%%",
"%%%%O$$$oO##OO#o##o###oooooOO%%%",
"%%%#OOOOO$$#o##Oooo####OOoOOO%%%",
"%%%##OOoO$$ooOo##o  ###OO#o%%%%%",
"%%%%oo#OOOooOOo##o ...oo##o%%%%%",
"%%%ooO## oOOooOo.....   %%%%%%%%",
"%%%ooOO  OOOo#O XX.   %%%%%%%%%%",
"%%%%%%   OO  ## XX%%OO%%%%%%%%%%",
"%%%%%%%%o    o%%..%%oOO%%%%%%%%%",
"%%%%%%%%oo%%%%##oo%OOo%%%%%%%%%%",
"%%%%%%%%%%%%%###oooO##%%%%%%%%%%",
"%%%%%%%%%%%%%##%.oo%$$%%%%%%%%%%",
"%%%%%%%%%%%%%%%%X%%%%%%%%%%%%%%%",
"%%%%%%%%%%%%%%%%X%%%%%%%%%%%%%%%",
"%%%%%%%%%%%%%%%X.%%%%%%%%%%%%%%%",
"%%%%%%%%%%%%%%%++%%%%%%%%%%%%%%%",
"%%%%%%%%%%%%%%%+X%%%%%%%%%%%%%%%",
"%%%%%%%%%%%%%%%++%%%%%%%%%%%%%%%",
"%%%%%%%%%%%%%%%@+%%%%%%%%%%%%%%%",
"%%%%%%%%%%%%%%%@@%%%%%%%%%%%%%%%",
"%%%%%%%%%%%%%%%@@X%%%%%%%%%%%%%%",
"%%%%%%%%%%%%%%X+@@%%%%%%%%%%%%%%",
"%%%%%%%%%%%%%XX+@@+%%%%%%%%%%%%%"
};
