/* XPM */
static char *poppy[] = {
/* columns rows colors chars-per-pixel */
"32 32 13 1 ",
"  c #06353A",
". c #0A5334",
"X c #0A6B25",
"o c #FC4E37",
"O c #8D3D44",
"+ c #A7444B",
"@ c #BF4B54",
"# c #DE4D45",
"$ c #138A1F",
"% c #389C58",
"& c #5FAD68",
"* c #70C58A",
"= c None",
/* pixels */
"================================",
"================================",
"================================",
"================================",
"================================",
"================================",
"================================",
"================================",
"================================",
"==============OOO===============",
"==============OO@@#=============",
"==============#oo@o+O===========",
"=============##OOO@+O===========",
"============.@#@oooOOX.=========",
"==========..OO+@#@&**...========",
"===========.O$++X&**&$=.========",
"==========***&$$X&XX.$X=========",
"=========&**$%&&*X$$$=X=========",
"========&&%$.X****$%%&==========",
"=======.$X..XX$*&%X&&&==========",
"======..$ .XXXX%$%..&%X=========",
"======== ..$X$X$$XXX.%XX========",
"========   %%$ $.XXX$..XX=======",
"=========. *%$  ..$$$..=X=======",
"========.  **   .  $$=.=========",
"========XX. * .     $ ==========",
"========XX  X ..  ..  .=========",
"========X . XXX. ...X  X========",
"========= ..X$X   X$X=XX========",
"==========.X $$  . $$=.X========",
"=======.==XX. $.XX. $..=.=======",
"=======..XX .. .XXX.......======"
};
