/* XPM */
static char *red_tulip[] = {
/* columns rows colors chars-per-pixel */
"32 32 12 1 ",
"  c #0A5334",
". c #0A6B25",
"X c #733275",
"o c #FC4E37",
"O c #8D3D44",
"+ c #A7444B",
"@ c #BF4B54",
"# c #DE4D45",
"$ c #138A1F",
"% c #47A822",
"& c #68BC22",
"* c None",
/* pixels */
"********************************",
"***********oooo*****************",
"************oooo****************",
"*************#ooo***************",
"*************#@oo***************",
"*************##@oo*oo***********",
"*************####oO@*o**********",
"**************##@oO*************",
"**************@@+#**************",
"************  @++#**************",
"*************  +O@..************",
"************** OOO.*************",
"***************OX.**************",
"***************XX***************",
"**************&X.%$*************",
"**************&.$*******&&******",
"**************&&******&&&&******",
"**************%%*****&&&&*******",
"******&&******%%****&&&%********",
"*******&&&****%****%&%**********",
"********&&&**.%***%%************",
"*********&&&*.%**%%*************",
"**********&&*.$**%**************",
"***********&%.$*$%*****&&*******",
"************%$$*$****&&&&*******",
"******&&****%$$ $***&&&%********",
"*******&&& **$$.$**%&***********",
"********&&& *%$$**%%************",
"*********&&  %$$* %*%%%*********",
"**********%%.%$%$%%$%%**********",
"********&&&%$&&%$&$$%***********",
"*********&&%$%&&$&$$*$**********"
};
