/* XPM */
static char *sweet_berry_bush_stage3[] = {
/* columns rows colors chars-per-pixel */
"32 32 14 1 ",
"  c #10332A",
". c #35282C",
"X c #522032",
"o c #633126",
"O c #005E2D",
"+ c #004F3F",
"@ c #124239",
"# c #1D7F2F",
"$ c #096E71",
"% c #229652",
"& c #4A15BB",
"* c #5D15BB",
"= c #7F1EFF",
"- c None",
/* pixels */
"--------------------------------",
"--------------------------------",
"-------------------#%%----------",
"------------------%%%%----------",
"----------##$$--O$%%$$----------",
"----------##$%%#@@O%$$##--------",
"-----$$O+$$OO%%%%%OOOO##--------",
"-----$$OO$$OO#%#%$$O@@OO**------",
"----OO+OOO$$$##O$$O%%@O%%*------",
"----OOO+++$$###O$$#%%#%%%-------",
"-----O**+@@$$$#OO%%###%%#O$$----",
"------**O@@$$$@@@%%#O###%%$$$$O-",
"------$$&&@@$$@@@#%OOO##%%$O$$O-",
"-##OO-%%&&OO$$##O  @@O###OOOO##-",
"-###$#%%%%OO%%##$$ @@@@OOOOO###-",
"%%##$##O%%OO%%O$$$@+++@@OO**##--",
"%%@$$$OO%OOOO%@@OO==++++@@**&&--",
"O%+@$$%%$$%%@@@@O@=*@&&+@@@$&&--",
"-+++@#%%%$%%#+@@+@+ &&#%%+$+O---",
"-++++##$%O###@@@@   O%%%%$##&&--",
"---$%%#OOOO$$@@@@%%#O%%$$$##$&--",
"---$%%OOOOOO@@@@ %%##O%OOO##%%--",
"---$$%OOOO+@..@@ $$++++OOO$$%%%-",
"--OOO**O&&+++..@ $$&&+@@O==O$%%-",
"-$$OO*==&&++@@XX@@+&&@@@&=*OO%+-",
"-$$$O+=* @@@@@ XX@++..@X&&$$$++-",
"--$$+++@@@@ @.  @@ oo@@X++$**+--",
"----+++@     X-- @Xo   o@@+**---",
"--------@@  @----XX    @@@------",
"-----------..----.---- XX-------",
"------------..--..----..--------",
"-------------.-...---.----------"
};
