/* XPM */
static char *tube_coral[] = {
/* columns rows colors chars-per-pixel */
"32 32 6 1 ",
"  c #6D2C73",
". c #FC6D5D",
"X c #E15D7A",
"o c #95418A",
"O c #BE4189",
"+ c None",
/* pixels */
"++++++++++++++++++++++++++++++++",
"++++++++++++++++++++++++++++++++",
"++++++++++++++++++++++++++++++++",
"++++++++++++++++++++++++++OOOo++",
"+++OOOo++++++OOO++++++++OOOOOo++",
"+OOOOOo++++++OOOOOo+++++OOOOOo++",
"+OOOOOoo+++++OOOOOo+++++OOOOOo++",
"+OOOOOOo++++OOOOOOo+++++OOOOOo++",
"++OOOOOoo+++OOOOOoo+++++OOOOOo++",
"++OOOOOOo+++OOOOOo++++++OOOOOo++",
"+++OOOOOo+++OOOOOo++++++OOOOOo++",
"+++OOOXXoo++OOOOOo++++++OOOOOo++",
"+++OXXXXOo++XXXXXo++++++OXXXXo++",
"++++XXOOOoo+XXXXXo++++++XXXXXo++",
"++++OOOOXXo+OOOOOo++++++XOOOOo++",
"+++++OXXXXo+XXXOOo++++++XXXOOo++",
"+++++OXXOOooXXXXXo++++++XXXXXo++",
"+++++OOOOOOoOOOXXo++++++OOOXXo++",
"++++++OOXXXoOOOOOoo+++++XXXXXo++",
"++++++XXXXOo+XXXXXo++++OXXXXOo++",
"++++++OXXXXo+XXXXOo++++XXXXOoo++",
"++++++OOXXXooOXXXXo++++XXXXXo+++",
"++++++OXXXXOoXXXXXo++++XXXXXo+++",
"+++++++XXXXXoXXXXXoo+++.....o+++",
"+++++++XX...oX...XOo+++.....o+++",
"+++++++.....o+.....o+++XX...o+++",
"+++++++..XXX +OXX..o++.....X +++",
"+++++++...XX +.....oo+...XXo +++",
"+++++++..... +...XXO +X....o++++",
"++++++XXX... ++..... ...... ++++",
"++++++.....O ++..... .....O ++++",
"++++++.....  ++..... .....  ++++"
};
