/* XPM */
static char *white_tulip[] = {
/* columns rows colors chars-per-pixel */
"32 32 13 1 ",
"  c #0A5334",
". c #0A6B25",
"X c #138A1F",
"o c #47A822",
"O c #68BC22",
"+ c #735C9E",
"@ c #657DB4",
"# c #809CA8",
"$ c #AAAAB3",
"% c gray75",
"& c #E2D9D9",
"* c #FAF1F1",
"= c None",
/* pixels */
"================================",
"================================",
"========*****=======&===========",
"=========******====%&===========",
"===========$&**&==#%============",
"============$$&&=+##============",
"==OOOOO======$#&%+@***==========",
"==OOOOOOO=====##%+%%&**=========",
"=====OOOOO====#@$#%%===*========",
"=======OOOO====@+#%=============",
"========OOOO===@+@%=============",
"==========OoO=O=++=XXX====OO====",
"===========oo==O++XXX===OOOO====",
"============oo=OO+XX===OOOO=====",
"============oo==OOX===OOOO======",
"=============o==OO====OOO=======",
"=============oo=oO===ooO========",
"=============oo==O==ooO=========",
"===oooo=======o==o=Xoo==========",
"====ooooo=====X==o=oo===========",
"======ooooo===X.=o.o============",
"========ooo.==XX ooo=..=========",
"==========XX.=.X ooX..==oo======",
"===========XX= X.XoX.=oooo======",
"============XX.X.Xoo=ooo========",
"=======....==XXXXoo Xo==========",
"========....=.XXXoX X===========",
"========== oo X.XoX.=XXX========",
"=========== ooX.ooX.ooX=========",
"=======XXX==ooXXoXXooo=XXX======",
"========Xoo.oooXoXXooXooX=======",
"=========Xo.XooXXXXoXXoX========"
};
