/* XPM */
static char *wither_rose[] = {
/* columns rows colors chars-per-pixel */
"32 32 13 1 ",
"  c #111A1C",
". c #102235",
"X c #262423",
"o c #242E32",
"O c #3F3C68",
"+ c #52506A",
"@ c #88003D",
"# c #B41433",
"$ c #E02828",
"% c #FF3333",
"& c #FF6D6D",
"* c #FFB67B",
"= c None",
/* pixels */
"================================",
"================================",
"================================",
"================================",
"==============###@@=============",
"============###@@@@=============",
"===========@@@@@#$$#@===========",
"===========#$$OXX@#@@===========",
"==========#$$$@X#&$#============",
"==========@$$##**&###===========",
"==========@@+@$%%%@##===========",
"============oo@%%@o@@===========",
"=============      =============",
"=============O    ==============",
"===============..OO=============",
"===============..===============",
"============@@=..@==============",
"============@....oo=============",
"=========+++O.@@o@@@+===========",
"=========++++o++@@+++===========",
"==========+O+o++++++O===========",
"===========OOooO+O+oOO==========",
"========ooOOO++OoooOOO==========",
"========oooOO+OOoooOOoo=========",
"=========oooOoOooooOoooo========",
"=======OOooooo.ooo.oo.oo========",
"=======OOO+++o.....oo..=========",
"========oo++++....+++.==========",
"=======ooO++++o..++++OOO========",
"=======ooOO+++o.O+++OOOO========",
"========oOOoO+Oo+OOOOOO=========",
"=========ooooOOOOOOooO=========="
};
