/* XPM */
static char *_4x64_wall[] = {
/* columns rows colors chars-per-pixel */
"64 64 5 1 ",
"  c #110A02",
". c #36260F",
"X c #4D3618",
"o c #573D1C",
"O c #795223",
/* pixels */
"                                                                ",
"   OOOOOOOOOO       OOOOOOOOOO     OOOOOOOOOOO     OOOOOOOOOOOO ",
" .OOOOOOOOOOOO     OOOOOOOOOO..   OOOOOOOOOOOO.  .OOOOOOOOOOOO. ",
" .OOOOOOOOOOOO.   OOOOOOOOOOO..  OOOOOOOOOOOOO. ..OOOOOOOOOOOO. ",
"OOOOO.......OO.  OOOOOOOOOOOO..  OOO........... OOOOOOOOOOO.... ",
"OOOO........... OOOOO.......... OOOO..........  OOOO........... ",
"OOOO....X.X...  OOOOO.........  OOOO.....X....  OOOO........... ",
"OOOOO.........  OOOOO...X.....  OOOOO.........  OOOO...X....... ",
"                      ...                                       ",
"O......  ...........  ..  .O......... ...  ..........     ......",
"OOOOOO.  .OOOOOOOOOOO    ..OOOOOOOOO.. .  ...OOOOOOOOO   ..OOOOO",
"OOOOO.. ..OOOOOOOOOOOO  ..OOOOOOOOOOO.   ..OOOOOOOOOOO.  OOOOOOO",
"OOOOO.  .OOOOOOOOOOOOO  .OOOOOOOOOOOO.. ..OOOOOOOOOOOO.  OOOOOOO",
"....O. ..OOO............OOOOO..........o.OOOO........O. OOOOO...",
"o..... .OOOOO..X......  OOOO.....X......OOOOOO......... .OOOO...",
"...... .O.............  OO..............OOOOOO......... .OOOO...",
"          .......X....          .                             ..",
"  .......                         ............   ............   ",
" ..OOOOOOOOO...  ..OOOOOOOOOO..  ..OOO.......O.  .OOOOOOOOOOO.. ",
" OOOOOOOOOOO.o  ..OOOOOOOOOOOO.  .OOOOOOOOOOOO. ..OOOOOOOOOOO.. ",
"OOOOO.O.......  .OOO..OOOOOOOOO ..OOOOOOOO...O  OOOOOO......O.. ",
"OOOO..........  .OOO..........  .OOOOOO.......  OOOO........... ",
"OOOO..........  .OOO..........  OOOO..........  OOOO....o...o.. ",
"OOOO......X...  OOOO.........o  OOOOO.........  OOO.........oo. ",
"      .....      OOO   ...      O.........          .....       ",
"                       .  ....O        ..  ........    .  ......",
"OOOOOO.   .OOOOOOOOOOO   ..OOOOOOOOOOO   ...OOOOOOOO     ..OOOOO",
"OOOOOO.  ..OOOOOOOOOOO. ..OOOOOOOOOOOO. ..OOOOOOOOOOO   ..OOOOOO",
"OOOOO.. ..OOOOOOOOOOO.. OOOOOOOOOOOOOO. .OOOOOOOOOOOOO  OOO.....",
"OOOOO.. .OOOOX......... OOOOO.X........ OOOOO.........  OOO.....",
"...... ..OOOO....X....  OOOO..........  OOOOO.......... OOOO....",
"...... .o.............  O.............  OOOOOO......o.. OOOO....",
"                                .               ......         .",
" ..............   ............    .............        ......O  ",
" .OOOOOOOOOOO..   .O...........  .....OOOOOOO... .OOOOOOOOOOOO. ",
" OOOOOOOOOOOOO.   .OOOOOOOOOO.. ..OOOOOOOOOOOOO  .OOOOOOOOOOOO. ",
"OOOXOOOOOOOOOO   ..OOOOOOOOOO.. OO.......OOO... ..OOOOOOOOOOOO. ",
"OOOOXX......O.  O.OO.O......... OOO............ .OOOOO......... ",
"OOOO........... OOOO........... OOOO....o.....o .OOOO.......... ",
"OOOO........... OOOOO..X...X... OOOOO..........  .....X........ ",
"   O......           ...                             .......    ",
" O         ........O     ..........O                        ....",
"OOOOOO   ...OOOOOOOOOOO  .OOOOOOOOOOOO.   ..OOOOOOOOOO    ..OOOO",
"OOOOOO  ..OOOOOOOOOOOOO  .OOOOOOOOOOOO.  ..OOOOOOOOOOO.  ..OOOOO",
"OO.OO.  OOOO.OO.O.OOOO  ..OOOO......... ..OOOO........  .OOOOOO.",
"......  OOOO..........  .OOOO..X...... ..OO...........  OOOO..O.",
"......  OOOO..........  OOOOO......... ..OOOO....X....  OOOO....",
".o....  OOOOO..o......  OOOOOO........ ..OOOOO........  OOOO....",
"                                ..                            . ",
"  o...........o   ............O    ............    .      ..    ",
"o...OOOOOOOOOO   o.OOOOOOOOOOOO  OOOOOOOO......   OOOOOOOO..OO  ",
"..OOOOOOOOOOOO  ...OOOOOOOOOOO   OOOOOOOOOOOOO.   OOOOOOOOOOOO  ",
"..OOOOO.OOO.OO  ..OOO........O   OOOOOOOOOOOO..  OOOO....OO..O  ",
"OOOO........OO  OOOO..........  OOOO...........  OOOO........O  ",
"OOOOO........   OO.....o.X....  OOOOO..........  OOO....ooo...  ",
"OOOO.......     OO...........o   OOOO......ooo  OOOO.........   ",
"            .                    O........o                     ",
"              OOOOOO   .   OOOO             OOOOOOOOOO       ..O",
"OOOOO     .OOOOOOOOOOO   .OOOOOOOOOOOOO  OOOOOOOOOOOOOO   ....OO",
"OOOOOO   ..OOOOOOOOOOO   .OOOOOOOOOOOOO  OOOOOOOO..OOOO  ....OOO",
"OOOOOO  ..OOOOOOOOOOOO  ..OO...OOOOOOOO OOOOX..O.....OO ...OOO.O",
"....... OOOO.........O  OOOOOO.X......  OOO.X.XX.....O  .OOOO...",
"....X.  OOOO..X......O  OOOOO.......... OOO..X.......O  .OOOOX..",
"                                                                "
};
