/* XPM */
static char *andesite[] = {
/* columns rows colors chars-per-pixel */
"32 32 11 1 ",
"  c #1D322F",
". c #39514F",
"X c #4F615C",
"o c #696B6A",
"O c #7C7F6F",
"+ c #7A7E7B",
"@ c #888978",
"# c #848A85",
"$ c #979585",
"% c #A5A098",
"& c #BEC4BE",
/* pixels */
"oo.o........  ......oo...ooooooo",
"%%%&%&%..++oo  ....ooooooo$$%%%%",
"%%%%&%&.&&&&&& &&&&&&o&&&&&o&&&&",
"+$o$$++o$$$$%%o%&&&&&o%%%%$o$+++",
"$$o$$@$o@$@@$%o$$$$++o++###o##$$",
"$$o$$@$o+$@@$$o$@@$$+@@###%o#$$$",
"$%o$%@$++$@@$$o%@@$$o$@@$$%o$$$$",
"$%o@%@$@o$@@%+o%@@$$o%@@$@%o+%$$",
"$%o+%@$@o$$@%++%@@$%o%@@$@%++$$$",
"$%++%$$$o$@$%o+@@@@%o$@@$@$+o+$$",
"$$+o%$$%o$$@%o$@@@$%.$$$$@@$oo%$",
"$$@o%$$%o%$%%o%$+++%o+$$$@@@$o%$",
"$$$o$$$%o%$%$o%+++$%.o%$$@@@$o%$",
"$$$o$$$%.%$$$.%$+++$.o%%%%$$$.$%",
"$$$.$$$@.%$$o.%%%$$+..+$$$+o .+$",
"+@@.@$$o.$%$..++oo. .......  ..o",
"ooo..oo..oo......   ..oo..oooooo",
"$ooo.ooo....ooo...$%%%&&&&&&&&%%",
"&&&oo&&&$&o.&&&&&.&&%%%%%%%&&&&&",
"%%%$%%&&o&&.&&&&%.$@@+++o$$$$$$$",
"+$$+$%%%o%$o$++...@+++++o$$$$$$+",
"+$$+$$%++%%o%@@@$.@@@+++X$$$$$$$",
"+$$o%%oo%$$o%$@@$o@$+++$XXX$$$$$",
"++$oooo%%%$+%$@@%oO$@@@$$$o$%%$$",
"+o$$$$%%%%$+%$$@%o+%@@@$++$$o%$+",
"$++$@@@$$$+o$$@$$+o%@$$%+$$$+$$$",
"$$o$$$$$$$+X$$$@$$o%@$$%+$$$++o$",
"$$X$$$$$$$oX$$@$$$o%$$$%o%$$$$X$",
"$$X$%%%%$$..+$$$$$X$$$$%o%$$$$X$",
"$$..$%%%% ..+%%%$+X+$$$$o%%%$$.$",
"X...XX.o  ..++$%%  X%%%+X++oXX.o",
"Xo.XX.o.........  ..oo..XXXXXooo"
};
