/* XPM */
static char *birch_log_top[] = {
/* columns rows colors chars-per-pixel */
"32 32 15 1 ",
"  c #3C291C",
". c #332A2C",
"X c #383463",
"o c #76595D",
"O c #7A5E5F",
"+ c #525069",
"@ c #976363",
"# c #837076",
"$ c #B0837C",
"% c #52509F",
"& c #908BA8",
"* c #BB95A3",
"= c #9CA2B0",
"- c #BCA8A2",
"; c #C3CBDC",
/* pixels */
"+##&&;;&;;=&&#&;;==;###=;;=;;=#X",
"+&&&&;;&;;=&&#&;;=;;##==;;#;;==X",
"#;;&#+....XXXXXX+++++++XXXXX=;;#",
";;;# ..X%XX***--------*$%%X++;;=",
";;+X..%**XX$$@@@$$$$$@@@@*%X++==",
";;XXX@$@@$X+*******---**$@*+++==",
"&&XX@*@@**oX$$@@@$$$$$@@*$@*X+++",
"&&X+$@@**@@++******--**@@*$$%+#=",
"##X%*@$*$$**X-$@@@$$@@**@*$@$+##",
"##X@*@*$$*$@o-****$$$@@*$**@$+##",
"##XX%@*$*$@*---*$$$$$$$$$*-@*X+#",
"&&X$*@-$-@*--$$@@@@@@$$@*$-@@.;;",
"##X$*@-*-$--@---****@@$@-*-*@.;;",
"&&X$*@-$-$-@--$@@@@@*@@o+XX...==",
"&&+$$@-$-$-@-@$---$@$@**-**oX.==",
"##X*$@-$-$-@-@$--$*@$@*$-*$$@X=&",
"==X*$@-$-@*@-@@$$**$*$*$-*$$@+==",
"##+*$@-$*@*$*$@@@@$$$$*@-$$@@+;;",
";;XXXXoo$$$*@*@*$$*$$**@*$*@$+;;",
";;XXo$*$*$@**@o*$@@@**@@*$*@*X;=",
"==+$*@**$*$@**o*@$$*$@@*$**@$X==",
";;%$*$$*$$****+***$oo@****$$$X;;",
";;%@**@**$@**$+-@ooo$**@**@*$X;;",
";;#@$*@@$$$@*@+---***$$*o$**+X&&",
"=&#+@$*@@$$$$oX-@@@@$$***Xo$XX&&",
";;=X@@**$$@$*oX*$$$****$@*.XXX&&",
"=;;+X@@$***$$X.@$$$$@@$$*$@.X+==",
";;;@XX%@@$***..@---****$@+..X;;=",
"=;;;@XX+@@@@@...@$$@@@@+X..X=;;O",
"+;;;;=@++%%X.....X+XXXX...+;;==O",
"+=;;;;;;;@;;=@;;@@&&;;;;;&&;;;&+",
"++=;;;;;;=;;=@==@@&&;;;;;&&=;;X+"
};
