/* XPM */
static char *birch_log[] = {
/* columns rows colors chars-per-pixel */
"32 32 8 1 ",
"  c #332A2C",
". c #52507C",
"X c #8E7A73",
"o c #9B96BE",
"O c #AEB5C4",
"+ c #C9D2E2",
"@ c #F9E9EB",
"# c white",
/* pixels */
" ..o.oooXXXO+####++++++oooooo.  ",
" ..o.O+++X+@####@@@@+++X++++O.  ",
"@@OooO+++o+@####@@@@+OOX++++OO@@",
"@@OooOOoX..XoO+@@@@@@@###@+OoO@@",
"oooOOOOOXX......XoO@@@###@+OooOO",
"oooOO...X..    .  ooX.....ooXXoO",
"###++...X..       ooX..X..o++X+#",
"###++OOOoooo    X####+++ooo++o+#",
"@@@@++oXXXXX    +####++++oXoo+@@",
"@@@@++O++X+#####@@+@@@@+++Xoo+@@",
" .X.ooo++o+#####@@+@@@@+++.X..  ",
" .o.oooOooO++++##@@OOOOOXX.ooX  ",
"@@oooO@@@OOOOO+##@@+@@@@+o++++@@",
"@@ooOO@@@+OO+#####@@@@@@+X++++@@",
"ooooOOO+++OO+#####@@+OOoXXXXoooo",
"ooooOOOOoooOOOOooXXoooOOOOOOOOoo",
"oX..    .OX+++++++OOo+++OOoXXoXX",
"oX..    .OX+@@##@@@Oo@@##@oXXoXX",
"ooo    oOOOO@@##@@@OO@@##@OOOooo",
"#@@+OO+++++####+OOX...XXoooOOO+#",
"#@@+OO++@@#####@+OOo.ooooooOOO+#",
"OOOOOOO+@@####@@+OOO..XXXooOOOOO",
"XXXXXOXOOOO@@@@@@++++OO+@@@+ooOO",
"oXXXoXOXOOOO@@@@@++++OO+@@@+oooo",
"@@@oooOOO@@@@@@@@@@+OOOO+@###+o+",
"@@+ooOOOO@@@@@@@@@@+OOOO+@###+o+",
"Xo++@@OOOO++++@@+..O...     Xooo",
"Xo++@@+OOO++++@@+..O...      ..o",
"OOO@###+OOOO+@@####++OOX     ..o",
"OOO@###+OOOOO@@####++XXXXooXoOOO",
"OX+X.+..  ..X++++OOXXXooOOOXOOOO",
"OX+X.+..  ..X####OOXXXooOOOoOOOO"
};
