/* XPM */
static char *black_glazed_terracotta[] = {
/* columns rows colors chars-per-pixel */
"32 32 11 1 ",
"  c #171C33",
". c #1F3338",
"X c #27303E",
"o c #2E3A39",
"O c #2E2B55",
"+ c #31316B",
"@ c #232B7C",
"# c #224063",
"$ c #374B68",
"% c #2B4287",
"& c #3A50A8",
/* pixels */
"$ o$OO$$$O  oooOOooo  O$$$OO$o $",
"$Oo OO     ooo    ooo     OO oO$",
"OO  $$ O++Xoo  OO  ooX++O $$  OO",
"O  ooo +++            +++ ooo  O",
"$o $oO $+++%% $&&$ %%o++$ Oo$ o$",
"oo$$$ $$O%%%% $oo$ %%%%O$$ $$$oo",
"o&$$  $$O%%   O$$O   %%O$$  $$&o",
"&$$   $&    ##    ##    &$   $$&",
"$$ @@ $&$+   ##  ##   +$&$ @@ $$",
"$  @@ $$$+    .  .    +$$$ @@  $",
"o  @@   +## $$.  .$$ ##+   @@  o",
"o  @@@  ++   $$XX$$   ++  @@@  o",
"o       ++   O&&&&O   ++       o",
"o  &&&$ +%% #OO&&OO# %%+ $&&&  o",
"O  O$$  %%  ## ## ##  %%  $$O  O",
"O  $$O  %% X## OO ##X %%  O$$  O",
"$  &$   OO +#      #+ OO   $$  $",
"$  &$&$ +$$++ #### ++$$+ $&$&  $",
"$  &$$  ++++ OOOOOO ++++  $$&  $",
"  &&$   OO   OO  OO   OO   $&&  ",
" &&&o   OO            OO   o&&& ",
"O&&ooo  ooo #&&  &&# ooo  ooo&&O",
"O%% ooo oo   ##O$$$   oo ooo %%O",
"O%%        @@ #O$$ @@        %%O",
"O%%OO  %% O@@ #O$$ @@O %%  OO%%O",
"&%%OOO%%% OO  ##$$  OO %%%OOO%%&",
"%%+ %++%      OO$$      %++% +%%",
"O++ %%O  ++  OOO ##  ++  O%% ++O",
"O O    X+++ ##O  O#O +++X    O O",
"$ OO$$+X++            ++X+$$OO $",
"$  $$$  &&&$ $$  $$ $&&&  $$$  $",
"O  $$O &$$$$ $$  $$ $$$$& O$$  O"
};
