/* XPM */
static char *blue_ice[] = {
/* columns rows colors chars-per-pixel */
"32 32 2 1 ",
"  c #3365D5",
". c #3380D5",
/* pixels */
"  .  .. .  ...  ..     .  ..... ",
" .... .  ..........   .   ..... ",
" ... .. . .......... . .. ..... ",
".......  ................ ..... ",
".......  ....... .. ..... ......",
".......   .. .    . ..... ......",
"  ....... ..      ..  ..  .... .",
"  ..... . ..      ..  ..  .    .",
" ...... . ...  .  ..  .. . .   .",
".......   ... .....   .   ..   .",
"....... . ........ .   . ....  .",
".......    ........ . .   ...   ",
"....... . . ...... .  ..  ...  .",
".......    .......  . ......  . ",
".....        ....  .. ...... . .",
".. .. .    . ....  ......... .. ",
".. ..  .  .......  ......... .. ",
"..  . .  .. ....   ...... .  .. ",
".. .   . .. .   .  .......   .. ",
" .  . .  ....  .  ....... . ... ",
". .   .. .....  . ........  ... ",
" . .  .. .. .. .. ......... . ..",
". .. ... .. .. .. ...  ..    ...",
" ... ...  .    .. .... ..   . ..",
". .. ... .     .. ... ...    ...",
".... ...... ..... . .. .... ....",
".....  .......... .. .....  ....",
".....  .........  . ... ... ....",
".....  ...  ..... .  ... .......",
" ..     .   . ...    ...........",
" ..     . ..  ....   ...........",
"   .... ... . . .... .... ..... "
};
