/* XPM */
static char *bone_block_side[] = {
/* columns rows colors chars-per-pixel */
"32 32 5 1 ",
"  c #C18E93",
". c #E5C2AF",
"X c #E5D5AF",
"o c #FFE4A8",
"O c #CCA3CA",
/* pixels */
" OOO  ..XXXXXXXoooooX.XXX.OOOOO ",
"  OO ..XXXXXXoooXXXXX....O OOOO ",
"     ..XXX.XooooooXXXXX.O. OOOO ",
"   OO......XoooooXXooXXX... OOO ",
"   OO ..XXXXXooooooooXXX...O    ",
"  OOO OXXXXXXoooooXooXXOOOOOOOOO",
" OOOO  .XXXoooooXX......O  OOOOO",
"OOOOO  ..XXooooooXX......O OOOO ",
"OOOOO.X..XXXooooXXXXX..XXX. OO  ",
" OOO..XX.XXXXXXooXXXX.XXXX.O    ",
"    .....XXXXooooooX..XXXX..    ",
" OOO......XXXooooooXX.XXX... OO ",
"OOOOO.....XXXooooooXX....... OO ",
"OOOOOO.....XX..oooXXXX...O      ",
"OOOOO  .XXX....oooXXXXX..  OOO  ",
"OOOO  OXXXX.XXXXoXXXXXXX..OOOOO ",
" OO   .XXXXXXooooXXXXXXX...OOOOO",
"      .XXX.XXooooX.XXXXOO..OOOOO",
"   OO .....XXoooo.....OO... OOOO",
"   OO O....XXXXoooo........  OO ",
"OOO     O....XXooooX......OOO   ",
"OOOO..O O...XXXooooX....O OOO   ",
"OOO......XXXoooooXXXXX..  OO    ",
"OOO......XXXooooooXXXX..O..O    ",
" OOO...O..XXooooooXXXX.XXX..    ",
"     OOO...XXXoooXXXX.XXXX..OOO ",
"     O.XXXXXXXooo.....XXX..OOOOO",
"  OOO.XXXXXXooooXX..XXX.. OOOOOO",
"  OO..XXXXXooooooX.XXXXX. OOOOO ",
"OOOO...XXXXoooooXX.XXXX..O OOO  ",
"OOOOO.....XXXXooooooXXXX...   OO",
"OOOO   O.XXXXXooooooXXXXX..OOOOO"
};
