/* XPM */
static char *bricks[] = {
/* columns rows colors chars-per-pixel */
"32 32 12 1 ",
"  c #553C37",
". c #77373D",
"X c #553C42",
"o c #884637",
"O c #A34F59",
"+ c #964F7B",
"@ c #BA676F",
"# c #C17876",
"$ c #C18C69",
"% c #DE806F",
"& c #D69177",
"* c #EA9981",
/* pixels */
"+*******$o@#%%%%#@++oo@$*****$@o",
"$$$$$$$$$+@@@@@@@@@@o@$$$$$$$$$o",
"$$$$$$$$$$@@@@@@@@@@o$$$$$$$$$$+",
"$$$$$$$$$$@@@@@@@@@@o$$$$$$$$$$+",
"$$$$$$$@$+@@@@@@@@@@X@$$$$$&&$&+",
"XXoOOOoooXo+++++ooXXXXooooo+ooXX",
"o@###@+oo@****&@+o+@####@o+@@@++",
"@@@@@@@@@$$$$$$$$+@@@@@@@o+##%%$",
"@@@@@@@++$$$$$$$$@@@@@@@@o@@@@@@",
"@@@@@@@oo$$$$$$$$@@@@@@@@o@@@@@@",
"o@@@@@@oo$$&&&&&$+@@@@@@@o@@@@@@",
"XXX.oo..XX..oOOOoXX...oooooOO@@@",
"oX$&*****@.@###@#@@Oo***$$@@++oo",
"o$$$$$$$$$+@@@@@@@@@o*********$o",
"@$$$$$$$$$@@@@@@@@@@o$$$$$$$$$$+",
"$$$$$$$$$$@@@@@@@@@@o$$$$$$$$$$+",
"$$$$$@@@@$+@@@@@@@@@.$$$$$$$$$$+",
"@$$$$$$@$@o@+@@@@@@O.$$$$$$$$$@ ",
"oXXXoooOOOXo++++ooXX..oOO...ooXX",
"%%#@@+o$&&***&$+o+@#%%##@O.@##%%",
"@@@@@@o$$$$$$$$$o@@@@@@@@@o@@@@@",
"@@@@@@+$$$$$$$$$+@@@@@@@@@o@@@@@",
"@@@@@@O$$$$$$$$$@@@@@@@@@@o@@@@@",
"@@@@@@O$$$$$$$$$@@@@@@@@@@.@@@#@",
"@###@@o$@$$$$$$+.OOOOoXXX..oX  o",
"o+@@+XX++ooOOO...oooo+@##%%%#+..",
"@@#@#####@o@******$$o@@@@@@@@@o@",
"@@@@@@@@@@+$$$$$$$$$+@@@@@@@@#+@",
"@@@@@@@@@@+$$$$$$$$$+@@@@@@@@@+@",
"@@@@@@@@@@+$$$$$$$$$o@@@@@@@@@+@",
"@@@@@@@+@+X$$$$$$$@@..+@@@###@O@",
"+o+++ooooXXXooooo....XXXXXoOOOOo"
};
