/* XPM */
static char *brown_glazed_terracotta[] = {
/* columns rows colors chars-per-pixel */
"32 32 14 1 ",
"  c #4C3026",
". c #402634",
"X c #5D2B38",
"o c #5D2B39",
"O c #5E2C39",
"+ c #5D4638",
"@ c #5E4638",
"# c #5E4738",
"$ c #5E4739",
"% c #72463D",
"& c #442E59",
"* c #4C3C6E",
"= c #824D3D",
"- c #9E5747",
/* pixels */
"&&.**..OO&OO&..$#.   ** ....**.&",
"...**..OO&OO&..##....##OOO=====.",
"**%%$$$&**&....$#...%##OOO=====*",
"**%%$$$ **.*%%O+#=--%%....%%.==*",
"..%%&&   .*==%O$#=---..  .%%#+#.",
" .%%&$$ .*===......--=.  .%%$$+.",
" .++.$$.*===.&&&&&&.==%...OooOO.",
" .+**...%==.&&&&&&&&.%%%..OOOOO.",
"...**o..%%*&&......&&.%%..&&.OX.",
"**..oo..+#$&&=====$..$##..**&OO*",
"*++.....##@&&=====$..$$$..**&OO*",
".+--==%*..&&&OO%%OO..+#.........",
"&.--==%==.&&&OO%%OO..==.......&&",
"&.%%..*===.&&$%%=--..---===%%.&&",
"..%%....+++..+%%=--..---===%%...",
"$**%%%...--===$**%%$O#$...*==%%$",
"#**%%%...--====**%%$O$#...*==%%$",
"..++....O==..====$+..$$+$====...",
"..#$..*$OO.  ====@$  $#$$====.&.",
"..#+#+#$#.   ..==..  ..&&.....&.",
"..#+$$+*.  OOO%===.    ** &&&...",
"...ooo..&& OOO%%==.    ++  &&&..",
"..ooo......OO..$$....  ++.......",
".ooo.--==&&$$..%%..%%  =====*...",
".oo..--==&&$#..%%..%%OO======*..",
".oo....%%&&#$**==**==OO==**===*.",
".oo.+#.$$..##----====..%%*..==%.",
".**.$#.....++----===$..%%#...%%.",
".**....&&&..$+$==#$+.  .+#+.*##.",
"o%%$$..++&&....==... ## .+$+$%%o",
"o%%$$..++&&&&..%%.   ##  .+#$%%o",
"...**..&&&&&&..$$.   **  ...**.."
};
