/* XPM */
static char *bubble_coral_block[] = {
/* columns rows colors chars-per-pixel */
"32 32 5 1 ",
"  c #0AB579",
". c #4949B2",
"X c #5A58D8",
"o c #4E78D9",
"O c #139DAD",
/* pixels */
"ooo..ooXXXX.XXX....oooooooOOo..o",
"ooo...oXX..oOOOOo..OOo....OOOo.o",
"o  ...O  X.OOOOOOX.OOO....oOOo.X",
"o   OOO  X.OO..O  .oOOo...o  o..",
"Xo  OOOOXX.oo...  .XOOO  oX  o.X",
"X.ooOOOXXX.  ...  ..XOO  XXoo..X",
"....XoXXX..  O    ....Xooooo....",
"OOo.........OO   o.............o",
"O  o..X  OO..XoooOO....  OO...oo",
"O   .XO  OOOXXXooO  .oo  OOO.ooo",
"..  .OOO..OOoXoo..  o  ..oOO.oo.",
"..OO.OOo...o  oo...OO  ...  .oo.",
".OOO.O  ...O  oOO..OOOOo.o  .oo.",
"OOOX..  oOOOOX.OOooXXOOOOOoo.Xoo",
"OOo....ooOOOX..XoOOoo.OOOOo...oo",
"ooX.....XXXX...XOOOo  ....X.  oX",
".OOooX.oOOO  X..OO..  oo.XXO  oo",
"OOOoooXOOOO  oX.  ..O oooXXOO.oo",
"  X.oooO o..o  .     XX  .XOO..o",
"  ..  o  ...o  ..o  OXX  ..OO  o",
"oOOO  o  ..XOOO.XX.XXoOOO...O  o",
"oOOOO.X  o  OOooo.XX..OOXoooOOo.",
".oOOO..Xoo  OO.oo.XX...XooooOOOo",
"oXOOOo...XXXX..XXoo  o.o  ...OOo",
"o  X.OO..oo  ...ooo  O.O  ...  o",
"o  ..OO.  o   ..oo..OO.OOO...  X",
"X  OOooO  ..  O.  ..  .oOO   OOO",
"..OOOo.  ...OOO.  OO  ..OO   OOO",
".......  ...OOO.X OOO....oooOOO.",
"XOOOOo..oo  OOoXX.XX.....XX.....",
"OOOOOOo.oo  Oo.oo.XX   ooXX.XX.X",
"OOOOOOoo.ooo...oooXO   Oo  oXX.o"
};
