/* XPM */
static char *chiseled_sandstone[] = {
/* columns rows colors chars-per-pixel */
"32 32 63 1 ",
"  c #005831",
". c #005932",
"X c #594858",
"o c #B1053D",
"O c #B2063D",
"+ c #B3073E",
"@ c #D4053B",
"# c #98695C",
"$ c #986B5C",
"% c #986A5D",
"& c #996B5D",
"* c #994F6D",
"= c #915161",
"- c #905062",
"; c #925263",
": c #98506E",
"> c #99506E",
", c #99516F",
"< c #C16562",
"1 c #C36562",
"2 c #C26663",
"3 c #758075",
"4 c #768175",
"5 c #768176",
"6 c #D39168",
"7 c #D39269",
"8 c #D49268",
"9 c #D4936A",
"0 c #DAA879",
"q c #E0A66B",
"w c #E1A76C",
"e c #EAB96D",
"r c #EBBA6E",
"t c #ECB96D",
"y c #ECBB6E",
"u c #1D4184",
"i c #1E4184",
"p c #1E4484",
"a c #1E4485",
"s c #446796",
"d c #446697",
"f c #456797",
"g c #456798",
"h c #6B78D2",
"j c #6A79D2",
"k c #6B78D3",
"l c #6B7AD3",
"z c #22AFDF",
"x c #23AEE0",
"c c #24AFE1",
"v c #A5B0AB",
"b c #A6B1AB",
"n c #A6B1AC",
"m c #FBD29E",
"M c #FBD39E",
"N c #FBD39F",
"B c #C1D2CB",
"V c #C2D3CB",
"C c #C2D3CC",
"Z c #DBE9E2",
"A c #DAE9E3",
"S c #DBEAE4",
"D c None",
/* pixels */
"===2222222=======222222=======D=",
"rr000rr2rrrrrr072rrNNNr0=7rrrrr2",
"0NNNrr7207770000=rrrrrrr700rrrr7",
"Nrrrrrr207770000=rrrrrrr7rrrrr07",
"rr0000r200777000=rrrrrrr77077777",
"rrr000r2077000002rrrrNNN20777777",
"r00000r7rrrrr0007NNrr72270000007",
"rrrrrrr700022=00700007007rrrrrr7",
"XXXXXXXXXXXXXXXXXXXXXXXXXXXXXXXX",
"55 .45  iCCCxi  ;:: >,. =55 ;>*.",
"543555  aCCCCCxiSSSc@@@@@@5>*55 ",
"iipiii iaOCCSSSxiiSSSS@@@@@@:55a",
"ZZZScckkfaOSSSSci@iaac@@@@@iiiik",
"cZAZScckkff+VSSciiiacciiiiiiZZZZ",
"cSZZZZcckfffooSSlllnSZZZZZZcSSZZ",
"ccCCccffkffffOOCVcllcSSSSZSccZSS",
"nccCCccffkffaoSSVCCxccSAZZZVccnn",
"CCccccchffidbSSVVBnnvxccnnnnvccC",
"iiiiiiiifdCASSCCnnnCCCvcccxCVCcc",
"iafsiuddpdCCczsfipdkzBVCccliiiii",
"uifgpiddaufdaufgpigfaiiiiiiiauss",
"jlpikhailjiijkuilhaakjiikhiiklaa",
"sgaudsipgdiusdaisspifduidgiasdiu",
"rmNryryNNtNNNNyrrrryryryeyNNNNNN",
"rNNrryrNNrNNrNyyyyrryyrrryNNNNNN",
"rNyrwww8ww88998888768ww88wwwwqyr",
"NNrNNrrrww76www8ww887ww87qqyyyyw",
";;XXX;-&&&&&$--#%;;;;;;;;XXXXXX;",
";;;&;;&&&11111111&%&&2<%;;;XX-;;",
";;XXX;;;;;%%;;;%%%%&;;;;XXXXXXX;",
"wwryrrrrwrrryyyrerrryyyyyNNNMNNN",
"wwyrwwrqwwryryyrryrryryerryNNNrr"
};
