/* XPM */
static char *coal_block[] = {
/* columns rows colors chars-per-pixel */
"32 32 10 1 ",
"  c black",
". c gray11",
"X c #252525",
"o c gray19",
"O c gray23",
"+ c #434546",
"@ c #4B4F51",
"# c #5B5C58",
"$ c #6B6960",
"% c #A9948D",
/* pixels */
"oOOOO@@@@@@$$$$$$$$$$@@@++OOOOXX",
"OOOO@@@#$$%%%%%%$%$$$$$##@##@@@+",
"+OOO++@##$$%%%%%%$%$#$$##@##@@@@",
"@##@@++OooXXXXooOO@@@@@@@@@@@@@@",
"@##+Oo..oOO+++@@@@@#$$$$##@@+Ooo",
"oOOOo  @@@++++@@@#$$$#@+OOooXX  ",
"XX.    +$$$##@@@++OooX    XX.  .",
"XOOX.    XXX..           .. . ..",
"XOOXXXXoooooX.           .. X ..",
"XOOXXXXoooooooX.      ..... X...",
"XOOXXXXXoooooooo.XXXXXX.....X...",
"XOOXXXX..oooooOo.XXXXXXX.  .X...",
"oOOXXXX..oooooOX.XXXXXXX  ..X...",
"oOOoXXooOoooO++XXXXXXXXX.  XXX..",
"oOOoXooooooOoXXXXXXXXXXXX  XXX..",
"oOOo.oooooOOo....XXXXXXX. .XXX  ",
"XOOo.oooO++O..XXXXXXXXXXX...XX  ",
"XOOo.oooo++ .XXXXXXXXXXX...XXX  ",
"XOoo..XXX   XXXXXXXXXXXXXX..XX  ",
".oOoXoXXX   XXXXXXXXXXXXXXXXXX. ",
".OooXooXX  .XXXXXXXXXXXXXXXXXX. ",
".oooXooXX.XXXXXXXXXXXXXXXXXXX.  ",
".XooXooXX.XXXXXXXXXXXXXXXXXXX   ",
".XooXXoXX.XXXX  .XXXXXXXXXXXX   ",
"ooXXXooXXXXXX.  ..XXXXXXXXXXX   ",
"oooXXXoXXXXXX  ....XXXXXXXXXX   ",
"XooXXXoXXXXX. .XXX.   .XXXXX    ",
". .XXXXXXXXX  XXXX      XXX     ",
".   XXXXXXX   XXX.      ..  .   ",
".                       ....    ",
".                               ",
"..                              "
};
