/* XPM */
static char *coarse_dirt[] = {
/* columns rows colors chars-per-pixel */
"32 32 9 1 ",
"  c #503632",
". c #6B453F",
"X c #62667D",
"o c #6B7C7C",
"O c #925353",
"+ c #AF6C69",
"@ c #A0806F",
"# c #8DA3A3",
"$ c #ABCBC2",
/* pixels */
"O+O.+++++..@@@OOO  ..O++++++OOOO",
"@@oXO++++OO@@@OO++O..O++++++..@@",
"@+$#.+O..OOO@@@O++++++..+++  .@@",
"@@O..OO.  .O+@@+++++++.OO.   OO@",
"+@@..OOO  .+++++O++++o#OO...+O..",
".OO++O....+++OO..O+..$$oO+++++..",
".OO+++..OO++  ...O...OXo.OO+++O.",
"++O+++OOOOO. .O+OO .++O..O++++OO",
"++++ooOOOOOOO++++  @@@@@OOO++O  ",
".++O#o. ++++OO+$#..O@@@@+O++++  ",
".++O  ..++++.OX#oOOO+..O++O+++O.",
"OOOO. ..O++O..oo.+OO  .O+++OOO++",
"OOOOOO..OO.  .O.O+++  O++++..#$+",
"+++O@@OOO+O  ++O+++..++OOO  .oXO",
"+++@@@@OO++++++++++..++OOO..OO.O",
"++O@@@@+OO+++OO+++OOO+++OO+OO+++",
"+..+++++OOO++++O  OOOO++++++..++",
"O...+++..+++++.   OOOO+++++O.  .",
"OOOOO.  .+++OO..#$o+@O  +++OOO..",
"OO$oO..+OO+OOOOo##oO@@  .OOOO@@O",
"OO$#.OO@@O..OO+XXo.O@@O..OOOO@@@",
"..O..+@@@@..+++O..OOOOO++++OO+@@",
"..OO++@@@@OO+++O+++..O+++++..@@.",
"O++++++@+OOO+++O++  .O++++O...OO",
"+++++OOOOO..++..OO .OO+++  ...OO",
"++O.OO++OO.  O..+++++OOOO  .O+++",
"+O..OO++++O .OOO++++++OO++OO++++",
"OO@@+.O++++O+++..++++O.+++OO#o++",
"O@@@+..++++++++O  O@@..++O..XXO+",
"O@@@  .OOO++++++ .@@@@@OOO....O+",
"..O..oX+..++++++OO@@@@@OOOO..OOO",
"..OOO#o+...OO++OO  O@@O+++++OO++"
};
