/* XPM */
static char *cobblestone[] = {
/* columns rows colors chars-per-pixel */
"32 32 6 1 ",
"  c #3D63C3",
". c #4E7DE3",
"X c #4F949B",
"o c #5081BD",
"O c #24A9EB",
"+ c #33C6FF",
/* pixels */
"O+++O.O+OO++OXO++++ XOO+++OoOOOO",
"OO+++XOOOOOOOOOOOOO OOOOOOOXOOOO",
"OOOOOXOOOOOOOXOOOOOoOOOOOOOOOOOO",
"OOOOOXOOOOOOOoOOOOOoOOOOOOOXOOOO",
"XXOO  .XXXXoo  oooooXXXXXXo  XOX",
".OOO+++OOX XO+OXO++OOXooXO+++OXX",
".OOOOOOOOO OOOOOOOOOOOo OOOOOOOO",
".OOOOOOOOO.OOOOOOOOOOOX OOOOOOOO",
".XOOOOOOOXooOOXXOOOOOOX OOOOOOOO",
"...O...XXX.........ooo  oo o   .",
"+OO++X.O++++OXoXO++OoXOOXXoo XO+",
"OO+++OOOOOOOOOoXOOOOoX+++OOO OOO",
"OOOOOOXOOOOOOO XOOOOoOOOOOOO.OOO",
"OOOOOOoOOOOOOO XOOOOoOOOOOOOXOOO",
"o   o   ooooo   OXXoooOOOOOOOOOX",
"o XOO++Oo+++O+OXooXOOOXXoooXXXX.",
"o OOOOOOX++OOOOOoO++++++OoX++++O",
"OoOOOOOOOOOOOOOOoOOOO++OOXO++OOO",
"OXOOOOOOXOOOOOOO OOOOOOOOXOOOOOO",
"OXoOOOOOoOOOOOOO OOOOOOOO OOOOOO",
"o  o.... oXXX..   ....X.  oXXXXo",
"++OO.oXO+++OOX.X++X.XOO++++OoO++",
"OOOOO.OOOOOOOO.OOOO.OOOOOOOOXOOO",
"OOOOO.OOOOOOOOXOOOO OOOOOOOOXOOO",
"OOOOO.OOOOOOOOOOOOO OOOOOOOOoOOO",
"OOOOO.OOOOOOOOXXXX  ...  .XXoooX",
"oXOX  XooooXXXX..XO+++OX.XO++OXo",
"OOO++++OoO++++OOXOOOOOOO.OOOOOOX",
"OOOOOOOOXOOOOOOOXOOOOOOOXOOOOOOO",
"OOOOOOOOXOOOOOOO.OOOOOOOXOOOOOOO",
"OOOOOOOO OOOOXXo OOOOOOOXOOOOOOO",
"XoXXooo   ooooo  o   oXXXo  oooo"
};
