/* XPM */
static char *cracked_stone_bricks[] = {
/* columns rows colors chars-per-pixel */
"32 32 10 1 ",
"  c #354478",
". c #2F567C",
"X c #2F7A93",
"o c #3D4DD9",
"O c #1C7EC6",
"+ c #2B65C1",
"@ c #1F92B6",
"# c #21A5DB",
"$ c #23B8FF",
"% c #87E7E7",
/* pixels */
"XXXXXXXXXoo+oo+X++XXXXXXXXXXXXXX",
"X%%%$%O+X%%%@%%%%$$$##$%%$@$%%%+",
"X%%%%%@+X%%%@%%%%$$$##$%%$@$%%%+",
"X$$  $#.X%%$O++++OOOOO@@@@O++$$.",
"X$$oo$#.X#+++@@+O@@O@@@@@@@@+$$.",
"X$$oo##.X$$O@@@+@@@+@@@@@@@@O$$.",
"X$$XX$$.X$$O@@@O@@@++O@@@@@@@$$o",
"X$$XX$$oX$$O@@@@@@@@@O@@OO@@O$$o",
"X@@oo$$o+$$@@O@@@@@@@@@@O@@@O$$o",
"X$$oo$$o+$$@@O@@@@OOO@@@O++@@##o",
"X$$XX##oX##O@+@@@@O@@@@@@@O@O##o",
"X@@XX##o+##@@+OO@O+@@@@OO@OO+##o",
"X$$oo##o+$$O+++O@O+OO++++++++$$o",
"X$$$$$$ X$$@$$@$$$$#$$##$$%%$$$o",
"X$$$$$$ X$$@$$$$$$$$$$##$$%%#$$o",
"X+..oo  +++.ooooo o o      ooooo",
"X+XXooX++++X++XXXXXXXXXXXooXXXXX",
"$@%%##%%$$%%%$%%+XX%%$%$%++$%$%%",
"$@$$##%%$$%%%$%%+XX%%$%$%.X$%$%%",
"++OO++O@+O+++@#$O++##oo##.X$$OO+",
"O@@@@@@@O@+O@@$$O++##oo##oX@@O@@",
"O@@@@@@OO@+@@+$$@XX@$$#$$oX$$@@@",
"+@@@@@@@@@O@@++@@++@$$#$$o+@@@@+",
"@@@@@@@@@@++O@O$$.+X..o  o+$$@@O",
"@@O@@@@@@@@@O@@$$.XXXXXXXXX$$@@O",
"O++@@O@@@@@@@@@$$oX$%%$%$++$$@@O",
"@@+@@+@@@@O@@@O##oX$%%$%$++$$+@@",
"O@OO@+O@O@O@@@O$$ X$$oo@@.X$@++O",
"OOOO+++@O@OO+++$$ X##oo##.X$$$++",
"$#$$###%%$$$$$$$$ X#$$#$$oX$$$#$",
"$$$$$##%%$$$$$$$$ X@$$#$$oX$$$#$",
"oooooo  o         X++.oo  X++..o"
};
