/* XPM */
static char *crimson_planks[] = {
/* columns rows colors chars-per-pixel */
"32 32 20 1 ",
"  c #722F38",
". c #393944",
"X c #633470",
"o c #AC1B32",
"O c #B24139",
"+ c #973A5F",
"@ c #98395D",
"# c #AA3A56",
"$ c #993A60",
"% c #983B60",
"& c #B84E72",
"* c #B84E73",
"= c #B75075",
"- c #B85176",
"; c #D35272",
": c #D55271",
"> c #D55273",
", c #D45373",
"< c #AA3A80",
"1 c #A43A88",
/* pixels */
"@-:&##++XXX.....;:-&,:@@XXXXX..X",
"&-:,,,, %%%%%%%.::;&,,,@;#,&&-;+",
":-OOOO: O;&::*,X;==--&,X;;:---;%",
":-OOOO,X,:&;:,,X==-&&O:.;;---=;X",
":OOOO&-X,-&&-,:X--OO&O:. ;O-*=O.",
":OOOOO; ;--O-&;X-OOoOo-X+OO&&&O.",
":oOoO&: :-OOO-&XOOOOOO&X@OOOO=o.",
"-ooo#O& :OOOOO-XoOO#O#& %OOOO#o.",
"&ooo#&= &O#O#O;Xo#####& $O#OO#O.",
"O#o##O& ;o####:X######- o##-&#O.",
"O####O= ,o####=X111111= o##=-oo.",
"=####o=X:O##1o&X1-11111 o##&-oOX",
"-<<<<O=X,O111o&X*&=1111 o11&-oOX",
"=111<O=X,O111o-X&&*111- 1111ooOX",
"O11=-O=X:O111o&X&1-111: 111-&oOX",
"O11&=O=X:o111o1X111111: 111&&oOX",
"O11&&o=X-o1-1o1X-11111& 111&=1OX",
"O11-&o=X:o-&&o1X=#1111* 111=-1OX",
"O111oo=X-o-&&o1X=##111,X=11111OX",
"o1o&-o=X:o-#&o*X&#o###;.-11111OX",
"o1o&-o=X&o#o#o-X:oo##o:.=##11ooX",
"o1o=-o=X,#oo#o-X:oo#Oo=.#####1O ",
"o#1-&OOX&#oo#o,X,oO#Oo-.##o###& ",
"O####OOX=ooo#o:X:oOOOO:.&ooo#&= ",
"O#OOOOoX&ooOOo:@,OOOOO:.-ooo##& ",
"OOOOO=oX=-OOOo:X:&-OOO;X:oOoO&: ",
"OOO&&&O.&>-OOO,+:&&OOO:X:OOOOO; ",
"O-O-*=,.:::O-O-+:,-=OO;X=OOOO&-X",
",----=,X>;:O-*-X::;&=,:X:-OOOO,X",
",,:---,%:;---;;X::&-::-%;-OOOO: ",
",,,&&-#+,&&&:;;.;#--::%+;-:-=;, ",
"XXXXX...+#*::&;XX %%%%%X;-:&O;;+"
};
