/* XPM */
static char *cyan_glazed_terracotta[] = {
/* columns rows colors chars-per-pixel */
"32 32 31 1 ",
"  c #EA9841",
". c #FFAE47",
"X c #FFD546",
"o c #FFFC46",
"O c #2466A0",
"+ c #387AB5",
"@ c #5C7FB6",
"# c #478C94",
"$ c #488D94",
"% c #529FB3",
"& c #17EABE",
"* c #33B8C4",
"= c #5BB1D2",
"- c #5BB2D2",
"; c #7E86F3",
": c #14DDC2",
"> c #19FFCD",
", c #00C1F7",
"< c gray71",
"1 c #B6B6B6",
"2 c #EAA784",
"3 c #AEC8BC",
"4 c #9DEBB6",
"5 c #84FCF4",
"6 c #C7E0D4",
"7 c #C8E1D4",
"8 c #C8E1D5",
"9 c #EAEBCF",
"0 c #EBFFE0",
"q c #FFF0EB",
"w c #FFFFEF",
/* pixels */
",,,,,,,,%----=-00---,$-#-,,,,,,,",
",>>>&&&::::-oo 00 oo1:::&&&&>>>,",
",>>>&&&::::-ooX;;ooo<:::&&&&>>>,",
",>>;**,,,,;;;XXOOoo;**,,,,**;>>,",
",&&;99999555*-;;;;,3998999qq;&&,",
",&&,99999555*44::99*99899qqq;&&,",
",&&,44467555,44::99*78699qqq,&&,",
"-&&,qqq22999,44,,88*555..687,::,",
"#::,qqq22999,44,,88*555..778;::%",
"-::,qqq99555,;++++;*qqq44qqq;::-",
"*::;qqq99555;;>>>>;*qqq44qqq;::-",
"-;;;qqq99555;:>>>>>*qqq44qqq;;;-",
"*oo;3*****;;+::++>>+;;,,,,**;oo-",
"-ooX,8844;;::::++::::;;>>44-Xoo=",
"- XX;8844+::::4ww4::::+>>44;XX -",
"00;O;::,,+>>++wwww++::+,,::;O;XX",
"00;O;::,,+>>++wwww++::+,,::;O;XX",
"- XX;4444+>>::4ww4>>>:+4444;XX -",
"=ooX-4444;;::::++:>>>**4444,Xoo-",
"-oo;**,,,,;;+::++::+;******3;oo-",
"----qqq55qqq;:>>:::;qqq99999*<1,",
"-::-qqq55qqq;;>>::;,qqq99999*::$",
"-::,qqq55qqq*;++++*,qqq99999,::-",
"%::,877..qqq*44,,44,444  qqq,::#",
",::,786..qqq*44,,44,444  qqq,&&-",
",&&,444qq999*99::44,88655999,&&,",
",&&*444qqqq8;99::44*66799999,&&,",
",&&*444qqqqq;;;;;;-*66899999*&&,",
",>>;;;,,,;;;;XXOOXX;--,,,,***>>,",
",>>>&&&&:::<ooX;;Xoo-::::&&&>>>,",
",>>>&&&&:::@oo XX oo-::::&&&>>>,",
"@@@@@@@@@@@@@@@XX-=----%%%%%%%%%"
};
