/* XPM */
static char *dark_oak_log_top[] = {
/* columns rows colors chars-per-pixel */
"32 32 52 1 ",
"  c #292023",
". c #292024",
"X c #2A2124",
"o c #38292A",
"O c #38292B",
"+ c #3A292B",
"@ c #3A2A2B",
"# c #493733",
"$ c #5D3D33",
"% c #5E3E33",
"& c #5E3E34",
"* c #774F3E",
"= c #784F3E",
"- c #78513E",
"; c #34354A",
": c #34364A",
"> c #35364A",
", c #35364B",
"< c #423A71",
"1 c #423B72",
"2 c #433B72",
"3 c #224A7E",
"4 c #785140",
"5 c #3E658F",
"6 c #3E668F",
"7 c #3E6690",
"8 c #3F6690",
"9 c #544980",
"0 c #544A80",
"q c #544A81",
"w c #554A81",
"e c #496EB8",
"r c #4A6EB9",
"t c #4A6FB9",
"y c #2D56CB",
"u c #1E67EB",
"i c #3F9296",
"p c #3F9297",
"a c #3F9397",
"s c #409397",
"d c #0F84ED",
"f c #49ADF0",
"g c #49ADF1",
"h c #49AEF1",
"j c #4AAEF1",
"k c #11C6F0",
"l c #11C7F1",
"z c #00D1FF",
"x c #00D2FF",
"c c #05F0FF",
"v c #05F1FF",
"b c #06F1FF",
/* pixels */
";<<%****444*-44*444-<2<&*444&-<2",
"4<&444*&<<>;;;<&$4**$<2*&*4444<<",
"-&4*%@XXXXX@>>.XXX. X@oX@$44-44<",
"444&@.X>33993333>X X@333@@@&*--&",
"&-=@@@33wett67599w33;o@O3@X@$44*",
"**&>@330te93;>@o@.X@399@@3@XX*44",
"4<<;3395r3>3uuuuy33@o;9q>@3XX$44",
"42>;3986;>yuu3>;@X;39w;w9;33@@-4",
"4<>336w@3yu3>33333;@>ww>3333@o*4",
"44:39w@3yy;399yyyuu3;>yy;9933@44",
"4*>393@yy>333333wwuus3@y;@993;&&",
"443wwo3y3>iddiaxi339ss@yy@@q3;4-",
"-*39w>3y;3pyyyyydddw9is@y>@93>--",
"44399;yy;dd3>3333ydd33s@yuoq324-",
"*4399oyu3d33bcxhj;ydd3s@;u@99<4-",
"=4>99@yu3d33f33gcv3yd35o>uoww<44",
"44@O;@yu3u33s33svv3ys3u@;u@99<44",
"2<>99@yu;u33s@33333yx3uo>u;3014*",
"<<;99Oyu>s33fdyyydssx3u@yy;3w>-4",
"<3>99,3u:z33klfssasd;uuoy;>3w>4=",
"*4@99>3u>zs355w333333a3;y>339>*w",
"*=@w933y>3s333333333sa>3y>399o-w",
"4-X999;y>;xxsiuuuu5sx3>93>393@<2",
"44X3ww3yy;;33333>,;>;>99>>39;X<2",
"4-X>39w;yyy>>:;333yyy>9;>w99@X%&",
"4*@@3www3;yuuuuuuyy33>;39w3XX@9w",
"4*% X399933,;;>;>>>>339993 XX%99",
"44*XXX>39w999999ww9ww9w33@XX$*-4",
"&-4<XX @@>333ww99w9993>>@@o****=",
"<*-4**2o X@@@@;>;>>:;>>@+&44444&",
"<&-*4-444*=4$&&&&&$&*-*<<**4--%&",
">2;&*=444-44--4*4*444=4<<---#&&%"
};
