/* XPM */
static char *dark_prismarine[] = {
/* columns rows colors chars-per-pixel */
"32 32 111 2 ",
"   c #FFBA75",
".  c #FFBA77",
"X  c #0E62A7",
"o  c #0F63A8",
"O  c #0C59C9",
"+  c #0C59CA",
"@  c #0C5ACA",
"#  c #0D5BCB",
"$  c #0078FF",
"%  c #0079FF",
"&  c #6454FF",
"*  c #6555FF",
"=  c #6456FF",
"-  c #655DF8",
";  c #655DF9",
":  c #655EF9",
">  c #665EF9",
",  c #FF7BBF",
"<  c #B65BFF",
"1  c #B85CFF",
"2  c #FF7BC0",
"3  c #FF7CC0",
"4  c #C177FF",
"5  c #C277FF",
"6  c #C278FF",
"7  c #FF7CE5",
"8  c #FF7CE6",
"9  c #FF71FF",
"0  c #FF73FF",
"q  c #008888",
"w  c #008989",
"e  c #009E9E",
"r  c #009F9F",
"t  c #00F4A4",
"y  c #00F5A5",
"u  c #00F5A6",
"i  c #20B6DD",
"p  c #21B8DD",
"a  c #009FE8",
"s  c #0082FD",
"d  c #0082FE",
"f  c #0082FF",
"g  c #0096FF",
"h  c #0097FF",
"j  c #00A0E9",
"k  c #00A1E9",
"l  c #00A1EA",
"z  c #1EAEFF",
"x  c #1FAFFF",
"c  c #20AFFF",
"v  c #798DE0",
"b  c #798DE1",
"n  c #7A8EE1",
"m  c #7883FF",
"M  c #7884FF",
"N  c #00F0CC",
"B  c #00F1CD",
"V  c #26E7E5",
"C  c #27E8E5",
"Z  c #27E8E6",
"A  c #24E3FF",
"S  c #25E4FF",
"D  c #39FFFD",
"F  c #39FFFF",
"G  c #3BFFFF",
"H  c #46CFD2",
"J  c #46D0D2",
"K  c #47D0D3",
"L  c #45C7FF",
"P  c #45C8FF",
"I  c #46C9FF",
"U  c #FF839A",
"Y  c #FF8499",
"T  c #FF859A",
"R  c #FF849B",
"E  c #FFB289",
"W  c #FFB18A",
"Q  c #FFB28B",
"!  c #FFA9AE",
"~  c #FFA9AF",
"^  c #FFAAAF",
"/  c #A1EF9D",
"(  c #A1EF9F",
")  c #A2EE9E",
"_  c #93F4B6",
"`  c #94F4B6",
"'  c #DEF1BF",
"]  c #C180EA",
"[  c #C281EB",
"{  c #C381EB",
"}  c #CB9CE4",
"|  c #CC9DE5",
" . c #CB94FF",
".. c #B2D0C9",
"X. c #A0EBC5",
"o. c #A0EBC7",
"O. c #B0CAF8",
"+. c #B1CAF8",
"@. c #B2CAF8",
"#. c #B2CBF9",
"$. c #92F2E3",
"%. c #93F2E3",
"&. c #92F2E4",
"*. c #D8D3D8",
"=. c #D9D4D9",
"-. c #DEF1C0",
";. c #D7CEFF",
":. c #D8CDFF",
">. c #D9CEFF",
",. c #DDEFEF",
"<. c #DEF0F0",
/* pixels */
"u ' ' ` ( Z Z | T v f A >.>.>.:.@.S I z O I &.<.G S A I P I m X ",
"_ -.' _ / Z Z | T T n >.<.<.<.;.+.S L I & S <.<.D A S I P 6 5 : ",
"C Z 7 7 j f f j R U b X.o.z x x c c x x = :.>.I I $ < 1 1 4 5 ; ",
"E Q 8 7 b v b [ [ ] b N B z z x P S A I % 0 0 I I m m 1 1 5 6 - ",
"T U v v n b b b { [ $ N N g h h I S S P % 4 5 $ m M m m 6 I L : ",
"[ [ v k a a a j v v & I I m h g g h h h $ 6 , m h g g g h h h > ",
"K y u J K ] ] ] T U $ 6 P S I 6 6 h h % * 3 ^   ^ , 6 h h h h - ",
"o X X : f f s [ ] f % * @ # # + + @ + + @ @ @ @ % g h h g $ $ X ",
"I z + I $.<.F A A I L I m + t ' ' _ / Z Z } T T { S >.:.>.>.+.A ",
"I L * S <.<.G A S L I 6 6 * _ ' ' _ ) Z V } R E [ >.,.<.<.>.O.S ",
"c z h :.>.6 6 1 < 1 1 5 6 * Z V t u a f s a T W ] X.X.h h % % h ",
"z z h 0 0 4 6 1 1 1 1 6 6 % Q W u y v v b [ [ ] ; N B * h % $ h ",
"z x h 6 6 1 1 1 1 m 6 I L $ T Y b b b b v v [ ] > N N * g h h h ",
"h g h 5 3 M h h g h g g g m [ ] v a a j a j v v a I L M h h h h ",
"h $ $ , ^ . ! , 6 g h h % m K t t H K [ [ ] R T j 6 I S L 5 5 h ",
"+ + + O * w w q w w r $ m m s s o X X X f d v v b % % $ + + + O ",
"u ' ' ` ( Z Z } R v X S :.:.:.:.#.A I c @ I &.<.F A A L I I M + ",
"` ' -.` ( Z Z } T T : >.<.<.<.:.+.S L I % S ,.<.F S A I I 5 6 * ",
"Z C [ T T T Y Y T R > X.X.h g h % $ z z % :.:.< 1 $ 1 1 1 5 4 * ",
"E W [ U T T T U T ] ; B N h g g $ $ z z h 0 9 1 < m m 1 < 6 6 * ",
"T T v v n b v v [ [ : N N * h % h h c c h 5 6 % m m m m 5 L P $ ",
"] { v j a j l a v b d L I m h $ h c c z h 5 2 M h h h h h h g % ",
"K u y K K ] ] [ T R d 6 I S L 6 5 z z c * , ~ . ! 2 6 h h h $ % ",
"o X > ; : ; f f f d f % $ @ * = * # + # + + @ @ * * = @ # @ * & ",
"..Z K p ; I &.,.F S S L S I M r B <.<.%.X.A A  ., m o Z =.=.*.=.",
"..Z K K - S <.<.G S A K I 6 6 r $.<.,.&.o.A A  ., , ; =.' ' ' =.",
"f j p i f :.>.5 6 % 1 1 1 4 6 e S S B B g $ $ h 3 , ; ( ) ] [ f ",
"k j i p f 9 0 6 6 M m 1 < 5 6 r ^ ^ N N M m m 4 5 6 f t u [ { f ",
"a a i p a 6 5 1 1 m m m 6 I I * 3 , m m M m m m 6 5 f u u > a j ",
"a a a j k 4 , 1 1 g h h h h h $ 6 6 M h h h h h M M a K H v k j ",
"[ a j f j 2 ^ . ! , 6 h g g $ % I N B I I 6 6 6 3 , j [ K Z K ] ",
": d f d f = @ @ + + * = % $ $ % $ * + + @ * * $ h h a s > X o : "
};
