/* XPM */
static char *dark_oak_planks[] = {
/* columns rows colors chars-per-pixel */
"32 32 11 1 ",
"  c #1B3C52",
". c #352C67",
"X c #2D4149",
"o c #42389B",
"O c #1E4783",
"+ c #2749AD",
"@ c #294CAF",
"# c #3C41B1",
"$ c #2954D7",
"% c #1A68F1",
"& c #0D8AF2",
/* pixels */
"@&&&%%$$$$$$$$$$$$$$$$$%$%%%%%%%",
"@%&@@@@@##OOOOOO###OOOO##@@@@@@%",
"@&&@@@@+###OOOOOO###OOOO##@@@@@%",
"@%%@@@@###OOOOOO##OOOO####@@@@@&",
"@&%%%%$$$$$$$$$$$$$$$$$$$$$%%%%&",
"oooo      X ...      ...        ",
"@&&&%%%%$%%$$$$$$$$$$$$$$$$%%%&&",
"@&&%@@@@#####OOOOOOOOO##@@@@@@@%",
"@%%@@@@+@#####OOOOOOOOO##+@@@@@%",
"O%%@@@@######OOOOOOO####@+@@@@@%",
"@&%@@@@@@######OOOOOOO###@@@@@@%",
"@&%%%%$$$$$$%%%$%$$$$$$$$$$%%&&%",
"....                           .",
"O&&&%%$%$$$$$%%%$%$%$$$$$%%%%%&&",
"O&&%@@@@@###OOOOOOOOOOO##@@@@@@%",
"O%%@@@@+###OOOOOOOOOOOOO###@@@@%",
"O%%@@@@@@#####OOOOOOOOO###@@@@@%",
"$%%%%%$$$$$$$$$$$$$$$$$$$$$%%%%%",
" ..  .... ...........   X ooo   ",
"$&&&%%$$$$$$$$$$$$$$$$$$%%%%%%%&",
"O&&@@@@#####OOO###OOOOO##@@@@@@%",
"O%%@@@@+#####OOOO###OOOO##@@@@@%",
"O%%@@@@###OOOOOO###OOO###@@@@@@%",
"O%%&%%$$$$$$$$$$$$$$$$$$$$%%%%%%",
"....                           .",
"$&&&&%$$$$$$$$$$$$$$$$%$$%%%%&&&",
"$&&%@@@@####OOOOOOO##OO###@@@@&&",
"$%%@@@@+@##OOOOOOO##OOOO###@@@@%",
"O%%@@@@####OOOOOOOO##O####+@@@@%",
"O%%@@@@@@####OOOOOOOOOO###@@@@@%",
"$%%%%%$$$$$$$$$$$$$$$$$$$$$$$%%%",
"o  o..  ......     .......     o"
};
