/* XPM */
static char *diorite[] = {
/* columns rows colors chars-per-pixel */
"32 32 7 1 ",
"  c #4A427C",
". c #62567C",
"X c #796089",
"o c #527CB5",
"O c #7C83C2",
"+ c #7C93C4",
"@ c #7CA3C7",
/* pixels */
"XXXO@@oO@@@Oo+@@Xo@@@@.XXX@@OOOX",
"XXo@@@OO@@@OOoXXo@@@@@XXX.@@OOOo",
"XXo@@+OO@@+OOO.XO@@@@@ooX..o@@@O",
"XXOOOOOXXOOOOO.XO@@@@OoooX..@@@@",
"ooOOO...XoOOOO.XOOOOOooo@@o.@@@@",
"ooOOO.X+@@@OOOXXXOOOo@@+@@@.X@@@",
"oo.O@@@@@@@oOOoOO..XO@@@+@@X..  ",
"ooo@@@@@@@@OooOOOXXXO+@@OOOX..  ",
"Xo@@@@+@@@+OOOOOoXXXOOOOXOOXX..X",
"XX@@@@OOOOOOOOXXXXXXOOOOXXo@@@oX",
"XX@@@+OOOOOXOX..XXXXoOoXXXO@@@@X",
"XXOOOOOOOOOX...@@@@@oo..XXO+@@@.",
"XoOOOOOoOOOXXo@@@@@@Oo.XXXOOOOOX",
"OOoOOOOoOOOOoo@@@+OOOo..XXOOOOOX",
"OOOo@@OXXoOOooOOOOOO@@@XXXOOOOo.",
"OOOX@@XXX@@@ooOOOOOO@@@@XXooOO .",
"XooXO+.XX@@@+XXOOOOO+@@@XX@@X. X",
"XXOOX..XX+@@@..XoOOOOOOOX@@@oXXX",
"X@@@oXXXXO@@@.   .oOOOOOX@@+OXX.",
"@@@@@+OXXOOoXX   .oOOo..XOOOOXX.",
"@@@@@+OOoo@@@@OXXXOOO..XXOOOoXX.",
"@@@+OOOOo@@@@@@@XXO@@+oOOOOOOXXX",
"oOOOOOOoO@@@@@@@OXX@@@OOOOO@@@oX",
"XoOOOOOoOOOO+@@OOXXo@@OOOO@@@@OX",
"XX..oOOXOOOOOOOOOXOOOOOOOo@@@@Oo",
"oOOXXXXX.  .@@@OOX@@@OoOOo@@@+OO",
"@@@oXXXX.  o@@@OoX@@@XX..XOOOOOO",
"@@@OOXXXX oOOOOOXX+@@OOOXXoOOOOO",
"OOOOOoXXX.OOOOOOXXOOOOOOXXOOOOOO",
"..OOOOXXX.Oo@@@+XXXXOOOO..OOO@@+",
"X.OOOOXOOoOo@@@@XXXXOOO  .OOO@@@",
"XXOOOoXOO@@o@@@@XXXXX..  XOOO+@@"
};
