/* XPM */
static char *dirt[] = {
/* columns rows colors chars-per-pixel */
"32 32 4 1 ",
"  c #7C5342",
". c #C67A34",
"X c #9A5B51",
"o c #B36D5D",
/* pixels */
"XoXXooooo  ...XXX    XooooooXXXX",
"..oooooooXX...XXooX  Xoooooo  ..",
".ooXXoX  XXX...Xoooooo  ooo   ..",
"...  XX    Xo..ooooooo XX    XX.",
"o..  XXX   oooooXooooooXX   oX  ",
" XXooX    oooXX  Xo  ooooooooo  ",
" XXooo  XXoo     X   ooooXXoooX ",
"ooXoooXXXXX   XoXX  X..XXXooooXX",
"ooooooXXXXXXXoooo  .....XXXooX  ",
" ooXoo  ooooXXooo  X....oXoooo  ",
" ooX    oooo XoooXXXo  XooXoooX ",
"XXXX    XooX  oXXoXX   XoooXXXoo",
"XXXXXX  XX    XXXooo  Xoooo  ooo",
"oooX..XXXoX  ooXooo  ooXXX   ooo",
"ooo....XXoooooooooo  ooXXX  Xooo",
"ooX....oXXoooXXoooXXXoooXXoXXooo",
"o  oooooXXXooooX  XXXXoooooo  oo",
"X   ooo  ooooo    XXXXoooooX    ",
"XXXXX    oooXX  ooo..X  oooXXX  ",
"XXooX  oXXoXXXXoooX...   XXXX..X",
"XXoooXX..X  XXoooooX..X  XXXX...",
"  Xooo....  oooooooXXXXooooXXo..",
"  XXoo....XXoooXooo  Xooooo  .. ",
"Xoooooo.oXXXoooXoo   XooooX   XX",
"oooooXXXXX  oo  XX  XXooo     XX",
"ooX XXooXX   X  oooooXXXX   Xooo",
"oX  XXooooX  XXXooooooXXooXXoooo",
"XX..o XooooXooo  ooooX oooXXoooo",
"X...o  ooooooooX  X..  ooX  oooo",
"X...   XXXoooooo  .....XXX   Xoo",
"  X  Xoo  ooooooXX.....XXXX  XXX",
"  XXXooo   XXooXX  X..XoooooXXoo"
};
