/* XPM */
static char *glowstone[] = {
/* columns rows colors chars-per-pixel */
"32 32 7 1 ",
"  c #D33C37",
". c #F7642E",
"X c #8E2D49",
"o c #FFB20F",
"O c #F78C2E",
"+ c #FFD560",
"@ c #FFE8BA",
/* pixels */
"O+++o++O@@@O++ooO.o@@OooOOOooOOO",
" ++@O@@+.@+o.+ooOoO@@@.OooO.ooO ",
" O@@o@@oO.oo++ooooo+@@o.o@@. ooO",
"  @@++ OO.  +++oo@@o++o..@@o XoO",
"OXXo++O ...  +++.@@+.ooo@@ooOX O",
"..XXOOOOXX.oOO++. ++O .o@@@... .",
".OOX .Ooo ooOOO OOOoO.  @@@oX  .",
"OOO @@.oooo+@o@@o+++ ..oo@@++OO ",
"OO. +@@.oooO@@@@o+@@@ .oooo+++ o",
"o@@@++@@ ooO@@+@@o@@@@XXooO++@@O",
"@@@+ooo++ ooO+++@@O@@@+XXOO .@@+",
"@@@++oooo o++O+@@+OO@@+X@@@O .++",
"+@@+++OOOO +@@.@@O. @++ @@@+O X.",
"O@@+++oOOOOo@@+.  .@@o  @@@++OXX",
"  +ooooo.OOoo++o.o+@@@o.o@@+++OX",
"@@OOoooO. .OOOoo@@o.@@+..o@+@+oo",
"@@oO.ooo  XOO.OO@@@o.+++..o+@@+@",
"@@+o.oooo XXoo...@@+O+++o.Oo@@o@",
"@@++ XoOOo XXoo ..@@o.++oO.Oo@O@",
"@+++o  OOOo ..OO OO@+. +OOO.Oo..",
".+++oo  OO@@.oo..XX ooo@XXOO.OO.",
". ooooo . @@@ooO..X .o@@@ .O..OO",
"O.oooo. .O @ooOO .oo  @@@o..OO O",
".@@o.o.. Oo.ooo.. oo.  @ooo.Ooo ",
" @@@o @@  oo OO .  .@@XX.o.o.ooo",
"o @@+ @@@oOo X.@o@@ @@+. .. O.oo",
"o  @@o@@@@oo.X @@@@oX++ . O  OOo",
"oO O@+.@@@ooo  @@+@ooXooO..O.o O",
"OOO  oo oo@@oOOO+++o++OooO@@@+. ",
"OOO++ oo o@@@oOOOO.o@@+.oo@@@+o.",
".+++@+ .  @@@+O.OO.o@@+o.o+@@+oO",
"O+++@@O @@O@+++O..oo.++oo.o++OOo"
};
