/* XPM */
static char *granite[] = {
/* columns rows colors chars-per-pixel */
"32 32 8 1 ",
"  c #70443F",
". c #3A2F49",
"X c #4C4044",
"o c #82584F",
"O c #8F6C5F",
"+ c #AC8273",
"@ c #BD9A96",
"# c #DB9795",
/* pixels */
"X XX+++@@###@+Oo X O@@####+oOooX",
"+OooO+++++++++OO++ O+++++++@@@++",
"OOXXoo++++++++oO++XoO+++++++++++",
"oXXX+####+O   ooo....XXX  oo  oo",
"+++O######@#@@@@+Ooooo @###@@+Oo",
"O++++++++++++++++++OOoo+++++++O ",
"XXX  ooOOOO++++++++OO o++++Oooo ",
"+O  XX...XX oo X  o   OO+@@@@@@+",
"OOXXXXX ooXoo  X@@@@+ ++++++OOOO",
"OXXo+++@@@@@@@Oo+@@++o OO+++++OO",
"XX O+OO+++++@@O+@@++OoX      XXX",
"+ooOO+++++@@@+o++O ...X +@###@@+",
"OOooXXXooooo  XXX...X   O+++++++",
"@+ooooXXXooo    XXXXXXooOoO++@@@",
"@@++OOXo OOOO+@@@@#@###@+    o+@",
"OOOOOOXooO++++++O+O+OOOOOXoo  OO",
"     ... oOO+++++O+O+OOOoXoooXXX",
"O+@@@++.oOOo oooooooXXX..Xoo  oO",
"@++O++OXoOOo    XX...O@@X+@##@#@",
"+++++++XX      O++O..O@@ OOOOO++",
"OOOOOoo+O#@@###@++OO. oo  OO++++",
"   oOo+O++++O+@@++oXXooo X.X.X  ",
"oooOOOOOOOOOOOOOOooXooXXX..X.   ",
"@OoooOOOOOOoXXXXXXX   XXo@#@###@",
"+OXX  XXXX...o+@###@@OooO+++++++",
"+ XX   XXXX OO++++++++ooOO++++++",
"O+@@@@#####@+OO++++++@##@+++++oo",
"O+@@@+++++++++OOo   OO++++++++oo",
"Xo+@@@++++O+OoooOOOoooX..X.XX Xo",
"oXOO+++++O+O+OOoooO oXXX..X.XXXX",
"+O  XXXXXXX  OoooOO o    ooo@@@@",
"OO o O###+oo   X..X oo   ooOO++O"
};
