/* XPM */
static char *grass_block_snow[] = {
/* columns rows colors chars-per-pixel */
"32 32 18 1 ",
"  c #7C5342",
". c #5B5474",
"X c #C67A34",
"o c #9A5B51",
"O c #B36D5D",
"+ c #7164B2",
"@ c #317AD8",
"# c #4363C1",
"$ c #5E77C6",
"% c #816B8B",
"& c #618CBE",
"* c #599BFB",
"= c #71C2FB",
"- c #A3E5FF",
"; c #D0F4F5",
": c #D3F9FA",
"> c #EDFFFF",
", c white",
/* pixels */
":,,>:::>,,,,>::::>>>>>>,,,,,,>::",
",,,,>>>>>>,,,,,>>>>>>>>,,,,>>>,,",
",>>>>>>>>>>>,,,>>>>,,>>>>>>>>>,,",
",,,>>>>>>>>>>,,>>,,,>>>>>>>>>>>,",
">,,:>::>>>:>>>>>:>,,,>>>>:>>>:;;",
";:>>>:;;;:>>>::;;:>::>>,,>:>>>;;",
";;:>>>;;::>>;;;;;;;;:>,,,::,,,:;",
">>>>>>:;;::;;;>>:::>>>>:::,,,>::",
">::;;;;;;::>>;;>>:>>::::;>>::::>",
">:>>:::::>>>>:::::>>>;;:>>>:::>>",
"::>>>::;;>>>:::::::>>;::>>::::>>",
"--->>::-;;>>::::------:::-----::",
"-=::::----=-===------===---=-=-=",
"*********======**==*==********==",
"@@@@@@*****************@@@@*****",
"$$#&***&#&**&@@@@@###@**@@$##$$$",
"$++$$$$$###@@$$#++####@@$*$$##$$",
"+...$$$..$$@@$....++++@@*$$+....",
"+++++....$$$++..$$$&&+..$$$+++..",
"++$$+..$++$++++%$$+&&&...++++$$+",
"++$$$++&&+..++$$%%%+&&+..++++$$$",
"..+%$%&&&&..%$$$%%%++++%%%%++%$$",
"..++%%&&&&++%$$+%%%..+%%%%%..$$ ",
"o%%O$$$&$+++%%%+%%...+O%%%o...oo",
"$%%OO+++++..%%..++..ooOOO   ..oo",
"OOo ooOO++...+..OOOOOoooo   oOOO",
"Oo  ooOOOOo..oooOOOOOOooOOooOOOO",
"ooXXO oOOOOoOOO  OOOOo OOOooOOOO",
"oXXXO  OOOOOOOOo  oXX  OOo  OOOO",
"oXXX   oooOOOOOO  XXXXXooo   oOO",
"  o  oOO  OOOOOOooXXXXXoooo  ooo",
"  oooOOO   ooOOoo  oXXoOOOOOooOO"
};
