/* XPM */
static char *grass_path_side[] = {
/* columns rows colors chars-per-pixel */
"32 32 10 1 ",
"  c #56343B",
". c #6C4835",
"X c #7D5041",
"o c #7C5342",
"O c #A4651E",
"+ c #C67A34",
"@ c #8C594D",
"# c #9A5B51",
"$ c #B36D5D",
"% c None",
/* pixels */
"%%%%%%%%%%%%%%%%%%%%%%%%%%%%%%%%",
".@XX@@@@@  OOO...    .@@@@@@....",
"O@@..@X  ...OOOX@@@@@X  X@@   OO",
"OOO  ..    .@OO@@@@@@@ ..    ..O",
"@OO  ...   @@@@@X@@@@@@X.   @X  ",
" ..@@X    ##@X.  X@  @##@@@###  ",
" ..###  ..##     .   @##@XX###. ",
"@@X###.....   .@X.  .OO...@##@..",
"@@@@##.......@###  OOOOO..X@@X  ",
" @@X@@  @@##.X###  .OOOO#X@##@  ",
" @@.    @@##..@@@...##o###X##@. ",
"###o..  #@@X..@#$$#....#$$#@@@$$",
"##ooooo.##....###$$$..#$$$#..$$$",
"$$$o++###$#..$$#$$$oo$$###...$$$",
"$$$++++##$$$$$$$$$$oo$$###..#$$$",
"$$#++++$##$$$##$$$###$$$##$##$$$",
"$..$$$$$###$$$$#..####$$$$$$..$$",
"#..o$$$..$$$$$o...####$$$$$#....",
"#####oo..$$$##oo$$$++#..$$$###oo",
"##$$#oo$##$####$$$#+++..o####++#",
"##$$$##++#oo##$$$$$#++#oo####+++",
"oo#$$$++++oo$$$$$$$####$$$$##$++",
"oo##$$++++##$$$#$$$oo#$$$$$oo++o",
"#$$$$$$+$###$$$#$$ooo#$$$$#ooo##",
"$$$$$#####oo$$oo##oo##$$$ooooo##",
"$$#o##$$##ooo#oo$$$$$####ooo#$$$",
"$#oo##$$$$#oo###$$$$$$##$$##$$$$",
"##++$o#$$$$#$$$oo$$$$#o$$$##$$$$",
"#+++$oo$$$$$$$$#oo#++oo$$#oo$$$$",
"#+++ooo###$$$$$$oo+++++###ooo#$$",
"oo#oo#$$oo$$$$$$##+++++####oo###",
"oo###$$$ooo##$$##oo#++#$$$$$##$$"
};
