/* XPM */
static char *gravel[] = {
/* columns rows colors chars-per-pixel */
"32 32 12 1 ",
"  c #6A4638",
". c #4D6572",
"X c #7C6568",
"o c #884F46",
"O c #A46052",
"+ c #7D7E81",
"@ c #996F9E",
"# c #B19991",
"$ c #948EB0",
"% c #CCCCAB",
"& c #CCCCCD",
"* c #DBE8DB",
/* pixels */
"oXooXXXXX  @@@ooo    oXOXOXXoooo",
"@@XXXXXXXoo@#$ooXXo  oOXOXOX  @@",
"@XXooXo  o%%#$@oXXXXXX  XXX   @@",
"@@@  oo  #%%.@@XXXOXOX oo    oo@",
"X@@$$ooo ##..XXXoOXOXOXoo&&$Xo  ",
" o$$.o    XXXoo  oO  XXXX&$+$X  ",
" o$$.O  ooXX     o   XXXX+..XXo ",
"XXoXOXooooo   $$oo  o@@oooXOXOoo",
"XXXOOOoooooooX$+X  @@@@@ooOXOo  ",
" XXoOX  XXXXooXXX  o@@@@XoXXXX  ",
"#XXo    OXOX oXXXoooX  oXXoXXXo*",
"#ooo    $OXo  XooXo##$ oXXXoooX#",
"oooooo $##$   oooXX+#.oXXXX  OXX",
"XXXo@@o&##+  XXoXOX  XXooo   XOX",
"XOX@@@@&&++XXXOXOXO$$+O&&#  oOXO",
"XXO@$$@XooXXXOoOXOo$$$O&&+XooXOX",
"X  X%%$+.ooXX##o  o+**$#+.XX  XX",
"o   %%$+.OXXX##   oo**XX#%$+    ",
"ooooo  ..XOXoo  XXX@@o  %%$$oo  ",
"ooXXo  XoOXoooOXOXo@@@  +$$+o@@o",
"ooXXXoo@@o  ooXOXOXo@@o  oooo@@@",
"  oXXX@@@@  XXXXOXXooooXXXXooX@@",
"  ooXO@@@@ooXOXoXXX  oOXOXX  @@ ",
"oXXXOXO@XoooOXOoXX   oXOXXo   oo",
"XXXX.&&+oo  OO  oo  ooOXO     oo",
"XXo &&&#oo   o  XXXXXoooo   oOXO",
"Xo  &&##XXo  oooXXOXXXo##XooXXOX",
"oo@@.$$.XXXoXXX%%..OXo %#+ooXOXO",
"o@@@X  XXXXXOXO%%$$@@  +Xo$$+XOX",
"o@@@   oooXOXOO$$$$@@@@ooo+$$oXX",
"  o  oXX  OXOXOX$$@@@@@oooo...oo",
"  oooXXX   ooXXoo  o@@oXXXXXooXX"
};
