/* XPM */
static char *gray_concrete_powder[] = {
/* columns rows colors chars-per-pixel */
"32 32 7 1 ",
"  c #454143",
". c #4E4A4C",
"X c #595557",
"o c #625D60",
"O c #6B6569",
"+ c #767174",
"@ c #827A7F",
/* pixels */
"  XOOOOOXoXoXoOoOOOOOOo..XoOOX..",
" oO+OOoXoXoXoooOoOOOOOOoXXoOOOOX",
"XooOOOOoOoXoX.XXXooOO++OOOOOOOOO",
"oXXoO+@OoOoXXoXoooOOOOOOOOOOOOOX",
"oXXOOOXXXXXXoXoooOOOOOOOoooooXoX",
"o....XoOOOXX....XXooOOOOoOOOOoXo",
"o..XXXOOOOoooXoXoXoO+OOoOoO++Ooo",
"XXXoOoOOOoooXoXoXXX....XXoXXX..X",
"oooOoOOXXXXXX....X.oXoXoooXXXoXo",
"oXXoOOOoXoooO@O...XXXXXXXXXOOXoX",
"ooXXOOoXoooOOOOoXXXoXoOOOooOOooX",
"XoXXOoXXXXXooXXooXoXooOOooOOOOoo",
"oXoOOOOXXoooooooXXoOOOOOXXXOOOoo",
"XXXoOooXXoooXXO+OOoOooXXX.oooooo",
"oOOOoOoXXXXXXXoOOoOoOooX..XOOOoX",
"XO++OoOOOooXoXooooOOOOOoXXXO@OoX",
"OOOoXOO+OOooXoXoooOO@OOXXXXXOOOO",
"oOX..X.X.XXXXXXXXXOOoOOX..XOoOoO",
"oXXooooooooooXX....XoXooOoooOooX",
"oX.XXoXoOoOOOOOoooXoXoXoOOXXooXX",
"X..XoXoooOoOOOOooooXoXX..XoOOXXX",
"o++OoooXoXOOoOOOoXXX....X.oOOoXX",
"ooOOooXoXXOOOOOOOOoooXoOOOOOOXoX",
"ooooXooooOOOO+OOOOOoXoXOOOOOooXo",
"oooXoooooOOOOOOoooOXXXXXXXOOooXX",
"XoOOOooXXXooXoXoOOOXXoXoXXXXXX..",
"ooOOO.o...oXoXoOOOOOoOoXoooOOOOo",
"oOOOXX.X....XXXoOOOoOoooXoOOOOOo",
"OOOOOOoXoXoooXXX.XXoooXXXOOOOooo",
"OOOOOOOoXoXO+++OooXXX..XXOO++OoO",
"OoOOOoOooooOO+OOoXoX.X...XooOoOo",
"XooOoOoooooXXXXXXoXoXoooOOOoXXXX"
};
