/* XPM */
static char *green_glazed_terracotta[] = {
/* columns rows colors chars-per-pixel */
"32 32 32 1 ",
"  c #1D7F2F",
". c #00663D",
"X c #00663E",
"o c #00673E",
"O c #6B6B2E",
"+ c #6C6C2E",
"@ c #2E2E6B",
"# c #621344",
"$ c #006740",
"% c #881F5A",
"& c #88205A",
"* c #89205A",
"= c #89205B",
"- c #A72240",
"; c #A82240",
": c #A82340",
"> c #068E62",
", c #598B4B",
"< c #83B527",
"1 c #592E88",
"2 c #592F88",
"3 c #592F89",
"4 c #5A2F89",
"5 c #1061B7",
"6 c #7D47ED",
"7 c #7D48ED",
"8 c #7E48ED",
"9 c #7E48EE",
"0 c #00B7B7",
"q c #2D83CE",
"w c #37A7D4",
"e c #2DC0F8",
/* pixels */
"269867715qqqqqq526986771*;;:-;:=",
"134214335555555513421433=%*=*&*%",
"332331335555555533233133**=&=&=*",
"313232335555555531323233&=*=**==",
"333442145555555533344214*===&*&*",
"414311335555555541431133**&*%&&*",
"431131335555555543113133=&**=***",
"@332331@O555555+@332331@#*=*=**#",
">000000>,<<<<<<,>000000>,<<<<<<,",
">>>>>>>>,,,,,,,,>>>>>>>>,,,,,,,,",
">>>>>>>>,,,,,,,,>>>>>>>>,,,,,,,,",
">>>>>>>>,,,,,,,,>>>>>>>>,,,,,,,,",
">>>>>>>>,,,,,,,,>>>>>>>>,,,,,,,,",
">>>>>>>>,,,,,,,,>>>>>>>>,,,,,,,,",
">>>>>>>>,,,,,,,,>>>>>>>>,,,,,,,,",
"o>>>>>>. ,,,,,, $>>>>>>$ ,,,,,, ",
"26986771weeeeeew269867715qqqqqq5",
"13421433wwwwwwww1342143355555555",
"33233133wwwwwwww3323313355555555",
"31323233wwwwwwww3132323355555555",
"33344214wwwwwwww3334421455555555",
"41431133wwwwwwww4143113355555555",
"43113133wwwwwwww4311313355555555",
"@332331@>wwwwww>@332331@@555555@",
">000000>,<<<<<<,>000000>,<<<<<<,",
">>>>>>>>,,,,,,,,>>>>>>>>,,,,,,,,",
">>>>>>>>,,,,,,,,>>>>>>>>,,,,,,,,",
">>>>>>>>,,,,,,,,>>>>>>>>,,,,,,,,",
">>>>>>>>,,,,,,,,>>>>>>>>,,,,,,,,",
">>>>>>>>,,,,,,,,>>>>>>>>,,,,,,,,",
">>>>>>>>,,,,,,,,>>>>>>>>,,,,,,,,",
"X>>>>>>$ ,,,,,, o>>>>>>o5,,,,,,5"
};
