/* XPM */
static char *hay_block_top[] = {
/* columns rows colors chars-per-pixel */
"32 32 4 1 ",
"  c #6E453A",
". c #8F5F45",
"X c #AF7650",
"o c #CC895D",
/* pixels */
" XX .X.. .X oo..X.  .. X..XXX.  ",
"XX..XXXXX.XXXX.....  .XX.XX.XX. ",
"XXXoX .XXXXo...XX  . XX.XXX .XX.",
" Xooo .XX.XXX XX .X XX.XX.X  X.X",
"..oooo..XoXXo.XX.XX.XX  . X.XX  ",
"XXXXooX..ooXXXXXXX.XoX..X  XX   ",
".XooXXX..XooXoooX.ooo oXXXXoX...",
" XooooXo .XoooooXXoooXoXXooXooX ",
" .XX..XooXooooXXXooooooXooX.XX  ",
".XX.  XXoooooooX.ooooX.oooooo.. ",
".... XX.oooooXoo..ooo.XooooXXX..",
".XXXoooooXXXooXoX.XXooooXooo.XX.",
"   .. XXXooXXoXXXX.XoooXXoooo.  ",
" XXXXoooooooXX...XXooooooX. XXX.",
"XXXXooooX...XXXooXXXXooXooX.X...",
". X.Xooo. XoooooXXXXXXXXooXXXX. ",
" XX.ooXXX.oooooXXXX.oooXXXXX..XX",
" X.oooXX XooooXXXXXX..ooXX X .  ",
"X.XooXXo.XXoooooXXXXX..oooX .XX ",
".XoXXXXoo.XooooooXoXXoXXooX. XX.",
"  XXXooXXXXo.oooX.XXXooXXo... XX",
" ..XoooXXXo.XXooXX..XoooXX . ..X",
"...ooooXXX..XXXXXXX. . ..X XX   ",
"  ooooooX  X XXX.oooX. . .ooXX  ",
" XooXXXXo. X. XXooooXX.  XooooX ",
"...XXXXXX. .X .XoooXXoX..XXXooX.",
"   XX  X..X X.XXXXXXXoo..XXXXXXX",
"  XX.X .  XX.XXXXXXoXXoX...  ...",
"X.X  X.XX.XX X.XXXXXXX.oX.  X.. ",
".XX. XXX.XX .  XX.X.oXX.X. X... ",
" .XX.XX.XX.  ..X..XXXX.X..XX... ",
"  .XXX..X ..  .X..oo X. ..X. XX "
};
