/* XPM */
static char *hay_block_side[] = {
/* columns rows colors chars-per-pixel */
"32 32 4 1 ",
"  c #6E453A",
". c #8F5F45",
"X c #AF7650",
"o c #CC895D",
/* pixels */
" .X XXX.  .XX. XX..oo..XXo..XXXX",
"XX.XXooX..XXX.. XXXXo.XXXoo.XX..",
"X.XXXoooX.XX......X..o.XXXoo. ..",
" .XXooooXXXX.  X....XXoXXXooo   ",
" X.oooXXXX.XX.Xooo....X.XoX.oX  ",
"XX ooXXX.XX.  ooooo. XX.o.XX.XX ",
"X. XXX....X. Xoooooo.X.oo.Xo....",
" ..X.X.X. ooXXXXXXooX.ooXXXoo.. ",
" .XX.. X.Xooo.XXXXX.XXoXXXX.XX  ",
".XX.  XXXXXoo..X.X.XXXXXXoXX .. ",
".... XX.ooXXXX...XXXXXoXXooX. ..",
".. X.X.ooXXXX.....X  ooXXXoo.. .",
"  X.. XXXXX.XX.  .. Xo.XXX.oX.  ",
" XX X.X.XX....X.   XX .oo.. XX .",
".X X.. XX..XXX.X. .X. Xooo..X...",
". X.XXXX. XooXXXX... XXXooX..XX ",
" XX.ooXXX.ooooo.XX. XXoXXXXX..XX",
" X.oooXX XooXooo.X. X ooXX X . X",
"X.XooXXo.XXXXXooX .. XXX XX .XX ",
".XoXXXXoo.XXoXXX . .XX XX X. XX.",
"  XXXXXXXXXo.XXXX...X ..X ... XX",
" ..XooX.X.o.X.X.XX..  ..XX . ..X",
"...ooooX.X..XX.  XX. . ..X XX   ",
"  ooooooX  X XX..oooX. . .ooXX  ",
" XooXXXXo. X. XXooooXX.  XooooX ",
"...XXXXXX. .X .XoooXXoX..XXXooX.",
"   XX  X..X X.XXXXXXXoo..XXXXXXX",
"  XX.X .  XX.XX.XX.oXXoX...  ...",
"X.X  X.XX.XX X. XX XXX.oX.  X.. ",
".XX. XXX.XX .  XX...oXX.X. X... ",
" .XX.XX.XX.  .....XXXX.X..XX... ",
"  .XXX..X ..  .X..oo X. ..X. XX "
};
