/* XPM */
static char *horn_coral_block[] = {
/* columns rows colors chars-per-pixel */
"32 32 4 1 ",
"  c #E27777",
". c #FFE438",
"X c #FDA05E",
"o c #FFC948",
/* pixels */
"oooXoooX  XXo..oooo XXX..oo  Xoo",
"oooXooooo  Xooooooo  XX..ooX ooo",
"oooXoooooo XXooooooX  XoooooX..o",
"ooXX..ooooXooooooXooooXoooooo...",
"oo X...oooooooooXooooooXooooo...",
"X  Xo..ooooooooooooooooXXXoooo..",
"X XXXooooooooooooo..ooooXXooXXXX",
"oXXooooooXo..oooXo...ooo XXXXooo",
"oX oo..ooXX...oo Xo..oo  Xo..ooo",
"oo o...ooo o..oo  XooXXXooo...oo",
"oooX...ooo XXooX XoX  o..oo...oo",
"oooo..oooo XooX  Xooo ...ooXX  o",
"oooXooooooXXoooXXooooX..ooooooXo",
"ooo ooooooX...oXoooooooooooooooo",
"ooo Xoooo o...oXooooooooooXooooo",
"ooXooooo  o..ooXoooooooX  XXX..o",
"o ooooX  XooooXXooooo..oo  oo...",
"o ..oooXXXXooooXoooo...ooX oo...",
"  ...oooooXooooXoooo..oooo ooo..",
" XX..oooooXooooXXoooooooooXoooo ",
"XXXXoooooo oooo XXXXXoooooXXXoXX",
"X  Xooooo  ..oo XoooX ooooooXXXX",
"..XXXXooX  ..oXXooooo  XoooooXX.",
"..oooXXoo XXXXoooooooX XoooooX..",
".oooooXoo oooooooooooXXXX..ooX..",
"ooooooXooooooooooooooXXXo...oX..",
"oooooo  oooooooooooooXXooo..XXoo",
"oooXooX ..oooooo..oooXoooooXoooo",
"ooXo..oX...oooo ...ooXooooo oooo",
"oo o..ooo..ooo  o..ooXoooo  oooo",
"oXXoooooXoooX  XXoooXXoooX XXooo",
"oXXoooooXXXXX..oooXXXXXoooX XXXo"
};
