/* XPM */
static char *lapis_block[] = {
/* columns rows colors chars-per-pixel */
"32 32 8 1 ",
"  c #45237D",
". c #213EE1",
"X c #007CFF",
"o c #524FDD",
"O c #0CA1FF",
"+ c #0CA3FF",
"@ c #20BEE7",
"# c #27EEEE",
/* pixels */
"@@OOX.X+XX#+XoX+##@ oXX+@@X.XXX@",
"XXOOOoXXXXXXXXXXXXX XXXXXXXoXXXX",
"XXXXXoXXXXXXXoXXXXX.XXXXXXXXXXXX",
"XXXXXoXXXOOXX.XOOXX.XXXXXXXoXXXX",
"ooXX  .oooo..  .....oooooo.  oXo",
".XO@@O+XXo oXOXoX+#@Xo..oX+#@Xoo",
".XXXXXXXXX XXXXXXXXXXX. XXXXXXXX",
".XXXXXXXXX.XXXXXXXXXXXo XXXXXXXX",
".oXXXOOXXo..XXooXXXXXXo XOOXXXXX",
"...X...ooo............  .. .   .",
"+@##Oo.X+##OXo.X@@OXooXXoo.. oXO",
"XXO+OXXXXXXXXX.XXXXXXoO@##OX XXX",
"XXXXXXoXXXXXXX XXXXXXXXXXXXX.XXX",
"XXXXXX.XXXXOOX XXOOXXXXXXXXXoXXX",
".   .   .....   Xoo...XXXXXXXXXo",
". oXX+OX.+##@OXo..oXXXoo...oooo.",
". XXXXXXoOOXXXXX.XO##@++X.o+##OX",
"X.XXXXXXXXXXXXXX.XXXXO+XXoXO+XXX",
"XoXXXXXXoXXXXXXX XXXXXXXXoXXXXXX",
"Xo.XXXOX.XXXXOXX XXXXXXXX XXXXXX",
".  ..... .ooo..   ....o.  .oooo.",
"##@X..oX#OOXXo.oOOo.oXXO##OX.XO@",
"XXXXX.XXXXXXXX.XXXX.XXXXXXXXoXXX",
"XXXXX.XXXXXXXXoXXXX XXXXXXXXoXXX",
"XXXXX.XXXXXXXXXXXXX XOOXXXXX.XXX",
"XXXXX.XXXOOXXXoooo  ...  .oo...o",
".oXo  o....oooo..oX@#+Xo.oX@OXo.",
"XXXO@#OX.X##@OXXoXXXXXXX.XXXXXXo",
"XXXXXXXXoXXXXXXXoXXXXXXXoXXXXXXX",
"XXXXXXXXoXXXXXXX.XXXXXXXoXXXXXXX",
"XXXXXXXX XXOXoo. XXXX@@XoXXOXXXX",
"o.oo...   .....  .   .ooo.  ...."
};
