/* XPM */
static char *light_blue_glazed_terracotta[] = {
/* columns rows colors chars-per-pixel */
"32 32 17 1 ",
"  c #5C7FB6",
". c #627BF7",
"X c #519EB3",
"o c #48AFA8",
"O c #29A0DE",
"+ c #00BAFF",
"@ c #7EC0C6",
"# c gray71",
"$ c #B6B6B6",
"% c #9DEBB6",
"& c #8DDCDC",
"* c #AFD5E4",
"= c #DCDEC5",
"- c #DCDEC6",
"; c #C8E1D4",
": c #C8E1F4",
"> c #EAEAEA",
/* pixels */
"X@$****:::OO****:*OOOO*@@@@@@@@X",
"*:##:@@:++OOO:::::OOOO::&&##:++*",
"*:##:@@:++:OOO::::OO::::&&##:++*",
"::==:>>:::::OOO+++....OO:::::&&*",
"::==:>>:++:::OO+++....OO++++:++:",
"::@@@@&&++..OOO:::OO&&OO++++:++*",
"::@&&&&&&&..OOO:::OO&&OO%%++:::*",
":;&&&&&&&&OO::::::OOOOOO%%++:::*",
"*:....OO&OOO:++::+OOOOOO++ooooOO",
"*:....OOOOO::++:+++:::OO++ooooOO",
"OO++:::OOO:::::+++::::++%%++::OO",
"OO++:::OOO::::+++:>>>>++%%++::OO",
"::##::::OOO::+++::>  >OOOO++OOOO",
"*:++:::>>O..OO+:::>  >OOOO++OOOO",
"*:++:::>>&..OO&&&:>>>>OO:::@&&&*",
"*:+++++#oo..++&&&OO+++oo:::@&&&*",
"*:+++++#oo..++&&&OO+++oo:::oo..*",
"*::::++#oo::::+++..&&&::::Ooo..*",
"++:++++#oo::::+++..&&&:::OOO&oo*",
"++:++++#OOO:::++&OOOOO::OOO::oo*",
"OO:##>>::OOO++OO&OOOOO::OO:::OOO",
"OOO##>>:::OO++OO:::&OO::OO:::OOO",
":OOOOO....%%::OO:::O....OO++:::*",
"*:OOOO....%%:OOO::OO....OO++:::*",
"::>>++%%..OOOOO@@OOO::%%::@@**@X",
"*:>>++%%..OOOO&&OOO:::%%::@@**@X",
"*:::OOOOOO&&&&&&OO::>>@@%%++::+O",
"*:::OOOOOO&&&&&&OO::>>@@%%++::+O",
"*:>>::::OOOO::++OOOOOO::::::::+O",
"*->>::::OOOO::++OOOOOO:---::::+O",
"*:-----:-:OO:------:OO::------:*",
"X$$$@@*@**OO********..********$X"
};
