/* XPM */
static char *light_blue_terracotta[] = {
/* columns rows colors chars-per-pixel */
"32 32 6 1 ",
"  c #4879B5",
". c #3996B8",
"X c #478C93",
"o c #60AFB6",
"O c #2BA0DD",
"+ c #40C8DD",
/* pixels */
"OOoo+++++++++++++oooOOOOXXXXXXXO",
"OOXXXXOooooooooooooo++oo+++++++o",
"OOooOOOOooooooooooooo+++++oooooO",
"OOOOOOOooooooooooOOOoooo+++ooooo",
"ooOOOOooooooooooOOOooooooooooooo",
"oooOOOOooooooooooOOOOooooooooooo",
"ooOOOOooooooooooOOOOoooooooooooo",
"ooooOooooooooooooX   XXXXOOOOooo",
"OOOOOXXXXXXXXX     XOOoo+++++ooo",
"+++++++++++++++oooo+++oooo++++++",
"oooooooooooOOOoOOOOOOoooo+++oooo",
"ooooooooooooooooOOOOoooooo+++ooo",
"oooooooooooooooOOOOOooooo+++oooo",
"ooooooooooooooooOOOOOooooooooooo",
"oooooooooooooooOOOOOoooooO..OOoo",
"     ..OOOOooooooOOOO..XXX  XXX ",
"+++oOO..   XX.....X      XX..Xo+",
"o+++++++++oooooo++++++++++ooOOOO",
"+++oooooooooooooooooooooooOOOOOo",
"o+++oooooooooooooooooooooooOoOOO",
"+++oooooooooooooooooooooooOOoOOo",
"oOOOOOOooooooooooooooooooooOOOOo",
"ooooooooooooooooooooooooooooOOOO",
"            XXOOOOooOOXX        ",
"OOOOoo+++++++o+oooooo++++++++oOO",
"OOo++ooooooooooooooooooooooo++++",
"oOOOOOoooooooooooooooooooooooooo",
"OOOOOooooOOOoooooooooooooooooooo",
"OOOOOOOOOOOooooooooooooooooooooo",
"OOOOooooOOOOOOooooooooooooooooOO",
"XXXXXXXXXOOOoooooooooooooooooOXX",
"XXXXXX    XXXOOOOOOOOOXXXX    XX"
};
