/* XPM */
static char *lime_glazed_terracotta[] = {
/* columns rows colors chars-per-pixel */
"32 32 24 1 ",
"  c #125B23",
". c #13725F",
"X c #13735F",
"o c #137360",
"O c #147360",
"+ c #1F8D39",
"@ c #208D39",
"# c #208E3A",
"$ c #20B23B",
"% c #21B23B",
"& c #21B23C",
"* c #21B33C",
"= c #23D600",
"- c #21C53D",
"; c #22C53C",
": c #22C63D",
"> c #21D83B",
", c #48EA1F",
"< c #49EA1F",
"1 c #49EB20",
"2 c #1F9F6C",
"3 c #1F9F6D",
"4 c #209F6D",
"5 c #20A06D",
/* pixels */
"+++#.         X+++++o         X#",
">11=&++322&<<=$+=1,=&+#322&1<=&+",
"&====X2222=>==%+&====X2322====$+",
"$=>==X2342====&X$====X2424====*X",
"  &&&O422+*&*     &**o322+&$*   ",
"32*%*O++#+&&* +352&&*X++++&&* +2",
"22*$&X+232$&&X2344&&*o+222&&&X22",
"22-;;X2322-:-X2322:-;X2233;;:X22",
"2+#++X2233+++o424++++X2253++#O54",
"++===X333#===X++#+==>X232+===X++",
"32&$%X#+#+&**X+232$%*O++++$&&X+4",
"55&&*X+223&&&X3542&&*o#232$&&X23",
"32$&&O++++&&&X3223***X+#++&&$O22",
"2+==11$X%=1==o322#===11111===X52",
"+#==>=&X$====O+++#===========o++",
"22&====X&===&O+324&=========&X+2",
"+++X         X#+#++X         X++",
"+=1<==++232&<1,,,,,<=+++324&1<=&",
"+&====X2322===========X2435====&",
"X*====X4442=========>=X2225====%",
"   $**X322+&&%     **&X322+$%&  ",
"322$$$.++++$*& +223&&*X+#++&$* +",
"222&$&X+223&**X2522&&&X+522&*%X2",
"322;:-X2222;:-O2222:;;X2222-;;X2",
"42++++O5232#+#X335+#++X2332+++X2",
"+++===X222#===O++##===O522+>==X+",
"252&$*o#+++&$*X+333&&*X++++*&&X+",
"232&&*O#425&*&X2222&%*X+222**$X2",
"222$$&X++++&&$O2322&&$X+#++&*&X5",
"52#==11&o&=1==o222+==,,&X&,===X2",
"+++==>=*X&====X+@#+====%X$====X+",
"222&====O*===&X+223&====o$===&X+"
};
