/* XPM */
static char *magenta_glazed_terracotta[] = {
/* columns rows colors chars-per-pixel */
"32 32 25 1 ",
"  c #8F3040",
". c #B5394C",
"X c #E84A61",
"o c #FF516B",
"O c #58318E",
"+ c #40669E",
"@ c #3772F2",
"# c #4E46C9",
"$ c #8B3EB7",
"% c #AE51A1",
"& c #AE52A1",
"* c #AE52A2",
"= c #AF52A2",
"- c #CC4D8D",
"; c #CD4D8D",
": c #CD4D8E",
"> c #CD4E8E",
", c #4E88C9",
"< c #52B2CD",
"1 c #52CDFF",
"2 c #FF8C9D",
"3 c #FF9B9F",
"4 c #FFBFC8",
"5 c #F4CDD5",
"6 c #F2E1E1",
/* pixels */
"=++--+$$$$*&&X333ooXXXXO$$$OOO**",
"--O&=+$$$$=&XXXOOOOOOOO$$$O@@@O&",
"::O&=$$$$$$XXXO+$*==&=O$$O@@@@@O",
"$$O==*&&$$XXXO+$$&*&&=O&=O@@@@@O",
"$$O=&&=&$XXXO+$$$OOO&=O:-O@@@@@O",
"$XXXXoo443XO+$$$+$$$--O--=O@@@O$",
"XXXXXoo443O+$$$+$$$$::OO&==OOO$$",
"XX.    .=*O$$$+$$$$-:>OOO&--$$$X",
"X.XXXXX.XXO$$+$$$$:--OO+OO-:$$XX",
".XXXXXX.XXO&&$$$$;;-OO+++OOOOOXX",
".XXXXXX.XXO*&$$$&--OO+++XX:&&=XX",
".XXXXXX.XXO&===&&*OO+++XXX:===XX",
".XXXXXX.XXO=&&=&=OO+++XXXOOO=&XX",
".XXXXX.XXXOOOOOOOO+++-XX+$$+=&XX",
".    .XXXO,,<11+++++;:;+$$$$=&*=",
"4ooXXXXXO@,,<11<+++;:-+$$$$&&&33",
"4ooXXXXO@@@###<<<++;;+$$$$**&X33",
"OOOOOOO,,@#666#<<<O&&+$$$$&=XXXO",
"$&&&&&O,,#56666#<<O%%$$$$$$XXXO+",
"$*&=&=O,,#55666#,,O==&==$$XXXO+$",
"$OOO*&O<<#55566@,,O=&&&&$XXXO+$$",
"+$$+::O<<<,555@@@XXXXoo442XO+$$$",
"$$$$-:OO<<<##,,@XXXXXoo442O+$$$+",
"$$$--;OOO<11<,,XXX.    .&=O$$$+$",
"$$:::OO+OO11<,XXX.XXXXX.XXO$$+$$",
"$;::OO+++OOOOOXX.XXXXXX.XXO&=+$$",
"=-:OO+++XXXXX&XX.XXXXXX.XXO&&$$$",
"&&OO+++XXXXXX&XX.XXXXXX.XXOXXXXX",
"*OO+++XXXOOO=&XX.XXXXXX.XXOXXXXX",
"OO+++;XX+$$+&*XX.XXXXX.XXXOOOOOO",
"++++::-+$$$$%===.    .XXXO$$=:-+",
"+++:--+$$$$=&&344ooXXXXXO$$$*-;&"
};
