/* XPM */
static char *mossy_cobblestone[] = {
/* columns rows colors chars-per-pixel */
"32 32 12 1 ",
"  c #11713D",
". c #59C332",
"X c #109956",
"o c #278179",
"O c #10B66D",
"+ c #516BB2",
"@ c #4E7DE3",
"# c #4F949B",
"$ c #5081BD",
"% c #24A9EB",
"& c #18C9C3",
"* c #33C6FF",
/* pixels */
"O&&&%$%&%%&&%#%***& #.O&&&%$O...",
"OO&&&#O%%%%%%%%%%%%+O.OO%%%#O..O",
"%O%O%#OO%OO%O#%%%%%$OO%O%%%%%%%%",
"%%%%%#O%O%OOO$%%%%%o%O%%%%%%%%%%",
"oo%%##$####$$ooooooo######oo%%%o",
"$O.%&&&%%X+X.&%X%&&%%#$$#%&&&%##",
"$OOOOO%%%% OO%%OO%%%%%$+%%%%%%%%",
"o%OO%%%%%%$OOO%%%%%%%%X %%%%%%%%",
"o#%O%%%%%X$$OOXX%%%%%%X %%%%%%%%",
"oo$%$$$###ooooo$$$oooo  oo+$  oo",
"&%%&&X$%&&&&%X$X%&&%@#%%XX@@ #%&",
"%%&&&%%%%%%%O%$X%O%O@#&&&...+%%%",
"%%%%%%%O%OO%%O XOOOOo%...O..@%%%",
"%%%%%%XOOOO%O% XO%O%o%OOOO%OX%%%",
"$   ooooooooo   %XXoo@O%O%%O%%%#",
"$ #%%&&%o&&&O&%X@@X%%@XX@@@####$",
"$+%%%%%%X&&....%$%&****&%@#&&&&%",
"%$%%O%O%%OOOOOOO$%%%%&&OO#%&&%%%",
"%X%%OOOO%OOOOO%O$%%%%XOOOXOOO%O%",
"%X@%%O%O#OO%%O%%+%%%X@OO%XOOOO%O",
"@++oo@@ooo###ooo oooo@##@@@XXX#$",
"&&%%@oX%&&&%%Xo#&&#$#%%&&&&%$%&&",
"%%%%%o%%%%%%%%$%O%%$OO%%%%%%X%%%",
"%%%%%@%%%%%OOOXO%O%+OO%O%O%OX%%%",
"%%%%%@%%O%O%O%%OOOO OOO%O%OO$%%%",
"%%%%%@%%%O%OOOXXXX  ooo++@XXooo#",
"o#%XX@#@oo$####$@X%&&&%#@X.&&O%o",
"OO.&&&&.$O&&&&%%#%%%%%%%@%O.OOO#",
"OOOO..%.X%%%%%%%#%%%%%%%X%%%%%%%",
"%O%O%%%%X%%%%%%%@%%%%%%%X%%%%%%%",
"%%%%%%%% %%%%X#@@%%%%%%%X%%%%%%%",
"#@XX$$$+  $ooooooo  +@###@ +@$$$"
};
