/* XPM */
static char *mushroom_block_inside[] = {
/* columns rows colors chars-per-pixel */
"32 32 7 1 ",
"  c #220625",
". c #390D3D",
"X c #481C39",
"o c #5B2E39",
"O c #615E75",
"+ c #593C86",
"@ c #8E8AA8",
/* pixels */
"ooooooooX...o......o.....++X..oo",
"oooooooo....o...Xooo.....@ +oooo",
"ooX++XXX..XoooXXoooooooooXOOX..o",
"oXX+ .++ooXXoXXXoooXXoooooXXo..X",
"..+   .+X...oXXooo....oooX..ooXX",
"..O    +X...oooooo....ooo...Xo..",
"..@X.  +oooXX..oooX..+OXoX...o..",
"+.X@@O+XoXXo...XooooO  +oooo+OOO",
"O..XX..XoXXo.X++OOOo@  +ooo+X  .",
"+o..o...oooo.++   OOX@OXo..O    ",
"+ooooX..ooooo+    .+ooooo..OO  X",
"XX..XooooooooO   ..+oooooooXOO+o",
"o....ooX..Xoo@+.  ++ooXXoXXXXXXo",
"o....oo....ooo@@O++XooXXooXXo...",
"oo..XooX..XoooXXXXXooooooX..XX..",
"XoooXXoooooooX..ooooooooo....o..",
"+.oX..oooXXoo...o+++++ooo....+++",
"++o...oooXXooX.XO  .O +X.o..O   ",
"++o..Xo..oooooooO  .@O+...oo@@O+",
"XXoooo...X+OOOXXo@@OXXo..Xoo...X",
"X..Xoo...+X  O+oX..oXXXooo..o..o",
"....oooooO    +o...ooXXoooXXX..o",
"....ooooo@    +o..Xooooooooo...o",
"o..XooooX@X  ++Xooooooooo..Xo+++",
"+ooooXXooX@O++XXX..Xooooo..oX  +",
"+X..XXXoo..Xoooo....ooX.XoX+    ",
"+...XXooo..oX..oX..ooo...ooO    ",
"+X..oooooX.o..Xo+OOooo..XooO@  X",
"Xooooo..Xoooooo++  OoooooooX@O++",
"o...Xo...XooXXoO   +oooooooooooo",
"o....oX..oooX.o@  .+XoooXoo..Xoo",
"oX..Xoooooooooo@@O+XX...Xoo...oo"
};
