/* XPM */
static char *mushroom_stem[] = {
/* columns rows colors chars-per-pixel */
"32 32 8 1 ",
"  c #1F1E21",
". c #3A383D",
"X c #59575E",
"o c #895C64",
"O c #A0777C",
"+ c #A79178",
"@ c #6578A5",
"# c #EAE3F9",
/* pixels */
"o.oOOOOOO@..OOOOOoo@@.OOOOXoOOOO",
"OoOOOOoOOo.#.oOOOOo@@.OOOoXOOOOo",
"OO+O+OXOOoX..XoOO+OooXOOOooOOOoo",
"o++++oX@@Xo+++++OO+XooOOOXOOOOoo",
"o+++O+O@@.++++++++O.XOOOOoOOOO.o",
"OOOO+OOOX.++++++Oo..OOOOoOOOOO o",
"OoOOO+OOO.+++oXX...OOOOoXOOOOo#O",
"OX..oOOOOoOO++OoX@OOOO@o.O+O+o O",
"Oo..ooOOOOXOOOOOO@@O@ooo.o++++XO",
"Ooo@@o@OOOoXOOOOOO@@..@@XX+++++O",
"ooO@@X@OO+@..oOOOOO.# OO@XOOOO+o",
"o.O@  oOO+O..ooOOOOo  o@@oOOOO+o",
"ooOO  oOO+O.ooooO+OOo.X@oOOOOO.o",
"OoOOoo@OO+OX@@oooO+Oo..oO+OOOo.o",
"O@oO@oOOOOo@@@ooX+O+O@.++++Ooooo",
"O@.o@OOOOOXOO@OoXO+++@@++++oo@Oo",
"O@.oOOOOOo.OOOO@o+++O@@O+O+Xo@OO",
"O.O+O+OOO. @OO@@O+++oX@OOOO.X@OO",
"oo++++OoX #.O@@o+OOOX.XoOOOo.XOO",
"oO+++OoooX  @@oO+OOo   oOOOOo.oO",
"OO+OOoX@@@..ooOOOOOX # oOOOOO.@O",
"OoOOOoXoOO.XoOOOOOo.  XooOOOOOoo",
"O OOOOOoO@XoOOOOOoo@Xo@@oXOO+Ooo",
"o#XOOOOO@oXOOOOOoo@@@@@@XXo+++Oo",
"o XoOOOOoXoOOOOoX@O@OO@o  o+O+Oo",
"o@oXOOOOOXOOOOo..XOOOOo   O+OOo@",
"o@@.oOOOOX+O+O.  XoOO+O  oOOOOX@",
"O@..++OOOX+++O # ooO+O+oXOOOOoX@",
"Oo.o++OOoX+++oX .@oo+++OoOOOO.oo",
"OooO+OOOoXOO+Oo.X@@oO+OOoOOOO.Oo",
"Oo@OOOOooooOOOO@XO@XOOOOOOOOOoOO",
"ooOOOOoXoooOOOOX@OOXoOOOOoOOOOOO"
};
