/* XPM */
static char *netherrack[] = {
/* columns rows colors chars-per-pixel */
"32 32 8 1 ",
"  c #4A252D",
". c #6A2554",
"X c #8E2D49",
"o c #B92D4E",
"O c #9E4F6A",
"+ c #D15071",
"@ c #4F3C85",
"# c #7D29AD",
/* pixels */
"@OOOOX++OX.+++OOOO  ooooX.XOO..@",
"OOOOOO++OO.++++OOO  XooXXX.. XOO",
"OOOXXX+OOOX+OOOOOO...XXXXX ..OOO",
"OOXooXOOOXXOOOOOXooX..XXX....OOO",
"OXXooXXOOX++OOOOXooXX   XoX.XOOO",
"X.XXXX.OO++OOOX .XXXX..XooXOOOX ",
"XOOXX..OO+++OO.. .XXXOOOXXXOOO  ",
".OOO..XXO+OOOO..## .XOOO...XOX  ",
".XOOXXOOXOOOOO  ##@XOOOX.       ",
"XX++OOOOOOOOOOX. @X+OOX...  .Xoo",
"XO+OOOOOOXXOOXoo..++OOOO..  Xooo",
"XOOOOOOOO@@.XXooX.OOOOOOOX .XooX",
"XXOOOOOOX @ XXXXX.XOOOOOO++OXXXX",
"X+++OXXOOOX .XXXX.O++OXX++OOOXXX",
".++OOOOOOOO  .OX..++OOOOOOOOOX..",
"OX++OOOOOOO. +++OX+++OOOOXX.XOOO",
"O##OOOOOOOO@@+OOOOO+OOOOO.  XOOO",
"@##OOOOOOO##@XOOOO..X+OOOX  OOOO",
"@@OOOOOX. ##...XXXXXX++OOO  OOOO",
"OOOO+++OOX.X++OX.XooXOOOOX...Xoo",
"XOOO++OOOOX++OOOXoooX.OO  ..Xooo",
"XX..X++OOOO+++OOOooXX.OOX  .XooX",
".  ..  XOOO++OOOOXXXX++OOO..XXXX",
" .ooX.  OOOXOOOOOXX.++OOOO.O..  ",
".XooXX  XOO OOOOO.  +++OOO.O++O.",
"OXXXXX  .XX..XOOO.  O+OOOOX+++OO",
"OXXXX. XOOO.XooX..XX@XOOX.XO+++O",
"OO...  OOOOXoooXOOOO@##  .O++OOO",
"OO.X XO++OOXooXXOOOOO## ..XOOOOO",
"OX.OOOXXOOO.XXXOOXOOX  ...XO+OOO",
"  .OOOOX.. ..XOOOXX..XXX. XOOO##",
"@.OOXXXOO. XO++OOO. XoooX OOOO##"
};
