/* XPM */
static char *nether_bricks[] = {
/* columns rows colors chars-per-pixel */
"32 32 27 1 ",
"  c #16111B",
". c #1D111A",
"X c #1F1821",
"o c #281226",
"O c #28192B",
"+ c #3E1E25",
"@ c #36132D",
"# c #351C32",
"$ c #3F1831",
"% c #3B1F35",
"& c #182327",
"* c #372124",
"= c #3F2526",
"- c #3C2932",
"; c #491833",
": c #4E262C",
"> c #452239",
", c #542E32",
"< c #52223D",
"1 c #553A37",
"2 c #3E1D47",
"3 c #481F4F",
"4 c #4D2840",
"5 c #553047",
"6 c #56324E",
"7 c #4E2555",
"8 c #562C5F",
/* pixels */
"88>%%>5555%#>55555>X*=11111*X%38",
"3>33>:::-=>#>>>===>O========O333",
">333>:::-=>#>>%>==>O========O333",
">333O:::-=>#>>%%===O*=======O>>3",
"OOOOOX  O#####OOOXXXOOXXOOO4OXXO",
"44<<<4&X%45555O458884%X<<<<<4%XO",
"%%%>>>>X4<<<55O4444444O<<<<<<4X4",
"%%>>>>>O4<<444O4444444O4<4<<<4O4",
"4444>>4O%%%%%%%44%%4%%O;;;;;44O4",
"O     OOOOXXXOOOOOO   OOOX   OOO",
"55> 458885>X-5554-OO>5555>%X%>55",
">>%O5888885O>>4444OO55>>>>>O>>>>",
"OO#O5##2233>>>4444OO>%%>%%>O>>%#",
"XO#O4##2233>>>>>44>>>%%%%->O#OOX",
"##%O4444553#>>>>44#>>>5555>O%%##",
"##OOOOXXXX  OO  O@ooo@@o.XXOO###",
"#55555#X%48554#O@<<<<<<$.#>55>%O",
">>>>>55#7777744#;<<;<;;;O>>>>>>O",
">>>>55>#4777444#;;;;;;;;O>>>>>5%",
"%%%%%>>O4477774#;;;;;;;;O>>5555%",
"OO#####OOOX   %%%>>>>%%OOOOOXXOO",
"554#%>66666%%:,,,,,,+3888882X%>5",
">>>#5>>>>>55%,::::,,+7733382O%%%",
"%%%%>>>>>>#>%:::::::+7773332O%%%",
"%%%%>>####>>%:+++++:O3777332OOOO",
">>%%>>>####>O:::++++O7788832OO%>",
"XOOOO#######OO%%%%%%XXXXXOOOOOOX",
"X#66666#O>555555>%>5555>X>5555>%",
"O6666666>>>%%%%%>>>%%%%>O5<<%%O>",
"O4>>>>>4>>>>>>OO>>%%%%%%X5<<%%O>",
"O4>>>--4O>>>>%%>>>%%%%%%X5555%%>",
"#####OOOO###OOOOXXXXXOO%XX   O##"
};
