/* XPM */
static char *nether_wart_block[] = {
/* columns rows colors chars-per-pixel */
"32 32 6 1 ",
"  c #63212F",
". c #CD1327",
"X c #BF0046",
"o c #AF1357",
"O c #892165",
"+ c #CD1357",
/* pixels */
"oO    OooOoooooOo..oooooOOOooooo",
"ooOO OooooOOoooo...  OoooooXXooo",
"ooooOo..ooooooOo..OOXXoXXoXXXooo",
"oooOo...oooO  OooOooX..XXoXXOOoo",
"ooo o..oXXo  OOOooooo..XXoo..OOO",
"OO  OooXXXo OOOOoooooOO  Oo...oO",
"o..oOooXXoOOOOOoXXooOO  ooXX..oo",
"o...O oooooo..oXXXooOOO++oXXooOo",
"oo..o  OOO++...XXooooOo+++oooo o",
"oooXXOOOOo++o..ooooo..XX++ooO  o",
"oooXXOoooo++ooO  oo...XXoOO   OO",
"ooO...ooooooO  O  O..oXXOo+++oOo",
"ooO...OooooO  OOoooooOOOoo+++oOo",
"oo ..oOOO...oOOoooOoooooooXX...o",
"oO oXXoo....ooOoooOO...ooOo....X",
"oXXoXXoo...o++oXXoOo....OO ...oX",
"oXXXooooooo+++oXXo++o...OO  oooX",
"ooXXoOO  oo++XOOoo++Xo.. OO   oO",
"oooo  OO  OoooOO O++XooO OO..oOO",
" OOOoooOOOOOOOXXooOOoooOOO...++ ",
"oo...ooOo..oooXX..ooooo++o..o++O",
"oo....oo...XXooo..oooo+++ooooooo",
"OOo...oo..oXXoooooO OO++XoOOOOoo",
"oOOOooOOooXXoOoooO  ooooooooO oo",
"oooXXoOoooXXo OOo..ooooOooooO  o",
"oooXXOOoOooo  Oo...++    oooOO  ",
"OO   OoooOO  OOo..o++oO   Oooooo",
".OOOo..ooooOOOOoooo++oO..oooOO..",
".ooO...XXooOooOOoooooXX..oOOOo..",
".ooo..oXXoOOo.. oooooXXoooooooo.",
"ooOooooXXOOXX..  ooooooooooooOoo",
"OO OoooooooXXooO  OOooOO  OOOooo"
};
