/* XPM */
static char *oak_log[] = {
/* columns rows colors chars-per-pixel */
"32 32 21 1 ",
"  c #352823",
". c #4C311E",
"X c #583A2D",
"o c #6C3F27",
"O c #654029",
"+ c #78482F",
"@ c #6F4B37",
"# c #61453A",
"$ c #854A30",
"% c #81533D",
"& c #905438",
"* c #A2673E",
"= c #B36C36",
"- c #BB773E",
"; c #9C5C42",
": c #996047",
"> c #A66649",
", c #AD725B",
"< c #B47A50",
"1 c #C1834D",
"2 c #D59752",
/* pixels */
" o,,&o&o&&,,,,,,,,,,&,,&o.ooooo.",
" o,,&o&&&&&,,,,,,,,,,,&&&.&,22,,",
"..oooo&&&ooooooo.....    .&,22,,",
"..oooooooo&&&&&&ooo....  oo.....",
"22,&o&&o,,22222,22,,&,&+O&,,2222",
"22,&o&&o,,22,22,22,,&,&+O&,,2222",
"     ...o&&::::::&oo&&o...oooo.o",
"   ...ooo::&::::::&,,,&o&.o.&&&&",
" o>;>>=-111,*<<,::&,,,&&o.o.&&&&",
".o>;>>$>1122*<:,:&&oooooooo.....",
"...  oooo&&::::::::&oo....     .",
",,&&o&&&&&&&::,,222,,,&&ooo&.,,,",
",,&&o&&&&&o&::,,222&,,&&ooo&.,,,",
".ooooo o.oooooooo&&&&&,,&&&&&o&&",
".ooooooo&,,2222,,,,,,o,,&&&&&o&&",
"...oo.oo&,,2222,,&&&oooo.. ..  .",
"2222,,&$&ooo,,,,,222,,,&,&ooo&&o",
",222,,&&,,&::::::&,,,,,&,&oo.&&o",
".ooooo&&,,&::::::&,,&&&&ooo.....",
".oo&o&&&&::::,,,,,,&&,,,&o&&.&&o",
"ooooooooooo&&,,,&,,&&,,,&o&&o&&o",
"...    ..oooo&&,&&&&&&oooooooooo",
"2.,&,& &,,o&,,,,,oo,,,,&&,,,&,22",
",o,&,&.&&,o&,,,,,oo,,,,&&,,,&,,2",
".....o.o&&&&&&&oooo&&oo&oo... ..",
"&&o.&o&,&,222222222,,o,,,&oo&&&o",
"&&o.&o&,&,,,22,22,,,,&,,,&oo&&&o",
"22,&,,&+&+&:%%%%@#XXXOOOOooooooo",
",,,&,,&::&::%%%::::&,,,,&,&o&&oo",
". ooo&&&&ooo,&&&&&o&,,,,&,&o&&oo",
"&&&o&o&&,,,&,,,222222,&,,&oo&& &",
"&&&o&o&&,,,,,,,,,222,,&,,&.o&& &"
};
