/* XPM */
static char *oak_planks[] = {
/* columns rows colors chars-per-pixel */
"32 32 22 1 ",
"  c #503E37",
". c #503F38",
"X c #514038",
"o c #514039",
"O c #6C5145",
"+ c #6D5245",
"@ c #6D5246",
"# c #C1773E",
"$ c #8B5743",
"% c #8C5843",
"& c #8C5844",
"* c #8D5844",
"= c #AA7152",
"- c #915F74",
"; c #9C6762",
": c #B26369",
"> c #C97C6E",
", c #DB8548",
"< c #DB9360",
"1 c #EA996E",
"2 c #D37A88",
"3 c #C6888B",
/* pixels */
",11,>>>##3333333>>,>,>>>>>,,,11-",
"11-:#=;;;;;;;;-----;;;;-:3,,;11:",
",11##===######==:::=----=:,,,,1-",
"11##===========:::=---;####>>11:",
"11######========:::=#=#=###>111:",
",,-::===;;;--------------=#>;1,+",
"11,333>>>>##::==:::#>>,,,,33,,1:",
"+OO---OOOOOOOOXooOOOOOO.oooo++++",
"+111,,,,,,>>>>>>#33:##>>>>>>,,,1",
"-11:,::=;;;;=;=;==:::###==:##;1,",
":11##::==;;;;=;==:::========##,1",
":11###===========######=#;;=:>11",
"-11##======#########=#=#==:::#11",
":1#;===;;---;;==========;;;==-,1",
"-111,,,,>>>>33::333>>>>33>>,,111",
"+++oXo..o.ooo@@@@OO+O++O .oooX$$",
"11,,333>>##=:#:###==---&&&$O+@++",
"11;>>=;;------;;=====:=:=:#3311-",
"11,3===---===#######======##;11-",
"11,3>=;;;;;====::::::::=:=:3311:",
"11;3>===#########:::::::==:3311:",
"111,,33#####;;;====;;;;;--##;11:",
"&%$*&%%&-==#33###3322,,,,,22113:",
"$@o.oX@O@@OO+@@&+&@&&&&&&&&&&&&&",
":111,,,,,,33#####:#:#=##>>2,,11,",
":<1;2##=;---;;;=;=:::====##>>2;,",
"-11222##==---;=;=:::======>>2211",
":1112##===#=#=########=;;;#22111",
"-11222#==#=######=====;;;=:>221,",
":,1;####;---;;;=;=======;;=221;1",
"@1,,,,,,,###33::33:==:##22,,,,11",
"+XXX++++++&&&&&&&O&+&++O .oooX$$"
};
