/* XPM */
static char *obsidian[] = {
/* columns rows colors chars-per-pixel */
"32 32 9 1 ",
"  c #030405",
". c #0E1616",
"X c #131E1C",
"o c #192826",
"O c #242E32",
"+ c #30343F",
"@ c #3B414E",
"# c #474E5E",
"$ c #6A5772",
/* pixels */
"OOo XX X  XXooooo  XOOOOX   XOoO",
"OX  ooo  XXoooOOoo   OO    OOOOO",
"XXOOOo  XXoOoOO++oo      oOOOoOo",
"OOOOOX oooO+OO+++O       OOXXXOO",
"ooOOXXOOo..o@@+++oOOOoooO  XoOOO",
"oOOXX++o...@@@@++OOOO+ooX  o++++",
"O++ooOX...++##@+OOO+++oX   @@+++",
"++OO++X.XO@$$#++OO@@+oX   @@@+++",
"+++++XX oO#$$@@+++@@oo  o@@@+o++",
"@++@OX..XO##@+O++Ooooo o+@@+++@@",
"oO+X X.    X@#@oooo Xo o@@+@@@@@",
"OOX  X      @# XXo  Xo o@+++@$#O",
" X  XX          X  Xoo o@+++#$OX",
"   oooX....    X  Xooo  +##@+O  ",
"  oOOX..XXXXXXXX OOXooX  o      ",
" oOOO   XX.X.X.X++OOoooo        ",
"XX   .  XOoo....++OoOOoo   .XX. ",
"Xooo.  oOO+oooo.oOoOOOooXXXXX..X",
"Xooo  +O@+OOX...XO+++XoooXXX..XX",
"XooXX+O@@OOXX++o +@#  Xo+ooX.XXo",
"XoXX++@@@O+oO++o +$X XXO++XXXXOo",
"Xo o++##@++O++OoX   XXOOO.X.X++O",
"X XO+$$#+++++OOoX   X++O....O++O",
"X O+#$$++++++oOOO  O+++X.X+..XXO",
"X @+#@++oooOOO++OXo@@+OOO++OOOXo",
"XX@@oooOO+++++@@oo@@@++OXXOOOOX.",
"XX+@@@  ++@@+##o +@@+OO+++O+OOo.",
"X      Xo@@+#$O   o+++###+@@OOoo",
"X        @@+OoX  o+++$$#@@@@OoXX",
"XXXo       XXXXo o+@#$$+@@OXXXXX",
"oooX   X   XXXXXooO@##++O   XXoo",
"ooooXX X    oXXXoooo@@OOX   XOoO"
};
