/* XPM */
static char *orange_glazed_terracotta[] = {
/* columns rows colors chars-per-pixel */
"32 32 12 1 ",
"  c #7A2D37",
". c #993037",
"X c #C41511",
"o c #C51612",
"O c #CA3337",
"+ c #F7422E",
"@ c #F8652D",
"# c #B7005F",
"$ c #5A9072",
"% c #FF9000",
"& c #FFB841",
"* c #694B93",
/* pixels */
" OO            ++ .. OO *** ## .",
" @@##OOOO      $$   ++O     ## .",
" @@##OOOOO ++++$$@@&&+#OO+@@@@  ",
"#++     OOO++++@@@@&&##OO+@@@@##",
"#++ ++ @@OO++  ##  ##     ..++##",
"    ++ && O++  ##  ##  ## %%++  ",
"       &&  ++#         ## %%++  ",
".$$@@%%&&  #++    +OO%%   ***.oo",
".$$@@%%&& . +oo  ++OO%%## $$##oo",
"....  @@@ ** o%&&++..++## $$##..",
"...  +@@  *** %&&+...++..    .oo",
"..  @@+   **** %% ...$$.  %%% oo",
".. +@@ oo **** %% ...$$.. %%% ..",
"   +&& oo    %%%%++oo%% .. @@   ",
"   +&&    @@ %%%+@@oo%% .. oo   ",
"+@%%&&%@@+@%%%%$$@@@@%% .. +++++",
"+@%%&&%@@+%%%%%$$%%@@%% .. +++++",
"   +%%#   %% ++@@&&oo%% .. %%   ",
"** +%%#   $$ ++@@&&oo++ .. &&  *",
"** +%%%@@$$$** ++    $$.. &&&  *",
"*** +%%@@$$$** oo    $$. %&&@@ *",
"#++*  oo**** ++++&&%+++ @%% @++#",
"#++*  oo**** ++++&&%+++@@@   ++#",
"*** @@%%%++oo++  &&  ++@@ ** oo*",
"** +@@%%%++oo++  %%  oo   ** oo ",
"  +++##%% ** %%  %%  $$      oo ",
" +++  #%% ** %%##%%  $$   @@@%% ",
" $$    %% .. %%%%@@  ++   @@@%% ",
"#$$#   %% .. %%%%@@  ++   ++ %%#",
"#@@+@@@%% .... @@    @@ooo++%%%#",
" @@+@@@%% .... @@ .. @@Xoo++%%% ",
" OO            ++ .. ##     ## ."
};
