/* XPM */
static char *orange_terracotta[] = {
/* columns rows colors chars-per-pixel */
"32 32 12 1 ",
"  c #BA4B37",
". c #DB5E3F",
"X c #8F3F43",
"o c #8F3F45",
"O c #904044",
"+ c #914045",
"@ c #8F5E42",
"# c #905D41",
"$ c #905F41",
"% c #905F43",
"& c #EC8043",
"* c #6352A5",
/* pixels */
"@$ ...&&&&&&&&....  %@$$*******%",
"$@****%             &&..&&&&&&. ",
"%$  $%%$             ...&&     @",
"%@%%@%$          @@$    &&&     ",
"  %$$$          %%@             ",
"   #$$@          $%%%           ",
"  %%%%          %$%$            ",
"    %            *OOO****$@$%   ",
"$%$%%*********XoOOO*%$ ..&&&&.  ",
"&&&&&&&&&&&&&.... ..&&    &&&&&&",
"  ....     @$$ %%@@$$    &&&    ",
"   ....         %@@@      ...   ",
"  ...          %%$$%     ...    ",
"                $%$$%           ",
"               $%$@$     @**%%  ",
"OOOoO**%$%$      $%@$*****OO***O",
"&&& $$**OXO********XXOOOX***** .",
" &&&&&&&...    ..&&&&&&&&.. %%$%",
"&&&   ...                 $$@%@ ",
" &&&  ....                 % %$%",
"&&&  ....                 %% @% ",
" %%#@@$ ..                 @%%$ ",
"                            %%%%",
"XXOOOOXOOOOO**%$%%  $@**OXOOOOO+",
"$@%% .&&&&&&&.. .    ..&&&&&& %$",
"#$ &&.                     .&&..",
" $$@$%                          ",
"%$$$@    $@@                    ",
"$%%%%$%$%$%                     ",
"$%$$    $%%%$$                %@",
"*********$$@                 %**",
"******OOX+***%@$@$$%@%****O+OO**"
};
