/* XPM */
static char *orange_wool[] = {
/* columns rows colors chars-per-pixel */
"32 32 5 1 ",
"  c #CF4A3A",
". c #F05B39",
"X c #FF6E3A",
"o c #A93F43",
"O c #FF857C",
/* pixels */
". X..XXX. ....ooo ..   .XX.  XXX",
" XX......XX..  o ..XX  .XXXo XXX",
" XX. o .XOX. ..  .OOXo o.XX o...",
"  .    .XX.   ... OX. oo  oo    ",
"X ooo   ..  .XX...XX.oo    oo .X",
"Xo o   . .  XXX...... oo     .XX",
".. XX .OOX. XX. .. ...  ...  .XX",
"..XXX XOXX     ..  .XX..XX..o ..",
"..XX.  XXX..  XX.  XXX.XOX.. oo.",
".  ..o o ... .XX.  XXX.XXX. oo  ",
"    o o XX.......  ...  ...  ...",
" ...   XXX..oo   .. ooo      ...",
".XX. o XX .  oo .XXX. o oXXX... ",
"XXX.ooo .. .oo. XXXX... .XOX..  ",
".XX o o  ....XX..XXX... .XXX.   ",
" ...   .X.. XOX... oo o  ..... o",
" ...X. XXX. XXX .XX. o   ..XX.. ",
"  . .. .XX. .X..XXX..   ..XXX.. ",
" XXX. oo ...   .XXX.... ...XX...",
" XXX.  oo..XX...... ...  .   ...",
" .XX. oo .XXX...   XX.   o o XX.",
" ...   o  XX. o   .XX.    oooXOX",
"  o o    ... oXX o..  ...    .XX",
".oooo .XX.XX  XX. o oXXX.. .XX..",
".. o  OOX.XX.. .. ...XXX...XXX..",
". ....OXX. . .. o X..XXXX...XX .",
".XX...XX. . ...o XXX..XXX.  ... ",
".XXX. .   XX..  XOXX.  XX o.XX..",
".XX. . . XXX.XX..XX...  oo XOX  ",
"o o     .XX.XXX....XXX.  . XX.  ",
".ooo .XX....XXX.  .XOX... .   ..",
"..   XOX..  ...    .XX.....  .XX"
};
