/* XPM */
static char *polished_diorite[] = {
/* columns rows colors chars-per-pixel */
"32 32 12 1 ",
"  c #706090",
". c #8A6A9D",
"X c #578CCD",
"o c #7C9BFF",
"O c #8891D7",
"+ c #8891D8",
"@ c #8891D9",
"# c #8992D8",
"$ c #85B3D9",
"% c #84B4D8",
"& c #86B4D9",
"* c #86B4DA",
/* pixels */
"...XXXXXXXX.....................",
".$$**&&oooXo$o%o*&o%%X$$*%*&ooo.",
".$o#+#OOOoXoo##++#OO%X$o##+OOOo.",
".&OoO#OOOo.oO#OOO#OOo.&O#OOOOOo.",
".oOO@OO@O%XoOOO@@O@O%.oOOO@O@O%.",
".o##+#++#&.o##O++#+#&.o##O+++#&.",
".o@+OO+#+*.o@++OOO#+*.o@++O+#+*.",
".oOO###@O$.oOO+###@O$.oOO+##@O$.",
".oO##+##o* oO#O##+#o*.oO#O###o*.",
".$$o**%$%% $$oo***$%o.$$oo*%$%%.",
"..         .          .       ..",
".$$**&&ooo.$$*%**&oo& $o*%*&ooo.",
".$o#+#OOOoX$###++#OO& $o##+Oooo.",
".&O#O#OOOoX&O#OOO#OO& &O#OOOoOo.",
".oOO++@O+oXoOOO+++O+& oOOO+@Ooo.",
"Xo##+#++#&Xo##O++#+#&.o##O++o#&.",
"Xo##+#++#&Xo##O++#+#&.o##O+++#&.",
"Xo@+OO+#+*Xo@++OOO#+*.o@++O+#+* ",
"XoOO###@O$XoOO+###@O$.%OO+##@O$.",
"XoO##+##o*XoO#O##+#@*.%o#O###o* ",
"X+$o**%$%%.$$oooooo%o.%$oo*%$%% ",
"XXX      ...   .X.XXXX.         ",
"X$$**&&ooo.+$*%**&&&&X$$*%o&ooo.",
".$##+#OOOo.$o##++#OOoX$ooo+OOOo.",
"X&O#O#OOOo.&O#OOO#OOoX&O#OOOOOoX",
".oOO++@O+o.oOOO+++O+oXoOOO+@O+o.",
".oOO@OO@O%.oOOO@@O@O%XoOOO@O@O%X",
".o##+#++#&.o##O++#+#&.o##O+++#&X",
".ooOooo@O$.oOO+###@O$.oOO+##@O$X",
".ooo#o##o*.oO#O##+#o*.oooo###o*X",
".$$o**%$%%.$$oooooo%% $$oo*%$%%X",
"..       ...        .    ..X.XXX"
};
