/* XPM */
static char *prismarine_bricks[] = {
/* columns rows colors chars-per-pixel */
"32 32 19 1 ",
"  c #FF526A",
". c #1FA0FF",
"X c #1FBFFF",
"o c #29D7FF",
"O c #44FFFF",
"+ c #FFBD99",
"@ c #FF93A3",
"# c #ACF0AA",
"$ c #D7FFB9",
"% c #FFF3B9",
"& c #D892FF",
"* c #FF84FD",
"= c #B9FFF4",
"- c #DED3FF",
"; c #CCF8F1",
": c #D9F5F1",
"> c #D7FFF8",
", c #FFE4FE",
"< c white",
/* pixels */
",<<<,o=<==<<=#=<<<<&#::<<<:o,,,,",
",,<<<#=============@:::::::#,,,,",
",,,,,#=======#=====@::::::::,,,,",
",,,,,@=======@=====o:::::::#,,,,",
"++==&@o####o@@@@oooo######o&&#,#",
"o===<<<==#&#:<:#:<<::#oo#:<<<:##",
"o=========&:::::::::::o&::::::::",
"o=========o:::::::::::+&::::::::",
"o#=======#.o::++::::::+&::::::::",
"ooo=oooOO...XXXoooooo**    **&&o",
"<==<<+o><<<<>#o-=<<=o#==##oo*#=<",
"==<<<=>>>>>>>>o-====o#<<<===&===",
"======->>>>>>>&-====o=======o===",
"======o>>>>>>>&-====o=======O===",
"o&&&*&&&**ooo&&&=--oooO========#",
"o&O>><<>*<<<$<$#oo-:::OOoooOOOOo",
"o&>>>>>>#<<$$$$$o:<<<<<<:o#<<<<%",
"%o>>>>>>>$$$$$$$o::::<<::#%<<%%%",
"%O>>>>>>#$$$$$$$&::::::::#%%%%%%",
"%Oo>>>>>o$$$$$$$&::::::::&%%%%%%",
"o&&o@@@@ o###oo&&&oooo***&   ##o",
"<<==o@#;<<<;;#o#<<+o#,,<<<<, =<<",
"=====o;;;;;;;;o;;;;*,,,,,,,,#===",
"=====o;;;;;;;;#;;;;*,,,,,,,,#===",
"=====o;;;;;;;;;;;;;*,,,,,,,,o===",
"=====o;;;;;;;;++++**oo*&&o++oooO",
"oOOO&&#oooo+++++o+:<<<:#o#=<<=OO",
"%%%<<<<%o:<<<<::O:::::::o======O",
"%%%%%%%%#:::::::O:::::::+=======",
"%%%%%%%%#:::::::o:::::::@=======",
"%%%%%%%%&::::OOo&:::::::@=======",
"#o##ooo&&&ooooo&&o&&&o##@@&&oooo"
};
