/* XPM */
static char *red_nether_bricks[] = {
/* columns rows colors chars-per-pixel */
"32 32 10 1 ",
"  c #48222A",
". c #53282A",
"X c #602539",
"o c #70233D",
"O c #77253F",
"+ c #6D3934",
"@ c #83233E",
"# c #872B46",
"$ c #963046",
"% c #963055",
/* pixels */
"$$@OO@$$$$Oo@$$$$$@.O@$$$$$O.O@$",
"@@@@@@@@++@o@@@@@@@X@@@@@@@@X@@@",
"@@@@@@@@++@o@@O@@@@X@@@@@@@@X@@@",
"@@@@X@@@++@o@@OO@@@XO@@@@@@@X@@@",
"XXXXX.  XoooooXXX...XX..XXX#X..X",
"$$$@@@X.O#$$$$X#$$$$#O.######O.O",
"@@@OXXO.####$$X#######X#######.$",
"@@@OXXOX######X#######X#######X$",
"%%$$@@@XOOOOOOO##OO#OOXOOOOO##X%",
"X     XXXX...XXXXXX   XXX.   XXX",
"$$@ #$$$$$@.+$$$#+XX@$$$$@O.O@$$",
"@@OX$$$$$$$X@@####XX$$@@@@@X@@@@",
"XXoX$oo@@##@@@####XX@OO@OO@X@@Oo",
".XoX#oo@@##@@@@@##@@@OOOO+@XoXX.",
"ooOX####$$#o@@@@##o@@@$$$$@XOOoo",
"ooXXXX....  XX  XoXXXooX...XXooo",
"o$$$$$o.O#$$$#oXo$$$$$$O.o@$$@OX",
"@@@@@$$o#######o@$$@$@@@X@@@@@@X",
"@@@@$$@o#######o@@@@@@@@X@@@@@$O",
"OOOOO@@X#######o@@@@@@@@X@@$$$$O",
"XXoooooXXX.   OOO@@@@OOXXXXX..XX",
"$$#oO@%%%%%OO#$$$$$$O@$$$$$O.O@$",
"@@@o$@@@@@$$O$####$$O##@@@$OXOOO",
"OOOO@@@@@@o@O#######O###@@@OXOOO",
"OOOO@@oooo@@O#OOOOO#X@###@@OXXXX",
"@@OO@@@oooo@X###OOOOX##$$$@OXXO@",
".XXXXoooooooXXOOOOOO.....XXXXXX.",
".o%%%%%oX@$$$$$$@O@$$$$@.@$$$$@O",
"X%%%%%%%@@@OOOOO@@@OOOO@X$@@OOX@",
"X#@@@@@#@@@@@@XX@@OOOOOO.$@@OOX@",
"X#@@@++#X@@@@OO@@@OOOOOO.$$$$OO@",
"oooooXXXXoooXXXX.....XXO..   Xoo"
};
