/* XPM */
static char *red_sand[] = {
/* columns rows colors chars-per-pixel */
"32 32 9 1 ",
"  c #B73850",
". c #BA5165",
"X c #D06359",
"o c #D16359",
"O c #D16459",
"+ c #D1645A",
"@ c #E8634E",
"# c #FF6155",
"$ c #C6576F",
/* pixels */
"O+O+..++@@@##@O  ..X++XX+o....o+",
"++@@@@@@@@##@oX+  ..++X...$$$+OX",
"@@@@XX+X@@@@@+X  ..$$$...$$$++O@",
"+@@@@++@@@@@@++.....$$$...$$$++o",
"@@@@+oO+@###O  ..$$XXO..X@@@X++@",
"@@@@@++o+@##+X  .+++X+..+OO++XX+",
"@@++OOX+@##@@$$  .+o@@@X+O+O+X@@",
"@@@++@@@@@#..$  .$$$+@@@o+@@@+X@",
"+++O++###@..$$$$$$$$$+XX@@@@O+$$",
"$$$+@###@@+$$$O$$$$++X+++@@@@X+$",
"$$XOO+###@o..XXO@@XOoXXo+++X+$$$",
"@@@+@##@++..OX$$$XO++@@@X+@@@@++",
"@@+@@@@@@X+ ..$$$$$+++@@@++++o+@",
"@@@@###+o.....OXO++@@@@X+o...O++",
"o@@@@### ....X$$$$++@@@@+..++X+X",
"X@@@@@@+..+++++$$$$++XXX++....++",
"++@@##X. ...$$$$..OXO++@@@@+++@@",
"@@####@   .o+XX$$...+o@@@@+OO@@@",
"@@@##+.  ...+@@+...+++X@@@@@oXX@",
"@###@OO...+X$$$$o@@o++++@@o+X@@@",
"@@@+  ..$$$$X+$$$$$$XO+O+@@####@",
"@@@X+....X$$$$$$$@@@XOXoX@@@@###",
"@.  ....$+O+XX$$$$@@@+@@@@@####@",
"   .Xo...+$$X@@@+@@@+X+O##@@@@oX",
"+ ...$$$OXoXX+@@@o+X@@###@@@@@@+",
"...+++OX+Xo+O@@@XX@@@@@###@@@@X.",
"+$$+@@@@@X+O+X@@###@@OX+++@@@@@@",
".$$$$o@@@X+O@@@@@###oX..   ..+  ",
"$$$$+@@@+Xo@@@@####@@o+..   .  .",
"+X$$$$++o@@@@@##@@  .  ........o",
"X+XX..OX@@@###@o+++  .$$$$.....+",
"O@@OO..+@#####@@X.  ..Xo+o+....."
};
