/* XPM */
static char *red_glazed_terracotta[] = {
/* columns rows colors chars-per-pixel */
"32 32 7 1 ",
"  c #7F2B4F",
". c #AF1634",
"X c #ED622F",
"o c #E21841",
"O c #FF687C",
"+ c #694B93",
"@ c #9853A9",
/* pixels */
"X.....OOO ..OO....OO..@ oo....XX",
"Xo..oo.OOX  OO.XX.  .oo@ooo@@++X",
"oooooXX XXoooo XXXXXooo@.ooooo++",
".oXXoXXX ooooo XXXXXoooo..ooooo+",
".XXX..XX...oo@@oo.XX..ooo+   ooo",
"XOO  ooo@@.OOOOOO.oo.+ ooXXX +oo",
"XOO+ooo @XXOOOOOO.OOXX  XXXXX+XX",
".+++oo  oXXo.. +++OOXXo +..XX.XX",
"oo@oo  ooo  oo oo oo.ooo++.  ...",
"oo.oo ooooo XX.oo++...ooo+.ooXX.",
"XXoo..oo.oo.OOOoooXX...oo..ooXX ",
"XXoo.ooo...oOOOoooXXo...oo.oo   ",
"  oo.oo.XXooo...  @ooo+oooOOO oo",
"..OOOoo.XXoo..OOoo@@oo+oooOOO oo",
"..OOOoo++ oo.OOOooo@OO+.oo.++ ..",
" oXX.ooXX oooOO..oo.OOXXoooXX.oo",
" oXX.ooXX ooooo.+oo.OOXXoooXX.oo",
" .oo.   . oo.ooo+OOOOO++@@.oo.  ",
"..ooOO OO.oo..oo@OOOOO.oo..XXooo",
".+ooOO OO.ooo...   ...@oo+.XXooo",
" +++XX XX..oooOOO XXoo@oo+.XX.+ ",
" OO XX.XXX.@ooOOO.XXoooo. oOOo..",
" OO oo..XXo@  @OO....ooo  XOOoo.",
" XX ooo..ooooo@oooXX.@@  oXX+ooo",
".XX  ooo  oooo..ooXX....ooo++.oo",
".XXX  oOO   OO...  @@..ooo  OOOo",
" .XXo..OO . OOO.. oo@XXoo  XOOOo",
" ..oo.OOO....OOO..oo.XX.++XXX.  ",
"XX.oo OOOO.++.OOooXX.oo..oXX.XXX",
"XXooo  .OOo+oo+oooXX.oo.ooo oXXX",
".oooo....oo oo+oo.   oo@oo ooo..",
"..ooo.OO..  OO.oo.OO oo oo.oo.XX"
};
