/* XPM */
static char *redstone_block[] = {
/* columns rows colors chars-per-pixel */
"32 32 7 1 ",
"  c #67003B",
". c #560055",
"X c #87003D",
"o c #B41333",
"O c #E12829",
"+ c #A0004A",
"@ c #FF3274",
/* pixels */
"...OO@@..O.oOO @@ OOo.O..@@OO...",
"@@.OO@@o...oo+ OO Xoo...o@@OO.oo",
"@@.oo oo.O.@@......@@.O.oo oo.oo",
"...oo ++...@@......@@...++ oo...",
"OOO...oo.oOO@@.OO.@@OOo.oo...OOO",
"OOOo..ooo++++O.OO.O++++ooo..oOOO",
"..oo+.OOXX.   .++.   .XXOO.+oo..",
"O+.++.OOX..oOO.++.OOo..XOO.++.+O",
"OO.++.  .@.XOO.XX.OOX.O.  .++.OO",
"OO.++.@@....oo ++ oo....@@.++.OO",
"O+.oo.@@X..ooo    ooo..X@@.oo.+O",
"..@@o..Oo.+oo +OO+ oo+.oO..oOO..",
"oo@@...oo.OX+ OOOO +XO.oo...OOoo",
"ooo.......O+o OOOO o+O.......ooo",
"X..  @@...ooo XOOX ooo...@@  ..X",
"oOO  @@O...oOO    OOo...O@@  OOo",
"oOO  .OOO...O@@  @@O...OOO.  OOo",
".oo++..OOOOoo@@  @@ooOOOO..++@@.",
".oo+++..OOO++      ++OOO..X++@@.",
"... +++..OO   o@@O   OO..XXX ...",
"O..  +++.OO OOOOOO@@ OO.XXX  ..O",
"O..  .oo.   OOOOOO@@   .oo.  ..O",
"..ooX.oOO@@+++.++.+++@@OOo.+++..",
".OOoX.XOO@@+++.++.+++@@OO..+++o.",
".OO...  ....OO.OO.OO....  ...oo.",
".oo..XX .OO OOXOOXOO OO. XX..@@.",
".ooooXX.OOO OO+OOo@@ OOo.X++O@@.",
"..oooX..OO  OO+OOo@@ .oo..++OO..",
"o.......@@  oo.oo.@@  oo.......o",
"o..oo.+.@@@ooo.oo.@@OXoo.+.oo..o",
"o..XX....@@oo..XX..OOXX....XX..o",
"o..XX..........XX..........XX..o"
};
