/* XPM */
static char *sand[] = {
/* columns rows colors chars-per-pixel */
"32 32 6 1 ",
"  c #E79867",
". c #E69969",
"X c #E0A468",
"o c #E2B26A",
"O c #F2B587",
"+ c #ECC98D",
/* pixels */
"ooOo+O+OOOOXX ooOOOOooOooXXXoXoo",
"ooOO++oXXXOoXXXooOOoOOOO+oooXooo",
"oOOOo+ooXXXXooooooooooO++o+XXXXo",
"OOooooooo XXoooOoooooOO+o+oo ooo",
"o+OOoooX  ooooOOOooooooooooo  oo",
"+o+ooOo++XXooooOOOoXXXXXooooo oo",
"ooooooO+++ooooOOOO+OXXXXoooooooo",
"ooXXXXoO+OOOoOOOoO+++XXXooOOOOoo",
"oooXXXooOOOo oXXOoo+o++ooOOOoooo",
"ooXXoooooOOOoXXooOoooo+oooOOXooo",
"oOoo OooOOoooooXXoo..ooooOOXXXoo",
"oOOOOoOooooooooooo..ooooooOOXXXo",
"XOOOo++ooooooOOooooooooooooXXXXo",
"XoOO++oXXXXOOOooXOOOOOXXXoXXXoXX",
"OOO+++XXXoooOOOoooOOoXXXoooXXX++",
"ooOOOooXXXooooooooo+OoXXXoo++++O",
"ooooooXXooooO+Oooo+++XXooooo+o+O",
"OooooooXXooooOOXXXo++oOOoooooooo",
"ooooOOOoooOO++XXXooooo++OOoooooo",
"XXXooOooooo++OOXXXoooOO++oooooXX",
"XoOOOooo..oooXXXooooooO+OOOo.ooX",
"XXo++OOOo.oooooXXXoooOOOoooooooo",
"oO++oooooOOoOoOOoooooOOooXXXoooo",
"OO+XXoooooooOOOoooooOOooooXXXooO",
"oOOXXXXoooooOoOOOo ooooXXXXooooo",
"ooXXXXooooooooOOoOoooOOoXXXX+ooo",
"oooXXXXXoOooO++XXXoooOOOO+o+++oo",
"ooXXXooOOOOo++XOXXXXXoOOo+++O+oo",
"oooO++OOoOOoo++XXOooooXXoo+OOOoo",
"oooO+OOoooooXXXXXXooooooooooOOOo",
"oooOoOooooooooXXXXXoooooooOOO  o",
"ooo..oOOOOOooooooooooooooooXXO o"
};
