/* XPM */
static char *sandstone_top[] = {
/* columns rows colors chars-per-pixel */
"32 32 6 1 ",
"  c #D39269",
". c #D49F73",
"X c #DAA879",
"o c #EBBA6E",
"O c #CA7C98",
"+ c #E8A681",
/* pixels */
"Xooo+X..O.++ooooooooooo+o+++ooo+",
"oo++XX....XXXXXX+++++++XXXXX+ooo",
"o+X++++++++X+++X++XXXXX+++++XX+o",
"o++++++X+++X+++X++XX XX++X+++X+o",
".X++XX...XX+++.    ..... XX++++o",
"..XXX ...XX+++.    ......+++++XX",
"X.XX   ... X++..  O  ....++X++XX",
"X.    .... X++..     .XX X++++XX",
"X.    ..+++X          XXX ++X++o",
"..    ..+++X           ++ XXX++o",
".......X +++X.       XX+  XXXXX+",
"..  ..  ++++X.       XX++ XXXX..",
"XXXX.. O++        ...XXXX XX....",
"XXX+   O          .....XX XX....",
"+X++               ....   XX....",
"o+XX             ....     ..  ..",
"oXXXO            ....     ..  ..",
"oX  O            ..       ..  X+",
"oX  ..          OO   XX   .. XXo",
"oX  ..   ...         XX  OO  X+o",
"oX  ..XX ...         ++XX .. X+o",
"o+...XXX  ...      X+++++ ..XX+o",
"o+...X++X ...      X++ ++ ..XX++",
"XX....+++++X         ...X ..XXX+",
"  X..XX++++XO        ...  ..XX +",
"  ++++++XXX O              .XX X",
"+ ++++++XXX               .XXX X",
"+X+++++XXXXX+++X..       .X++XXX",
"o+XX+++...XX+++X..    .X++oo+XXo",
"oo+Xo+X...XX     .X+++XX++ooXXXo",
"+ooooo++++XX     .X+XX    X++ooo",
"X+oooooooo+     OO      +++ooooX"
};
