/* XPM */
static char *soul_soil[] = {
/* columns rows colors chars-per-pixel */
"32 32 7 1 ",
"  c #443574",
". c #7C3163",
"X c #6D4864",
"o c #7D32A9",
"O c #544486",
"+ c #7A49AA",
"@ c #6D59C6",
/* pixels */
"XX+X@+@++++OO.XX++++XX+XXOOOXOXX",
"XX++@@XO O+XOOOXX++X++++@XXXOXXX",
"X+++X@XXOOOOXXXXXXXXXX+@@X@OOOOX",
"++XXXXXXX.OOXXX+XXXXX++@X@XX.XXX",
"X@++XXXO..XXXX+++XXXXXXXXXXX..XX",
"@X@XX+X@@OOXXXX+++XOOOOOXXXXX.XX",
"XXXXXX+@@@XXXX++++@+O OOXXXXXXXX",
"XXOOOOX+@+++X+++X+@@@  OXX++++XX",
"XXX  OXX+++X.X O+XX@X@@XX+++XXXX",
"XXOOXXXXX+++XOOXX+XXXX@XXX++OXXX",
"X+XX.+XX++XXXXXOOXXooXXXX++  OXX",
"X++++X+XXXXXXXXXXXooXXXXXX++  OX",
"O+++X@@XXXXXX++XXXXXXXXXXXX  OOX",
"OX++@@X  OO+++XXO+++++  OXOOOXOO",
"+++@@@  OXXX+++XXX++X  OXXXOOO@@",
"XX+++XXOOOXXXXXXXXX@+XOOOXX@@@@+",
"XXXXXXOOXXXX+@+XXX@@@OOXXXXX@X@+",
"+XXXXXXOOXXXX++OOOX@@X++XXXXXXXX",
"XXXX+++XXX++@@OOOXXXXX@@++XXXXXX",
"OOOXX+XXXXX@@++OOOXXX++@@XXXXXOO",
"OX+++XXXooXXXOOOXXXXXX+@+++XoXXO",
"OOX@@+++XoXXXXXOOOXXX+++XXXXXXXX",
"X+@@XXXXX++X+X++XXXXX++XXOOOXXXX",
"++@O XXXXXXX+++XXXXX++XXXXOOOXX+",
"X++  OOXXXXX+X+++X.XXXXOO  XXXXX",
"XXOOOOXXXXXXXX++X+XXX++X  OO@XXX",
"XXXOOOOOX+XX+@@OOOXXX++++@X@@@XX",
"XXOOOXX++++X@@O+  OOOX++X@@@+@XX",
"XXX+@@++X++XX@@  +XXXXOOXX@+++XX",
"XXX+@++XXXXXOOOOOOXXXXXXXXXX+++X",
"XXX+X+XXXXXXXXOOOOOXXXXXXX+++..X",
"XXXooX+++++XXXXXXXXXXXXXXXXOO+.X"
};
