/* XPM */
static char *spruce_log_top[] = {
/* columns rows colors chars-per-pixel */
"32 32 21 1 ",
"  c #25212B",
". c #5D343D",
"X c #5D343E",
"o c #5F343E",
"O c #5F353E",
"+ c #36314F",
"@ c #4C3446",
"# c #4C3447",
"$ c #4D3447",
"% c #4D3547",
"& c #413872",
"* c #5B4244",
"= c #5B4245",
"- c #5C4245",
"; c #5C4345",
": c #62414E",
"> c #62414F",
", c #63414F",
"< c #63424F",
"1 c #6A5458",
"2 c #674787",
/* pixels */
"><o O&&O+O&&+:o<+:O&+O&O &OO +oO",
"<OO&.&&O+&   &&O+OO&+&&&+&&. &&O",
"+OO+  +++++++            +&&+&&+",
"&&+  #;*;<<,>OXXOO<*2112%#  +OO ",
"o&  %*#$;22221111;:<<<*222;  O<<",
"X& +%%;222;%%%%;211122*%#;2; &><",
"+  %%;;;#@*22211112;;222;#;2%+++",
"O +$*;;%22;2;$%%;1112*;222#;* &O",
"& +#2;$22*%#;222;##;221**22%; &O",
"& +#2=-2;%;222111112#;11%;22* &O",
" ++#2%*;#;*;%%##%%;22;%22%;2% ++",
".&+%2%;;*;%;221111;%11;%2%%2# O&",
":&+%2%;#;%;22%#;;12#%1;%;;#2# X<",
">&+;2%2%;%;;;*211*%22%-;$2%2# X<",
"<&+;2;2%;%;%2%%**2;;1;;2%2#2@ + ",
">&+;1*2$;#2O2%21#22%1;$2%2%2$ &O",
"XX *1;1%;X1X;#%%%22%1;%2#2%;; &O",
"O+ 21;1O;&1&;;2112%;1%#2%2#2% OO",
"++ 21*2&2&2O#*;;*%%22%;2%*%*%+++",
"&+ 21%2&2.;;;%%%;;22#%22%2%2#+&O",
"&+ 21%;%2*#&;222222%#22;#2%;%+&:",
".  22O;;22;&O*;22;%%222%%2#2#+&<",
"+  22Oo;%2222;%%%;;;22##2;%2%  +",
"& +;2;&;*;#;222222*;%$%22%%2- &O",
"O +.22&&#;;;%%;;;%%#%*22##2*;+&&",
"o +.O22;#&;222222;**;;2%%22%;+XO",
"o&+<OO*;*;OO%;;;#%#%#%#;22#;%+ +",
" && ;%O#-;;;22222;;;;**;$%=%   +",
"&OO  ;;OoOOOOOO%%%%%%%%#%%+  +++",
"+OO+       ++++            ++&&+",
"<+&&O+O&&  &&&+.&+O&O+OO&&O&.&O.",
"><O O&<<&++OOO+>< o&O O&&.&O.+OX"
};
