/* XPM */
static char *stone[] = {
/* columns rows colors chars-per-pixel */
"32 32 7 1 ",
"  c #7D8FE7",
". c #74B1E2",
"X c #8BBDD2",
"o c #97C6CC",
"O c #AAC4C0",
"+ c #B6D3CE",
"@ c #BFDCE0",
/* pixels */
"ooo+@@O+@@@+o@@@Oo@@@@.OOO@@+++o",
"ooO@@@++@@@++oOOo@@@@@OOOX@@+++O",
"OOO@@+++@@++++XO+@@@@@OOOXXX@@@+",
"OO+++++OO+++++XO+@@@@+OOOOXX@@@@",
"OO+++X..OO++++XO+++++oOO@@OX@@@@",
"XO+++XOo@@@+++OOo+++o@@+@@@XO@@@",
".OX+@@@@@@@o++O++XXo+@@@+@@O..  ",
"OOo@@@@@@@@+oO+++ooo++@@+++o..  ",
"OO@@@@+@@@++++++oooo++++O++oOXXO",
"OO@@@@++++++++OOoooO++++OOO@@@oO",
"OO@@@++++++o+oXXOOOOO+oOOO+@@@@O",
"oo+++++++++O..X@@@@@O...OO++@@@X",
"oo+++++O+++oOO@@@@@@+..OOO+++++O",
"ooo++++X++++OO@@@++++O..OO+++++O",
"ooOO@@+OOO++oO++++++@@@oOO++++o.",
"ooOO@@OOO@@@+O++++++@@@@OOOo++ .",
"OOOO++.OO@@@+Oo++++++@@@Oo@@O. O",
"Oo++OX.OO+@@@..Oo+++++++O@@@oOOO",
"o@@@oOOOO+@@@.   .o+++++O@@++OOX",
"@@@@@@+OO++OOO   .o++oXXO++++OOX",
"@@@@@@++oo@@@@+OOO+++XXOO+++oOOX",
"@@@+++++o@@@@@@@oO+@@@O++++++OOO",
"O++++++O+@@@@@@@+oO@@@+++++@@@oO",
"Oo+++++O+++++@@++oOo@@++++@@@@+O",
"OOXXo++O+++++++++o+++++++O@@@@+o",
"o++ooOOO.  .@@@++O@@@+o++O@@@+++",
"@@@oooOOX  o@@@+OO@@@OO..O++++++",
"@@@++oOOO O+++++OO+@@+++OOO+++++",
"+++++oOOO.++++++OO++++++OO++++++",
"XX++++OOOX+o@@@+OOOo++++..+++@@+",
"OX++++O++O+O@@@@OOOO+++  .+++@@@",
"oo+++oO++@@o@@@@OOOOOX.  O++++@@"
};
