/* XPM */
static char *stripped_birch_log[] = {
/* columns rows colors chars-per-pixel */
"32 32 11 1 ",
"  c #6D3D61",
". c #53516A",
"X c #973D61",
"o c #946265",
"O c #A76969",
"+ c #907980",
"@ c #9853A9",
"# c #C27A8E",
"$ c #C19088",
"% c #CAA4B3",
"& c #CCB9B3",
/* pixels */
"++ooOOO###$$%&&&&&&%$$###OOOoo++",
"++ooOOO###$$%&&&&&%%$$###OOOoo++",
"+OOoOO#%%$$%%&&&&&&&&%$%%##OoOOO",
"....O     $XXXX@&@XXXX#XX   o...",
".  .#   XX%X@@@@&@@@@X#XX   o   ",
".#...  #XXXX@&@@@@@&XXXXX#  .  +",
".+...  %XXXX@%@@@@@&XXXXXO  ...+",
"+++#$$O%%$$%%&&&&&%%%%%%#OO##O++",
"++ooOOO###$%%&&&&&%%%$###OOOoo++",
"++ooOOOO##$%%&&&&&&%$$###OOOOo++",
"++ooOOO###$%%%&&&&&$%$###OOOOo++",
"++ooOOOO##$$%%&&&&&%$$###OOOoo++",
"++ooOOO###$$%%&&&&&%%$###OOOoo++",
"++ooOOO###$$%%%&&&&%$$###OOOoo++",
"++ooOOO###$$%%%&&&&%$$###OOOoo++",
"++ooOOO###$$%&%&&&&%$$###OOOoo++",
"++ooOOO###$$%&&&&&%%$$###OOOoo++",
"++ooOOO###$$%&&&&&%%$$###OOOoo++",
"OOOoO##%%$%&&&&&&&&%%$$%%#OOoOO+",
"...o   XX#XXXX@&@XXXX$     O....",
"   o   XX#X@@@@&@@@@X%XX   #.  .",
"+  .  #XXXXX&@@@@@&@XXXX#  ...#.",
"+...  OXXXXX&@@@@@%@XXXX%  ...+.",
"++O##OO#%%%%%%&&&&&%%$$%%O$$#+++",
"+++oOOO###$$%%&&&&&%%$###OOOoo++",
"++oOOOOO##$$%&&&&&&%$$###OOOoo++",
"+++oOOO###$$%&&&&&&%$$###OOOoo++",
"+++OOOOO##$$%&&&&%&%$$##OOOOoo++",
"++ooOOO###$%%%&&&&%%$$###OOOoo++",
"+++oOOO###$%%&&&&&&%$$###OOOo+++",
"++ooOOO###$%%&&&&&&%$$###OOOoo++",
"++ooOOO###$%%&&&&&&%$$###OOOo+++"
};
