/* XPM */
static char *stripped_spruce_log[] = {
/* columns rows colors chars-per-pixel */
"32 32 12 1 ",
"  c #241F2C",
". c #262643",
"X c #523149",
"o c #51304B",
"O c #52314B",
"+ c #4B2653",
"@ c #634043",
"# c #634044",
"$ c #644144",
"% c #735359",
"& c #946454",
"* c #714388",
/* pixels */
"..++++oO$$**%%%&%%%%**$$oo++++..",
"..++++XX@$**%&&&&%%%**$$XX++++..",
"..++++XX@$**%&&&&&%%**$$XX++++..",
"..++++X@$$**&&&&%%&&%*$$OX++++..",
"..++++***&&*%+oo+&&%%&&&&*++++..",
"..+++...+o**o$$$$$o+%&O......+..",
"..++...+++*%o$$$$$$o%*++.. ..+..",
"..++.  +++*%$$+&&&$o%*++.$$..+..",
"  .+. $$++*%$$+&&&$o%*+++$$..+..",
"   .. $$++oo$$+%&&$$oo++.o+..+..",
"   ...X$++oo$$o&%%$$oo++.XX..  .",
"..++++X$o+++++o%%%$o++++.XX+.  .",
"..++++oX$$***%%&&&&&&*$%%X++++..",
"..++++Xo$$***%&&&%%%**$$XX++++..",
"..++++XX$$***%%&&&%%**$@Xo++++..",
"..++++oX$@**%&&&%%%%***$XX++++..",
"..++++XX$$**%%%&&%%%%**$XX++++..",
"..++++Xo@@**%%&&&&%%***$OX++++..",
"..++++X$$$*%%&&&&&&%%*@$XX++++..",
"..++++o$$@**%%&&%%%%***$Xo++++..",
"..+XX##&&%%*&&&&&%%%%%%%$$++++..",
"..+X.  ..*%*ooooooo%%o+.. .+++..",
"..+X.. .++$*o$$$$$o&&o++....++..",
"..+X..++++%&$$$%%$$&&o++*$..++..",
".+X+..$$++++$$$&&$$+$o+$$$..+$+.",
".   ..oX++o$$$%&&X$ooo+$X$..    ",
".   ..Xo++o$$$&&&%$oooX$X$..    ",
"..++$$$X$$*%%%%%&&&&&**$X***++..",
"...+++XX$**%%&&&&&&%**$$XX+++...",
"...+++XX$**%%%%&&&%%**$$XX+++...",
"..++++Xo$@*%%%%&&&%%**$$oX++++..",
"..++++XX$@*%%&&&&%%%**$$oX+++..."
};
