/* XPM */
static char *stripped_oak_log[] = {
/* columns rows colors chars-per-pixel */
"32 32 24 1 ",
"  c #643827",
". c #733F2E",
"X c #743F2E",
"o c #74402E",
"O c #74402F",
"+ c #34354B",
"@ c #834A39",
"# c #844A39",
"$ c #844B39",
"% c #844B3A",
"& c #925545",
"* c #935545",
"= c #935745",
"- c #935746",
"; c #A87150",
": c #A97150",
"> c #A97250",
", c #A97251",
"< c #B7896C",
"1 c #B88A6C",
"2 c #B88A6D",
"3 c #CA986A",
"4 c #CA986B",
"5 c #CB996B",
/* pixels */
"$$OOo$&->,;22555535<2,>;--$%oO$$",
"$$%O%$-->,>113155551<;>,=&@%%%$$",
"$$%OO@&,>;,1<11551251;;>&-%oo$--",
" $O.O@=&>:>2255<11552<>>-=%OO% +",
"+==%%o-=>55511<22155551>&&$%%$++",
"++==%#=*551155555555oo11&=%o- ++",
" ++==O=15   5551155o;& >--%-.++ ",
"    =%>>  &##>5255o;### >-&-+  +",
"$+  %>>o &;;;#555o&&55## 1:    $",
"$=+ ++o#####;;#1&&&5511oo++   $$",
"$==   oo#555#&  &&5<1>1 o    --$",
"$$=   oo11,55&&&&<211>>>    --$$",
"$$OO  o=,>><55&&555<1>>>>  $$O$$",
"$$XO% =,,>,<<55515511:>>>>-$Oo$$",
"$$Ooo,,,>>>2<1511151;,>>--$OoO$$",
"$$Oo%@-->>>21515555122>,--%%o%$$",
"$$o.O$&=,>,115515455<1;>=&@Ooo$$",
"$$%O%$-&>;>21551155121>,=&$..%$$",
"$$% -@-,>>>1552122551>;>-*@OOO$$",
"$$$->-->>;>12555555112>>>>-%O$$$",
"$$->  >=;>>14555  55>,,;11>-o$$$",
"$=-    >>>>>>>5&&  51;,>o +--%$$",
"=>+     11>215&;;; #111o   O-%$$",
"=$++O-   11>1&;;&&&#-;-  - +O-$$",
"$+++::%   11&&;&;;&&#-o >>O +>-$",
" ++:==:=    #&#555;##ooo-&> ++-$",
"++==O%*:=o ###52<25##oo1--&&++++",
"+o=O.-&=1####2525551oo11&-$&>+++",
"o=OoX%&&:1##55554552551>&=%O>>+ ",
"$$$oX$==>>111211511<2>>-%Oooo>$$",
"$$OoO%-=>>><4551121<>,,>--%O.o$$",
"$$$OO%-=>>>2552155511;,>--%Oo$$$"
};
