/* XPM */
static char *stripped_acacia_log[] = {
/* columns rows colors chars-per-pixel */
"32 32 27 1 ",
"  c #7F1F32",
". c #7F1F33",
"X c #36374F",
"o c #74354C",
"O c #75354C",
"+ c #75364C",
"@ c #643153",
"# c #453C7E",
"$ c #7D2F63",
"% c #801F33",
"& c #802033",
"* c #8B2C43",
"= c #8B2C44",
"- c #8C2C44",
"; c #8C2D44",
": c #9E2B4D",
"> c #A54944",
", c #A64944",
"< c #A64A44",
"1 c #A64A45",
"2 c #A96C6C",
"3 c #C24353",
"4 c #C24355",
"5 c #C34355",
"6 c #C34455",
"7 c #AA958D",
"8 c #C2C2A4",
/* pixels */
"  @@+&;;-:::>563366>:::;;& +@@  ",
"  @@o&&-;:::1463351>:::;;%.+@@  ",
"  @@+&;;;:::15133651>:::-%.+@@  ",
"  @@+ %=;:::133333411:::-  +@@  ",
"  @@@&;=-:::>64336111::;*%&+@@  ",
": @@+&&=11133333331,,:1331::*:  ",
"X@@22%;##XXXXXXX#:387:;XXXXXXXXX",
"XX 22%#$$$$$$$$$$#188:##@@@@XXXX",
"XX@:::@$$$:1,:$$$$:33:##@@&o@@XX",
"XXXX@@@@$#:786$$$$XXX$$$##%22@XX",
"XXXX@@@@##:881$XX$$$$$$$##&22@XX",
"  @:::111::$$333331111111:&XX@: ",
"  @@O%&=:::111133331:::;;%&+@@  ",
"  @@+&&;=::::1333311:::-;%%+@@  ",
"  @@+ &;:::115663611:::*;&&o@@  ",
"  @@+ .==::1165555611::;=% +@@  ",
"  @@O.%;::::15545651:::;-&.+@@  ",
"  @@+&;;;::1166354311::;;.%+@@  ",
"  @@+ .-;:::11663611:::-=;%+@@  ",
"  @@O%;;;:::11166661:::=- %o@@  ",
"  @@+&;--::116666111:::=-;.+@@  ",
" ----11111:::>16666666<<<&%+@@++",
"XXXXXXX##;1871$#@XXXXX###@&22@XX",
"XXXX@@@#$$:886#$$$$$$$$$##.22@XX",
"XX @+%##$$:66,$$$$>>1:$$##%::@XX",
"XX@22&##$$$$$$$$$$578:$##@@@XXXX",
"X@ 22%##$$$$$$$$$$688:###@@@XXXX",
"   XX&&111166666666$$::111::::  ",
"  @@O&%-=::11,666511:::--.%+@@  ",
"   @o.%=:::>1666653>::::;&&+@   ",
"  @@+.%==::164666631:::-;&%+@@  ",
"  @@+ .;;::115666661:::;;&.+@   "
};
