/* XPM */
static char *stripped_oak_log_top[] = {
/* columns rows colors chars-per-pixel */
"32 32 39 1 ",
"  c #3C291C",
". c #3D2A1C",
"X c #3D2A1D",
"o c #513223",
"O c #523223",
"+ c #523323",
"@ c #523324",
"# c #6D3F2F",
"$ c #6E3F2F",
"% c #6E402F",
"& c #6E4030",
"* c #7C4A3A",
"= c #7A5E5F",
"- c #7A5E60",
"; c #7B5E60",
": c #7B5F60",
"> c #895345",
", c #8A5345",
"< c #8A5445",
"1 c #8A5446",
"2 c #9F6B4E",
"3 c #A06B4E",
"4 c #A06C4E",
"5 c #A06C4F",
"6 c #967374",
"7 c #967375",
"8 c #977375",
"9 c #977475",
"0 c #AF8167",
"q c #B08167",
"w c #B08267",
"e c #B08268",
"r c #B58673",
"t c #B68673",
"y c #B68773",
"u c #B68774",
"i c #CC975C",
"p c #CD985C",
"a c #CD985D",
/* pixels */
"**42,455::42442yuuyuy3#544544<**",
"*&4435:::::51124yyurru154425441*",
"%>>441:=:o+@@%+.XXX.@,<&:::5444&",
"%441::::&-=::99:.XX:=:::ru4::44<",
"145=::%:9yryuaaa:. uru9=:<ur::55",
"1<><::6u79=:9999:X+99tyu6=:ur::>",
"<>@1@.y=9uyuu996r@%r6:99uu::ru:2",
"><+o6%Ouyr96::::i@#6699=:r9=#r<<",
">1@%ur9$u98uruapi%=r:999:=u9:uu5",
"45o6u:uu=ru9::==a%9ur:9yu:yu=1y4",
"34+999yryr:::9uuu&uuyy96r68y9<r5",
"44@9:uu9u;=9y69=y%uy:9r6uu-u9%y4",
"44+u=u6u=:uu:::9r#:uu:9y9r9&@@y4",
"4119:u9r:yy69u99u:y=y999&%++@@55",
"2>1::69a:y6676::::9r9y:u9p:9y#24",
"41>=69ra7u6u9uy99=:p:y:a9a:9u+52",
"4<>=96ta9u:9:y9pp9:a:p9p9p=9yo55",
"41<o#uypyu:9:9paa9:a:p6a9p:96&24",
"4<1.Xoo%&::u=::::9pa=a6a9i:u9@54",
"441:yaup:9:=yryuppa:aa6iua:u9+44",
"42X::p9y:99::::::69apu:a9p:y6042",
"24ou:py669969696yapay:9r6u:#ow:4",
"42+9:yu7u::999uuyyp::9u69u:y=e=4",
"24+6:6u=uy::99:==6poyu99y9:y<q:0",
"45+169y=:uupaurryuruu=:ru=:9<w=e",
"454+r=6u::99966===986uyr=:u<w<:w",
"42w1<y:9uuipauyyyrryuy9=:91we::0",
"544w1,u::::69699=::6869uy>ew4=0e",
"1e44e0119yappaaaaaryru6::w04:005",
"&we44ee0,11>9999::::::9we4=5we51",
"*1ww45541w2wwwweewww5w445ew41%1#",
"**#>4ww0w5w0weeewew402w4254%&>1*"
};
