/* XPM */
static char *warped_stripped_log_top[] = {
/* columns rows colors chars-per-pixel */
"32 32 7 1 ",
"  c #4E3E9F",
". c #346CAF",
"X c #464EB6",
"o c #39828A",
"O c #5D8FB7",
"+ c #67B6C2",
"@ c #9BC6D8",
/* pixels */
"+XO+OX.oOOOOOOOOOOOOOo..+++O.+++",
"O+X..oO+OOOOOOOO ..OOO+++O...++O",
"OOX.O+++Oo..        ....OOOOOXOO",
"Oo.++++o.ooOOOo OOO++++OooOOOO O",
"X.++++..oOOOOOo OOO++++++O.XOOO ",
"X++++.o+OOOoo.+@@@o.X.o++++XXOOO",
"o+++.O++O..OOX+@@@++oXX..+++XXOO",
"+++.O++o++XOOXX..O++++XX..+++..o",
"@@oO++o+++XO@@@+.++X++OX.o.O+O..",
"@@.OO.+++X+@@@@+X++OXOOO.o..OOO.",
"...O.+++o++@@XXXX.OO.XOOo.o.oOOX",
"X.OOo++.+++  .ooO  oo.oOOoooooOO",
"XoO.OO.OOOXO+.oOOO Xo.XOO.oX .OO",
".oo..oOOOX@@+X .OOo    OO. X@ Oo",
"XOOo.oOOXX@@ @@+.OO ++ oo.@@@ oo",
"XOOo.oo.X.++ +.@ OO @@oOO.@@@Xoo",
"XOOO.OOo..++.X+@X.. @@oOOX@@@XOo",
"X...oOo.OX+++.XXOOXX++oOOX@++XOo",
"Xoo.OOoOO.X++++OOOX++ooooX+++XO.",
"Xoo.OO.OO..Xo++OOX+++.OOoX+O+XO.",
"XOo.oo.ooX..XX..o+++..OO.o+o+.O.",
".OOXOO.ooX...OOOOO+..OOoXOOOoXOO",
".++XOO.OOoX.XOOOOo..++OX.OOOXXXX",
".++O++.oOOo.XXXX...+++XXO+Oo...X",
"X++O++O.O++X.++++++++XX+++oX...X",
"Xo@@.++Oo+@@X++++++...O+++XX...o",
"X.@@X+++o.@@X XXXX.oOOO++XXoo.XO",
"XX   .+++o.XX.ooooooooOO.XOOoX++",
"OXX  ..++@@...ooooooooo..OOO.+++",
"OO ....XO@@@@@X.ooooo..oOOO.+++.",
"OOO  XX.XXO@@@X......++OOO++++..",
"XO++OXoo.oXXXXX.oOOOO+OO+++++.++"
};
