/* XPM */
static char *warped_planks[] = {
/* columns rows colors chars-per-pixel */
"32 32 9 1 ",
"  c #3879AC",
". c #4E5B86",
"X c #4E67B9",
"o c #39828A",
"O c #57AB96",
"+ c #4B88A1",
"@ c #5D8FB7",
"# c #53A0BA",
"$ c #67B6C2",
/* pixels */
"$$OOOO#O##@#@####OOOOOOOO#OO$$$@",
"$###@+++++ooo++oooooo++++++@#$$@",
"O##@@@+++oooo+++oooooo++++@@##O@",
"$###@+++++oo+++ooooo++@++++@@##@",
"$O##@@@@@++oo@@@+++++++@@@@@##$@",
"$$OOOOOOOOOOOOOOOO$$$$$$$O$$$O# ",
".++oooX+XXo+ Xo++++ ++oooXX+++o.",
" #OOOOXOOOOO OOOOO@ OOOOOOXOOOO@",
" O@@@O O@@@# O@#@@# O@@@@O O@@oO",
" Oo@oO #@o@#X#o@o@# #oooo# #@@oO",
" #ooo# # o @X@ooo # @ooo # # o @",
"X@o o# @   @.@o o #X@o o # @   @",
" +   #X@   +.+    #X+    # @   +",
"X+   #X@   +.+    #.+    # @   +",
".+   @X@   +.+    @.+    @ @   +",
".+   @.+   +.+    @.+    @X+   +",
".+   @.@o o+.+    +.+    @X@o o+",
".+   @.+ooo+.+    +.+    @X+ooo+",
".+   +.@ooo+.+    +X+    +.@ooo+",
".+o o+.@ o @.+o o +X+o o +.@ o @",
".@ooo@.@   @X+oooo@X@oooo@.@   @",
"X#@oo@.#@ o@X#@ooo@ #@ooo@X#@ oO",
"XO#@@O.O#@@@ O#@@@O O#@@@O O#O@O",
"XOOOOO.OOOOO #OOOOO O#OOOO O#OOO",
"  XXX.. X.......XX    XXXX      ",
" $O#@@+++++@@@@@@@@+++#######$$#",
"@$#@@@o        ooo      oooo@@@O",
"@$@@@oooo      oo     oooooooo@O",
"@O#@@@oo      ooo       ooooo@@@",
"@$@@@oooo      ooo     ooooooo@#",
"@#$$#@@@@++++++++@@@@@@@##@#O$$#",
"     X  XXXXXXXXXXXXXXXXXXXX    "
};
