/* XPM */
static char *white_concrete[] = {
/* columns rows colors chars-per-pixel */
"32 32 5 1 ",
"  c #D7E0D6",
". c #E2E8DC",
"X c #EDF2E4",
"o c #F4F8E9",
"O c #FAFDED",
/* pixels */
"XXXXXXXXXXXXXXXXXXXXXoOOOOOooooo",
"XXXXXXXXXXXXXXXXXXXXXoOOOOOooooo",
"oOOoXXXX.........XXXXXXoooooXXXX",
"oOOoXXX...XXXXXXXXXXXX.oooooX..X",
"XoOOoXXX...XXXXXXX...  XXXXXXX.X",
"XoOOoXXXXXXXXXXXXXX..  ......   ",
"ooooXXXXXXXXXXXX.XX..........   ",
"ooooXXXXXXXXX..  XX.XXXXXXXXXXXX",
"XX.........       .XXXXXXXXXXXXX",
"XXXXX...XXXXXXoOOOOOOooXXXXXXXXX",
"XXXXXX...XXXXXoOOOOOOooXXXXXXXXX",
"....X...XXXXXXXoOOOoooooXXXXXXXX",
"....XXXXXXXXXXXoOOOoooooXXXXXXXX",
"...  . ..X.XXXoooooooXXXXXXXXXXX",
".XXXXXXXXXXXXXoooooooXXXXXXXXXXX",
".XXXXXXXXXXXXXXXXXXXXXXXXXXXXXXX",
"XXXXXXXXXXXXXX..XXXXXXXXXXXXXOOo",
"XXXXXXXXXXXXXX.XXXXXX.XXXXXXXOOo",
"oXXXXXXXXXXX...XXXX..XXXXXXXoooo",
"oXXXXXXXXXXXXX...   .XXXXXXXoooo",
"XXoOOOoooXXXXXXXXX...XXXXXXXXXXX",
"XXoOOOoooXXXXXXXXXX...XXXX.X....",
"ooOOOooXXXX..XXXXXXXXXXXXXXXXoOO",
"ooOOOooXXXXX...XXXXXXXXXXXXXXoOO",
"ooooooooX.....XXXXXXXXXXXX...XXX",
"ooooooooXX...XXXXXXXXXXXX...XXXX",
".      ............XXXXXXX...XXX",
"XXX..   XXXXXXXXXXXXXXXXXX.XXXXX",
"XXX.XXXoooXooXXXXXXXXXXXX..XXXXX",
"XXXXXXXoooXooXXXXX.......  .XXXX",
"XXXXXXXXOOoXXXXXXXX......  .XXXX",
"XXXXXXXXOOoXXXXXX......XXXXXXXXX"
};
