/* XPM */
static char *yellow_terracotta[] = {
/* columns rows colors chars-per-pixel */
"32 32 7 1 ",
"  c #C67A5D",
". c #C28A3E",
"X c #C6944E",
"o c #D8AA5F",
"O c #CBA46A",
"+ c #F0B96C",
"@ c #FFC646",
/* pixels */
"OOo+++@@@@@@@@++++ooOOOO.......O",
"OO....Oooooooooooooo@@++@@@@@@+o",
"OOooOOOOooooooooooooo+++@@oooooO",
"OOOOOOOooooooooooOOOoooo@@@ooooo",
"ooOOOOooooooooooOOOooooooooooooo",
"oooOOOOooooooooooOOOOooooooooooo",
"ooOOOOooooooooooOOOOoooooooooooo",
"ooooOoooooooooooo.   ....OOOOooo",
"OOOOO.........     .OOo++@@@@+oo",
"@@@@@@@@@@@@@++++o++@@oooo@@@@@@",
"oo++++oooooOOOoOOOOOOoooo@@@oooo",
"ooo++++oooooooooOOOOoooooo+++ooo",
"oo+++ooooooooooOOOOOooooo+++oooo",
"ooooooooooooooooOOOOOooooooooooo",
"oooooooooooooooOOOOOoooooOXXOOoo",
"     XXOOOOooooooOOOOXX...  ... ",
"@@@oOOXX   ..XXXXX.      ..XX.o+",
"o@@@@@@@+++oooo++@@@@@@@@++oOOOO",
"@@@ooo+++oooooooooooooooooOOOOOo",
"o@@@oo++++oooooooooooooooooOoOOO",
"@@@oo++++oooooooooooooooooOOoOOo",
"oOOOOOOo++oooooooooooooooooOOOOo",
"ooooooooooooooooooooooooooooOOOO",
"            ..OOOOooOO..        ",
"OOOOo+@@@@@@@++o+oooo++@@@@@@oOO",
"OOo@@+ooooooooooooooooooooo+@@++",
"oOOOOOoooooooooooooooooooooooooo",
"OOOOOooooOOOoooooooooooooooooooo",
"OOOOOOOOOOOooooooooooooooooooooo",
"OOOOooooOOOOOOooooooooooooooooOO",
".........OOOoooooooooooooooooO..",
"......    ...OOOOOOOOO....    .."
};
